<svg id="Layer_1" data-name="Layer 1" xmlns="http://www.w3.org/2000/svg" viewBox="0 0 705.82423 201.56404"><defs><style>.cls-1{fill:none;}.cls-2{fill:#f7941d;}.cls-3{fill:#1db14b;}</style></defs><title>Logo HK</title><path class="cls-1" d="M560.30372,51.46694a27.09311,27.09311,0,0,0-21.02966,9.54151,32.41779,32.41779,0,0,0-6.43706,10.3759,33.20329,33.20329,0,0,0-2.08543,11.76488A31.80418,31.80418,0,0,0,539.36735,105.29v-.09228a27.92027,27.92027,0,0,0,41.87259,0q8.89364-9.72708,8.89363-22.04851a31.90969,31.90969,0,0,0-8.89363-22.14078Q572.34651,51.46787,560.30372,51.46694Z"/><path class="cls-1" d="M683.33549,63.92642a34.10683,34.10683,0,0,0-5.92909-6.16029,25.68156,25.68156,0,0,0-17.1384-6.29919,26.77012,26.77012,0,0,0-17.23156,6.48469A36.76851,36.76851,0,0,0,632.38458,70.921h55.11987A37.14906,37.14906,0,0,0,683.33549,63.92642Z"/><path class="cls-1" d="M149.34152,87.31823q-3.24319.1864-6.85566.32443-3.61346.13846-7.086.509-3.47635.37148-6.62364.97322a27.5929,27.5929,0,0,0-5.37339,1.528,20.76434,20.76434,0,0,0-4.12326,2.50123,19.2975,19.2975,0,0,0-3.2881,3.24236,17.40033,17.40033,0,0,0-2.22428,3.61333,9.12688,9.12688,0,0,0,1.252,9.63382,12.85774,12.85774,0,0,0,5.32593,3.33555,27.98045,27.98045,0,0,0,7.08781,1.38905q3.84077.27829,7.36377.27785a47.40161,47.40161,0,0,0,9.49489-.83345,40.87123,40.87123,0,0,0,6.81009-1.94559,22.56845,22.56845,0,0,0,4.44682-2.26911,29.84315,29.84315,0,0,0,2.40884-1.80667A5.38371,5.38371,0,0,0,160.273,103.53V86.48391a24.54375,24.54375,0,0,1-4.81782.55651Q152.582,87.13365,149.34152,87.31823Z"/><path class="cls-2" d="M44.00372,36.18185A36.73327,36.73327,0,0,0,28.06987,39.5631a36.471,36.471,0,0,0-12.783,10.42161V2.27524H0V127.98643H15.28688V83.14923a35.64044,35.64044,0,0,1,8.42933-22.14078,25.61757,25.61757,0,0,1,20.28751-9.54151q11.48709,0,17.88041,9.07823,6.57437,9.35823,6.576,22.60406v44.8372H83.74531V82.4081q0-18.52739-10.745-32.33111Q61.97364,36.18144,44.00372,36.18185Z"/><path class="cls-2" d="M179.44819,114.76747a8.40365,8.40365,0,0,1-2.68576-.67707,1.97443,1.97443,0,0,1-1.20445-1.66676V60.26724a14.71137,14.71137,0,0,0-1.66652-6.90136,22.03571,22.03571,0,0,0-4.5405-5.88237,32.87391,32.87391,0,0,0-6.66907-4.77128A53.43886,53.43886,0,0,0,145.91258,36.923a52.352,52.352,0,0,0-8.61393-.74115,59.3066,59.3066,0,0,0-13.75715,1.57466,39.60747,39.60747,0,0,0-11.951,4.9102,32.2512,32.2512,0,0,0-9.124,8.61468,31.34474,31.34474,0,0,0-5.18878,12.784l14.63772,3.15007a22.89771,22.89771,0,0,1,4.63161-8.19818,22.23132,22.23132,0,0,1,6.39174-4.86364,25.08848,25.08848,0,0,1,7.55014-2.36236,54.833,54.833,0,0,1,8.10581-.60223,32.26766,32.26766,0,0,1,7.17919.88007,33.74506,33.74506,0,0,1,7.042,2.40892,19.69515,19.69515,0,0,1,5.32595,3.61262,6.31478,6.31478,0,0,1,2.13108,4.58555v5.74371a2.74681,2.74681,0,0,1-1.80769,2.40891,17.7885,17.7885,0,0,1-4.72472,1.4823,59.54391,59.54391,0,0,1-6.66907.83326q-3.753.27821-7.64326.46331-3.42715.1866-6.993.46331-3.56907.27708-6.8558.74115a58.54581,58.54581,0,0,0-6.207,1.2037,25.67716,25.67716,0,0,0-5.14123,1.85325,33.57645,33.57645,0,0,0-7.08758,4.95575,34.83231,34.83231,0,0,0-5.46512,6.30013,30.00576,30.00576,0,0,0-3.51976,7.04027,22.12777,22.12777,0,0,0-1.25051,7.17919q0,8.24649,3.288,13.43277a23.11222,23.11222,0,0,0,8.70754,8.10581,38.0394,38.0394,0,0,0,12.32192,3.98358,92.62221,92.62221,0,0,0,14.12661,1.06554,62.35343,62.35343,0,0,0,15.00717-1.62122,42.36466,42.36466,0,0,0,13.15593-5.41906,15.51714,15.51714,0,0,0,6.39123,4.95575,26.63815,26.63815,0,0,0,9.28074,2.06125v.044h.828V114.76747ZM160.273,103.52987a5.38312,5.38312,0,0,1-2.3158,4.26141,29.74769,29.74769,0,0,1-2.40892,1.80669,22.55122,22.55122,0,0,1-4.44638,2.269,40.87233,40.87233,0,0,1-6.81025,1.94561,47.39508,47.39508,0,0,1-9.495.83351q-3.52026,0-7.36391-.27784a27.975,27.975,0,0,1-7.08758-1.38918,12.85663,12.85663,0,0,1-5.32595-3.33554,9.126,9.126,0,0,1-1.252-9.63366,17.38,17.38,0,0,1,2.22419-3.61338,19.301,19.301,0,0,1,3.288-3.24243,20.77763,20.77763,0,0,1,4.1235-2.50127,27.589,27.589,0,0,1,5.3735-1.52785q3.14706-.60186,6.62352-.97318,3.47372-.3687,7.08608-.50912,3.61338-.13966,6.8558-.32439,3.24018-.1851,6.11341-.27784A24.545,24.545,0,0,0,160.273,86.484Z"/><path class="cls-2" d="M125.34746,18.65452a8.58743,8.58743,0,0,1,3.52011,1.11123l-.27771-.09228q3.42681,2.13155,5.28023,3.288a21.99251,21.99251,0,0,0,2.31568,1.34335,20.40589,20.40589,0,0,0,8.8935,2.13112q14.26439,0,20.93636-18.34282L151.56405,2.81292q-3.427,7.78188-6.02049,7.78142-2.133,0-7.78236-3.52014-6.57963-4.07529-12.41374-4.07578a21.18127,21.18127,0,0,0-5.23453.64791,19.01149,19.01149,0,0,0-4.67707,1.85328Q108.856,9.29942,104.9668,20.97021l14.45158,5.65127Q122.56835,18.65452,125.34746,18.65452Z"/><path class="cls-2" d="M468.86192,36.18185a34.84208,34.84208,0,0,0-28.71684,13.80286V2.27524H424.8582V34.35365l2.595,2.99966-2.595,1.95486v88.67826h15.28688V83.14923a35.64044,35.64044,0,0,1,8.42933-22.14078,25.61758,25.61758,0,0,1,20.28751-9.54151q11.48709,0,17.88041,9.07823,6.57417,9.35823,6.57606,22.60406v44.8372h15.28512V82.4081q0-18.52739-10.74515-32.33111Q486.83192,36.18144,468.86192,36.18185Z"/><polygon class="cls-2" points="424.858 34.354 424.858 39.308 427.453 37.353 424.858 34.354"/><path class="cls-2" d="M560.30372,36.18185q-18.62061,0-31.86783,14.08064a51.30684,51.30684,0,0,0-9.77275,15.23939,46.49018,46.49018,0,0,0-3.28985,17.64735q0,18.43559,13.0626,32.609Q541.49666,129.932,560.30372,129.932q18.34094,0,31.68138-13.98832A52.36694,52.36694,0,0,0,602.03744,100.612a44.90786,44.90786,0,0,0,3.38126-17.4628q0-18.43416-13.154-32.70124Q579.10807,36.18235,560.30372,36.18185Zm20.93622,69.01589a27.92027,27.92027,0,0,1-41.87259,0V105.29a31.80418,31.80418,0,0,1-8.61578-22.14079A33.20329,33.20329,0,0,1,532.837,71.38435a32.41779,32.41779,0,0,1,6.43706-10.3759,27.09311,27.09311,0,0,1,21.02966-9.54151q12.04077,0,20.93622,9.54151a31.90969,31.90969,0,0,1,8.89363,22.14078Q590.13357,95.47121,581.23994,105.19774Z"/><path class="cls-2" d="M604.71194,33.25145a41.70882,41.70882,0,0,1-5.00732,8.06329l6.84143,6.49507a27.6631,27.6631,0,0,0,6.96124-7.91267,31.49765,31.49765,0,0,0,3.8122-10.25259,30.39823,30.39823,0,0,0-4.7056-21.9891,11.57423,11.57423,0,0,0-8.1942-5.40586,12.66645,12.66645,0,0,0-9.56655,1.57361,14.10123,14.10123,0,0,0-4.95421,5.09221,12.81024,12.81024,0,0,0-1.61513,6.59288q.23055,1.895.63338,3.6791a10.03909,10.03909,0,0,0,1.26813,3.16337,13.9697,13.9697,0,0,0,4.53069,4.34817,11.967,11.967,0,0,0,10.96157,1.02652A9.60557,9.60557,0,0,1,604.71194,33.25145Z"/><path class="cls-1" d="M683.33549,63.92642a34.10683,34.10683,0,0,0-5.92909-6.16029,25.68156,25.68156,0,0,0-17.1384-6.29919,26.77012,26.77012,0,0,0-17.23156,6.48469A36.76851,36.76851,0,0,0,632.38458,70.921h55.11987A37.14906,37.14906,0,0,0,683.33549,63.92642Z"/><path class="cls-2" d="M677.68412,109.1812a31.60066,31.60066,0,0,1-17.41612,5.46486q-12.04361,0-20.93636-9.17054h.09329q-8.43034-8.80035-9.35793-19.17624h75.316q0-21.67746-13.154-35.94451-13.0634-14.17243-31.961-14.17292-18.53022,0-31.961,14.08064-13.52689,14.36024-13.525,32.88674,0,18.34236,13.34031,32.70125Q641.36954,129.93388,660.268,129.932a45.11919,45.11919,0,0,0,27.05-9.0791,51.90153,51.90153,0,0,0,18.50622-23.47954H689.04847A35.2129,35.2129,0,0,1,677.68412,109.1812ZM643.03644,57.95163A26.77012,26.77012,0,0,1,660.268,51.46694a25.68156,25.68156,0,0,1,17.1384,6.29919,34.10683,34.10683,0,0,1,5.92909,6.16029,37.14906,37.14906,0,0,1,4.169,6.99458H632.38458A36.76851,36.76851,0,0,1,643.03644,57.95163Z"/><path class="cls-3" d="M338.75556.64549c-1.29117,4.52909-2.419,9.10592-3.8752,13.58881-1.925,5.928-3.83755,11.88525-6.29757,17.541-6.18731,14.22667-12.65714,28.27322-22.2863,40.30482-2.45292,3.06508-5.20391,5.74566-7.76122,8.64553a36.44563,36.44563,0,0,1-11.0635,8.05733,26.14055,26.14055,0,0,1-16.00215,2.9396c-7.12832-1.05044-13.22319-4.93244-18.89688-9.53015-3.13441-2.54-5.89949-5.6232-8.859-8.37813-4.20867-3.91736-8.24712-8.06885-12.65308-11.75761-6.66137-5.57676-13.86816-9.842-22.02588-12.03357-1.71878-.46181-3.3521-1.41665-5.088-1.52272-5.14811-.31421-10.27209-1.2826-15.4671-.61833-2.87726.36824-5.78879.42158-8.68521.61661.40213.8381.75026,1.25827,1.32262,1.20535a15.09486,15.09486,0,0,1,7.12472,1.56116c12.90392,5.3566,23.19676,14.0511,29.4587,27.87245a49.71937,49.71937,0,0,1,3.87971,13.03406,100.71692,100.71692,0,0,1,1.372,14.87424c.06539,7.33682-1.39026,14.38085-2.90657,21.411A86.251,86.251,0,0,1,216.84,138.4402a90.38125,90.38125,0,0,1-12.49165,23.9761c-3.3406,4.54462-7.14478,8.68379-10.76148,12.984-2.23556,2.65736-5.131,4.409-7.72323,6.57416a71.34831,71.34831,0,0,1-6.6501,5.06851,103.18585,103.18585,0,0,1-18.14605,9.06c-5.13334,2.06-10.36826,3.95191-15.93586,4.21678-.47033.02249-1.40142-.376-1.37515.57552.0239.86034.88768.54816,1.4207.56966a93.20408,93.20408,0,0,0,13.57854-.34181c7.12426-.7515,14.29227-.99358,21.31067-2.76466,4.28557-1.08106,8.6098-1.92693,12.8922-3.0859,5.49466-1.48754,10.93656-3.1119,16.28151-5.08748a186.43746,186.43746,0,0,0,39.685-20.53657,190.10223,190.10223,0,0,0,27.82379-22.9049,204.49463,204.49463,0,0,0,20.86549-24.42331A217.661,217.661,0,0,0,314.2,95.79353a212.46758,212.46758,0,0,0,15.68829-38.41676A227.41959,227.41959,0,0,0,336.03162,32.328c.88408-4.89782,1.37742-9.85028,2.122-14.76559.865-5.7108.96773-11.49521,1.42341-17.56241C339.077.383,338.80426.47616,338.75556.64549Z"/><path class="cls-3" d="M268.97224,21.69369a29.44851,29.44851,0,0,0-4.92519,7.821q-.14387.259-.28937.51642c-3.60554,6.35291-6.16376,13.09976-6.26883,20.47264-.17205,12.0664,5.414,21.6757,13.40506,30.19048.928.98915,1.38525.39189,1.86873-.21144.82068-1.02474,1.568-2.11307,2.2899-3.21193a43.52486,43.52486,0,0,0,7.26883-26.78956,73.81674,73.81674,0,0,0-1.80579-12.21206c6.34388,15.8574,4.91887,30.8184-5.49309,44.7961,4.051-1.8921,8.02943-3.48442,11.38113-6.31811a24.0397,24.0397,0,0,0,7.5928-10.15269c2.23031-6.13539,1.32551-12.2417-.21277-18.26213-2.04794-8.01492-5.35325-15.65224-7.39557-23.68179a45.719,45.719,0,0,1-1.61937-15.121c.18611-2.26216.88982-4.42883,1.22126-6.68581a1.20987,1.20987,0,0,0-1.02033.51737A194.78093,194.78093,0,0,0,269.34424,21.248Q269.15819,21.46836,268.97224,21.69369Z"/><path class="cls-2" d="M366.97124,83.18724q1.48455-1.11323,2.78537-2.13659,1.29982-1.01936,2.59965-2.041l29.90421,49.21959h18.29465q-8.6347-14.11559-17.73748-29.25367-9.10253-15.13532-17.82959-29.347L415.077,46.50582,404.95373,34.80315q-9.19338,6.96694-18.94544,14.30057-9.7513,7.33825-19.037,14.30257V2.20569H351.46146V128.22927h15.50978Z"/></svg>