<svg xmlns="http://www.w3.org/2000/svg" viewBox="0 0 512 341.34"><defs><style>.cls-1{fill:#f0f0f0;}.cls-2{fill:#d80027;}.cls-3{fill:#0052b4;}</style></defs><title>Asset 1</title><g id="Layer_2" data-name="Layer 2"><g id="Capa_1" data-name="Capa 1"><rect class="cls-1" width="512" height="341.34"/><polygon class="cls-2" points="288 0 224 0 224 138.67 0 138.67 0 202.67 224 202.67 224 341.33 288 341.33 288 202.67 512 202.67 512 138.67 288 138.67 288 0"/><polygon class="cls-3" points="393.79 230.03 512 295.7 512 230.03 393.79 230.03"/><polygon class="cls-3" points="311.65 230.03 512 341.33 512 309.86 368.31 230.03 311.65 230.03"/><polygon class="cls-3" points="458.63 341.33 311.65 259.67 311.65 341.33 458.63 341.33"/><polygon class="cls-1" points="311.65 230.03 512 341.33 512 309.86 368.31 230.03 311.65 230.03"/><polygon class="cls-2" points="311.65 230.03 512 341.33 512 309.86 368.31 230.03 311.65 230.03"/><polygon class="cls-3" points="90.34 230.03 0 280.22 0 230.03 90.34 230.03"/><polygon class="cls-3" points="200.35 244.18 200.35 341.33 25.49 341.33 200.35 244.18"/><polygon class="cls-2" points="143.69 230.03 0 309.86 0 341.33 0 341.33 200.35 230.03 143.69 230.03"/><polygon class="cls-3" points="118.22 111.3 0 45.63 0 111.3 118.22 111.3"/><polygon class="cls-3" points="200.35 111.3 0 0 0 31.47 143.69 111.3 200.35 111.3"/><polygon class="cls-3" points="53.37 0 200.35 81.66 200.35 0 53.37 0"/><polygon class="cls-1" points="200.35 111.3 0 0 0 31.47 143.69 111.3 200.35 111.3"/><polygon class="cls-2" points="200.35 111.3 0 0 0 31.47 143.69 111.3 200.35 111.3"/><polygon class="cls-3" points="421.66 111.31 512 61.12 512 111.31 421.66 111.31"/><polygon class="cls-3" points="311.65 97.15 311.65 0 486.51 0 311.65 97.15"/><polygon class="cls-2" points="368.31 111.3 512 31.47 512 0 512 0 311.65 111.3 368.31 111.3"/></g></g></svg>