<?xml version="1.0" encoding="utf-8"?>
<!-- Generator: Adobe Illustrator 16.0.3, SVG Export Plug-In . SVG Version: 6.00 Build 0)  -->
<!DOCTYPE svg PUBLIC "-//W3C//DTD SVG 1.1//EN" "http://www.w3.org/Graphics/SVG/1.1/DTD/svg11.dtd">
<svg version="1.1" id="Layer_1_copy" xmlns="http://www.w3.org/2000/svg" xmlns:xlink="http://www.w3.org/1999/xlink" x="0px"
	 y="0px" width="518.74px" height="199.78px" viewBox="0 0 518.74 199.78" enable-background="new 0 0 518.74 199.78"
	 xml:space="preserve">
<g>
	<g>
		<path fill="#AB1E34" d="M244.83,58.667h22.282c24.961,0,47.014,8.409,47.014,40.742c0,32.351-22.053,40.769-47.014,40.769H244.83
			V58.667z M261.16,127.359h9.082c13.68,0,26.834-10.218,26.834-27.95c0-17.737-13.154-27.896-26.834-27.896h-9.082V127.359z"/>
		<path fill="#AB1E34" d="M322.613,58.667h16.34v35.032l29.424-35.032h20.064l-33.504,38.441l34.902,43.069h-21.352l-29.303-37.838
			h-0.232v37.838h-16.34V58.667z"/>
		<path fill="#AB1E34" d="M438.4,73.621c-5.146-2.225-10.861-3.507-16.58-3.507c-5.598,0-12.826,2.448-12.826,11.33
			c0,14.118,35.701,8.167,35.701,35.474c0,17.881-14.123,24.645-30.582,24.645c-8.863,0-12.832-1.161-20.883-3.141l1.512-14.694
			c5.602,3.038,12.027,4.985,18.441,4.985c6.184,0,14.477-3.167,14.477-10.517c0-15.485-35.721-9.083-35.721-36.06
			c0-18.211,14.127-24.863,28.482-24.863c7.006,0,13.537,0.938,19.502,2.922L438.4,73.621z"/>
		<path fill="#AB1E34" d="M453.371,58.667h16.348V91.6h32.688V58.667h16.334v81.511h-16.334v-35.725h-32.688v35.725h-16.348V58.667z
			"/>
	</g>
	<g id="neu02_3_">
		<path fill="#AB1E34" d="M110.207,64.377c4.879-11.495,11.777-20.364,19.292-24.35c7.935-4.217,15.807-0.634,18.935,1.032
			c1.085,0.572,0.929,1.193-0.054,1.881c-17.692,12.367-26.194,31.436-31.431,48.359C115.988,81.569,113.584,72.339,110.207,64.377"
			/>
		<path fill="#AB1E34" d="M117.374,97.89c14.712-25.39,39.508-41.054,54.287-38.928c7.604,1.028,11.711,7.471,13.238,10.294
			c0.594,1.068,0.215,1.555-0.982,1.617c-5.451,0.26-10.861,1.564-16.115,3.602l-8.641-5.965l3.672,8.109
			c-4.338,2.077-8.538,4.593-12.541,7.35l-9.597-4.75l5.308,7.842c-9.172,6.947-17.071,14.846-22.821,21.074
			c-1.926,1.957-3.485,1.921-6.21,1.465C117.36,105.668,117.48,101.764,117.374,97.89"/>
		<path fill="#AB1E34" d="M110.207,142.094c-0.036-1.63,1.39-3.122,3.646-4.749c7.667-5.174,13.431-7.318,17.139-3.578
			c0.697,0.701,2.332,1.836,4.379,1.688c7.89-0.59,18.505-1.483,28.941-1.045l0.43-9.36l4.735,9.686
			c4.735,0.425,9.333,1.193,13.511,2.467l2.18-9.065l3.057,11.054c3.271,1.527,6.125,3.493,8.386,6
			c0.796,0.902,1.39,0.729,1.935-0.362c1.131-2.287,3.047-7.559,1.287-12.335c-5.844-15.839-59.467-23.751-87.863,4.244
			c0.179-0.59,1.385-3.748,2.412-5.728c5.196-10.142,12.671-16.87,18.215-12.97c0.791,0.603,2.364,0.951,4.143,0.12
			c6.549-2.662,14.672-6.165,23.304-8.828l-1.448-9.275l6.394,7.846c5.304-1.376,10.71-2.354,15.981-2.587l-0.75-9.454l6.228,9.512
			c4.735,0.286,9.302,1.341,13.497,3.383c1.086,0.531,1.604,0.201,1.64-1.023c0.099-2.886-0.241-9.489-5.04-13.653
			c-14.122-12.6-62.566-4.119-82.828,33.535c-2.636,4.829-4.302,12.482-4.302,12.482c-6.756-4.499-15.61-10.338-20.342-6.276
			c-0.751,0.647-2.328,1.845-4.374,1.688c-7.783-0.576-18.211-1.452-28.518-1.063l-0.42-9.275l-4.678,9.584
			c-4.763,0.393-9.396,1.144-13.618,2.386l-2.136-8.864l-2.967,10.728c-3.484,1.555-6.532,3.605-8.904,6.245
			c-0.8,0.898-1.389,0.72-1.935-0.361c-1.125-2.292-3.047-7.582-1.286-12.34c5.656-15.36,52.21-25.207,88.297,4.7
			c-2.016-5.286-15.133-22.214-21.459-18.162c-0.813,0.527-2.368,0.867-4.138,0.121c-6.527-2.743-14.623-6.229-23.223-8.892
			l1.448-9.266l-6.407,7.846c0,0-7.47-2.158-15.968-2.609l0.755-9.454l-6.224,9.499c-4.771,0.295-9.359,1.331-13.586,3.396
			c-1.086,0.522-1.604,0.205-1.645-1.019c-0.098-2.887,0.246-9.481,5.044-13.654c13.502-12.054,65.239-1.47,86.336,39.79
			c-0.354-12.576-7.082-29.076-12.733-27.253c-0.93,0.299-2.153-0.019-3.373-1.39c-12.81-13.832-32.414-34.165-56.861-35.327
			c-1.198-0.063-1.577-0.549-0.992-1.617c1.528-2.823,5.639-9.266,13.251-10.294c19.819-2.85,51.742,24.408,61.441,64.247
			c5.004-9.182,3.069-20.096-2.27-21.754c-0.947-0.29-1.662-0.656-2.181-2.39c-2.515-8.229-5.102-17.094-9.141-25.797l7.211-4.683
			l-9.534,0.018c-2.02-3.793-4.37-7.532-7.167-11.143l6.889-5.906l-10.414,1.693c-3.284-3.623-7.091-7.091-11.559-10.308
			c-0.974-0.705-1.135-1.309-0.053-1.881c3.127-1.666,10.995-5.249,18.943-1.032c7.501,3.985,14.404,12.854,19.283,24.35V0.001
			C49.337,0.001,0,44.696,0,99.869c0,55.105,49.337,99.913,110.207,99.913V142.094z"/>
	</g>
</g>
</svg>
