<svg id="Layer_1" data-name="Layer 1" xmlns="http://www.w3.org/2000/svg" viewBox="0 0 358.32522 115.09683"><defs><style>.cls-1{fill:#00205c;}.cls-2{fill:#007cba;}</style></defs><title>logo web tai tro</title><g id="_Group_" data-name="&lt;Group&gt;"><path id="_Path_" data-name="&lt;Path&gt;" class="cls-1" d="M55.96338,12.66948a.72634.72634,0,0,0-.90739-.46231C30.47027,19.91628,17.91668,28.4716,17.7426,37.635c-.10676,5.63484,4.35669,11.22247,13.26635,16.60809a82.82762,82.82762,0,0,0,13.23146,6.34844.74492.74492,0,0,0,.24388.04188.728.728,0,0,0,.287-1.39681c-14.361-6.16408-21.53714-12.81676-21.329-19.77328C23.871,25.14506,55.2038,13.70005,55.52,13.58632A.72758.72758,0,0,0,55.96338,12.66948Z"/><path id="_Path_2" data-name="&lt;Path&gt;" class="cls-1" d="M34.84092,54.838a.72782.72782,0,0,0-.55264,1.3459C48.78022,62.66744,55.94819,69.46587,55.59262,76.39c-.72468,14.12406-32.2895,24.67851-32.60811,24.78362a.728.728,0,0,0,.42619,1.39188c24.77787-7.03493,37.52854-15.18829,37.89847-24.23508C61.84991,65.10876,35.94375,55.25107,34.84092,54.838Z"/><path id="_Path_3" data-name="&lt;Path&gt;" class="cls-2" d="M23.60244,16.90013a.72782.72782,0,0,0-.55265,1.3459c14.49195,6.48352,21.6595,13.28154,21.30394,20.206C43.62905,52.57489,12.06464,63.12893,11.746,63.234a.728.728,0,0,0,.42618,1.39188c24.77706-7.03452,37.52772-15.18748,37.89766-24.233C50.611,27.17087,24.70527,17.31318,23.60244,16.90013Z"/><path id="_Path_4" data-name="&lt;Path&gt;" class="cls-2" d="M66.78307,47.33626a.72634.72634,0,0,0-.90739-.46232C41.292,54.58182,28.73884,63.13632,28.56475,72.2989c-.10716,5.63484,4.3567,11.22288,13.26676,16.60891a82.84166,82.84166,0,0,0,13.23187,6.34844.7276.7276,0,0,0,.53088-1.35411C41.23247,87.73765,34.05589,81.08538,34.26364,74.12846c.42865-14.317,31.75985-25.76164,32.076-25.87537A.72757.72757,0,0,0,66.78307,47.33626Z"/><path id="_Path_5" data-name="&lt;Path&gt;" class="cls-2" d="M62.52105,34.71288c1.30083,3.06074.14126,6.27037-3.40219,7.62838-2.90018,1.20834-5.43288-1.41349-6.05008-3.41056-.6046-3.07,2.78749-5.19327,6.42428-5.82895a2.9737,2.9737,0,0,1,3.028,1.61113"/><path id="_Compound_Path_" data-name="&lt;Compound Path&gt;" class="cls-1" d="M147.67135,50.96694c0,3.61832-.99139,5.15708-4.666,5.15708h-19.589s-.01009-11.99252,0-11.99082c.02018-3.32906,1.59514-5.07805,5.96685-5.07805h13.62216c3.6267,0,4.70386,1.52363,4.666,5.04186v6.86993m5.80793-17.5221H105.89251V77.20732h17.52382V61.752l30.06295-.00257c7.32822,0,11.70411-1.64135,11.70411-8.85689V42.30092C165.18339,35.024,160.8075,33.44484,153.47928,33.44484Z"/><rect id="_Path_6" data-name="&lt;Path&gt;" class="cls-1" x="79.7102" y="33.44484" width="17.52718" height="43.76165"/><path id="_Path_7" data-name="&lt;Path&gt;" class="cls-1" d="M225.97106,68.08719c0,4.89133-1.4093,9.12013-11.4401,9.12013H174.56253v-5.6465H204.2664c2.54449,0,4.19262-1.52619,4.19262-4.0059V62.53569c0-3.287-1.41605-4.68111-4.423-4.68111H180.78666c-7.82348,0-10.15691-3.84111-10.15691-8.5021l-.01008-7.97235c.02689-4.80387,3.72673-7.93529,10.17456-7.93529H219.4627s-.42885,5.6078-7.37194,5.6078H192.65813c-3.683,0-4.5323,2.11476-4.5323,4.52473v4.13457c0,2.62435,1.04774,4.52812,4.31367,4.52812l22.55731-.01181c8.72574,0,10.97425,3.38034,10.97425,9.63562v6.22332"/><path id="_Path_8" data-name="&lt;Path&gt;" class="cls-1" d="M231.36358,77.13834V33.37586h47.81717v5.67678h-25.6719c-2.93213,0-4.57772,1.06787-4.57772,4.592V52.2434h25.1018s-.43557,5.61369-7.37951,5.61369H248.93113v9.02257c0,3.48123,1.72127,4.60382,4.39273,4.60382h25.85689v5.65486H231.36358"/><path id="_Path_9" data-name="&lt;Path&gt;" class="cls-1" d="M329.83166,77.20732c-4.18251,0-7.2702-1.74734-10.42515-5.306-2.288-2.5798-26.27481-30.11335-26.27481-30.11335h-.2346V77.20732h-8.06062V33.44484H300.946a9.75294,9.75294,0,0,1,7.97065,3.28359c2.17619,2.53694,27.29478,31.45458,27.29478,31.45458h.24216V33.44484h8.13884V77.20732H329.83166"/><path id="_Path_10" data-name="&lt;Path&gt;" class="cls-1" d="M81.65514,100.69037a1.06279,1.06279,0,0,1-2.124,0V86.98161a1.06272,1.06272,0,0,1,2.124,0v13.70876"/><path id="_Path_11" data-name="&lt;Path&gt;" class="cls-1" d="M84.57886,90.89755a1.06366,1.06366,0,0,1,2.12573,0V91.355l.04877.04373A4.60288,4.60288,0,0,1,90.30521,89.875a4.19517,4.19517,0,0,1,4.46842,4.39612v6.41921a1.0641,1.0641,0,0,1-2.12658,0v-6.3099a2.97375,2.97375,0,0,0-5.94246,0v6.3099a1.06366,1.06366,0,0,1-2.12573,0V90.89755"/><path id="_Path_12" data-name="&lt;Path&gt;" class="cls-1" d="M97.69651,90.89755a1.06366,1.06366,0,0,1,2.12573,0V91.355l.04877.04373a4.6006,4.6006,0,0,1,3.55017-1.52368,4.1956,4.1956,0,0,1,4.47008,4.39612v6.41921a1.06366,1.06366,0,0,1-2.12573,0v-6.3099a2.97418,2.97418,0,0,0-5.94329,0v6.3099a1.06366,1.06366,0,0,1-2.12573,0V90.89755"/><path id="_Compound_Path_2" data-name="&lt;Compound Path&gt;" class="cls-1" d="M115.91069,100.06059c2.60839,0,3.52578-2.30651,3.52578-4.26663,0-1.95838-.91739-4.26488-3.52578-4.26488-2.60924,0-3.52748,2.3065-3.52748,4.26488,0,1.96012.91824,4.26663,3.52748,4.26663m0-10.18555c3.62333,0,5.65235,2.85058,5.65235,5.91892,0,3.07-2.029,5.91892-5.65235,5.91892-3.62417,0-5.65321-2.84889-5.65321-5.91892C110.25748,92.72562,112.28652,89.875,115.91069,89.875Z"/><path id="_Path_13" data-name="&lt;Path&gt;" class="cls-1" d="M122.86808,91.55094a2.04034,2.04034,0,0,1-.21694-.7837.90031.90031,0,0,1,.96447-.8922,1.01777,1.01777,0,0,1,1.11164.74l2.92288,8.01017h.04794l2.92456-8.01017a1.01635,1.01635,0,0,1,1.10994-.74.90245.90245,0,0,1,.967.8922,2.07568,2.07568,0,0,1-.21779.7837l-3.69565,9.33707c-.21779.5642-.43473.82487-1.11163.82487-.67606,0-.89385-.26067-1.11164-.82487l-3.6948-9.33707"/><path id="_Compound_Path_3" data-name="&lt;Compound Path&gt;" class="cls-1" d="M139.4392,100.06059c2.60755,0,3.52662-2.30651,3.52662-4.26663,0-1.95838-.91907-4.26488-3.52662-4.26488-2.61008,0-3.52748,2.3065-3.52748,4.26488,0,1.96012.9174,4.26663,3.52748,4.26663m5.5321.71893a.94118.94118,0,0,1-.99139.93336.92881.92881,0,0,1-.99139-.93336v-.80808h-.04624a4.291,4.291,0,0,1-3.50308,1.74144c-3.62334,0-5.654-2.84889-5.654-5.91892,0-3.06834,2.0307-5.91892,5.654-5.91892a4.68446,4.68446,0,0,1,3.50308,1.54554h.04624v-.61049a.93021.93021,0,0,1,.99139-.93505.94262.94262,0,0,1,.99139.93505Z"/><path id="_Path_14" data-name="&lt;Path&gt;" class="cls-1" d="M148.57025,87.503a1.06367,1.06367,0,0,1,2.12574,0V90.0071h.86946c.70043,0,1.06285.30352,1.06285.82486,0,.523-.36242.82743-1.06285.82743H150.696v9.031a1.06367,1.06367,0,0,1-2.12574,0v-9.031h-.86947c-.7013,0-1.06287-.3044-1.06287-.82743,0-.52134.36157-.82486,1.06287-.82486h.86947V87.503"/><path id="_Compound_Path_4" data-name="&lt;Compound Path&gt;" class="cls-1" d="M156.4215,100.69037a1.0641,1.0641,0,0,1-2.12657,0V90.89755a1.0641,1.0641,0,0,1,2.12657,0v9.79282m-1.06454-14.733a1.18182,1.18182,0,1,1-1.30337,1.17473A1.24055,1.24055,0,0,1,155.357,85.95741Z"/><path id="_Compound_Path_5" data-name="&lt;Compound Path&gt;" class="cls-1" d="M164.44008,100.06059c2.61006,0,3.5283-2.30651,3.5283-4.26663,0-1.95838-.91824-4.26488-3.5283-4.26488-2.60756,0-3.5258,2.3065-3.5258,4.26488,0,1.96012.91824,4.26663,3.5258,4.26663m0-10.18555c3.62332,0,5.654,2.85058,5.654,5.91892,0,3.07-2.03072,5.91892-5.654,5.91892s-5.654-2.84889-5.654-5.91892C158.786,92.72562,160.81674,89.875,164.44008,89.875Z"/><path id="_Path_15" data-name="&lt;Path&gt;" class="cls-1" d="M172.45949,90.89755a1.0641,1.0641,0,0,1,2.12657,0V91.355l.04878.04373a4.6001,4.6001,0,0,1,3.54934-1.52368,4.195,4.195,0,0,1,4.46922,4.39612v6.41921a1.06321,1.06321,0,0,1-2.12487,0v-6.3099a2.97375,2.97375,0,0,0-5.94247,0v6.3099a1.0641,1.0641,0,0,1-2.12657,0V90.89755"/><path id="_Path_16" data-name="&lt;Path&gt;" class="cls-1" d="M194.54,100.69037a1.0641,1.0641,0,0,1-2.12657,0v-9.031h-.86864c-.70212,0-1.06369-.3044-1.06369-.82743,0-.52134.36157-.82486,1.06369-.82486h.86864V87.286c0-1.67585,1.279-2.50328,2.82533-2.50328h.65421c.55413,0,1.20581.3044,1.20581.82743s-.36075.82656-1.15957.82656h-.52975c-.65252,0-.86946.28253-.86946.76271V90.0071h1.32775c.6996,0,1.062.30352,1.062.82486,0,.523-.36242.82743-1.062.82743H194.54v9.031"/><path id="_Compound_Path_6" data-name="&lt;Compound Path&gt;" class="cls-1" d="M203.212,100.06059c2.60841,0,3.52578-2.30651,3.52578-4.26663,0-1.95838-.91737-4.26488-3.52578-4.26488-2.61008,0-3.5283,2.3065-3.5283,4.26488,0,1.96012.91822,4.26663,3.5283,4.26663m0-10.18555c3.6208,0,5.65152,2.85058,5.65152,5.91892,0,3.07-2.03072,5.91892-5.65152,5.91892-3.625,0-5.6532-2.84889-5.6532-5.91892C197.55875,92.72562,199.58693,89.875,203.212,89.875Z"/><path id="_Path_17" data-name="&lt;Path&gt;" class="cls-1" d="M211.23053,90.89755a1.06366,1.06366,0,0,1,2.12572,0v.97878h.04794a3.79092,3.79092,0,0,1,2.89933-2.00129c.74924,0,1.184.43558,1.184.98047,0,.54321-.43473.89051-1.32775,1.04268a3.1185,3.1185,0,0,0-2.80349,3.28785v5.50433a1.06366,1.06366,0,0,1-2.12572,0V90.89755"/><path id="_Compound_Path_7" data-name="&lt;Compound Path&gt;" class="cls-1" d="M230.6522,100.06059c2.60925,0,3.52747-2.30651,3.52747-4.26663,0-1.95838-.91822-4.26488-3.52747-4.26488-2.60839,0-3.52663,2.3065-3.52663,4.26488,0,1.96012.91824,4.26663,3.52663,4.26663m-5.43541-9.163a1.06367,1.06367,0,0,1,2.12575,0v.56676h.04875a3.61959,3.61959,0,0,1,3.42994-1.58927c3.47869,0,5.48249,2.85058,5.48249,5.91892,0,3.07-2.0038,5.91892-5.48249,5.91892a4.347,4.347,0,0,1-3.42994-1.56571h-.04875v5.11422a1.06367,1.06367,0,0,1-2.12575,0Z"/><path id="_Compound_Path_8" data-name="&lt;Compound Path&gt;" class="cls-1" d="M243.76818,100.06059c2.61007,0,3.52745-2.30651,3.52745-4.26663,0-1.95838-.91738-4.26488-3.52745-4.26488-2.60757,0-3.525,2.3065-3.525,4.26488,0,1.96012.91739,4.26663,3.525,4.26663m5.53294.71893a.94.94,0,0,1-.99056.93336.927.927,0,0,1-.98971-.93336v-.80808h-.04876a4.28922,4.28922,0,0,1-3.50391,1.74144c-3.62081,0-5.65153-2.84889-5.65153-5.91892,0-3.06834,2.03072-5.91892,5.65153-5.91892a4.67816,4.67816,0,0,1,3.50391,1.54554h.04876v-.61049a.92845.92845,0,0,1,.98971-.93505.94149.94149,0,0,1,.99056.93505Z"/><path id="_Path_18" data-name="&lt;Path&gt;" class="cls-1" d="M252.90006,87.503a1.0641,1.0641,0,0,1,2.12657,0V90.0071h.86948c.70128,0,1.06285.30352,1.06285.82486,0,.523-.36157.82743-1.06285.82743h-.86948v9.031a1.0641,1.0641,0,0,1-2.12657,0v-9.031h-.86777c-.70215,0-1.06456-.3044-1.06456-.82743,0-.52134.36241-.82486,1.06456-.82486h.86777V87.503"/><path id="_Compound_Path_9" data-name="&lt;Compound Path&gt;" class="cls-1" d="M260.75131,100.69037a1.06367,1.06367,0,0,1-2.12574,0V90.89755a1.06367,1.06367,0,0,1,2.12574,0v9.79282m-1.06287-14.733a1.182,1.182,0,1,1-1.305,1.17473A1.24,1.24,0,0,1,259.68844,85.95741Z"/><path id="_Compound_Path_10" data-name="&lt;Compound Path&gt;" class="cls-1" d="M272.08125,95.09858a3.38439,3.38439,0,0,0-3.40553-3.5695c-2.63448-.08664-3.57708,1.8062-3.64772,3.5695h7.05325M265.028,96.53393a3.474,3.474,0,0,0,3.79235,3.52666c2.82532,0,3.54931-1.56741,4.34646-1.56741a.79034.79034,0,0,1,.77277.84847c0,.93588-2.6311,2.37123-5.14364,2.37123-4.10765,0-5.8962-2.84889-5.8962-5.91892a5.67592,5.67592,0,0,1,5.776-5.91892,5.5,5.5,0,0,1,5.5321,5.63639c0,.67525-.26824,1.0225-1.18479,1.0225Z"/><path id="_Path_19" data-name="&lt;Path&gt;" class="cls-1" d="M276.35627,90.89755a1.06366,1.06366,0,0,1,2.12572,0V91.355l.04878.04373a4.59939,4.59939,0,0,1,3.55016-1.52368,4.19578,4.19578,0,0,1,4.46925,4.39612v6.41921a1.0641,1.0641,0,0,1-2.12657,0v-6.3099a2.97331,2.97331,0,0,0-5.94162,0v6.3099a1.06366,1.06366,0,0,1-2.12572,0V90.89755"/><path id="_Path_20" data-name="&lt;Path&gt;" class="cls-1" d="M290.14912,87.503a1.06367,1.06367,0,0,1,2.12574,0V90.0071h.86862c.70128,0,1.06454.30352,1.06454.82486,0,.523-.36326.82743-1.06454.82743h-.86862v9.031a1.06367,1.06367,0,0,1-2.12574,0v-9.031h-.86946c-.70212,0-1.06287-.3044-1.06287-.82743,0-.52134.36075-.82486,1.06287-.82486h.86946V87.503"/><path id="_Path_21" data-name="&lt;Path&gt;" class="cls-1" d="M307.27606,89.875c2.17366,0,3.45514.67438,3.45514,1.459a.8566.8566,0,0,1-.87113.803c-.819,0-1.13434-.60792-2.584-.60792-2.63363,0-3.6721,2.3065-3.6721,4.26488,0,1.96012,1.03847,4.26663,3.6721,4.26663,1.49676,0,1.8844-.6534,2.56045-.6534a.75327.75327,0,0,1,.82155.80557c0,.71811-1.184,1.50012-3.382,1.50012-3.9126,0-5.79784-2.84889-5.79784-5.91892,0-3.06834,1.88524-5.91892,5.79784-5.91892"/><path id="_Compound_Path_11" data-name="&lt;Compound Path&gt;" class="cls-1" d="M317.977,100.06059c2.60923,0,3.52662-2.30651,3.52662-4.26663,0-1.95838-.91739-4.26488-3.52662-4.26488-2.60839,0-3.52748,2.3065-3.52748,4.26488,0,1.96012.91909,4.26663,3.52748,4.26663m5.53212.71893a.941.941,0,0,1-.99056.93336.92814.92814,0,0,1-.99056-.93336v-.80808h-.04709a4.29256,4.29256,0,0,1-3.50391,1.74144c-3.62248,0-5.65235-2.84889-5.65235-5.91892,0-3.06834,2.02987-5.91892,5.65235-5.91892a4.68483,4.68483,0,0,1,3.50391,1.54554h.04709v-.61049a.92955.92955,0,0,1,.99056-.93505.94241.94241,0,0,1,.99056.93505Z"/><path id="_Path_22" data-name="&lt;Path&gt;" class="cls-1" d="M326.43118,90.89755a1.06453,1.06453,0,0,1,2.12741,0v.97878h.04709A3.78811,3.78811,0,0,1,331.505,89.875c.74837,0,1.18395.43558,1.18395.98047,0,.54321-.43558.89051-1.32857,1.04268a3.119,3.119,0,0,0-2.8018,3.28785v5.50433a1.06453,1.06453,0,0,1-2.12741,0V90.89755"/><path id="_Compound_Path_12" data-name="&lt;Compound Path&gt;" class="cls-1" d="M342.56756,95.09858a3.38285,3.38285,0,0,0-3.40555-3.5695c-2.63194-.08664-3.57457,1.8062-3.6477,3.5695h7.05325m-7.05325,1.43535a3.47529,3.47529,0,0,0,3.79232,3.52666c2.8262,0,3.55186-1.56741,4.349-1.56741a.79083.79083,0,0,1,.77277.84847c0,.93588-2.63361,2.37123-5.14614,2.37123-4.10514,0-5.89369-2.84889-5.89369-5.91892A5.67533,5.67533,0,0,1,339.162,89.875a5.49766,5.49766,0,0,1,5.53127,5.63639c0,.67525-.26488,1.0225-1.18309,1.0225Z"/></g></svg>