<svg xmlns="http://www.w3.org/2000/svg" viewBox="0 0 45.34 57.46"><defs><style>.cls-1{fill:#008c00;}</style></defs><title>Asset 22</title><g id="Layer_2" data-name="Layer 2"><g id="Layer_1-2" data-name="Layer 1"><path class="cls-1" d="M17.73,0a15.26,15.26,0,0,1,2.35.85A6.06,6.06,0,0,1,23.29,6c.08,1.42,0,2.84,0,4.26A6.23,6.23,0,0,1,21.8,14h1.81a6.07,6.07,0,0,1,3,.61A5.85,5.85,0,0,1,30,19.84c.06,2,0,4.07,0,6.15h7.45c0-.16,0-.32,0-.48V14.79c0-1-.44-1.45-1.42-1.45-.32,0-.44.14-.57.4a3.3,3.3,0,0,1-2.93,1.84A6.93,6.93,0,0,1,31,15.5a3.35,3.35,0,0,1,.57-6.64,7.11,7.11,0,0,1,1.46.05,3.19,3.19,0,0,1,2.42,1.8.59.59,0,0,0,.63.4,3.38,3.38,0,0,1,3.59,3.64c0,3.51,0,7,0,10.54V26h4.4a1.11,1.11,0,0,1,1.24,1.2c0,2.33,0,4.67,0,7a1.12,1.12,0,0,1-1.23,1.21H40.55v.75c0,6.59,0,13.17,0,19.75a1.43,1.43,0,0,1-.83,1.5H20.87c-.11-.09-.24-.17-.34-.27A1.06,1.06,0,0,1,20.16,56a1.11,1.11,0,0,1,1-.81,5.28,5.28,0,0,1,.56,0H38.27V35.49H7.08v4H27c.81,0,1.34.45,1.34,1.12s-.52,1.12-1.33,1.13h-20V55.21h.65c1.48,0,3,0,4.43,0a1.09,1.09,0,0,1,1.08,1.6,2.93,2.93,0,0,1-.67.64h-7A1.43,1.43,0,0,1,4.78,56c0-6.58,0-13.16,0-19.74v-.76H1.31A1.16,1.16,0,0,1,0,34.15V27.36C0,26.45.42,26,1.35,26H3.92v-.66c0-1.84,0-3.67,0-5.5a6,6,0,0,1,4-5.56A9.87,9.87,0,0,1,11.25,14h.84a6.18,6.18,0,0,1-1.47-3.61,42,42,0,0,1,0-4.76,5.8,5.8,0,0,1,3-4.67A16.16,16.16,0,0,1,16.16,0ZM43.08,28.31H2.29v4.86H43.08Zm-27.25-10c-1.08,1-2.05,1.95-3,2.89a1.25,1.25,0,0,1-1.41.41,1.21,1.21,0,0,1-.71-1.33c0-1.14,0-2.29,0-3.43,0-.19,0-.39,0-.58A3.79,3.79,0,0,0,6.16,20.1c0,1.81,0,3.63,0,5.44,0,.16,0,.32,0,.45H27.72c0-2.14.06-4.23,0-6.33a3.73,3.73,0,0,0-4.52-3.34v4.12a1.15,1.15,0,0,1-.69,1.18,1.17,1.17,0,0,1-1.33-.33c-.88-.86-1.78-1.71-2.67-2.56-.11-.11-.24-.2-.42-.35v2.33A1.15,1.15,0,0,1,17,22a1.13,1.13,0,0,1-1.12-1.26C15.82,20,15.83,19.23,15.83,18.32Zm-3-9.59c0,.48,0,.89,0,1.29a4.12,4.12,0,0,0,3.6,3.91,4,4,0,0,0,4.46-3,12.41,12.41,0,0,0,.17-2.45c0-.11-.12-.27-.22-.34-.64-.39-1.29-.76-2-1.16A7.64,7.64,0,0,1,12.83,8.73Zm0-2.27a5.35,5.35,0,0,0,5-1.6,1.1,1.1,0,0,1,1.51-.21l1.61.93a4,4,0,0,0-4.36-3.32A4.1,4.1,0,0,0,12.85,6.46ZM32.08,11.1c-1,0-1.55.38-1.55,1.11s.65,1.2,1.88,1.13a1.11,1.11,0,0,0,1.16-1.26C33.5,11.41,33,11.1,32.08,11.1ZM20.89,17.91V16.28h-1.7ZM13,16.26V18l1.54-1.71Z"/><path class="cls-1" d="M16.39,57.46c-.44-.31-.83-.65-.76-1.25a1.16,1.16,0,0,1,1-1,1.12,1.12,0,0,1,.76,2l-.32.21Z"/><path class="cls-1" d="M32.91,40.64a1.14,1.14,0,1,1-1.12-1.14A1.1,1.1,0,0,1,32.91,40.64Z"/></g></g></svg>