<svg xmlns="http://www.w3.org/2000/svg" viewBox="0 0 49.43 53.25"><defs><style>.cls-1{fill:#008c00;}</style></defs><title>Asset 24</title><g id="Layer_2" data-name="Layer 2"><g id="Layer_1-2" data-name="Layer 1"><path class="cls-1" d="M41.5,0c.35.11.7.19,1,.32a4.66,4.66,0,0,1,3,4.22c0,1.56,0,3.12,0,4.68,0,.58-.29.91-.76.92s-.79-.35-.79-1C44,7.78,44,6.38,44,5a3.16,3.16,0,0,0-3.4-3.41H8.89A3.18,3.18,0,0,0,5.47,5c0,.58,0,1.17,0,1.81H6.75A2.49,2.49,0,0,1,9.36,9.23a2.44,2.44,0,0,1-2.59,2.45H5.5v3.8H6.85a2.45,2.45,0,1,1,0,4.9c-.43,0-.86,0-1.37,0v3.83a15.37,15.37,0,0,1,1.8,0A2.43,2.43,0,0,1,7.6,29a7.64,7.64,0,0,1-1.44.12c-.21,0-.41,0-.66,0v3.77H6.84a2.45,2.45,0,1,1,0,4.89c-.43,0-.86,0-1.33,0v3.82c.53,0,1.06,0,1.58,0a2.44,2.44,0,0,1,.37,4.81,4.56,4.56,0,0,1-.82.08c-.37,0-.73,0-1.25,0a20.11,20.11,0,0,0,.28,3.06,3,3,0,0,0,3,2.14c1.87,0,3.74,0,5.61,0,.44,0,.84,0,1,.5s-.1.78-.42,1.06H8a.26.26,0,0,0-.09,0,4.79,4.79,0,0,1-4-5.2V46.48H2.84A2.89,2.89,0,0,1,1,46a2.44,2.44,0,0,1,1.56-4.42c1.32,0,1.32,0,1.32-1.33V37.76c-.51,0-.94,0-1.37,0a2.45,2.45,0,1,1,0-4.89H3.86V29.09H2.57a2.58,2.58,0,0,1-1.68-.58,2.45,2.45,0,0,1,1.55-4.34c.47,0,1,0,1.42,0V20.39H2.47A2.46,2.46,0,0,1,0,18a2.43,2.43,0,0,1,2.43-2.46H3.87c0-.23,0-.39,0-.56,0-.9,0-1.8,0-2.7,0-.44-.12-.57-.55-.56a5.68,5.68,0,0,1-1.6-.1A2.4,2.4,0,0,1,0,9,2.49,2.49,0,0,1,2.43,6.78c.48,0,1,0,1.48,0,0-.71,0-1.33,0-1.95A4.56,4.56,0,0,1,6.15.74,11.63,11.63,0,0,1,8,0ZM4.69,25.73h0c-.7,0-1.39,0-2.08,0s-1,.36-1,.9a.91.91,0,0,0,1,.89q2.1,0,4.2,0a.92.92,0,0,0,1-.88c0-.53-.39-.9-1-.91S5.38,25.73,4.69,25.73ZM4.63,10.12c.73,0,1.46,0,2.18,0a.89.89,0,0,0,1-.9.91.91,0,0,0-1-.88c-1.44,0-2.87,0-4.31,0a.91.91,0,0,0-1,.94.89.89,0,0,0,1,.84C3.25,10.13,3.94,10.12,4.63,10.12Zm.07,33c-.72,0-1.45,0-2.17,0a.87.87,0,0,0-1,.87.89.89,0,0,0,.93.91c1.46,0,2.91,0,4.36,0a.89.89,0,1,0,0-1.77C6.12,43.12,5.41,43.13,4.7,43.13Zm0-26.08h0c-.75,0-1.49,0-2.24,0a.88.88,0,0,0-.94.88.89.89,0,0,0,1,.89H6.83a.89.89,0,1,0,0-1.77C6.13,17,5.44,17.05,4.75,17.05ZM4.69,36.2H6.76c.65,0,1-.36,1-.9a.91.91,0,0,0-1-.87H2.58a.9.9,0,0,0-1,.88.89.89,0,0,0,1,.89Z"/><path class="cls-1" d="M18,53.25c-.4-.23-.66-.54-.51-1s.56-.55,1-.55h22A3.2,3.2,0,0,0,44,48.18V35.88l-1,1c-.29.29-.58.6-.89.87a.73.73,0,0,1-1,0A.75.75,0,0,1,41,36.7c.1-.12.22-.23.33-.34L45.63,32l-2.45-2.46-13,13,2.54,2.54a3,3,0,0,1,.33-.49l5.07-5.08.26-.26a.78.78,0,1,1,1.09,1.12c-1.18,1.19-2.44,2.32-3.55,3.58a19.28,19.28,0,0,1-7.11,5.17c-.56.22-1.08.55-1.63.81a1.5,1.5,0,0,1-2-2c.86-1.72,1.73-3.43,2.63-5.13a4.41,4.41,0,0,1,.84-1.05q7.49-7.51,15-15a1.17,1.17,0,0,0,.38-.9q0-6.21,0-12.43a2.09,2.09,0,0,1,.07-.66.76.76,0,0,1,1.47.17,4.47,4.47,0,0,1,0,.52q0,5.82,0,11.64v.62a2.77,2.77,0,0,1,2,1.1c.38.41.79.78,1.18,1.18a2.18,2.18,0,0,1,0,3.17c-.93.95-1.9,1.87-2.82,2.84a1.28,1.28,0,0,0-.33.81c0,4.43,0,8.87,0,13.31a4.73,4.73,0,0,1-4,5.1s0,0-.08.06Zm26.3-25,2.63,2.64c.21-.25.44-.53.69-.79a.66.66,0,0,0,0-1c-.51-.52-1-1-1.54-1.54a.64.64,0,0,0-1,0Zm-16,17,1.6,1.62,1.41-.72L29,43.81ZM26.71,48.3l.09.1,1.47-.75-.8-.83Z"/><path class="cls-1" d="M11.87,34.15c0-.66,0-1.31,0-2a1,1,0,0,1,.58-1c1-.55,2-1.13,2.93-1.68a.58.58,0,0,0,.35-.61c0-.92,0-1.84,0-2.75a.62.62,0,0,0-.35-.62c-1-.55-2-1.12-2.93-1.68-.54-.32-.7-.72-.47-1.14s.7-.53,1.25-.21c1,.56,2,1.11,2.92,1.69a.6.6,0,0,0,.71,0c.78-.48,1.57-1,2.38-1.38a.61.61,0,0,0,.34-.62c0-1.11,0-2.22,0-3.33a1.08,1.08,0,0,1,.6-1.05c1.17-.65,2.32-1.32,3.47-2a1.07,1.07,0,0,1,1.21,0c.95.57,1.92,1.11,2.87,1.68a.58.58,0,0,0,.7,0c.78-.48,1.6-.9,2.37-1.4a.88.88,0,0,0,.34-.59c0-1.09,0-2.19,0-3.28,0-.46.14-.83.65-.91s.89.26.9.87c0,1,0,2.05,0,3.07a.91.91,0,0,0,.54,1c.91.47,1.77,1,2.67,1.51a1.16,1.16,0,0,1,.66,1.17c0,1,0,2.08,0,3.12a.81.81,0,0,0,.51.84c.94.52,1.86,1.07,2.79,1.61.52.3.69.74.46,1.15s-.7.5-1.26.18c-1.16-.66-2.3-1.34-3.47-2a1.05,1.05,0,0,1-.58-1c0-1.11,0-2.22,0-3.33a.66.66,0,0,0-.4-.69c-.79-.43-1.56-.91-2.35-1.33a.82.82,0,0,0-.65,0c-.83.44-1.64.91-2.43,1.4a.83.83,0,0,0-.32.56c0,1.13,0,2.25,0,3.38a1.06,1.06,0,0,1-.61,1c-1,.53-1.89,1.1-2.84,1.63a.7.7,0,0,0-.42.73c0,.85,0,1.7,0,2.55a.75.75,0,0,0,.46.77c.94.51,1.86,1.07,2.8,1.59a1.07,1.07,0,0,1,.62,1c0,1.35,0,2.7,0,4a1,1,0,0,1-.56,1c-1.17.65-2.32,1.32-3.46,2a1.07,1.07,0,0,1-1.21,0c-1-.59-1.94-1.15-2.93-1.69a.79.79,0,0,0-.64,0c-1,.54-2,1.1-2.92,1.68a1.07,1.07,0,0,1-1.21,0c-1.15-.68-2.3-1.35-3.46-2a1,1,0,0,1-.59-1C11.88,35.51,11.87,34.83,11.87,34.15Zm11.47-6.64c.54-1.45-.23-2.18-1.44-2.68-.54-.23-1-.78-1.55-.78s-1,.51-1.53.8-1.18.47-1.42.9a3.74,3.74,0,0,0-.11,1.72c0,.59-.18,1.29.08,1.73s1,.67,1.48,1,1,.78,1.49.77,1-.54,1.55-.76C23.11,29.67,23.88,29,23.34,27.51ZM19.58,34.2v-.1c0-.57.15-1.24-.1-1.68s-.9-.6-1.38-.87-1.05-.81-1.58-.82-1.06.51-1.59.81-1.16.48-1.41.91-.09,1.11-.09,1.68a4,4,0,0,0,.09,1.78c.25.44,1,.63,1.47.92s1,.79,1.53.79,1-.56,1.54-.78C19.29,36.35,20,35.6,19.58,34.2Zm1.6-.16c0,.73-.2,1.42.05,1.87s1,.63,1.46.93l0,0a2.05,2.05,0,0,0,3,0c.44-.37,1.19-.5,1.44-.95s.1-1.17.1-1.77.18-1.25-.07-1.68-.94-.65-1.44-.95-1-.79-1.54-.79-1,.55-1.55.78C21.48,32,20.7,32.74,21.18,34Zm6.11-13.22a13.12,13.12,0,0,0,0-1.4.83.83,0,0,0-.32-.56c-.79-.49-1.6-.95-2.43-1.39a.71.71,0,0,0-.59,0c-.82.44-1.62.93-2.44,1.37a.64.64,0,0,0-.36.66c0,.88,0,1.77,0,2.65a.65.65,0,0,0,.41.69c.4.2.78.44,1.17.66s1,.78,1.5.78,1-.55,1.54-.78C27,23,27.73,22.27,27.29,20.82Z"/><path class="cls-1" d="M31.92,10.3A2.35,2.35,0,1,1,34.27,8,2.37,2.37,0,0,1,31.92,10.3Zm0-3.12A.78.78,0,1,0,32.7,8,.78.78,0,0,0,32,7.18Z"/></g></g></svg>