<svg xmlns="http://www.w3.org/2000/svg" viewBox="0 0 52.97 52.95"><defs><style>.cls-1{fill:#008c00;}</style></defs><title>Asset 21</title><g id="Layer_2" data-name="Layer 2"><g id="Layer_1-2" data-name="Layer 1"><path class="cls-1" d="M53,43.34c-.1.5-.18,1-.3,1.51a10.54,10.54,0,0,1-20.34.65,10.22,10.22,0,0,1,.15-6.6c.14-.39.12-.58-.29-.8-2.86-1.5-5.71-3-8.56-4.57l-.3-.14A31.63,31.63,0,0,1,20.82,36a12,12,0,0,1-10,2.91A12.44,12.44,0,0,1,.15,28.32a12.32,12.32,0,0,1,1.29-7.67,1,1,0,0,1,1.41-.59,1,1,0,0,1,.47,1.45A11.39,11.39,0,0,0,2.13,25.7a10.79,10.79,0,0,0,1.26,5.82A6.28,6.28,0,0,1,8.28,27.6a7,7,0,0,1-.8-5.53,5.31,5.31,0,0,1,10.44.9A6.67,6.67,0,0,1,17,27.6a6.27,6.27,0,0,1,4.82,3.85A7.48,7.48,0,0,0,23,28.56,10.54,10.54,0,0,0,8,17a4.84,4.84,0,0,1-.47.21,1,1,0,0,1-1.35-.49,1,1,0,0,1,.49-1.36,18.13,18.13,0,0,1,2.73-1.06A12.49,12.49,0,0,1,22.9,19.18l.33.43.42-.19q4.28-2.3,8.56-4.57c.36-.19.44-.34.3-.75a10.26,10.26,0,0,1,0-7.18,1,1,0,0,1,1.61-.68,1,1,0,0,1,.34,1.33A9.32,9.32,0,0,0,34,10.92a8.27,8.27,0,0,0,1.13,3.85,5,5,0,0,1,3.59-3.1,5.86,5.86,0,0,1-.31-4.53,4.3,4.3,0,0,1,8.32.8,5.76,5.76,0,0,1-.54,3.72,5.45,5.45,0,0,1,3.7,3.06,18.55,18.55,0,0,0,.73-1.87A8.46,8.46,0,0,0,44.24,2.28,8.1,8.1,0,0,0,40,2.45c-.28.08-.56.18-.85.24A1,1,0,0,1,37.91,2,1,1,0,0,1,38.56.75C39.36.49,40.18.32,41,.1l.38-.1h2a1.13,1.13,0,0,0,.24.08,10.47,10.47,0,0,1,9.12,8.23c.1.44.17.87.26,1.31v1.86a2.6,2.6,0,0,0-.1.4,10.53,10.53,0,0,1-16.62,7.2,36.46,36.46,0,0,1-2.76-2.58l-9.28,5a12.75,12.75,0,0,1,0,10l9.43,5,.2-.25a10.33,10.33,0,0,1,10-4.31,11.81,11.81,0,0,1,2.39.61,1,1,0,0,1,.63,1.29,1,1,0,0,1-1.24.65,6.41,6.41,0,0,1-.75-.21A8.1,8.1,0,0,0,41.41,34a8.45,8.45,0,0,0-7,11.28c.16.44.38.85.62,1.38a5,5,0,0,1,3.54-3.14c-.77-2.12-1-4.15.59-5.94a4,4,0,0,1,4.39-1.29,4.06,4.06,0,0,1,3.08,3.5,5.55,5.55,0,0,1-.52,3.72,5.13,5.13,0,0,1,3.61,3.12A8.44,8.44,0,0,0,50.52,40a5.55,5.55,0,0,1-.26-1,1,1,0,0,1,.67-1,1,1,0,0,1,1.17.4,1.67,1.67,0,0,1,.23.51c.22.85.43,1.7.64,2.54ZM12.64,37a10.54,10.54,0,0,0,7.28-3,.78.78,0,0,0,.23-.52,3.88,3.88,0,0,0-2.63-3.65,18.71,18.71,0,0,0-2-.56,1.33,1.33,0,0,0-.74,0,5.42,5.42,0,0,1-4.22,0,1.19,1.19,0,0,0-.64-.08c-.62.14-1.24.31-1.85.49a3.92,3.92,0,0,0-2.92,3.66.89.89,0,0,0,.23.62A10.52,10.52,0,0,0,12.64,37ZM42.3,19a8.43,8.43,0,0,0,5.35-1.84.79.79,0,0,0,.31-.48,2.81,2.81,0,0,0-1.82-2.88,9.52,9.52,0,0,0-1.39-.38,1.48,1.48,0,0,0-.78,0,4.15,4.15,0,0,1-2.78.08,2.08,2.08,0,0,0-1.53,0,4.67,4.67,0,0,1-.5.14,2.8,2.8,0,0,0-2.28,2.86.84.84,0,0,0,.28.63A8.24,8.24,0,0,0,42.3,19Zm.11,31.85a8.45,8.45,0,0,0,5.25-1.84.78.78,0,0,0,.3-.48,2.78,2.78,0,0,0-1.87-2.89,11.45,11.45,0,0,0-1.39-.38,1.35,1.35,0,0,0-.69,0,4,4,0,0,1-2.78.1,2.43,2.43,0,0,0-1.68,0l-.45.12a2.81,2.81,0,0,0-2.23,2.84.85.85,0,0,0,.29.63A8.39,8.39,0,0,0,42.41,50.89ZM9.35,23.9c0,.3,0,.59.06.88a3.18,3.18,0,0,0,2.78,2.94,3.12,3.12,0,0,0,3.53-2.34A7.76,7.76,0,0,0,15.83,23a3.2,3.2,0,0,0-4.07-2.77C10.16,20.72,9.35,22,9.35,23.9ZM40.16,9c0,.21,0,.41,0,.62a2.24,2.24,0,0,0,2.16,2.09,2.21,2.21,0,0,0,2.33-1.95,5.72,5.72,0,0,0,0-1.49,2.24,2.24,0,0,0-3-1.78A2.33,2.33,0,0,0,40.16,9Zm0,31.89v.42a2.27,2.27,0,0,0,4.53,0,7.08,7.08,0,0,0,0-1,2.27,2.27,0,0,0-2.93-2A2.38,2.38,0,0,0,40.15,40.87Z"/><path class="cls-1" d="M4.43,17.27a1,1,0,1,1,0,2.05,1,1,0,0,1-1-1A1,1,0,0,1,4.43,17.27Z"/><path class="cls-1" d="M35.68,2.8a1.06,1.06,0,0,1,1,1,1.07,1.07,0,0,1-1,1,1.05,1.05,0,0,1-1-1A1,1,0,0,1,35.68,2.8Z"/><path class="cls-1" d="M50.17,35.72a1.06,1.06,0,0,1-1.06,1,1.07,1.07,0,0,1-1-1.05,1,1,0,0,1,1.09-1A1,1,0,0,1,50.17,35.72Z"/></g></g></svg>