<svg xmlns="http://www.w3.org/2000/svg" xmlns:xlink="http://www.w3.org/1999/xlink" viewBox="0 0 1279 519"><defs><style>.cls-1{fill:green;}.cls-2{fill:none;}.cls-3{fill:url(#linear-gradient);}.cls-4{fill:url(#linear-gradient-2);}</style><linearGradient id="linear-gradient" x1="639.5" y1="519" x2="639.5" y2="192" gradientUnits="userSpaceOnUse"><stop offset="0" stop-color="#fff"/><stop offset="1" stop-color="#fff" stop-opacity="0"/></linearGradient><linearGradient id="linear-gradient-2" x1="-11632.5" y1="-15355" x2="-11632.5" y2="-15449" gradientTransform="translate(12272 15452)" xlink:href="#linear-gradient"/></defs><title>Asset 3</title><g id="Layer_2" data-name="Layer 2"><g id="Layer_1-2" data-name="Layer 1"><path class="cls-1" d="M700.19,360.49c-2.54-.72-5.79-.29-7.24,1.45h0C694.4,360.2,697.65,359.77,700.19,360.49Z"/><path class="cls-1" d="M779.77,342.53a2.6,2.6,0,0,0-.93.06,2.6,2.6,0,0,1,.93-.06c2.8,0,4.09.69,4.17,2.54C783.86,343.22,782.57,342.49,779.77,342.53Z"/><path class="cls-1" d="M739.36,360.34c4.64-2.13,9.27-4.29,13.92-6.39-4.65,2.1-9.28,4.26-13.93,6.38Z"/><path class="cls-1" d="M404.78,60.62c-.71-1.37-1.44-2.74-2.14-4.11.7,1.38,1.43,2.74,2.14,4.12Z"/><path class="cls-1" d="M874.85,183c-.18-.56-.39-1.12-.54-1.68-.32.12-.64.22-1,.32.34-.1.66-.2,1-.32C874.46,181.9,874.67,182.46,874.85,183Z"/><path class="cls-1" d="M871.4,182.34a12.92,12.92,0,0,1,1.93-.68A12.92,12.92,0,0,0,871.4,182.34Z"/><path class="cls-2" d="M464.75,290.54a8.47,8.47,0,0,1-1.71.5l.91,1.25c2.92-.57,5.84-1.18,8.78-1.71,13.67-2.44,19.37-12.19,22.28-23.77,2.66-10.57.3-20.88-2.44-31.1-2.34-8.71-4.44-17.48-7.05-26.11-2-6.68-3.09-13.74-7.46-19.56-1.41-1.89-2.46-4-3.7-6.07l-11.65-19c-2.36,1.74-4.19,3.24-6.17,4.52-4.26,2.74-4.28,7.2,0,9.68,3.43,2,6.9,3.86,10.73,6-3.86,2.85-7.26,5.31-10.61,7.84-1.85,1.4-3,3.11-2.23,5.63,2,6.5,3.08,13.51,6.21,19.43,8.84,16.74,18.5,33.07,27.92,49.5,1.19,2.07,1.16,3.6-.54,5.23C481,279.6,473.48,285.88,464.75,290.54Z"/><path class="cls-2" d="M445.18,170c1.71.09,3.06.11,4.39.24,2.49.24,3.54-1.12,4.05-3.33a60.86,60.86,0,0,1,2.14-7.78c.42-1.12,1.53-2.58,2.55-2.77,2.32-.45,4.82,0,7.17-.33,3.33-.52,3.44,2.51,5.39,4.92-.3-3.08-.48-5.22-.71-7.35-.45-4.26-.88-8.51-1.42-12.76-.38-2.93.86-5,3.16-6.6,4.75-3.31,9.43-6.73,14.26-9.91,6.77-4.45,14.64-7.75,16.54-16.94,0-.13.3-.2.64-.41.35.43,1,.84,1,1.33a29.48,29.48,0,0,0,8.8,17c3.78,3.73,7.35,8,8.14,13.64.6,4.34,1.39,8.67,1.7,13,.24,3.3.67,6.93-.4,9.9a81,81,0,0,1-14.26,24.78c-4.31,5.12-8.73,6.06-14.66,2.76-5.34-3-10.42-6.42-15-9.29,2.24,8.77,4.77,18.49,11.83,26.5,1.22-1.34,2.3-2.56,3.43-3.75s1.36-1.94,0-3.32c-2.77-2.78-5.22-5.87-7.77-8.86-1.41-1.66-2.75-3.38-4.12-5.08l.66-.68a13.2,13.2,0,0,1,1.65,1.21,78.85,78.85,0,0,0,18.59,13.3c1.87,1,3.37,1.33,4.58-1,1.36-2.66,3.23-5.06,4.48-7.76,2.35-5,4.35-10.26,6.62-15.35.39-.88,1.4-1.5,2.12-2.24a6.68,6.68,0,0,0,1.63-3.75c1.46-7.86,4.29-14.87,11.43-19.44,1.84-1.17,3.05-1.7,4.69.37a80.54,80.54,0,0,0,7.15,7.75c1.83,1.79,1.57,3.05-.28,4.55-2.36,1.91-4.57,4-7.46,6.53,3.2.36,5.64.9,8.07.82,3-.1,4.33,1.28,4.75,4.06,1.82,12.26,4,24.47,5.42,36.78s2,24.55,3,36.82a28.12,28.12,0,0,0,1.14,4.51l1.13-.08c.44-4.74.77-9.5,1.36-14.23.27-2.2.49-4.73,1.68-6.44,2.69-3.83,6.05-7.19,9-10.87.93-1.16,2.16-2.85,1.94-4-1.6-8.37-3.37-16.72-5.42-25-2.19-8.86-4.81-17.61-7.12-26.44-2.73-10.5-8.27-18.93-17.89-24.25a5.46,5.46,0,0,0-4.51,0,68.54,68.54,0,0,0-7.85,5.47c-2.28,1.72-4.48,3.54-6.72,5.32l-.86-.89c1.66-1.84,3.39-3.61,5-5.51,2.35-2.84,5.78-5.41,5.11-9.53-.9-5.49-1.72-11.24-4-16.2-4.29-9.22-10.86-17.08-18-24.33a11.85,11.85,0,0,0-12.59-3.29,23.56,23.56,0,0,1-7.7.51c-8-.41-15.8-.25-21.51,6.47a79.12,79.12,0,0,0-15.45,27c-3.84,12.05-6.44,24.49-9.48,36.79C445.72,165,445.56,167.43,445.18,170Z"/><path class="cls-2" d="M458.51,158.13a2.34,2.34,0,0,0-1,1.08c-.89,2.82-1.71,5.66-2.55,8.5l.71.46,7.44-5.66,15.36,25.1a48.77,48.77,0,0,0-2.81-11.67c-2-4.84-4.61-9.39-6.78-14.15C467.11,157.92,462.15,156,458.51,158.13Z"/><path class="cls-2" d="M496.65,188.92c5.11,1.93,8.48,0,11.09-3.92q5.29-7.94,10-16.29c1.59-2.81,3.53-6,3.51-9-.06-7.37-1.05-14.74-1.92-22.07a11.54,11.54,0,0,0-2.22-5.06c-1.94-2.68-4.33-5-6.34-7.65a92.86,92.86,0,0,1-5.89-8.61c-.85-1.45-1-3.28-1.76-5.71-1.67,5.31-4.93,8.07-8.79,10.54-7.3,4.67-14.39,9.67-21.58,14.51a5,5,0,0,0-2.2,4.8,115.48,115.48,0,0,0,3.74,25.24C477.48,177.67,485.42,184.68,496.65,188.92Z"/><path class="cls-2" d="M513.5,200c-2.15,2.36-4.31,4.43-3.1,8.12,2.75,8.35,5.48,16.72,7.94,25.16,2.79,9.57,5.38,19.15,5.3,29.33,0,8.33,1,16.67,1.53,25.45,8.07-2.51,15.69-4.83,23.26-7.3a2.87,2.87,0,0,0,1.54-2.16,38.54,38.54,0,0,0-.61-8.74c-3.15-13.23-6.33-26.46-9.93-39.57-2.52-9.17-5.71-18.15-8.65-27.2a2.73,2.73,0,0,0-1.2-1.57c-3-1.19-6-2.09-9-3.38S515.57,197.77,513.5,200Z"/><path class="cls-2" d="M603.68,399.82c2-5.21,3.82-9.61,5.44-14.07,1.26-3.47,3.34-7.06,3.23-10.53-.24-7.05-1.62-14.07-2.72-21.06-.47-3-1.09-6-5.23-6.28-1.1-.08-2.11-1.61-3.16-2.48,1.2-.34,2.39-.74,3.61-1,.59-.13,1.36.19,1.84-.07.78-.42,1.93-1.13,2-1.76.18-3.83.09-7.68.09-11.68-5,.91-9.4-.76-13.28-3.38s-7.15-5.92-11-9.15c1.43,4.24,3.21,7.75,7.3,9.71,2.2,1.05,5.29,2.11,6,3.95a20.81,20.81,0,0,1,1.45,10.84c-1.56,8.56-4.12,16.93-6.09,25.42a8.83,8.83,0,0,0,.44,4.53c1.58,4.81,3.34,9.57,5.11,14.32C600.23,391.14,601.85,395.13,603.68,399.82Z"/><path class="cls-2" d="M406.74,84c4.37,3.26,9.13,6.42,12.42,10.65,6.9,8.87,13,18.34,19.33,27.67,3.46,5.11,6.61,10.43,10.05,15.89,1.44-6.29,2.73-12.35,4.25-18.36a7.9,7.9,0,0,0-.48-5.93c-1.7-3.4-2.94-7-4.44-10.54-1.61-3.77-3.29-7.51-5.07-11.56L432.08,97c0-1.58,0-2.68,0-3.77,0-2.4.14-4.8.14-7.19a4.92,4.92,0,0,0-3.29-4.8c-3.7-1.62-7.28-3.5-11-5s-7.27-2.71-11.14-4.13c-.72,2.65-1.41,4.92-1.94,7.24C404.42,81.22,404.88,82.61,406.74,84Z"/><path class="cls-2" d="M446.09,233.3c-2.49,5.16-5.71,9.28-12.19,9.34-1.27,0-2.53.79-3.8,1.22l.09,1.15c2,1.12,4.47,1.87,6,3.47s2.14,4,2.67,5.11l9.21-23A6.86,6.86,0,0,0,446.09,233.3Z"/><path class="cls-2" d="M453.74,124.47l14.54-25.75C461.94,106.45,456.43,114.66,453.74,124.47Z"/><path class="cls-2" d="M449.55,227.29a34.51,34.51,0,0,0,1.89-5.45,7.1,7.1,0,0,0-.35-4.47c-5.51-9.42-11.21-18.72-16.85-28.06a19.69,19.69,0,0,0,1.59,7.39c2.41,5,5.34,9.76,7.75,14.76S450,221,449.55,227.29Z"/><path class="cls-2" d="M437.28,170.08l-6.23.55c.12.5.23,1,.35,1.51l6-1.38C437.35,170.53,437.32,170.31,437.28,170.08Z"/><path class="cls-2" d="M432.47,177.53l5-4.25C431.92,172.91,430.89,173.82,432.47,177.53Z"/><path class="cls-2" d="M596.8,334.22a6.84,6.84,0,0,0-2.28-2.84c-4.36-2.26-8.59-4.54-10.48-9.53-.8-2.1-1.82-4.11-2.74-6.17l-.76.18q4.88,26.4,9.74,52.8l.9.09a20.21,20.21,0,0,0,.83-2.2c1.53-6.05,3.14-12.07,4.52-18.15C597.6,343.72,599.39,339,596.8,334.22Z"/><path class="cls-2" d="M443.91,161.09l-4,6.39C443,167.18,444.35,164.85,443.91,161.09Z"/><path class="cls-2" d="M412.38,183.17c-6.41-13.37-8.06-28-11.52-42.21a5.9,5.9,0,0,0-2.81-3.08,57.87,57.87,0,0,0-6.45-2.8c-1.33.81.18,5.43-4.69,3.54.83,2.37,1.57,4.4,2.25,6.45,2.08,6.29,4.25,12.54,6.18,18.87,3.07,10.11,5.84,20.31,9,30.4,2.08,6.67,4.37,13.18,2.59,20.37-.55,2.22-.08,4.7-.08,7.27h6.6c1.49-8.4,3.06-16.77,4.39-25.18a8.63,8.63,0,0,0-1-4.41C415.45,189.26,413.85,186.24,412.38,183.17Z"/><path class="cls-2" d="M394.45,122.28c-8,3.27-15.58,4.38-23.44.83l17.83,14.39C390.77,132.28,392.5,127.59,394.45,122.28Z"/><path class="cls-2" d="M404.32,86.48c.61,5.18,2.08,10.36,1.55,15.32s-3.07,9.73-4.86,14.94l15,3.58C417.76,114,409.21,90.62,404.32,86.48Z"/><path class="cls-2" d="M406.45,132.72c-2.7-4.72-2-8,1.45-10.16-3.82-.77-7.43-2.77-11-1.41a43.49,43.49,0,0,1-.06,6,11.67,11.67,0,0,1-1.58,4.36c-2,3.24.06,4.27,2.54,4.44,3.55.24,4.42,2.51,5,5.3.37,1.83.68,3.68,1.11,5.5,2.55,10.76,3.84,21.85,8.46,32.06,1.86,4.1,3.74,8.2,5.61,12.29a96.7,96.7,0,0,0,2.87-14.27c.91-6.38.9-6.38,7.06-7.62.17,0,.3-.25.76-.65-2.54-4-5.16-8-7.68-12.06C416.05,148.6,411.05,140.77,406.45,132.72Z"/><path class="cls-2" d="M440.81,163.1q2.44-6.87,4.72-13.78c1.94-5.93,1.53-11.41-2.24-16.79-6.88-9.81-13.29-20-20-29.84-4.13-6-8.41-12-15.6-15.9.31.88.44,1.35.63,1.8,2.38,5.72,5.07,11.33,7,17.18,1.44,4.29,2,8.89,2.74,13.38.35,2.12-.31,3.6-3,2.4a9.91,9.91,0,0,0-3-.31c0,.22,0,.43-.05.64l4,1.72c0,.34,0,.69-.07,1l-9.91.54c.92,3.07,1.19,5.88,2.51,8,6.74,11.11,13.75,22.06,20.7,33a2.84,2.84,0,0,0,1.54,1.3C434.05,168.15,439.48,166.84,440.81,163.1Z"/><path class="cls-2" d="M456.67,112.54c-.43.3-.11.17.06-.06.43-.58.8-1.2,1.18-1.82,3.43-5.58,5.89-11.93,12.09-15.35,2.08-1.15,4-2.58,6.15-3.6,2.39-1.14,2.45-2.38,1.15-4.54-3-5-5.73-10.28-8.67-15.37-4-6.9-7.84-13.87-13.61-19.56-5.47-5.39-11.56-8.59-19.36-6.14-9.29,2.93-18.53,6-27.74,9.21a3.13,3.13,0,0,0-1.66,2.39c.09,2.51,1.05,5,3.87,5.23a30.12,30.12,0,0,0,9.43-.6c6.12-1.51,12.1-3.6,18.16-5.38a9.07,9.07,0,0,1,2.39,0l.3,1.08-18.94,9.44c.12.32.25.64.38,1,1.57.49,3.13,1,4.71,1.46,5,1.41,10,2.57,14.93,4.23,4,1.36,7.29,3.82,8.59,8.24,1.71,5.86,3.83,11.63,5.21,17.57C456.24,104,456.25,108.41,456.67,112.54Z"/><path class="cls-2" d="M766.14,58q1.11-8.64,2.2-17.28C763.68,44.32,762.87,51.26,766.14,58Z"/><path class="cls-2" d="M702.37,263.41a28.62,28.62,0,0,0,2.57,2.22c-2.46-7.56.58-14,1.48-21.57-1.94,3-3.38,5.19-4.8,7.41C698.18,256.86,698.28,258.66,702.37,263.41Z"/><path class="cls-2" d="M643.72,254.8a60.75,60.75,0,0,0-1.94,7.82c-.16,1,.69,2.2,1.08,3.31l.89-.32c0-1.11,0-2.23,0-3.34a8.14,8.14,0,0,1,4.6-8.15,39.59,39.59,0,0,1,4.2-1.89c4-1.57,8.35-2.83,8.75-8.08.53-6.94.9-13.91,1.1-20.87.07-2.41-1.26-3.12-3.44-1.59-5.4,3.78-10.87,7.45-16.25,11.25-3.68,2.6-3.62,2.66-1.7,6.68C643.3,244.42,645.32,249.27,643.72,254.8Z"/><path class="cls-2" d="M681.16,322.19c-1.23,8.92-2.36,17.06-3.48,25.19C683.7,331.12,684.5,326,681.16,322.19Z"/><path class="cls-2" d="M718.07,139.55c-.74-4.79-1.59-9.58-2-14.41a293.47,293.47,0,0,1-.42-45,10.87,10.87,0,0,0-5.2,10.75c.6,7.27,1.54,14.51,2.47,21.75q1.07,8.2,2.48,16.36c.49,2.84-.71,3.55-3.25,3.23-1.72-.21-3.47-.25-5.21-.37,1.76,1.74,3.91,2.76,5.69,4.21,1.07.86,2.28,2.46,2.21,3.65a100.74,100.74,0,0,1-1.72,12.69c-1.7,8.65-.75,17.19.82,25.78.12-.59.28-1.17.35-1.77.62-5.07,1.09-10.16,1.86-15.2C717.22,154.05,719.2,147,718.07,139.55Z"/><path class="cls-2" d="M731.26,372.2c1.59-2.72,2.62-4.73,3.88-6.58s2.69-3.51,4.06-5.25l-12.31,3.15Z"/><path class="cls-2" d="M401.92,76c-.91-.67-1.81-1.35-3.05-2.28,1.11,3.33,2.14,6.42,3.33,10,.95-4,1.6-7.37,2.55-10.62.55-1.9,1.43-3.2,4.06-2,5.57,2.5,11.34,4.55,17,6.84,7.6,3.08,8.38,4.34,8.14,12.55,0,1.18,0,2.36,0,3.81,2.74-1.32,5-2.37,7.2-3.46,1.71-.84,2.8-.68,3.59,1.35,1.61,4.14,3.46,8.18,5.23,12.26,1.19,2.75,2.41,5.49,3.62,8.23l1.24-.3c-.12-2.86.13-5.79-.45-8.55-1.21-5.67-3.13-11.19-4.28-16.87-1.55-7.69-6.63-11.24-13.69-13-4.64-1.13-9.26-2.34-13.84-3.66-1-.28-2.32-1.1-2.48-1.88s.86-1.93,1.62-2.64a27.22,27.22,0,0,1,3.43-2.44c-7,.39-14.31,4.95-20.27-2.4-.44,4.06-.8,8.12-1.38,12.16C403.33,74.11,402.45,75,401.92,76Z"/><path class="cls-2" d="M401.86,118.34l-.85.27,1.12.53Z"/><path class="cls-2" d="M576.31,246.08c8.87,2.16,15.37-2,22-5.36,5.63-2.83,11.19-4.41,17.41-2.85,2.93.73,5.93,1.21,8.79,2.13,7.52,2.42,7.54,2.55,8,10.58,0,.21,0,.42,0,.63a18.79,18.79,0,0,0,4,11.55,16.61,16.61,0,0,1,2.76,14.74,17.13,17.13,0,0,0-.23,2.79,9.71,9.71,0,0,0,2.29-2.81,25.59,25.59,0,0,0,1.68-3.3c1.57-4,1.5-5.78-1.94-8-1.48-.93-1.69-1.7-1.25-3.26a104.53,104.53,0,0,0,2.54-10.59c.32-1.9-.07-3.91-.13-5.88l-.89,0c-1,4.74-.75,9.8-3.6,14.13a5.71,5.71,0,0,1-.78-2.31c-.58-3.59-.92-7.24-1.79-10.76-2.67-10.72-13.21-17.46-20.56-17.82a96.28,96.28,0,0,0-33,4.55c-2.08.63-4.57,2.38-5.38,4.26-4,9.44-3.71,19.38-2.48,30.2C576.84,261.21,579.65,254.5,576.31,246.08Z"/><path class="cls-2" d="M344,94l-7.67-15C332.87,84.65,337.21,92.55,344,94Z"/><path class="cls-2" d="M397.91,71.6a12.52,12.52,0,0,1-2-3.27c-1.56-5.48-2.88-11-4.34-16.54-1.21-4.59-3.24-8.95-6.94-11.86-5.84-4.59-12.93-4.65-19-.36-7.24,5.09-14.91,7.61-23.77,5.68A32.15,32.15,0,0,0,337,45c1.77,4.3,1.43,8.14.29,12-.63,2.16-1.43,4.6-1,6.68C338.42,74.35,341,85,346.54,94.47c2.62,4.49,5,9.55,8.81,12.8,4.94,4.21,11.25,6.8,16.89,10.2,5.25,3.15,10.7,2.83,16.23,1.16,3.64-1.09,7-2.73,8.57-6.53a91.6,91.6,0,0,0,3.47-8.64c2.14-7,3.1-13.81-.48-20.86C398.49,79.57,398.63,75.69,397.91,71.6Z"/><path class="cls-2" d="M352.34,263.58c-3.58-.66-7.17-1.29-10.73-2.08a46.84,46.84,0,0,1-4.82-1.59l.45-1.17c3.53.65,7,1.38,10.59,1.92a18.93,18.93,0,0,0,3.82-.16,12.65,12.65,0,0,0-.94-3.39,68.41,68.41,0,0,1-7.84-17.41,99.73,99.73,0,0,0-4.2-12c-.8-1.91-2.07-4.22-4.86-3.24-2.64.93-3.5,3.21-3,5.82.54,3,1.61,5.83,2,8.8s.91,6.06-.06,8.56c-2.34,6-5.68,11.67-8.3,17.6-1.55,3.53-3.49,7.34-3.45,11,.05,5,1.66,10,2.93,14.9.66,2.54,2.13,4.86,5.18,5.14q9,.82,17.95,1.43c3.11.2,4.44-1.92,5-4.54,1.31-6.42,2.57-12.86,3.69-19.32a32.44,32.44,0,0,0,.24-6.24A3.93,3.93,0,0,0,352.34,263.58Z"/><path class="cls-2" d="M535.75,452c-4.87-3.1-9.79-6.14-14.81-9a3.14,3.14,0,0,0-3,.49c-7.35,10.56-12,22.06-11.29,35.22,0,1.25-.09,2.51,0,3.75a36.57,36.57,0,0,0,.65,4c.93,4.68,3.56,6.49,7.81,4.57,7.49-3.39,14.36-8.27,17.42-16,2.6-6.54,3.18-13.88,4.51-20.89A2.86,2.86,0,0,0,535.75,452Z"/><path class="cls-2" d="M567.71,265.81c-.38.76-1.08,1.5-1.1,2.27-.13,5.13,2.73,9.1,5.39,13.17,1-5.06-.29-9.66-2.3-14.11C569.43,266.53,568.4,266.25,567.71,265.81Z"/><path class="cls-2" d="M610.74,352.48a141.3,141.3,0,0,1,2.65,16.35c.37,3.74,1.52,7.55-.26,11.37s-3.36,8-4.91,12.05c-1.13,2.94-2.09,5.94-3.12,8.92,6.1-12.23,11.86-24.47,14.23-38s5-26.79,7.48-40.18c-5.17,2.38-9.48,5.24-13.95,7.8a4.14,4.14,0,0,0-2.3,4c-.11,3.73-.4,7.45-.61,11.13l-2.26.33C608.72,348.31,610.26,350.28,610.74,352.48Z"/><path class="cls-2" d="M570.8,262.6c.37-.43.6-.57.62-.73a10.63,10.63,0,0,0,.05-1.87,50.35,50.35,0,0,1,2.67-20.59c.93-2.74,2.47-4.93,5.41-6A98,98,0,0,1,614.19,228c4.68.06,8.74,2.24,12.53,4.91,7.08,5,10.31,12.15,11.52,20.48l.83-.14c0-4.2.42-8.45-.13-12.58a40.24,40.24,0,0,0-3.19-10c-1.85-4.38-4.33-8.25-9.75-9a83.2,83.2,0,0,1-8.2-1.77c-10.65-2.49-21.31-3.87-32.14-1.06-3.66,1-6.67,2.48-8.14,6.37a8.31,8.31,0,0,1-3.23,3.49c-2.91,2-5.23,4.48-5.2,8,.08,7.89.62,15.77,1,23.65A10.18,10.18,0,0,0,570.8,262.6Z"/><path class="cls-2" d="M326.74,46.08c.17-7.87,7.75-17.35,15.24-18.92A145.45,145.45,0,0,1,378.4,24.4a11,11,0,0,1,9.47,5.48c1.73,2.85,3.49,5.68,5.24,8.52a33,33,0,0,0-1.58-8.9C390,24.59,389,19.34,385.06,15.55c-7.34-7.09-16.7-7.93-26.1-7.76-7.71.14-14.58,3.76-21.64,6.52-6.86,2.68-11.13,6.83-11,14.71,0,1.32-1.57,2.66-2.36,4s-1.85,2.46-1.95,3.76c-.52,6.65-.82,13.35,1.93,19.69,1.44,3.32,3,6.6,4.54,9.87,1.26,2.64,2.6,5.25,3.9,7.87l1.08-.49c-.35-.8-.66-1.62-1.06-2.39A51.49,51.49,0,0,1,326.74,46.08Z"/><path class="cls-2" d="M401.27,72.76c3.12-5.53,2-14.08-2-17.52-2.26,1.38-3.52,3.44-2.68,6C397.83,65,399.58,68.69,401.27,72.76Z"/><path class="cls-2" d="M414.68,312.86l12.92-14.14C422.38,300.18,413.57,308.06,414.68,312.86Z"/><path class="cls-2" d="M784.91,341.74c-1.33-2.08-2.67-4.16-4-6.3l-12.25,9C774,343.37,778.55,338.28,784.91,341.74Z"/><path class="cls-2" d="M773.64,281.31c-2.36,3.32-3.78,7.3-5.6,11l.55-.26a1.47,1.47,0,0,0,.55-.41q7.51-10.65,15-21.34A66.14,66.14,0,0,0,773.64,281.31Z"/><path class="cls-2" d="M767.88,292.54a7.92,7.92,0,0,0-1.53,1.94c-4.52,11.2-8.92,22.45-13.47,33.63-3.21,7.91-5.54,16.27-11.35,22.89-1.25,1.42-2.52,2.82-4.25,4.77a11.88,11.88,0,0,0,2.15-.4c4.86-2.32,9.64-4.79,14.56-7a55.57,55.57,0,0,0,20.84-15.6c1.72-2.11,2.1-3.73,0-5.89A14.68,14.68,0,0,1,770.58,315a20.54,20.54,0,0,0-.34-3.73c-.38-3.95-2-7.74-2.63-11.65a15.5,15.5,0,0,1,.28-7l.1-.12,0-.12-.12.06C767.9,292.42,767.9,292.48,767.88,292.54Z"/><path class="cls-2" d="M901.73,191.05c-5.11-1.59-14.47,6.61-13.71,11.7Z"/><path class="cls-2" d="M779.77,342.53l-17.91,7.61a1.58,1.58,0,0,0-.75,1.23c.7,6.71,1.09,13.63,5.68,19.06,4,4.73,9.28,3.75,11.17-2.13,2.22-6.9,3.8-14,5.66-21a7.36,7.36,0,0,0,.32-2.23C783.86,343.22,782.57,342.49,779.77,342.53Z"/><path class="cls-2" d="M724.12,432.26a15,15,0,0,0,1.11-4.83c.16-4,0-8.06,0-12.09.05,4.86-2.67,7.73-6.31,10.45-2.9,2.18-5.17,5.2-8.28,8.43,2.68.72,4.37,1.14,6,1.62C720.3,436.85,722.76,435.75,724.12,432.26Z"/><path class="cls-2" d="M776.59,171.87c4.3,3.67,8.44,7.53,10.5,13,3.67-14.74,6.49-29.57,11.14-43.81s11.09-27.66,16.86-41.74l-28,17.51c4.74,1.84,8.5-1.27,12.21-3.48,4-2.38,7.6-5.35,11.65-8.26.1.9.26,1.27.14,1.48q-7.33,12.55-14.73,25.08c-.91,1.54-1.72,1.06-2.5-.21-1.61-2.64-3.27-5.25-4.91-7.88-2.51-4-2.47-4-6.08-.76-2,1.81-3.52,4.91-6.63,3.67a18.76,18.76,0,0,1,1,4.43c-.09,3.44-.56,6.86-.83,10.3-.66,8.42-1,16.89-2.11,25.26C773.93,169.2,774.79,170.33,776.59,171.87Z"/><path class="cls-2" d="M725.67,376.62c-5.71,1.06-11.41,2.24-17,3.72a24.46,24.46,0,0,0-6.83,3.38c-.76.5-.85,2-1.25,3.07,1.14.28,2.36,1,3.42.77,2.43-.46,4.75-1.44,7.16-2.05a97,97,0,0,1,10.33-2.22c1.17-.15,2.51,1,3.77,1.52-1,.92-1.83,2.34-3,2.65-2.39.66-5,.46-7.41,1.12-3,.82-6.84.35-8.11,4.46.37.29.59.59.86.66.81.19,1.64.25,2.45.43,6.62,1.46,12.71,4,15.16,10.88,3.07,8.65,3,17.65.81,26.51-1.28,5.09-3.11,6.09-8.35,6.12a19.16,19.16,0,0,0-2.08.25,21.27,21.27,0,0,1,2.07,1.31c2.61,2.17,4.93,1.55,7.1-.69a24.11,24.11,0,0,0,2.36-2.5c5.28-7.28,11.06-14.27,15.59-22s5.54-16.55.59-24.92a50.93,50.93,0,0,0-5.9-8c-2.61-2.91-4.29-5.83-2.49-9.78.17-.37-.08-.92-.16-1.65l-2.89,4.42L728.56,372C729.27,374.87,728.34,376.13,725.67,376.62Z"/><path class="cls-2" d="M760.33,347.11l-20,9.7C750.1,354.41,758.14,350.38,760.33,347.11Z"/><path class="cls-2" d="M756,233.32c1.88-3.55,3.86-7.06,6-10.44,3.2-5,3-10.21,1-15.49-2.93-7.45-6-14.86-8.93-22.25a28.18,28.18,0,0,1-4.48,1.57c-4.6.86-9.23,1.53-13.86,2.23-5.06.76-9.65,2.26-12.64,6.87-1.69,2.59-3.58,5.05-5.4,7.55-7.69,10.54-7.58,22.06-4,33.88a6.52,6.52,0,0,0,3.65,3.77c9.09,2.94,18.33,4,27.41-.06C748.87,239.08,753.54,237.89,756,233.32Z"/><path class="cls-2" d="M849.8,208.13A47.65,47.65,0,0,1,860,201.8c1.81-.86,2.62-1.69,2-3.36a32.6,32.6,0,0,0-2.94-6.06c-3.23-5.22-7.74-9.57-9-16-1.68-8.6-1.32-17.16-.66-25.93,4.77,4.3,3.83,10.95,6.61,16.08,2.9,5.36,5,11.19,7.38,16.81l1-.25a6.23,6.23,0,0,0,.43-1.13,7.82,7.82,0,0,0,.18-1.86c-.5-8.14-1.93-16.09-5.39-23.53-2.46-5.28-6.72-7.79-12.62-7.92-9.26-.21-16.68,3.29-22.77,10.18q-12.91,14.61-26.15,28.93a10,10,0,0,1-5.5,3c-2.61.36-3.4,1.41-3.35,3.78.18,7.83-.06,15.68.53,23.47.74,9.71,5.32,18,11.57,25.21,3.79,4.39,18,6.09,23.92,2.4s10.69-8.69,16.31-12.64c4.47-3.15,5.07-7.07,4.31-12S845.91,211.39,849.8,208.13Z"/><path class="cls-2" d="M890.88,227.68l.63.95-8,6.14c6.25,3.1,9.94,1.08,9.74-5.39-.13-4.14-.3-8.46-1.54-12.35-1.46-4.59-1.23-10.64-7.66-12.28-.16,0-.26-.32-.41-.45-5.9-5.2-8.51-11.81-8.5-19.59a6,6,0,0,0-.31-1.69c-.18-.56-.39-1.12-.54-1.68-.32.12-.64.22-1,.32a12.92,12.92,0,0,0-1.93.68,3.34,3.34,0,0,0-.8.52c-4,3.47-4.24,8.1-3.43,12.89.5,2.95,1.22,5.86,2,9.35-3.24.29-6.23.52-9.21.82-7,.69-9.53,2.89-10.88,9.69-.28,1.43-.2,2.93-.45,4.36-1.39,8,.23,11.52,7.69,14.63,4.55,1.89,9.39,3.77,14.44,1.42,3.46-1.61,6.8-3.48,10.27-5.07C884.16,229.48,887.08,227.05,890.88,227.68Z"/><path class="cls-2" d="M799.93,244.19c-7.71-9.38-12.39-19.93-12.25-32.31,0-4.25,0-8.5,0-12.75l-1-.19c-3.42,19.81-7.16,39.51-20.1,55.95l1.21.56c4.35-6.29,8.8-12.51,13-18.92,1.28-2,2.24-1.65,3.29-.29,3.52,4.57,7.13,9.11,10.32,13.91,2.85,4.31,2.51,6-.8,9.89-1.83,2.19-3.71,4.33-5.35,6.22l4.62,2.9c-.88-6.45,7.24-18.72,13.76-20.42a31.45,31.45,0,0,1-3.72-1.9A14.34,14.34,0,0,1,799.93,244.19Z"/><path class="cls-2" d="M806,112.23l-.48-.38-16.64,8.39,6.45,10.16C799.07,124,802.52,118.11,806,112.23Z"/><path class="cls-2" d="M707.7,395.76,723.48,406C722.93,400.89,716.15,396.23,707.7,395.76Z"/><path class="cls-2" d="M721,195.07l-4.22-5.13-.46.23c.62,2.23,1.25,4.46,2,7Z"/><path class="cls-2" d="M760.34,229.15a10.09,10.09,0,0,0,3.27-3c5.62-7.39,9.4-15.37,8.1-25-.48-3.51-.42-7.13-1.19-10.56-.74-3.25-1.57-6.89-3.58-9.35-3.67-4.48-17.29-6-22.4-2.92-4.29,2.59-8.27,5.7-12.38,8.58l.43,1c5-.87,10.09-1.88,15.17-2.57,3.57-.48,6.58-1.41,7.76-5.56a21.44,21.44,0,0,1,1,3.88c.92,3.68,1.69,7.42,2.93,11,1.82,5.26,4.19,10.33,6,15.61,1.19,3.58,1.34,7.29-.81,10.81C763,223.65,761.76,226.45,760.34,229.15Z"/><path class="cls-2" d="M777.14,232.89c3.72-13.07,6.44-26.42,9.45-39.69a9.16,9.16,0,0,0-.13-5c-3.88-10.41-10.79-18-21.68-21.06a15.44,15.44,0,0,0-7.7.38c-5.27,1.37-11.3,2.05-15.43,5.14-6.42,4.8-11.51,11.37-17.16,17.19l.83.88c2.86-2.35,5.8-4.61,8.56-7.08,7.23-6.45,15.1-10.35,25.25-8,6.9,1.58,11.44,4.92,12.41,11.26s1.53,13.06,1.9,19.61a15,15,0,0,1-1.29,7.27c-2.5,5.06-5,10.24-8.5,14.64-5.19,6.61-11.1,12.58-14,20.8-1.35,3.88-3.73,7.38-5.48,11.12-4.13,8.78-11.78,11.95-20.67,13.28a40.33,40.33,0,0,0-4.53,1.2c4.78,2.62,9.72,4.71,14.77,3.33,12.17-3.34,22.67-9.49,29.75-20.39,2-3,3.74-6.15,5.48-9.3C771.84,243.34,775.56,238.42,777.14,232.89Z"/><path class="cls-2" d="M637.89,447.47c-7.78-7.8-16.63-13.57-28.07-14.42C611.79,443.61,625.57,450.62,637.89,447.47Z"/><path class="cls-2" d="M708.28,388.24l-8.1,1.66,4.13,2.86Z"/><path class="cls-2" d="M497,377.54c-.16,0-.36.18-1,.51,4.3,1.47,3.62,5.11,3.91,8.95,7-5.34,8.86-13,11.85-20a8.12,8.12,0,0,0-3.62,3.07C505.66,374.5,502.91,378.32,497,377.54Z"/><path class="cls-2" d="M493.2,377.84c-3.8-2.38-10-2.53-12.32,0Z"/><path class="cls-2" d="M483.55,417.62c.28-6.75-2.46-13.62,1.28-20.86C476.56,402.52,478.22,408.07,483.55,417.62Z"/><path class="cls-2" d="M507,315.83c2.28-4.23,4.6-8.44,6.77-12.72.22-.42-.51-1.33-1.07-2.66l-6.19,15.12Z"/><path class="cls-2" d="M510.07,302.7c1.61-3.85,1.41-3.93,5.38-2.64.73-1.31,1.37-2.72,2.24-4,1.27-1.83,2.4-4,4.16-5.19a2.91,2.91,0,0,0,1.58-3.17c-.47-8.56-.64-17.14-1.38-25.66a122.21,122.21,0,0,0-3-20c-2.88-11.12-6.4-22.09-10-33a7.69,7.69,0,0,1,1.73-8.48c1-1.14,2.29-2.09,3.34-3.23a4.55,4.55,0,0,1,5.38-1.24c2.39.89,4.79,1.75,8,2.93-2.62-7.89-5-14.95-7.19-21.59-3.94,7.4-7.84,14.88-11.91,22.27-1.78,3.24-2.64,3.31-5.86,1.42-2.69-1.58-5.41-3.11-8.11-4.65a7.76,7.76,0,0,0,1.6,3.31c.38.61.89,1.72.63,2.06-2,2.58-4.13,5-6.49,7.79l-4.42-6.37a10.12,10.12,0,0,0,0,2.07c3.32,12.2,6.75,24.37,10,36.6,2.4,9.11,2.93,18.32.2,27.48-2.45,8.24-6.19,16-14.35,19.66-5.28,2.41-11.31,3.16-17,4.6-1.3.32-2.66.4-4.85.72a36.11,36.11,0,0,0,3.62,2.38c4.68,2.13,9.23,5.18,14.15,6,5.54.92,11.41-.22,17.14-.44,2.92-.11,5.84-.32,8.75-.2.77,0,1.5,1.15,2.25,1.76-.64.59-1.18,1.48-1.92,1.72a22.41,22.41,0,0,1-5.45,1.13c-6.37.36-12.75.45-19.11.83-2.86.18-5.69.81-8.51,1.23.42,4,20.23,21.26,26.11,23.09a15.93,15.93,0,0,0,1.72-2.51C502.41,320.49,506.34,311.64,510.07,302.7Z"/><path class="cls-2" d="M526.3,416.09c-.21-.72.52-1.76.94-2.59,2.16-4.34,2.1-5.28-1.46-8.58-3.33-3.09-6.74-6.11-10.28-9-1.75-1.41-1.6-2.62-1-4.57,2.09-6.25,3.87-12.62,5.76-18.94l-.6-.25c-.19-1.44-.08-3-.67-4.26a3.88,3.88,0,0,0-2.7-2.07c-.83,0-1.92,1.15-2.56,2a16.48,16.48,0,0,0-1.76,3.63c-3.59,9-8.4,16.88-18,20.81-7.9,3.22-10.94,9.33-9.3,17.79.58,3,.6,6,1.23,9a8.26,8.26,0,0,0,2.26,4.26c5.72,5.08,11.58,10.06,18.86,12.82,2.22.84,5.05,1.74,7.06,1,2.27-.79,5-3,5.64-5.21C521.42,426.48,528.32,423.12,526.3,416.09Z"/><path class="cls-2" d="M527.65,425.08c-.63,1.57-1,3.24-1.52,4.87l.93.38a21.22,21.22,0,0,0,9.4-10.22,147.76,147.76,0,0,0,10.17-34.54,85.45,85.45,0,0,0-1.07-32.35,79.69,79.69,0,0,0-9.33-23.6c-3.37-5.69-7.32-11-11-16.54l-1.27.62c2,6.59,3.6,13.34,6.11,19.74,2.88,7.36,4.26,14.5.9,22-1.35,3-2.73,6-3.87,9.15-2.12,5.79-.33,11.56.48,17.3.66,4.73,1.49,9.45,2.38,14.14a33.54,33.54,0,0,0,2,7.26c1.36,3,2.63,5.81,1.06,9.2C531,416.62,529.36,420.86,527.65,425.08Z"/><path class="cls-2" d="M492.78,430.89a20.73,20.73,0,0,1-3.64-2.85A57.14,57.14,0,0,1,479,412.65c-3.18-6.93-1.89-12.89,4.43-17.07,4.05-2.69,8.21-5.21,12.43-7.61a4.1,4.1,0,0,0,2-5c-.33-1.22-1.68-2.89-2.77-3.05a77.59,77.59,0,0,0-9.54-.32,17.68,17.68,0,0,1-4.26-.22c-.88-.25-2.28-1.57-2.14-2a6,6,0,0,1,2.25-2.67,4,4,0,0,1,2.45-.27c4.14.4,8.3.77,12.42,1.36,3.44.5,6.81-.3,8-2.81,3.18-6.83,8.93-9.9,15.79-11.84,1.86-.52,4.35-2.08,4.83-3.68a29.09,29.09,0,0,0-.13-17.59,58.63,58.63,0,0,1-2.56-28,3.22,3.22,0,0,0-.54-2.28c-1.78-2.11-3.72-4.09-6-6.51-2.72,5.14-5.13,9.64-7.47,14.18-8.73,16.89-17.88,33.49-30,48.3a195.58,195.58,0,0,0-14.29,20.19c-4.66,7.4-5.58,14.88,1,22.17,6.28,7,12.08,14.41,18.12,21.62a71.28,71.28,0,0,0,5.74,6.5c1.86,1.74,4.18.83,5.87-1.89C496.09,431.87,494,431.7,492.78,430.89Z"/><path class="cls-2" d="M522.84,319.16c.63,5,.71,10.12,2,14.93,1.92,7.11,3.47,14.12,2.22,21.5-.52,3.09-1.28,5.86-5,6.6a23.94,23.94,0,0,0-4.16,1.69c4.05,3.66,4,8,2.81,12.5-1.36,5-2.76,10-4.44,14.9-.66,1.94-.38,3,1.16,4.25,3.34,2.76,6.64,5.59,9.69,8.65,4,4,4,5.3,1.68,10.17a20.46,20.46,0,0,0-1,4.11l.91.13c.36-.75.71-1.5,1.09-2.23,2.42-4.69,3.56-9.26-.32-13.9-.91-1.09-1.15-2.88-1.37-4.4-.67-4.71-.88-9.5-1.81-14.15-1.85-9.33-2.95-18.39,2.38-27.18,2.44-4,3.71-8.74,2.37-13.52-2.26-8.1-4.8-16.13-7.22-24.19Z"/><path class="cls-2" d="M486.48,272.05a2.92,2.92,0,0,0,.55-4.11c-7.72-13.39-15.41-26.81-23.19-40.17-5.13-8.83-9.14-18.07-10.95-28.18-.56-3.09-.24-5.67,2.66-7.64s5.46-4.23,8.54-6.66c-1.76-1-3.15-1.63-4.41-2.47-3.86-2.56-9.74-3.64-7.7-10.31-7.49-2.32-12.94,1-17.73,5.78a4.62,4.62,0,0,0-.67,4.11,109.84,109.84,0,0,0,6.18,13.07c4.08,7.16,8.58,14.08,12.73,21.2a6.24,6.24,0,0,1,.73,4.38c-1.27,4.35-2.89,8.61-4.5,12.86-2.52,6.65-5.71,13.11-7.53,19.94-1.14,4.23-1.65,9.58,0,13.39,3,7.12,7.65,13.61,12,20.12,2.81,4.25,5.37,4.73,9.92,2.32A102.18,102.18,0,0,0,486.48,272.05Z"/><path class="cls-2" d="M617.23,446.43,609.11,437C610,441.89,613.45,445.73,617.23,446.43Z"/><path class="cls-2" d="M641.9,451c2.14,9.83,3.68,19.89,9.43,28.48,2.91,4.35,6.26,8.41,9.53,12.5a2.36,2.36,0,0,0,4-.1,45.44,45.44,0,0,0,5.14-7.59c6.29-13.31,3.2-26.42-1.23-39.63-4.58,2-8.76,4.78-13.28,5.6s-9.31-.34-14-.63C641.55,449.73,641.76,450.37,641.9,451Z"/><path class="cls-2" d="M526.72,441.31a34.43,34.43,0,0,0,8.4,4.45c3.13.95,4.65,2.4,3.85,6.76l11.35-5.2-24-13.94C521.81,437,521.77,438.06,526.72,441.31Z"/><path class="cls-2" d="M718.23,424.4c3.68-2.82,5-6.06,5.34-10.91a10,10,0,0,0-4.36-8.49,48.35,48.35,0,0,0-6.52-4.14,40.29,40.29,0,0,1-12.21-8.92c-1.85-1.89-2.92-4.66-4-7.19-1.13-2.77-1.67-5.76-2.73-8.56-1.21-3.18-2.43-3.57-4.94-1.46a5,5,0,0,0-1.72,3.67,94.57,94.57,0,0,0,2.36,13.48c2.3,8.6,2,10.25-4.88,15.8-1.29,1.05-2.92,1.83-3.87,3.12-2,2.7-5.39,5.85-5.09,8.45.73,6.23.86,13.23,7,17.56,1.1.77,1.75,2.3,2.38,3.58,2,4.11,4.34,5.29,8.78,4.12a27.42,27.42,0,0,0,13.93-8.77C711.18,431.87,714.21,427.48,718.23,424.4Z"/><path class="cls-2" d="M602.4,432c-4.47-.42-8.77-.14-12.82,2.53a44,44,0,0,1-11.5,5.82c-6.76,2-13.78,3-20.68,4.53a15,15,0,0,0-2.55,1c0,.31,0,.63,0,.94,3.87,1,7.7,2.34,11.63,2.91a37.85,37.85,0,0,0,26-5.56,87,87,0,0,0,9.61-7.32C604.06,435.21,604.09,432.1,602.4,432Z"/><path class="cls-2" d="M617,392.31c5.23-7.56,11-14.87,15.34-22.9,6.48-11.9,12-24.34,17.89-36.55,2.06-4.27,2.06-4.27-1.56-7.34-5.07-4.3-5.07-4.3-1.41-10.11a11.86,11.86,0,0,1,.84-1.29c1.22-1.5,1-2.87,0-4.49-3.54-5.65-7-11.37-10.68-17.51-4.88,10.25-9.63,20.18-14.51,30.42l5-2.7.89.54c-2.7,14.82-5.33,29.64-8.12,44.44S610.93,393,605.61,407a3.26,3.26,0,0,0,1.55-1.19C610.45,401.33,613.83,396.89,617,392.31Z"/><path class="cls-2" d="M603.39,405.22c-.93-1.32-2-2.58-2.79-4-2.22-3.7-4.21-7.54-6.55-11.16-4-6.15-8.73-11.87-12.13-18.31-6.69-12.66-12.49-25.79-19-38.53-3.22-6.26-2-10.93,3.22-15.13a23.81,23.81,0,0,0,2.94-3.55c-2.75-.51-5-.8-7.22-1.42a2.59,2.59,0,0,1-1.52-2c.22-2.58.79-5.14,1.22-7.7.91-5.43,1.81-10.85,2.74-16.37a7.6,7.6,0,0,0-1.67-.55c-11-.48-21.89-1.3-32.67,3-5.59,2.21-10.2,4.36-12.46,10.26-.7,1.81-.51,2.69.8,4,15.36,15.44,26.44,33.16,29.88,55.15a87.86,87.86,0,0,1-1,32.66c-1.78,8.08-4.42,16-6.94,23.88-1.81,5.7-4.68,10.84-9.63,14.55a19.63,19.63,0,0,0-2.24,2.41c4.41,2.79,8.2,5.79,12.47,7.73,5,2.28,9.44,7,16.15,3.2,3.23-1.84,7.7-1.43,11.58-2.2,6.32-1.27,12.95-2.31,18-6.36a21.62,21.62,0,0,1,14.71-4.7c2.17,0,2.76-.85,2.73-2.75-.05-3.65-.2-7.31,0-11,.07-1.48,1-2.89,1.32-4.38.18-.81.23-2.3-.15-2.48C602.59,408.32,603.67,406.5,603.39,405.22Z"/><path class="cls-1" d="M888.26,243a11.55,11.55,0,0,1,3.32-.89,9.77,9.77,0,0,0,3.16-1.3A138.3,138.3,0,0,0,921.9,216.4,9,9,0,0,0,923,205.68c-6.27-11.76-12.06-23.83-19-35.15-6.15-10-12-20-16.09-30.92s-8.39-21.8-12.67-32.67c-1.51-3.84-3.4-4.67-6.62-2.64-5,3.14-8.79,7.44-10.09,13.28-1.06,4.77-1.43,9.69-2.13,14.54-.39,2.67-.85,5.34-1.28,8a21.89,21.89,0,0,1-.56-7.24c1.07-10.69,1.88-21.52,11.1-29.13.38-.31.56-.87.89-1.27,2.29-2.79,2.29-3.73-.51-5.8-6.07-4.47-12.2-8.86-18.35-13.23-4.61-3.27-9.28-6.45-13.87-9.62,1.64-4.78,4.57-8.9,3.74-14.77a11.19,11.19,0,0,0-.88,1.33c-1.5,4.18-3.09,8.33-4.36,12.57-.22.73.7,2.21,1.49,2.79,10.22,7.38,20.47,14.72,30.83,21.9,2.36,1.64,1.71,2.78.27,4.44-2.36,2.71-5.25,5.22-6.77,8.37-4.8,10-5.88,20.74-5.34,31.69,0,1,1,2,1.9,3.81.84-1.89,1.52-2.83,1.69-3.86,1.3-7.81,2.53-15.64,3.74-23.47.93-6,4.69-9.94,9.57-13,1.72-1.08,2.94-.76,3.76,1.36,3.66,9.54,7.23,19.13,11.22,28.53,3.87,9.1,7.77,18.24,12.45,26.94,7.23,13.44,15.18,26.51,22.73,39.78,3.16,5.56,3.86,10.83-1.39,16-8.06,7.88-15.95,15.91-25.76,21.67-2.86,1.68-7.49.32-9.58-2.7.92.09,1.75.15,2.56.26,7.13.91,9.44-1,9.34-8.2a52.6,52.6,0,0,0-5.1-22.31c-1.12-2.33-.56-3.44,1.24-4.87q5.32-4.23,10.32-8.87c.73-.68,1.34-2.6.93-3.15a4.83,4.83,0,0,0-3.37-1.44,5.56,5.56,0,0,0-3.38,1.23c-2.31,1.9-4.47,4-6.58,6.11s-4.39,4.26-2.15,8.56c-4.19-2.6-6.68-5.54-7.83-9.1-1.22-3.79-1.37-7.91-2.23-11.83-.31-1.4-1-3.15-2.14-3.79-.85-.5-2.77.17-3.85.87-4.87,3.14-6,8-5.42,13.35.32,3.16.89,6.29,1.36,9.56a12.78,12.78,0,0,1-1.72.3c-1.56,0-3.11,0-4.72,0,4.19-2.5,4.74-4.08,2.33-8.49a51.82,51.82,0,0,0-5.65-8.52c-7.87-9.4-6.13-20.7-6.76-31.55a7.28,7.28,0,0,1,1.23,2.17c3.5,8.71,7,17.43,10.53,26.11.27.68,1.26,1.54,1.85,1.49a2.64,2.64,0,0,0,1.9-1.59c.47-2,1.09-4.17.72-6.09-1.29-6.61-2.68-13.23-4.61-19.68a14.08,14.08,0,0,0-7.52-9c-7.55-3.48-14.9-1.94-22,1.42-6.65,3.17-10.79,9.28-15.65,14.5-6.95,7.48-13.68,15.18-20.68,22.62-1.12,1.19-3.15,1.52-4.76,2.26,11.19-20.93,22.63-41.1,34.13-61.24,1.5-2.63,2.66-5,1-8.12a35.53,35.53,0,0,1-2.1-6c1.89-.86,3.41-1.92,5.08-2.25,3.15-.61,3.45-2.52,3.43-5.24-.09-10.07-3.67-19.07-8.15-27.82a21.92,21.92,0,0,0-1.3-2c-.52.64-.73.86-.89,1.1-3.29,5.11-6.08,10.66-10,15.22-3.46,4-8.06,7.09-12.39,10.26-4.53,3.3-9.51,5.1-15.13,2.53a7,7,0,0,0-1.87-.29c-.05.28-.11.56-.17.84,2.92,1.83,6.26,2.85,9.66,1.91,10.19-2.84,17.59-9.82,24.21-17.57,2.59-3,4.22-6.88,6.65-11,3.76,8,7.29,15.35,7.54,23.76.17,5.95.27,6-5.47,8-2.65.93-3.67,2.06-2.17,4.93,2,3.89,2.9,7.53.16,12.07-8.84,14.67-17,29.72-25.5,44.61-2.59,4.54-5.3,9-8,13.52l-.83-.28c.74-4.17,1.33-8.38,2.27-12.5,2.32-10.13,4.07-20.47,7.42-30.26,4.4-12.88,10.12-25.32,15.26-37.95,1.32-3.24,2.6-6.5,3.9-9.76l-.8-.52c-.95.56-1.93,1.09-2.85,1.69-7.78,5.09-15.48,10.3-23.35,15.25-4.72,3-6.26,2.66-10.62-.65a6.44,6.44,0,0,0-1.82-.65l-.38.55,3,3.37c-2.9,1.79-5,1.56-6.52-1.46-.44-.87-1.56-1.4-2.37-2.09l-.58.54c.53.79,1.11,1.57,1.58,2.39,1.47,2.54,3.19,4,6.52,3.07,1.68-.47,3.94-1.77,5.89.58-1.35,1.16-2.69,2.12-3.81,3.3-1.95,2.06-3.7,4.23-7.09,2.91a2.31,2.31,0,0,0-2,1,2.24,2.24,0,0,0,.77,2.07c2.34,1.15,2,3.18,1.87,5.1q-1.05,15-2.23,30c-.1,1.29-.45,2.56-.75,4.22-9-5.21-17.27-.88-26.18.71.7-1.36,1.17-2.34,1.69-3.28,7-12.66,14-25.29,21-38a7.29,7.29,0,0,0-2.06-9.66,12.37,12.37,0,0,0,.42,2,9.38,9.38,0,0,1-.6,8.63c-4.84,8.54-9.25,17.32-14.19,25.79-4.55,7.81-8.4,16-15.79,22-6,4.9-10.79,11.29-16.86,17.82-1.69-4.12-4.31-7.63-4.33-11.15,0-6.94,1.39-13.88,2.18-20.82.73-6.51,1.79-13,2-19.53.12-4-1.34-8-1.67-12-.65-8-1.37-16-1.38-24.08,0-8.19.8-16.39,1.17-24.59a3.08,3.08,0,0,0-.91-2.11c-.28-.27-1.36-.06-1.83.28a17.59,17.59,0,0,0-3.7,3.21C708.13,86.15,708.34,91.1,709,96c1.32,9.5,2.81,19,4.19,28.46.27,1.91.33,3.85.52,6.12H702.1a2.78,2.78,0,0,0,1.31,2.1c2.76,1.62,5.63,3,8.28,4.82a3.74,3.74,0,0,1,1.46,2.91c-.52,4.76-1.4,9.49-2,14.24-1.18,8.78-.28,17.48,1.25,26.13.75,4.17,1.93,8.27,2.91,12.41.32,1.33.63,2.67,1,4.15-12.63-1-16.62-.58-21.59-10.49,6.66-.4,11.29-4.26,15.63-8.75a3.68,3.68,0,0,0-2.3.19c-4.08,1.49-8.08,3.28-12.26,4.37a8.74,8.74,0,0,1-5.79-1c-4.85-2.63-6.31-7.14-5.88-12.41,1-13,2-26,3.21-39a71.76,71.76,0,0,1,2.42-13.19c2.68-9.26,5.54-18.49,8.79-27.55,2.37-6.57,4.51-13.43,9.75-18.49q9.13-8.82,18.52-17.37a10.82,10.82,0,0,1,9.88-2.7c6.61,1.36,13.21,2.81,19.84,4,2.69.51,3.59,2.22,3.85,4.56a75.61,75.61,0,0,1,.75,8.73,5,5,0,0,1-1.64,3.6c-4.57,3.37-9.31,6.51-14.05,9.64-4.22,2.78-4.43,3.21-3.09,8.12.41,1.46.75,2.95,1.23,4.87a47,47,0,0,0-5.24.06c-.89.1-2.18.54-2.48,1.2-2.56,5.63-5.84,11.15-7.15,17.09-1.82,8.32-2.22,16.95-3.08,25.46-1.25,12.47-2.38,24.95-3.52,37.42-.2,2.21-.23,4.44-.34,6.66l1,.32c2.31-3.5,4.65-7,6.94-10.5,4.29-6.59,8.1-13.4,10.07-21.12,2.6-10.17,5.35-20.29,8-30.45a19.14,19.14,0,0,0,.23-3.57l-1-.1c-.51,3-.79,6.07-1.58,9-1.76,6.49-4.12,12.82-5.62,19.36-2.75,12-8.52,22.34-15.83,32.1.18-5.93.58-11.82,1.13-17.69,1.06-11,2.46-22,3.22-33a71,71,0,0,1,5.91-25C736,97.77,738,94.82,743,96a10.33,10.33,0,0,0,2.61-.21c-.57-2.05-1-3.92-1.6-5.75-.93-3-1.14-5.7,2.49-7.25,1.39-.59,2.51-1.79,3.8-2.66,3.53-2.37,7.08-4.71,10.63-7.06l.72.51a20.35,20.35,0,0,1-.68,4.46c-3,7.81-6.24,15.55-9.3,23.35a58.44,58.44,0,0,0-1.69,5.89l1,.3,7-17.25.75.29q-2.76,9.07-5.53,18.15l1.19.4c2.78-8.39,5.56-16.79,8.5-25.65,2.3,6.88,1.68,14.17,5.66,20.14-2-10.69-4.26-21.32-5-32.18a2.89,2.89,0,0,1,1.17,1.84c1.11,5.83,1.86,11.76,3.4,17.48a154.35,154.35,0,0,0,5.73,16c.39,1,1.65,1.61,3.13,3-2.1-4.65-3.93-8.26-5.37-12-2.38-6.21-2.83-9.63-2.16-11.11l4.24,8.75a19.2,19.2,0,0,0-1.19-5.82c-2.14-6.5-5-12.91-4.57-19.91a156.61,156.61,0,0,1,2.5-18.25c.36-2,2-3.72,2.95-5.62,2-4,4.53-7.93,5.75-12.19a19.2,19.2,0,0,1,5.19-9.28,2.72,2.72,0,0,1,2.64-.06c2.7,2.06,5,4.77,7.87,6.49a41.76,41.76,0,0,0,20.42,5.87c4.93.16,9.85.85,15.05,1.33-.87,2.71-1.49,4.69-2.12,6.66l.71.29a28.33,28.33,0,0,0,2-3.39c1.57-3.7,1-5-3-5.47-5.38-.68-10.84-.76-16.22-1.46-7.48-1-14.66-2.78-20-8.78-1.3-1.44-3.17-2.35-4.63-3.67s-2.33-.77-3.41.36a22.25,22.25,0,0,0-6.17,11.59,16.61,16.61,0,0,1-5.4,10c.55-4.54.67-9.37,2.61-13.29,2.25-4.53,5.84-8.51,9.35-12.25,2.7-2.88,6.34-5.06,10.57-4.34,12.69,2.15,24.06,7.47,34.39,15.05a11.8,11.8,0,0,1,5.07,9.6c0,1,.74,2,1.28,3.36,1-5.16,0-9.64-3.67-12.65A75.1,75.1,0,0,0,795.89,13c-4-.7-7.87-.13-10.83,2.63-4.39,4.09-8.4,8.57-12.28,12.58a3.83,3.83,0,0,1,.29-1.55c2-4.07,4-8.22,6.29-12.12,5-8.47,12.26-13.34,22.53-12.85a69.64,69.64,0,0,1,20,4.44c7.44,2.64,12.84,6.67,13.26,15.33a3.93,3.93,0,0,0,2.21,2.75c4,1.5,4.62,2.53,3.35,6.78-.62,2.07-1.07,4.19-1.6,6.29l1.2.33c.76-2.49,1.57-5,2.27-7.49,1-3.51-.17-5.83-3.65-7A3.05,3.05,0,0,1,836.52,20c-.53-6-3.36-10.63-9-13.25C818.76,2.69,809.63,0,799.88,0A23.84,23.84,0,0,0,792,1.5c-11.37,4.14-15.93,14.27-20.16,24.28-1.72,4.06-1.6,8.9-2.33,13.43-2.89-1.81-4,.8-5,2.38-4.43,7.13-1.24,14.35.17,21.5a33.32,33.32,0,0,0,2.09,5.32l-4,.2c-.45-3.72-1-7.2-1.28-10.71a4.64,4.64,0,0,0-3.89-4.31c-7.73-1.59-15.49-3.1-23.29-4.24a8.79,8.79,0,0,0-6.08,1.58c-5.88,4.68-11.64,9.54-17,14.76-3.44,3.33-7.28,7-9,11.25-5.3,13.23-10.09,26.7-14.19,40.35-2.07,6.9-2.45,14.36-3.18,21.61-1,10.28-1.74,20.59-2.5,30.9-.5,6.78,2.67,11.49,8.57,14.57a3.4,3.4,0,0,1,1.54,1.55c2.36,6.06,5.79,10.93,12.82,12,3.36.49,6.73.95,10.38,1.46a42.91,42.91,0,0,0-2.45,4.06c-2.28,5-4.52,9.93-6.68,15A119.17,119.17,0,0,0,697,253.63a9.56,9.56,0,0,1-1.27,4.11c-5.92,9.31-12,18.53-17.93,27.81-.92,1.43-1.57,3-2.35,4.53l.86.82a50.21,50.21,0,0,0,6.78-2.72c7.75-4.45,9.79-12.91,13.85-20.63.58,2.44,1,4.36,1.51,6.24s1.27,3.73,1.76,5.64c1.86,7.31,3.59,8.77,11,8.36,4.47-.25,8.92-.92,13.38-1.45,3.14-.36,6.27-.79,9.75-1.24-.21,3.13-.33,5.93-.59,8.72-1,10.18-2,20.36-3,30.55a11.21,11.21,0,0,0,.65,3.13l.43-.1c1.47-14.7,2.94-29.4,4.43-44.32-1.39.13-2,.18-2.63.25-8.59.93-17.18,1.88-25.78,2.8-2.1.22-3.57-.49-4.24-2.71-1.72-5.74-3.54-11.45-5.34-17.16-.31-.95-.75-1.86-1.36-3.33-2.49,5.49-4.55,10.31-6.86,15s-5.71,8.62-11.58,9.7l18.35-28.75,10.87,12.47,1.28-.69c-.14-.79,0-1.78-.46-2.34a12.34,12.34,0,0,1-2.7-9.92c.92-5.63,2.18-11.2,3.3-16.8.28-1.42.59-2.83.89-4.25l-.94-.4-9.38,14.35c-1.7-4.58,6.14-29.86,10-35.8,0,2.91-.49,6.8.09,10.52,1.91,12.26,1.77,16.83,12.35,18.1,6.43.78,12.77,2.09,19.11-.38,3.49-1.36,7-2.61,11.23-4.16-2.57,5.61-4.88,10.62-7.17,15.64-4.19,9.24-10.47,15.72-21.26,16.63-2.95.25-5.84,1.19-9,1.88.38.72.52,1.4.93,1.69a24.31,24.31,0,0,0,17.41,4.31c8.83-1.09,16-6.05,22.81-11.36,2.7-2.1,5.07-4.63,7.87-7.22-.12,2.14-.22,4-.33,5.83-.3,5.24-.33,5.15-5.39,6.72-2.84.88-5.57,2.11-8.35,3.18,0,.38,0,.76,0,1.13,2.22,1.63,4.39,3.32,6.67,4.85,1.62,1.09,2.73,2.24,1.9,4.34-1.63,4.11-2.95,8.38-4.94,12.31-4,8-8.48,15.79-12.7,23.69a11.22,11.22,0,0,0-.69,2.56l.95.3c3.08-5.66,6.33-11.25,9.22-17,3.35-6.71,6.48-13.55,9.51-20.42,1.14-2.58,1.37-5.13-2-6.77-1.93-.95-3.51-2.59-5.74-4.28,2.5-.87,4.3-1.63,6.17-2.12,6.72-1.76,7-1.73,6.8-8.75a15.26,15.26,0,0,1,4-10.69c3-3.64,5.53-7.69,8.23-11.59,1.68-2.42,3.3-4.88,5.33-7.9,3.94,5.5,7.7,10.42,11,15.63a5.66,5.66,0,0,1-.28,5.09,44.64,44.64,0,0,1-7.75,8.75c-10.95,9.05-18.17,20.58-23.32,33.62-5.65,14.29-11.24,28.61-17.12,42.81a28.49,28.49,0,0,1-9.51,11.84c.42-9.07-.05-17.54,3.17-25.69-1.28,1.42-2.62,3-2.93,4.66-.92,5.19-1.44,10.46-2.12,15.69h-.32q-.74-9.44-1.48-18.88l-1.21.13c.8,9.78-.17,19.72,3.54,29.36l-9.15,3-11.82-14.91-1,.8c1.3,1.79,2.52,3.64,3.91,5.35,4.49,5.55,9,11,10.7,18.26.48,2.09-.25,2.66-1.91,3-3.57.7-7.21,1.19-10.71,2.15-5.67,1.55-12.12,1.64-15.87,8.06-.79-2.63-1.4-4.83-2.12-7-.58-1.76-.9-3.84-2.07-5.1-.95-1-3-1-5.48-1.73,3.14-1,5.74-1.71,8.3-2.55,1.74-.56,3.72-.92,5.07-2a4.41,4.41,0,0,0,1.24-3.9,4.59,4.59,0,0,0-3.24-2.51c-2.54-.72-5.79-.29-7.24,1.45,1.39,0,2.82-.16,4.2-.08a8.87,8.87,0,0,1,1.36.17c1.28.28,2.38,1.44,3.55,2.21-1.11.92-2.16,2.54-3.34,2.65-7.23.66-12.66,4.19-17,10.06l-2.09-3.34-1,.49c.72,1.81,1.43,3.62,2.4,6.07l4.39-5c0,2.32-.32,4.51.07,6.58.81,4.4,2.25,8.68,2.92,13.09.37,2.44.6,5.69-.67,7.41-2.31,3.11-5.8,5.36-8.24,7.5a72,72,0,0,0-.05-8.44c-1.18-9.93-2.55-19.83-3.91-29.73-.07-.52-.72-1-1.09-1.46l-.74.29c.33,2.65.64,5.3,1,7.94,1,7.65,1.78,15.35,3.24,22.91.65,3.39.56,6.19-1.8,8.59-4.07,4.14-4.54,9.05-2.94,14.18,1.74,5.58-.15,9.51-4.34,13.11-5,4.25-10.86,6.11-16.91,8.15-8,2.72-14.34,1.05-20-4.89a14.76,14.76,0,0,0-4.93-3.67c-5.85-2.33-11.84-4.32-18.22-6.59-.52-5.63-1-11.87-1.69-18.1-.21-2.08.71-2.8,2.59-3.45a16.85,16.85,0,0,0,6.35-3.5c5.1-5.12,9.78-10.66,14.78-15.89s9.58-10.6,15.12-15c4.56-3.58,10.23-5.74,15.4-8.55,3.74-2,7.46-4.08,11.25-6.16.18,1.62.34,3.11.5,4.59l.66.09,1.54-3.59c.67,2.7,1.22,4.89,2,7.94,1.34-3.47-2.11-6.64,1.43-8.81-2.13-1.78-1.33-3.93-.73-6,2.19-7.79,4.53-15.54,6.54-23.37a14.81,14.81,0,0,0-.11-6.42c-.22-1.06-1.64-1.88-2.52-2.81a18.27,18.27,0,0,0-2.52,3.17,13.55,13.55,0,0,0-.89,3.94c-1,7-1.88,14.05-3,21.05-.66,4.16-2.23,7.94-6.13,10.17-3.6,2.05-7.24,4-10.9,6-7.57,4-15.32,7.5-21.13,14.27-7.06,8.23-14.61,16-22,24-1.73,1.86-3.64,3.48-6.95,3.17.93-1.44,1.6-2.59,2.39-3.66,5.82-7.92,12-15.61,17.44-23.75,10.28-15.29,17-32.44,24.79-49,.81-1.72.72-3.14-1.05-4.24a18.32,18.32,0,0,1-2.17-1.78c-4.27-3.66-4.17-3.6-1.13-8.38,1.13-1.78,3-3.51,1.36-6.18-3.84-6.1-7.47-12.33-11.23-18.49a16.9,16.9,0,0,0-2-2.19c-2.89,6.33-5.41,12.16-8.18,17.86-3.2,6.55-5.39,13.79-12.22,18-4.21,2.57-8.43,5.51-13.56,4.06a28.13,28.13,0,0,1-17.43-13.66c-2.79-5.09-4.35-10.86-6.43-16.34-3.84-10.13-5.34-20.56-2.87-31.19,1.49-6.38,5-12.37,2.57-19.6,7.62.72,13.63-2.29,19.38-5.59,5.94-3.41,12-4.59,18.57-2.91,2.82.72,5.62,1.55,8.47,2.09,4.11.77,5.4,3.22,5.61,7.22.26,4.94.68,10.09,4.1,14.09a13.78,13.78,0,0,1,3.23,10.71c-.25,2.78-1.06,5.5-1.5,8.27a7.4,7.4,0,0,0,.35,2.28c.7-.24,1.69-.26,2.05-.75,3-4,6.24-8,6.75-13.32a3.8,3.8,0,0,1,1.41-2.15c5.56-4.72,11.32-9.22,16.66-14.17a9.72,9.72,0,0,0,2.43-6.1c.57-9.49.67-19,1.21-28.49a8.39,8.39,0,0,1,2.31-5,81,81,0,0,1,9.82-8.5c3-2.2,6.4-5.09,9.8-5.35,5.72-.43,11.59.87,17.37,1.65,2,.28,2.77,1.45,1.33,3.52-2.61,3.72-5,7.62-7.51,11.37a10.88,10.88,0,0,1-3.07,3.35c-3.46,2-7.11,3.77-10.67,5.66-7.67,4.07-8.27,1.5-2.67,9.59,1.39,2,2.51,4.23,3.75,6.35l-.69.61c-3.45-1-7-1.81-10.35-3.1-2.77-1.06-4-.08-4.85,2.39a89.22,89.22,0,0,1-3.2,8.38c-4.65,10-7.27,20.31-6.07,31.41.15,1.38,0,2.79,0,4.58-8-4-15.43-4.31-22.85-.06,7.76,2.16,15.57,3.77,23.36,5.43,7,1.5,14.05,2.92,21,4.67a7,7,0,0,1,4.23,3.12,112.11,112.11,0,0,1,4.17,11.3c3.56,10,6,20.5,13.1,28.9.49.58,1.05,1.11,1.58,1.66l.82-.71c-1.4-2.09-2.82-4.16-4.19-6.27-5.75-8.8-7.84-19-11.22-28.76-2.12-6.07-4.44-10.84-11.84-11.93-9.76-1.44-19.38-3.86-29-5.91-2-.44-4.07-1.1-7-1.9,7.37-2.67,13.21.54,19,2.24.59-8.65.22-16.94,2-24.76s5.54-15,8.51-22.61c3.44,1,6.48,2,9.62,2.61,1.79.35,3.73-.07,5.61-.14a39.58,39.58,0,0,0-2.12-5.26c-1.5-2.64-3.28-5.11-5.07-7.86,2.92-1.42,5.5-2.51,7.92-3.88,3.59-2,7.82-3.58,10.43-6.53,3.84-4.35,6.53-9.72,9.65-14.7,1.17-1.85.65-3.26-1.55-3.64-5.62-1-11.24-2.33-16.9-2.6a15.63,15.63,0,0,0-8.87,2.79A172.85,172.85,0,0,0,667.67,214a7.08,7.08,0,0,0-1.82,4.61c-.34,7.83-.31,15.68-.65,23.51-.13,3.08.19,7-1.53,9-4.64,5.31-10.24,9.79-15.55,14.49a2.36,2.36,0,0,1-2.27-.27c-1.41-2.2,0-7.87,2.39-9.25a72.43,72.43,0,0,1,7.87-3.55c3.53-1.49,6.21-3.61,6.62-7.8.37-3.74,1.19-7.44,1.37-11.18a65.93,65.93,0,0,0-.39-11.24c-.45-3.61-1.67-4.12-4.77-2.35-2.87,1.63-5.61,3.48-8.34,5.34-4,2.71-7.86,5.51-11.8,8.27a7.42,7.42,0,0,1-.59-.89c-2.26-6.26-5.11-11.87-12.78-12.82a77,77,0,0,1-8.84-1.83,69.26,69.26,0,0,0-31-.85c-4.41.92-8,3.08-9.71,7.69a5.51,5.51,0,0,1-2.4,2.69,10.34,10.34,0,0,0-6,9.49c0,8.81.4,17.62.64,26.69-3,1.31-4.36,3.52-3.09,7.06A74.33,74.33,0,0,0,569.65,281c1.19,2.22,3.84,4,4.24,6.24,1.15,6.54,5,12.3,3.93,19.64-.76,5.4,1.51,11.26,2.53,16.89,1.62,8.91,3.15,17.85,5,26.71,2.26,10.55,4.87,21,7.33,31.54.32,1.36.69,2.71,1,4.06a10.82,10.82,0,0,1-2.54-2.58c-12-16.75-19.53-35.78-28.18-54.25a5.38,5.38,0,0,1,1.25-6.74c2.85-2.76,5.36-5.88,8.59-9.48-3.24-.3-5.69-.59-8.14-.72s-2.93-1.08-2.48-3.45c1.32-7,2.31-14,3.54-20.94.39-2.19-.2-3.06-2.49-3.08-4.91,0-9.82-.27-14.73-.42-1,0-1.9-.08-2.85-.13,0-.29-.05-.59-.07-.89a19.92,19.92,0,0,0,4-1.17,3.55,3.55,0,0,0,1.86-2.31,34,34,0,0,0-.42-8.74c-3.59-15.26-7-30.6-11.29-45.65-4.14-14.38-9.42-28.44-14.1-42.67-1.57-4.79-3.18-9.43-1.58-14.84,1.9-6.45,4.06-12.35,9.9-16.31,1.65-1.13,2.61-1.16,3.89.37a70.79,70.79,0,0,0,5.74,6.13c1.57,1.48,1.29,2.67-.14,3.85-2.3,1.91-4.65,3.75-7,5.6-1.36,1.08-1.6,2.15.35,2.57a38.17,38.17,0,0,0,8,1.17c3.27,0,4.34,1.75,4.73,4.5,1.32,9.39,2.95,18.75,3.94,28.17,1.45,13.8,2.42,27.65,3.67,41.48a28.1,28.1,0,0,0,1.18,6.11c.32,1,1.43,1.77,2.17,2.64.75-1,2-2,2.15-3.07.66-4.32.84-8.71,1.5-13,.37-2.39.83-5,2.14-6.95a55.3,55.3,0,0,1,8.1-9.32,7,7,0,0,0,2.34-7.48c-1.27-5.46-2.27-11-3.67-16.42-3-11.65-6.31-23.21-9.3-34.86A37.6,37.6,0,0,0,545.28,139c-1.85-1.06-3.37-1.27-5.17,0a54.79,54.79,0,0,1-4.88,2.77,18.51,18.51,0,0,0,1.26-3.85,34.47,34.47,0,0,0-4.9-21c-4.19-6.85-9.32-13.13-14.11-19.61-4.49-6.08-10.36-8.15-18-7.2-6.12.76-12.42.15-18.67.15-4.32-7.66-8.57-15.84-13.45-23.64a124.41,124.41,0,0,0-12-16.06c-4.87-5.52-11.23-8.5-18.73-6.36-8.88,2.53-17.62,5.51-26.38,8.42-7.05,2.35-5.58,1.46-5.51,7.93l.09.17h0c0,.05,0,.1,0,.15,6,7.35,13.28,2.79,20.27,2.4a27.22,27.22,0,0,0-3.43,2.44c-.76.71-1.77,1.88-1.62,2.64s1.5,1.6,2.48,1.88c4.58,1.32,9.2,2.53,13.84,3.66,7.06,1.71,12.14,5.26,13.69,13,1.15,5.68,3.07,11.2,4.28,16.87.58,2.76.33,5.69.45,8.55l-1.24.3c-1.21-2.74-2.43-5.48-3.62-8.23-1.77-4.08-3.62-8.12-5.23-12.26-.79-2-1.88-2.19-3.59-1.35-2.22,1.09-4.46,2.14-7.2,3.46,0-1.45,0-2.63,0-3.81.24-8.21-.54-9.47-8.14-12.55-5.65-2.29-11.42-4.34-17-6.84-2.63-1.19-3.51.11-4.06,2-.95,3.25-1.6,6.59-2.55,10.62-1.19-3.6-2.22-6.69-3.33-10,1.24.93,2.14,1.61,3.05,2.28.53-.94,1.41-1.84,1.55-2.84.58-4,.94-8.1,1.38-12.16a.23.23,0,0,0-.07-.07v-.25c-.71-1.38-1.44-2.74-2.14-4.12-1.84-3.63-3.19-3.89-6.07-1.16L394.83,57c-1.14-3.44-2-6.67-3.27-9.72-2-4.75-4.66-9-10-10.67-5.59-1.72-11-3.52-16.39,1.17-7.27,6.25-16,7.48-25.25,5.58-1.77-.36-3.6-.39-6.46-.67,4.82,5.64,3.18,11,1.7,16.49a15.43,15.43,0,0,0-.1,6.06c.51,3.43,1.37,6.8,2.23,10.91-6-7.53-10.42-23.41-8.66-32.09,1.44-7.11,5.7-13,12.72-14.86a111.37,111.37,0,0,1,38.52-3A7.17,7.17,0,0,1,385.93,30c3.21,6.13,6.29,12.32,9.43,18.49L397,51.82l1.16-.5c-1.37-6.15-2.64-12.33-4.15-18.45a115.06,115.06,0,0,0-3.44-11.31A20,20,0,0,0,376.86,8.63c-8.58-2.49-17.35-4.05-26.13-1-5.77,2-11.37,4.47-17.05,6.71-5.37,2.11-8.25,5.93-8.49,11.78-.11,2.59-.61,5-3.11,6.75-1.09.76-1.76,2.71-1.85,4.17-.4,6.66-.71,13.36,2.12,19.69,1.85,4.16,3.54,8.41,5.65,12.44,1.57,3,2.06,7.07,6,7.22-.33,3.09-1.32,5.89-.76,8.34,1.38,6.07,5.46,10,11.5,11.81a3.62,3.62,0,0,1,1.86,1.6c2.84,4.91,5.44,10,10.7,12.93,3.06,1.71,6,3.64,9,5.41,7.87,4.62,16,6.81,24.92,2.93a13.92,13.92,0,0,0,7.73-7.63q1.34-3.12,2.46-6.35c1-2.82,1.86-5.69,2.79-8.54,1.07,7.62-2.6,13.75-6.12,20.36l2.92,1.38.85-.27.27.8-1.12-.53c-3.18,1-6.36,2.1-9.57,3-4.34,1.27-8.73,3.34-13.3,1.45-5.06-2.08-9.92-4.63-14.88-7-1.11-.52-2.25-1-3.38-1.48l-.56.91L384,135.82a3.82,3.82,0,0,1-2.76-.43c-4.21-2.43-8.57-4.65-12.53-7.43-5.64-4-11.59-7.79-16.31-12.72-6.41-6.7-11.79-14.39-17.59-21.67-1.1-1.37-2.23-1.85-3.62-.43-9.8,10-19.71,19.87-29.29,30.05-2.09,2.22-4,5.46-4.27,8.39-1.08,10.91-1.49,21.88-2.06,32.83C295,175.69,294.48,187,294,198.24c-.48,12.52-1,25-1.14,37.58a27.41,27.41,0,0,0,2,11.29c5.19,11.47,10.94,22.69,16.54,34a9.69,9.69,0,0,0,2,2.13l.79-.3c-2.58-10.11-4.72-20.1,6.58-26.67a2,2,0,0,1-.08.64,4.59,4.59,0,0,1-.69,1,13.25,13.25,0,0,0-3.86,10.19c.13,4.38.07,8.78.08,13.16,0,1.73,0,3.46,0,5.73H306.09v1h12c0-1.63,0-3,0-4.34-.07-5.32-.1-10.63-.23-15.95s2.6-8.75,6.81-11.46a12.82,12.82,0,0,0,2.24-2.49l-.72-1.24c-2,.69-4.15,1.1-6,2.13-8,4.54-10.93,11.66-9.93,20.85-4.06-7.31-7.34-14.69-11.1-21.81-4.2-7.93-5.2-16.38-4.9-25.09.29-8.35.9-16.69,1.28-25,1-22.24,1.9-44.48,3-66.71.15-3,.65-6.52,2.31-8.86a151.51,151.51,0,0,1,13.56-16.47c5.74-6.1,12-11.72,18.26-17.78,2.87,3.46,5.45,6.53,8,9.63,4.33,5.28,7.91,11.46,13.11,15.67,7.9,6.4,16.74,11.73,25.53,16.94,4,2.39,7.1,4.83,8.39,9.48,1.37,5,3.3,9.81,4.77,14.76C396.05,172,399,184,403.06,195.65A47.06,47.06,0,0,1,405,218c-1,7.41-1.14,14.92-1.58,22.39a20.76,20.76,0,0,0,.45,3.73,27.93,27.93,0,0,0,1.31-8.06c.13-2.61,1.48-3.14,3.87-2.4.16,1.86.31,3.68.47,5.51,2-6.43,1.6-7.14-3.72-7.91,0-.47-.1-1-.09-1.48.08-5.76.08-5.83,5.76-5.77,1.92,0,2.95-.71,3.32-2.52,1.06-5.28,2.1-10.58,3.2-15.86.9-4.33,1.89-8.65,2.84-13l1.54.35-10,43.76a3.62,3.62,0,0,0,1.71-2.2c.81-2.78,1.66-5.56,2.29-8.39q3.65-16.44,7.14-32.91c1.06-5,1.92-10,3.11-15,.31-1.27,1.56-2.31,2.38-3.45l.92.53c.38,2.77.58,5.59,1.18,8.31,1.07,4.85,1.86,9.86,3.73,14.4,2.38,5.79,5.78,11.15,8.63,16.76,2.36,4.64,6,9,2.65,14.81-3.19,5.48-5.23,12.12-13.57,11.37a.81.81,0,0,0-.6.13c-1.21,1.16-2.4,2.36-3.59,3.54,1,.93,1.92,1.91,3,2.76a6.44,6.44,0,0,0,1.93,1,4.69,4.69,0,0,1,3.48,5.23c-.36,5.52-.21,11.12-1.14,16.53-.74,4.23-2.8,8.23-4.29,12.38-6.62-3-12.39-5.92-19-5.89-3.6,0-6.5,1.29-8.07,4.76-.9,2-.41,3.13,2,3.36,3.52.35,7,.78,10.53,1.39a26.59,26.59,0,0,1,6.54,1.84c4.93,2.28,5.29,6.55,1,9.68-1,.73-2,1.5-3,2.26-3.73,2.88-7.14,6.06-8.39,10.8-.25.95.53,2.18.83,3.28a8.35,8.35,0,0,0,2.61-1,49.82,49.82,0,0,0,4.39-4.33c4.76-5.16,9.62-10.22,11.83-17.19a76.44,76.44,0,0,1,4.24-10.65,4,4,0,0,1,3.41-1.79,4.74,4.74,0,0,1,3,2.88,13.82,13.82,0,0,1-.06,5.9c-.9,4.58-2.07,9.11-3.15,13.65-.82,3.4-1.68,6.79-2.54,10.3l-8.6-4.7c-.26.37-.53.73-.8,1.1a17.18,17.18,0,0,0,2.12,2.7c2.42,2.08,5,4,7.44,6,1.32,1.13,3.63,2.64,3.47,3.67-.54,3.62-1.39,7.48-3.29,10.51-1.08,1.71-2.58,3.09-2.67,5.25s-.88,3.28-3.31,2.76a2.63,2.63,0,0,0-2.22.74c-2,2.9-4.34,2.48-6.92,1-1.35-.78-2.79-1.4-4.11-2.21-6.85-4.24-7.72-6.12-6.23-13.41a13.38,13.38,0,0,1,1.27-3.49c1.13-2.12.73-3.67-1.24-5.07a47,47,0,0,1-5.22-4.35c-3.81-3.64-7.25-7.62-6.47-13.39,1.41-10.51,2.88-21,4.66-31.48.88-5.16,2.51-10.2,3.8-15.32l-2.57-.83a11.39,11.39,0,0,0-.78,1.6c-2.87,9.82-5.63,19.67-8.65,29.44-.61,2-1.78,4.55-3.42,5.34A22.41,22.41,0,0,1,377,289.12c-6.08-1.94-9.72-7.05-13.67-11.61-2.44-2.82-5.49-5.11-5.73-9.59-.21-3.84-1.52-7.68-2.74-11.4-2.38-7.25-5.62-14.27-7.42-21.66-2.62-10.71-2.12-21.77-1.78-32.74.32-10.23.71-20.48-2.11-30.48-1.84-6.56-4.05-13-10.7-16.38-4.52-2.27-9.27-4.07-13.88-6.17-2.22-1-4.35-2.24-6.52-3.37.14-.33.29-.66.44-1a18.28,18.28,0,0,1,3.95.59c5.43,2,10.79,4.26,16.21,6.32a12.54,12.54,0,0,0,3.1.33c-.18-1.11,0-2.39-.57-3.32-3.38-6.12-8.65-10.43-14.26-14.37-3.72-2.62-3.76-3.27-1.58-7.31a80.2,80.2,0,0,0,4.35-9.86c2-5.41,4.44-10.5,9.36-14,1.9-1.34,3.22-1.22,3.87,1.23a18.93,18.93,0,0,1,.67,2.39c.42,3.52.68,7.06,1.17,10.57.69,4.9,1.16,5.19,6.09,5.69,2.16.22,4.27.8,6.41,1.22l1,1.65c-1.87,1.35-3.7,2.73-5.6,4s-1.34,2.51-.09,3.83c2,2.09,4,4.19,5.91,6.32,8.3,9.11,15.71,18.75,20.67,30.23a96.15,96.15,0,0,0,10.7,19.07c3.74,5.05,8.76,9.28,13.67,13.32,3.78,3.1,4.27,6.49,3.78,11-1.15,10.69-1.78,21.43-2.59,32.15a15.49,15.49,0,0,0,.28,2.77l1,0c.2-3.18.36-6.38.63-9.56.8-9.46,1.55-18.94,2.55-28.38.3-2.86-.21-5-2.43-6.93s-4.36-4.47-6.8-6.37c-8.49-6.62-14-15.28-18.26-25-2.37-5.44-4.73-11.08-8.19-15.82-5.76-7.9-12.37-15.17-18.69-22.65-1.21-1.43-1.69-2.41.06-3.82a28.64,28.64,0,0,0,3.74-4.1c1.21-1.46,1.09-2.72-.92-3.23a46.89,46.89,0,0,0-6.69-1.43c-4.11-.46-4.25-.69-4.65-4.94A117.33,117.33,0,0,0,338.88,104c-.7-3.46-2.68-4.23-5.63-2.49-4.69,2.76-7.4,7.11-9.45,12-1.77,4.17-3.27,8.49-5.39,12.47-2.64,4.95-2.24,6.67,2.29,10.08a131,131,0,0,1,11.12,9.84c1.15,1.09,1.79,2.71,2.67,4.09a28.07,28.07,0,0,1-6.22-2c-4.66-1.69-9.32-3.4-14.07-4.78-.92-.27-2.26.89-3.4,1.4.57,1,.9,2.45,1.76,2.91A75.83,75.83,0,0,0,324.35,153c10.46,3.34,16.14,10.53,18.27,21,2.1,10.33,1.94,20.76,1.47,31.2-.66,14.89-.16,29.61,6,43.58,1.09,2.48,1.93,5.07,2.89,7.61a47,47,0,0,1-8.58-17.86c-1.15-4.54-3.4-8.83-5.39-13.13-1-2.09-2.85-3.55-5.29-2.63s-4.58,2.32-4.35,5.39a56.65,56.65,0,0,0,1,7.7c.87,3.94,2.7,7.82.85,11.87-2.42,5.33-4.52,10.93-7.72,15.78-6.88,10.48-4.34,20.57.35,30.65a7.43,7.43,0,0,0,4.86,3.69c6.24.85,12.57,1.13,18.88,1.47a5,5,0,0,0,5.44-4.14c1.09-4.44,2-8.93,2.87-13.4.53-2.58,1-5.17,1.56-8.39,2.95,3.29,5.22,6.09,7.78,8.59,3.35,3.28,6.25,7.07,11.06,8.67,5.46,1.81,10.76,1.21,15.94-.5a10.55,10.55,0,0,0,5-4.1c1.54-2.3,2.31-5.11,3.41-7.71a19.69,19.69,0,0,1,0,5.37c-.51,5.28-1,10.57-1.54,15.86-.43,4.35,1.34,7.9,4.14,11a34.4,34.4,0,0,0,6.05,5.72c3.12,2.06,3.39,4.19,2.06,7.5-2.68,6.68-1.54,10.4,4.07,14.64,2.05,1.56,4.42,2.68,6.57,4.11,5.29,3.53,8.95-2.36,13.63-2.29.73-4.11,3.34-7.32,5.21-10.88.09-.16,0-.42,0-.62A20.37,20.37,0,0,1,442,324.4c1.32-2.6,1.74-4.82-1.17-6.64a9.42,9.42,0,0,1-2.25-2.07A2.29,2.29,0,0,1,438,314c2-7.31,4.21-14.56,6-21.9a41.35,41.35,0,0,0,1-9.3c0-2.9-1.73-4.85-4.58-5.47-2.67-.58-4.58.87-5.79,4-1.64,4.21-3.34,8.4-5.16,13-1.87-5.91-5.66-8.86-11.38-9.53-4.12-.48-8.22-1.18-12.35-1.78.85-3.22,2.19-4.19,5.61-4.47,6.43-.51,12,2.19,17.52,4.84,2.41,1.16,2.95.73,4.14-1.36,3.61-6.31,4.69-13.19,4.89-19.42a65,65,0,0,0,2.65,8,67.52,67.52,0,0,0,5.64,9.93c4,5.86,7.7,12,13.86,16.15,9.86,6.58,20.18,10.43,32.29,7.41,2.76-.68,5.83-.1,8.76-.1l0,1c-6,.18-12,.23-17.93.59a107,107,0,0,0-12.09,1.49c-2.69.48-3.32,2.39-1.68,4.59a27.07,27.07,0,0,0,4.16,4.58c7.61,6.32,15.32,12.52,23.14,18.87a1.06,1.06,0,0,1-.16.54c-7.07,10.29-14,20.67-21.29,30.82-4.62,6.45-10.11,12.24-13.58,19.54-3.92,8.24-4.64,15.68,2.09,23.11,7.14,7.9,13.57,16.44,20.39,24.64,5.6,6.72,8,6.57,13-.48,3,1.42,6,2.85,9,4.22s6.06,3.27,9.1,1.07a34.39,34.39,0,0,0,6.45-6.79c1.2-1.54,1.81-3.54,2.9-5.77.16,2.23.37,3.73.32,5.23a2.89,2.89,0,0,1-.9,1.74c-3.95,3.86-3.84,6.34.9,9.28,3.4,2.11,7.12,3.7,10.63,5.64a9.13,9.13,0,0,1,1.91,2l-.7.64a14.12,14.12,0,0,1-2.27-.9c-4.38-2.73-8.77-5.46-13.07-8.3-2.09-1.39-3.42-1.62-4.89,1-4.66,8.29-10.39,16-10.9,26.13-.35,6.88-1.46,13.74.6,20.51.83,2.74,2.55,4.44,5.71,4.23,4.72-.31,8.31-2.94,11.83-5.68,6.53-5.08,11.7-11,12.81-19.71.59-4.64,1.51-9.23,2.27-13.79,3.29-1.38,7-2.36,10-4.41,2.77-1.89,5.05-1.73,7.83-.75,8,2.8,16.14,4.25,24.48,1.69,10.18-3.12,19.52-7.53,24.78-18a19.57,19.57,0,0,1,.78,3.13c.62,7.47,7.73,13.72,15,14.27,5.2.4,10.42.6,15.64.67,2.08,0,3,.78,3.37,2.77.55,3.17,1.2,6.33,1.9,9.49,2.32,10.54,7.67,19.6,14.25,27.94,4.09,5.18,7.86,5.12,11.3-.5A51.85,51.85,0,0,0,674,476.65c3.16-11.95-.62-23.13-4.39-34.65-3.94,2.09-7.36,4.24-11.05,5.77s-7.49,3.21-11.46.45c12.25-3.43,19.3-3.67,29-17.19,3.06,4.35,6,8.77,9.22,13a6.58,6.58,0,0,0,3.65,2.06c6.18,1.31,11-1.85,15.62-5.23,1.82-1.32,3.43-4,5.2-4,2-.06,4,2.13,6.08,3.33,5.46,3.19,6.5,3.35,10.86-1.58a206.51,206.51,0,0,0,13.54-17.35c3.65-5.17,7.06-10.59,7.37-17.25.26-5.42.58-10.87-2.85-15.62-1.81-2.51-3.37-5.3-5.56-7.43-3.72-3.62-3.81-7.33-1.93-11.85,1.13-2.71,1.33-5.8,1.94-8.73l-.06,0c-1.37,1.74-2.82,3.42-4.06,5.25s-2.29,3.86-3.88,6.58l-4.37-8.68,12.31-3.15.08-.1.07.06c4.65-2.12,9.28-4.27,13.93-6.38,1.9-.85,3.84-1.61,6-2.49.17,1.06.24,1.57.33,2.08,1,5.6,1.43,11.38,4.74,16.28,2.13,3.16,4.94,5.37,9,5,3.84-.35,5.33-3.12,6.29-6.38.79-2.69,1.75-5.32,2.45-8,1.39-5.3,2.66-10.64,4.09-16.42,1,1.45,1.67,2.51,2.44,3.46,3.09,3.85,6,7.91,9.41,11.41,2.41,2.43,7.45,2,9.8-.31-1.83-.89-3.54-1.76-5.28-2.56-3.65-1.66-6.91-3.92-7-8.27a52.06,52.06,0,0,1,1-13.33c1.28-5.31,10.18-8,14-4.63a57.88,57.88,0,0,0-6.27,3.91,30.94,30.94,0,0,0-5.39,5.52c-3.13,4.23-2.48,11.67,1.5,14.11a27.2,27.2,0,0,0,10.27,4.14c4.85.63,8.37,2,10.16,6.91.58,1.56,2,2.82,3.22,4.11a6.91,6.91,0,0,0,2,1c.06-1.27.09-2.08.15-2.88s.16-1.65.24-2.47a22.76,22.76,0,0,0,8.42,14.48c2.2,1.84,4.1,2.17,6.38.45s4.32-3.18,6.45-4.82c4.65-3.59,5.78-8.43,4.8-14-.31-1.74-.8-3.46-1.1-5.21-1.14-6.89-6.92-8.56-12.27-11.28.53-1.38,1.21-3.1,1.87-4.83,1.37-3.6.62-7.59-1.84-9.77-2.22-2-4.68-1.19-5.31,1.7-.37,1.74-.37,3.63-1.12,5.18a7.37,7.37,0,0,1-3.26,3.18c-1.62.77-3,0-4.15-1.67-2.49-3.78-5.41-7.29-7.87-11.09-5.8-8.94-13.57-16.85-14.34-28.43-.37-5.68-2.06-11.29.63-16.88,2.32-4.83,4.47-9.74,6.59-14.67a14.46,14.46,0,0,0,.61-3.26l-1-.2c-2.23,5.18-4.41,10.38-6.68,15.54-4.84,11-3,22,2,31.86,5.28,10.2,12.68,19.31,19.38,28.74.79,1.12,2.93,1.66,4.49,1.76a4.42,4.42,0,0,0,4.75-3.19c.8-2.62,1.4-5.3,2.08-8l1-.34a18.38,18.38,0,0,1,2.59,2.95c1.42,2.56.3,5-.65,7.44-1.36,3.5-2.67,7-4,10.53l.82.52c.75-.85,1.57-1.64,2.25-2.54,1.58-2.1,3-2.16,5.47-.84,4.7,2.49,6.81,6.37,7.17,11.24.3,4,1.83,8.46-1.69,11.86a69.91,69.91,0,0,1-8.58,7.07,4.26,4.26,0,0,1-3.87-.08c-6.08-4.22-8.22-10.45-8.15-17.56a3.77,3.77,0,0,1,1.86-2.62,31.08,31.08,0,0,1,5.28-1.74c-2.4-2.36-4.87-2.18-7.22-1.49a4.86,4.86,0,0,0-3.72,4.82c0,2.21,0,4.42,0,6.62l-.89.19c-1-1.76-2.12-3.47-3-5.28a7.46,7.46,0,0,0-5.75-4.11c-3.81-.76-7.47-2.24-11.24-3.27-5.08-1.38-6.4-8.27-4-11.64a45.42,45.42,0,0,1,8.21-8.12c1.89-1.56,4.34-2.45,6.53-3.64,0-.34,0-.68-.05-1l-4.78-1.57c-5.85-2-13.62,1.81-14.79,7.81-.83,4.32-.54,8.88-.51,13.33,0,3.85,2.48,6.19,5.62,8,1.19.67,2.29,1.51,3.42,2.28l-.82.83c-11-5.27-13.84-17.54-21.21-26.11l-10.93,8-.51-.66c2.13-2.33,4.32-4.6,6.37-7,2.93-3.4,2.92-4.26,0-7.7A16.52,16.52,0,0,1,772,316.4a94.6,94.6,0,0,0-2-12.89c-1.1-4.71-1.62-9,1.69-13.21,3.58-4.52,6.75-9.36,10.25-13.95,2.14-2.81,4.55-5.41,7.4-8.77,3.25,5.28,6,9.8,8.8,14.33l1.25-.61a37.17,37.17,0,0,0-1.92-5.14c-3.26-6.06-4.4-11.78.67-17.69,2.82-3.27,4.88-7.25,9.35-8.56,1.49-.43,3.52-.76,4.7-.08a3.29,3.29,0,0,1,1.09,4.62A46.53,46.53,0,0,0,811,261l1,.32c2.24-3.62,4.57-7.22,2.77-12.53,9.42,1.45,15.63-3.76,21.73-9.25,3.64-3.28,7.31-6.55,10.5-9.41,11.47,10.82,23.2,10.62,35.56,2.49l-3.67,4.28c2.24,2.11,4.33,3.93,6.26,5.91a8.47,8.47,0,0,0,6.68,2.52c18.6-.2,37.21-.25,55.82-.34Zm-174-66.5c-.07.6-.23,1.18-.35,1.77-1.57-8.59-2.52-17.13-.82-25.78a100.74,100.74,0,0,0,1.72-12.69c.07-1.19-1.14-2.79-2.21-3.65-1.78-1.45-3.93-2.47-5.69-4.21,1.74.12,3.49.16,5.21.37,2.54.32,3.74-.39,3.25-3.23q-1.41-8.16-2.48-16.36c-.93-7.24-1.87-14.48-2.47-21.75a10.87,10.87,0,0,1,5.2-10.75,293.47,293.47,0,0,0,.42,45c.44,4.83,1.29,9.62,2,14.41,1.13,7.4-.85,14.5-2,21.7C715.35,166.29,714.88,171.38,714.26,176.45ZM766.14,58c-3.27-6.74-2.46-13.68,2.2-17.28Q767.25,49.36,766.14,58ZM701.62,251.47c1.42-2.22,2.86-4.42,4.8-7.41-.9,7.59-3.94,14-1.48,21.57a28.62,28.62,0,0,1-2.57-2.22C698.28,258.66,698.18,256.86,701.62,251.47Zm-20.46,70.72c3.34,3.83,2.54,8.93-3.48,25.19C678.8,339.25,679.93,331.11,681.16,322.19ZM642.7,232.94c5.38-3.8,10.85-7.47,16.25-11.25,2.18-1.53,3.51-.82,3.44,1.59-.2,7-.57,13.93-1.1,20.87-.4,5.25-4.78,6.51-8.75,8.08a39.59,39.59,0,0,0-4.2,1.89,8.14,8.14,0,0,0-4.6,8.15c.06,1.11,0,2.23,0,3.34l-.89.32c-.39-1.11-1.24-2.29-1.08-3.31a60.75,60.75,0,0,1,1.94-7.82c1.6-5.53-.42-10.38-2.72-15.18C639.08,235.6,639,235.54,642.7,232.94Zm-68.41-4.19a8.31,8.31,0,0,0,3.23-3.49c1.47-3.89,4.48-5.42,8.14-6.37,10.83-2.81,21.49-1.43,32.14,1.06a83.2,83.2,0,0,0,8.2,1.77c5.42.72,7.9,4.59,9.75,9a40.24,40.24,0,0,1,3.19,10c.55,4.13.13,8.38.13,12.58l-.83.14c-1.21-8.33-4.44-15.5-11.52-20.48-3.79-2.67-7.85-4.85-12.53-4.91a98,98,0,0,0-34.64,5.39c-2.94,1.06-4.48,3.25-5.41,6A50.35,50.35,0,0,0,571.47,260a10.63,10.63,0,0,1-.05,1.87c0,.16-.25.3-.62.73a10.18,10.18,0,0,1-.7-2.22c-.39-7.88-.93-15.76-1-23.65C569.06,233.23,571.38,230.71,574.29,228.75ZM572,281.25c-2.66-4.07-5.52-8-5.39-13.17,0-.77.72-1.51,1.1-2.27.69.44,1.72.72,2,1.33C571.71,271.59,573,276.19,572,281.25Zm1.81-12.48c-1.23-10.82-1.55-20.76,2.48-30.2.81-1.88,3.3-3.63,5.38-4.26a96.28,96.28,0,0,1,33-4.55c7.35.36,17.89,7.1,20.56,17.82.87,3.52,1.21,7.17,1.79,10.76a5.71,5.71,0,0,0,.78,2.31c2.85-4.33,2.63-9.39,3.6-14.13l.89,0c.06,2,.45,4,.13,5.88A104.53,104.53,0,0,1,639.86,263c-.44,1.56-.23,2.33,1.25,3.26,3.44,2.18,3.51,3.95,1.94,8a25.59,25.59,0,0,1-1.68,3.3,9.71,9.71,0,0,1-2.29,2.81,17.13,17.13,0,0,1,.23-2.79,16.61,16.61,0,0,0-2.76-14.74,18.79,18.79,0,0,1-4-11.55c0-.21,0-.42,0-.63-.51-8-.53-8.16-8-10.58-2.86-.92-5.86-1.4-8.79-2.13-6.22-1.56-11.78,0-17.41,2.85-6.58,3.32-13.08,7.52-22,5.36C579.65,254.5,576.84,261.21,573.81,268.77ZM332.42,74.23c-1.3-2.62-2.64-5.23-3.9-7.87-1.56-3.27-3.1-6.55-4.54-9.87-2.75-6.34-2.45-13-1.93-19.69.1-1.3,1.24-2.53,1.95-3.76s2.39-2.7,2.36-4c-.17-7.88,4.1-12,11-14.71,7.06-2.76,13.93-6.38,21.64-6.52,9.4-.17,18.76.67,26.1,7.76,3.94,3.79,4.9,9,6.47,14a33,33,0,0,1,1.58,8.9c-1.75-2.84-3.51-5.67-5.24-8.52a11,11,0,0,0-9.47-5.48A145.45,145.45,0,0,0,342,27.16c-7.49,1.57-15.07,11.05-15.24,18.92a51.49,51.49,0,0,0,5.7,25.27c.4.77.71,1.59,1.06,2.39Zm66.81-19c4,3.44,5.16,12,2,17.52-1.69-4.07-3.44-7.73-4.72-11.54C395.71,58.68,397,56.62,399.23,55.24ZM336.33,79,344,94C337.21,92.55,332.87,84.65,336.33,79Zm64.18,24.51A91.6,91.6,0,0,1,397,112.1c-1.6,3.8-4.93,5.44-8.57,6.53-5.53,1.67-11,2-16.23-1.16-5.64-3.4-11.95-6-16.89-10.2-3.81-3.25-6.19-8.31-8.81-12.8C341,85,338.42,74.35,336.28,63.69c-.41-2.08.39-4.52,1-6.68,1.14-3.91,1.48-7.75-.29-12a32.15,32.15,0,0,1,4.8.29c8.86,1.93,16.53-.59,23.77-5.68,6.09-4.29,13.18-4.23,19,.36,3.7,2.91,5.73,7.27,6.94,11.86,1.46,5.51,2.78,11.06,4.34,16.54a12.52,12.52,0,0,0,2,3.27c.72,4.09.58,8,2.12,11C403.61,89.65,402.65,96.5,400.51,103.46Zm-44.83,170.4c-1.12,6.46-2.38,12.9-3.69,19.32-.53,2.62-1.86,4.74-5,4.54q-9-.6-17.95-1.43c-3.05-.28-4.52-2.6-5.18-5.14-1.27-4.91-2.88-9.92-2.93-14.9,0-3.67,1.9-7.48,3.45-11,2.62-5.93,6-11.57,8.3-17.6,1-2.5.41-5.72.06-8.56s-1.43-5.84-2-8.8c-.49-2.61.37-4.89,3-5.82,2.79-1,4.06,1.33,4.86,3.24a99.73,99.73,0,0,1,4.2,12,68.41,68.41,0,0,0,7.84,17.41,12.65,12.65,0,0,1,.94,3.39,18.93,18.93,0,0,1-3.82.16c-3.55-.54-7.06-1.27-10.59-1.92l-.45,1.17a46.84,46.84,0,0,0,4.82,1.59c3.56.79,7.15,1.42,10.73,2.08a3.93,3.93,0,0,1,3.58,4A32.44,32.44,0,0,1,355.68,273.86Zm59,39c-1.11-4.8,7.7-12.68,12.92-14.14ZM537.05,454.15c-1.33,7-1.91,14.35-4.51,20.89-3.06,7.71-9.93,12.59-17.42,16-4.25,1.92-6.88.11-7.81-4.57a36.57,36.57,0,0,1-.65-4c-.11-1.24,0-2.5,0-3.75-.67-13.16,3.94-24.66,11.29-35.22a3.14,3.14,0,0,1,3-.49c5,2.87,9.94,5.91,14.81,9A2.86,2.86,0,0,1,537.05,454.15Zm73.51-119.33a4.14,4.14,0,0,1,2.3-4c4.47-2.56,8.78-5.42,13.95-7.8-2.5,13.39-5.11,26.76-7.48,40.18s-8.13,25.73-14.23,38c1-3,2-6,3.12-8.92,1.55-4.05,3.08-8.13,4.91-12.05s.63-7.63.26-11.37a141.3,141.3,0,0,0-2.65-16.35c-.48-2.2-2-4.17-3-6.2L610,346C610.16,342.27,610.45,338.55,610.56,334.82ZM592,366.55a20.21,20.21,0,0,1-.83,2.2l-.9-.09q-4.87-26.4-9.74-52.8l.76-.18c.92,2.06,1.94,4.07,2.74,6.17,1.89,5,6.12,7.27,10.48,9.53a6.84,6.84,0,0,1,2.28,2.84c2.59,4.75.8,9.5-.27,14.18C595.15,354.48,593.54,360.5,592,366.55Zm1.61,6.24a8.83,8.83,0,0,1-.44-4.53c2-8.49,4.53-16.86,6.09-25.42A20.81,20.81,0,0,0,597.82,332c-.72-1.84-3.81-2.9-6-3.95-4.09-2-5.87-5.47-7.3-9.71,3.8,3.23,7.12,6.57,11,9.15s8.31,4.29,13.28,3.38c0,4,.09,7.85-.09,11.68,0,.63-1.18,1.34-2,1.76-.48.26-1.25-.06-1.84.07-1.22.28-2.41.68-3.61,1,1,.87,2.06,2.4,3.16,2.48,4.14.28,4.76,3.31,5.23,6.28,1.1,7,2.48,14,2.72,21.06.11,3.47-2,7.06-3.23,10.53-1.62,4.46-3.42,8.86-5.44,14.07-1.83-4.69-3.45-8.68-4.95-12.71C597,382.36,595.2,377.6,593.62,372.79ZM530.78,203.13c2.94,9.05,6.13,18,8.65,27.2,3.6,13.11,6.78,26.34,9.93,39.57a38.54,38.54,0,0,1,.61,8.74,2.87,2.87,0,0,1-1.54,2.16c-7.57,2.47-15.19,4.79-23.26,7.3-.57-8.78-1.58-17.12-1.53-25.45.08-10.18-2.51-19.76-5.3-29.33-2.46-8.44-5.19-16.81-7.94-25.16-1.21-3.69,1-5.76,3.1-8.12s4.13-3.19,7.13-1.86,6,2.19,9,3.38A2.73,2.73,0,0,1,530.78,203.13Zm-80.7-120.8c-1.3-4.42-4.58-6.88-8.59-8.24-4.89-1.66-9.95-2.82-14.93-4.23-1.58-.44-3.14-1-4.71-1.46-.13-.32-.26-.64-.38-1L440.41,58l-.3-1.08a9.07,9.07,0,0,0-2.39,0c-6.06,1.78-12,3.87-18.16,5.38a30.12,30.12,0,0,1-9.43.6c-2.82-.21-3.78-2.72-3.87-5.23a3.13,3.13,0,0,1,1.66-2.39c9.21-3.17,18.45-6.28,27.74-9.21,7.8-2.45,13.89.75,19.36,6.14,5.77,5.69,9.62,12.66,13.61,19.56,2.94,5.09,5.64,10.33,8.67,15.37,1.3,2.16,1.24,3.4-1.15,4.54-2.14,1-4.07,2.45-6.15,3.6-6.2,3.42-8.66,9.77-12.09,15.35-.38.62-.75,1.24-1.18,1.82-.17.23-.49.36-.06.06-.42-4.13-.43-8.5-1.38-12.64C453.91,94,451.79,88.19,450.08,82.33Zm18.2,16.39-14.54,25.75C456.43,114.66,461.94,106.45,468.28,98.72Zm-12.5,27.1a79.12,79.12,0,0,1,15.45-27c5.71-6.72,13.53-6.88,21.51-6.47a23.56,23.56,0,0,0,7.7-.51A11.85,11.85,0,0,1,513,95.11c7.11,7.25,13.68,15.11,18,24.33,2.31,5,3.13,10.71,4,16.2.67,4.12-2.76,6.69-5.11,9.53-1.57,1.9-3.3,3.67-5,5.51l.86.89c2.24-1.78,4.44-3.6,6.72-5.32a68.54,68.54,0,0,1,7.85-5.47,5.46,5.46,0,0,1,4.51,0c9.62,5.32,15.16,13.75,17.89,24.25,2.31,8.83,4.93,17.58,7.12,26.44,2.05,8.27,3.82,16.62,5.42,25,.22,1.19-1,2.88-1.94,4-2.93,3.68-6.29,7-9,10.87-1.19,1.71-1.41,4.24-1.68,6.44-.59,4.73-.92,9.49-1.36,14.23l-1.13.08a28.12,28.12,0,0,1-1.14-4.51c-1-12.27-1.58-24.59-3-36.82s-3.6-24.52-5.42-36.78c-.42-2.78-1.71-4.16-4.75-4.06-2.43.08-4.87-.46-8.07-.82,2.89-2.54,5.1-4.62,7.46-6.53,1.85-1.5,2.11-2.76.28-4.55a80.54,80.54,0,0,1-7.15-7.75c-1.64-2.07-2.85-1.54-4.69-.37-7.14,4.57-10,11.58-11.43,19.44a6.68,6.68,0,0,1-1.63,3.75c-.72.74-1.73,1.36-2.12,2.24-2.27,5.09-4.27,10.3-6.62,15.35-1.25,2.7-3.12,5.1-4.48,7.76-1.21,2.35-2.71,2-4.58,1a78.85,78.85,0,0,1-18.59-13.3,13.2,13.2,0,0,0-1.65-1.21l-.66.68c1.37,1.7,2.71,3.42,4.12,5.08,2.55,3,5,6.08,7.77,8.86,1.38,1.38,1.1,2.18,0,3.32s-2.21,2.41-3.43,3.75c-7.06-8-9.59-17.73-11.83-26.5,4.61,2.87,9.69,6.32,15,9.29,5.93,3.3,10.35,2.36,14.66-2.76a81,81,0,0,0,14.26-24.78c1.07-3,.64-6.6.4-9.9-.31-4.36-1.1-8.69-1.7-13-.79-5.68-4.36-9.91-8.14-13.64a29.48,29.48,0,0,1-8.8-17c-.08-.49-.69-.9-1-1.33-.34.21-.62.28-.64.41-1.9,9.19-9.77,12.49-16.54,16.94-4.83,3.18-9.51,6.6-14.26,9.91-2.3,1.6-3.54,3.67-3.16,6.6.54,4.25,1,8.5,1.42,12.76.23,2.13.41,4.27.71,7.35-1.95-2.41-2.06-5.44-5.39-4.92-2.35.37-4.85-.12-7.17.33-1,.19-2.13,1.65-2.55,2.77a60.86,60.86,0,0,0-2.14,7.78c-.51,2.21-1.56,3.57-4.05,3.33-1.33-.13-2.68-.15-4.39-.24.38-2.6.54-5.06,1.12-7.42C449.34,150.31,451.94,137.87,455.78,125.82Zm32.83,141.74c-9.42-16.43-19.08-32.76-27.92-49.5-3.13-5.92-4.18-12.93-6.21-19.43-.79-2.52.38-4.23,2.23-5.63,3.35-2.53,6.75-5,10.61-7.84-3.83-2.13-7.3-4-10.73-6-4.33-2.48-4.31-6.94,0-9.68,2-1.28,3.81-2.78,6.17-4.52l11.65,19c1.24,2,2.29,4.18,3.7,6.07,4.37,5.82,5.45,12.88,7.46,19.56,2.61,8.63,4.71,17.4,7.05,26.11,2.74,10.22,5.1,20.53,2.44,31.1-2.91,11.58-8.61,21.33-22.28,23.77-2.94.53-5.86,1.14-8.78,1.71L463,291a8.47,8.47,0,0,0,1.71-.5c8.73-4.66,16.23-10.94,23.32-17.75C489.77,271.16,489.8,269.63,488.61,267.56Zm-13-91.62a48.77,48.77,0,0,1,2.81,11.67l-15.36-25.1-7.44,5.66-.71-.46c.84-2.84,1.66-5.68,2.55-8.5a2.34,2.34,0,0,1,1-1.08c3.64-2.09,8.6-.21,10.36,3.66C471,166.55,473.68,171.1,475.65,175.94Zm-1.38-10.27a115.48,115.48,0,0,1-3.74-25.24,5,5,0,0,1,2.2-4.8c7.19-4.84,14.28-9.84,21.58-14.51,3.86-2.47,7.12-5.23,8.79-10.54.72,2.43.91,4.26,1.76,5.71a92.86,92.86,0,0,0,5.89,8.61c2,2.63,4.4,5,6.34,7.65a11.54,11.54,0,0,1,2.22,5.06c.87,7.33,1.86,14.7,1.92,22.07,0,3-1.92,6.22-3.51,9q-4.66,8.34-10,16.29c-2.61,3.9-6,5.85-11.09,3.92C485.42,184.68,477.48,177.67,474.27,165.67ZM404.86,79.29c.53-2.32,1.22-4.59,1.94-7.24,3.87,1.42,7.56,2.64,11.14,4.13s7.3,3.43,11,5a4.92,4.92,0,0,1,3.29,4.8c0,2.39-.1,4.79-.14,7.19,0,1.09,0,2.19,0,3.77l10.72-5.17c1.78,4.05,3.46,7.79,5.07,11.56,1.5,3.51,2.74,7.14,4.44,10.54a7.9,7.9,0,0,1,.48,5.93c-1.52,6-2.81,12.07-4.25,18.36-3.44-5.46-6.59-10.78-10.05-15.89-6.3-9.33-12.43-18.8-19.33-27.67-3.29-4.23-8.05-7.39-12.42-10.65C404.88,82.61,404.42,81.22,404.86,79.29ZM401,116.74c1.79-5.21,4.33-10,4.86-14.94s-.94-10.14-1.55-15.32c4.89,4.14,13.44,27.54,11.69,33.84Zm-30,6.37c7.86,3.55,15.46,2.44,23.44-.83-1.95,5.31-3.68,10-5.61,15.22Zm46.81,73.69c-1.33,8.41-2.9,16.78-4.39,25.18h-6.6c0-2.57-.47-5,.08-7.27,1.78-7.19-.51-13.7-2.59-20.37-3.14-10.09-5.91-20.29-9-30.4-1.93-6.33-4.1-12.58-6.18-18.87-.68-2-1.42-4.08-2.25-6.45,4.87,1.89,3.36-2.73,4.69-3.54a57.87,57.87,0,0,1,6.45,2.8,5.9,5.9,0,0,1,2.81,3.08c3.46,14.18,5.11,28.84,11.52,42.21,1.47,3.07,3.07,6.09,4.43,9.22A8.63,8.63,0,0,1,417.82,196.8Zm10-27.6c-6.16,1.24-6.15,1.24-7.06,7.62a96.7,96.7,0,0,1-2.87,14.27c-1.87-4.09-3.75-8.19-5.61-12.29-4.62-10.21-5.91-21.3-8.46-32.06-.43-1.82-.74-3.67-1.11-5.5-.56-2.79-1.43-5.06-5-5.3-2.48-.17-4.55-1.2-2.54-4.44a11.67,11.67,0,0,0,1.58-4.36,43.49,43.49,0,0,0,.06-6c3.62-1.36,7.23.64,11,1.41-3.41,2.14-4.15,5.44-1.45,10.16,4.6,8.05,9.6,15.88,14.47,23.77,2.52,4.07,5.14,8.08,7.68,12.06C428.14,169,428,169.17,427.84,169.2Zm1.38-2.94c-7-11-14-21.93-20.7-33-1.32-2.17-1.59-5-2.51-8l9.91-.54c0-.34.05-.69.07-1l-4-1.72c0-.21,0-.42.05-.64a9.91,9.91,0,0,1,3,.31c2.71,1.2,3.37-.28,3-2.4-.73-4.49-1.3-9.09-2.74-13.38-2-5.85-4.65-11.46-7-17.18-.19-.45-.32-.92-.63-1.8,7.19,3.85,11.47,9.85,15.6,15.9,6.75,9.89,13.16,20,20,29.84,3.77,5.38,4.18,10.86,2.24,16.79q-2.26,6.92-4.72,13.78c-1.33,3.74-6.76,5.05-10.05,4.46A2.84,2.84,0,0,1,429.22,166.26Zm10.72,1.22,4-6.39C444.35,164.85,443,167.18,439.94,167.48Zm-8.89,3.15,6.23-.55c0,.23.07.45.11.68l-6,1.38C431.28,171.64,431.17,171.13,431.05,170.63Zm6.42,2.65-5,4.25C430.89,173.82,431.92,172.91,437.47,173.28Zm6.11,38.18c-2.41-5-5.34-9.76-7.75-14.76a19.69,19.69,0,0,1-1.59-7.39c5.64,9.34,11.34,18.64,16.85,28.06a7.1,7.1,0,0,1,.35,4.47,34.51,34.51,0,0,1-1.89,5.45C450,221,446,216.47,443.58,211.46Zm-7.38,37c-1.54-1.6-4-2.35-6-3.47l-.09-1.15c1.27-.43,2.53-1.21,3.8-1.22,6.48-.06,9.7-4.18,12.19-9.34a6.86,6.86,0,0,1,2-2.7l-9.21,23C438.34,252.51,437.72,250.06,436.2,248.48Zm16.94,38.88c-4.32-6.51-8.93-13-12-20.12-1.63-3.81-1.12-9.16,0-13.39,1.82-6.83,5-13.29,7.53-19.94,1.61-4.25,3.23-8.51,4.5-12.86a6.24,6.24,0,0,0-.73-4.38c-4.15-7.12-8.65-14-12.73-21.2a109.84,109.84,0,0,1-6.18-13.07,4.62,4.62,0,0,1,.67-4.11c4.79-4.78,10.24-8.1,17.73-5.78-2,6.67,3.84,7.75,7.7,10.31,1.26.84,2.65,1.49,4.41,2.47-3.08,2.43-5.68,4.72-8.54,6.66s-3.22,4.55-2.66,7.64c1.81,10.11,5.82,19.35,10.95,28.18,7.78,13.36,15.47,26.78,23.19,40.17a2.92,2.92,0,0,1-.55,4.11,102.18,102.18,0,0,1-23.42,17.63C458.51,292.09,456,291.61,453.14,287.36Zm43.65,44.51c-5.88-1.83-25.69-19.13-26.11-23.09,2.82-.42,5.65-1,8.51-1.23,6.36-.38,12.74-.47,19.11-.83a22.41,22.41,0,0,0,5.45-1.13c.74-.24,1.28-1.13,1.92-1.72-.75-.61-1.48-1.72-2.25-1.76-2.91-.12-5.83.09-8.75.2-5.73.22-11.6,1.36-17.14.44-4.92-.81-9.47-3.86-14.15-6a36.11,36.11,0,0,1-3.62-2.38c2.19-.32,3.55-.4,4.85-.72,5.71-1.44,11.74-2.19,17-4.6,8.16-3.71,11.9-11.42,14.35-19.66,2.73-9.16,2.2-18.37-.2-27.48-3.23-12.23-6.66-24.4-10-36.6a10.12,10.12,0,0,1,0-2.07l4.42,6.37c2.36-2.78,4.51-5.21,6.49-7.79.26-.34-.25-1.45-.63-2.06a7.76,7.76,0,0,1-1.6-3.31c2.7,1.54,5.42,3.07,8.11,4.65,3.22,1.89,4.08,1.82,5.86-1.42,4.07-7.39,8-14.87,11.91-22.27,2.21,6.64,4.57,13.7,7.19,21.59-3.25-1.18-5.65-2-8-2.93a4.55,4.55,0,0,0-5.38,1.24c-1.05,1.14-2.3,2.09-3.34,3.23A7.69,7.69,0,0,0,509,209c3.63,10.91,7.15,21.88,10,33a122.21,122.21,0,0,1,3,20c.74,8.52.91,17.1,1.38,25.66a2.91,2.91,0,0,1-1.58,3.17c-1.76,1.15-2.89,3.36-4.16,5.19-.87,1.26-1.51,2.67-2.24,4-4-1.29-3.77-1.21-5.38,2.64-3.73,8.94-7.66,17.79-11.56,26.66A15.93,15.93,0,0,1,496.79,331.87Zm17-28.76c-2.17,4.28-4.49,8.49-6.77,12.72l-.49-.26,6.19-15.12C513.3,301.78,514,302.69,513.81,303.11ZM494.66,434.17c-1.69,2.72-4,3.63-5.87,1.89a71.28,71.28,0,0,1-5.74-6.5c-6-7.21-11.84-14.63-18.12-21.62-6.57-7.29-5.65-14.77-1-22.17a195.58,195.58,0,0,1,14.29-20.19c12.14-14.81,21.29-31.41,30-48.3,2.34-4.54,4.75-9,7.47-14.18,2.24,2.42,4.18,4.4,6,6.51a3.22,3.22,0,0,1,.54,2.28,58.63,58.63,0,0,0,2.56,28,29.09,29.09,0,0,1,.13,17.59c-.48,1.6-3,3.16-4.83,3.68-6.86,1.94-12.61,5-15.79,11.84-1.17,2.51-4.54,3.31-8,2.81-4.12-.59-8.28-1-12.42-1.36a4,4,0,0,0-2.45.27,6,6,0,0,0-2.25,2.67c-.14.38,1.26,1.7,2.14,2a17.68,17.68,0,0,0,4.26.22,77.59,77.59,0,0,1,9.54.32c1.09.16,2.44,1.83,2.77,3.05a4.1,4.1,0,0,1-2,5c-4.22,2.4-8.38,4.92-12.43,7.61-6.32,4.18-7.61,10.14-4.43,17.07A57.14,57.14,0,0,0,489.14,428a20.73,20.73,0,0,0,3.64,2.85C494,431.7,496.09,431.87,494.66,434.17Zm37.25-30.88a33.54,33.54,0,0,1-2-7.26c-.89-4.69-1.72-9.41-2.38-14.14-.81-5.74-2.6-11.51-.48-17.3,1.14-3.11,2.52-6.13,3.87-9.15,3.36-7.5,2-14.64-.9-22C527.55,327,526,320.29,524,313.7l1.27-.62c3.69,5.5,7.64,10.85,11,16.54a79.69,79.69,0,0,1,9.33,23.6,85.45,85.45,0,0,1,1.07,32.35,147.76,147.76,0,0,1-10.17,34.54,21.22,21.22,0,0,1-9.4,10.22l-.93-.38c.5-1.63.89-3.3,1.52-4.87,1.71-4.22,3.39-8.46,5.32-12.59C534.54,409.1,533.27,406.32,531.91,403.29ZM531,343.21c1.34,4.78.07,9.51-2.37,13.52-5.33,8.79-4.23,17.85-2.38,27.18.93,4.65,1.14,9.44,1.81,14.15.22,1.52.46,3.31,1.37,4.4,3.88,4.64,2.74,9.21.32,13.9-.38.73-.73,1.48-1.09,2.23l-.91-.13a20.46,20.46,0,0,1,1-4.11c2.3-4.87,2.27-6.21-1.68-10.17-3-3.06-6.35-5.89-9.69-8.65-1.54-1.27-1.82-2.31-1.16-4.25,1.68-4.9,3.08-9.9,4.44-14.9,1.22-4.49,1.24-8.84-2.81-12.5a23.94,23.94,0,0,1,4.16-1.69c3.72-.74,4.48-3.51,5-6.6,1.25-7.38-.3-14.39-2.22-21.5-1.3-4.81-1.38-9.94-2-14.93l1-.14C526.22,327.08,528.76,335.11,531,343.21ZM511.73,367c-3,7.06-4.86,14.7-11.85,20-.29-3.84.39-7.48-3.91-8.95.63-.33.83-.53,1-.51,6,.78,8.7-3,11.15-7.51A8.12,8.12,0,0,1,511.73,367ZM493.2,377.84H480.88C483.24,375.31,489.4,375.46,493.2,377.84Zm-9.65,39.78c-5.33-9.55-7-15.1,1.28-20.86C481.09,404,483.83,410.87,483.55,417.62ZM519.73,432c-.65,2.18-3.37,4.42-5.64,5.21-2,.7-4.84-.2-7.06-1-7.28-2.76-13.14-7.74-18.86-12.82a8.26,8.26,0,0,1-2.26-4.26c-.63-2.94-.65-6-1.23-9-1.64-8.46,1.4-14.57,9.3-17.79,9.64-3.93,14.45-11.77,18-20.81a16.48,16.48,0,0,1,1.76-3.63c.64-.89,1.73-2.08,2.56-2a3.88,3.88,0,0,1,2.7,2.07c.59,1.25.48,2.82.67,4.26l.6.25c-1.89,6.32-3.67,12.69-5.76,18.94-.65,1.95-.8,3.16,1,4.57,3.54,2.85,7,5.87,10.28,9,3.56,3.3,3.62,4.24,1.46,8.58-.42.83-1.15,1.87-.94,2.59C528.32,423.12,521.42,426.48,519.73,432ZM539,452.52c.8-4.36-.72-5.81-3.85-6.76a34.43,34.43,0,0,1-8.4-4.45c-5-3.25-4.91-4.34-.43-7.93l24,13.94Zm63.16-15.68a87,87,0,0,1-9.61,7.32,37.85,37.85,0,0,1-26,5.56c-3.93-.57-7.76-1.91-11.63-2.91,0-.31,0-.63,0-.94a15,15,0,0,1,2.55-1c6.9-1.5,13.92-2.56,20.68-4.53a44,44,0,0,0,11.5-5.82c4-2.67,8.35-3,12.82-2.53C604.09,432.1,604.06,435.21,602.13,436.84ZM605.27,412c-.34,1.49-1.25,2.9-1.32,4.38-.18,3.65,0,7.31,0,11,0,1.9-.56,2.8-2.73,2.75a21.62,21.62,0,0,0-14.71,4.7c-5.1,4.05-11.73,5.09-18,6.36-3.88.77-8.35.36-11.58,2.2-6.71,3.81-11.17-.92-16.15-3.2-4.27-1.94-8.06-4.94-12.47-7.73a19.63,19.63,0,0,1,2.24-2.41c5-3.71,7.82-8.85,9.63-14.55,2.52-7.9,5.16-15.8,6.94-23.88a87.86,87.86,0,0,0,1-32.66c-3.44-22-14.52-39.71-29.88-55.15-1.31-1.31-1.5-2.19-.8-4,2.26-5.9,6.87-8,12.46-10.26,10.78-4.26,21.66-3.44,32.67-3a7.6,7.6,0,0,1,1.67.55c-.93,5.52-1.83,10.94-2.74,16.37-.43,2.56-1,5.12-1.22,7.7a2.59,2.59,0,0,0,1.52,2c2.19.62,4.47.91,7.22,1.42a23.81,23.81,0,0,1-2.94,3.55c-5.24,4.2-6.44,8.87-3.22,15.13,6.55,12.74,12.35,25.87,19,38.53,3.4,6.44,8.15,12.16,12.13,18.31,2.34,3.62,4.33,7.46,6.55,11.16.83,1.39,1.86,2.65,2.79,4,.28,1.28-.8,3.1,1.73,4.31C605.5,409.71,605.45,411.2,605.27,412Zm.34-5c5.32-14,12.33-27.36,15.13-42.19s5.42-29.62,8.12-44.44l-.89-.54-5,2.7c4.88-10.24,9.63-20.17,14.51-30.42,3.73,6.14,7.14,11.86,10.68,17.51,1,1.62,1.19,3,0,4.49a11.86,11.86,0,0,0-.84,1.29c-3.66,5.81-3.66,5.81,1.41,10.11,3.62,3.07,3.62,3.07,1.56,7.34-5.92,12.21-11.41,24.65-17.89,36.55-4.38,8-10.11,15.34-15.34,22.9-3.17,4.58-6.55,9-9.84,13.51A3.26,3.26,0,0,1,605.61,407Zm3.5,29.94,8.12,9.48C613.45,445.73,610,441.89,609.11,437Zm.71-3.9c11.44.85,20.29,6.62,28.07,14.42C625.57,450.62,611.79,443.61,609.82,433.05Zm45.69,17.24c4.52-.82,8.7-3.58,13.28-5.6,4.43,13.21,7.52,26.32,1.23,39.63a45.44,45.44,0,0,1-5.14,7.59,2.36,2.36,0,0,1-4,.1c-3.27-4.09-6.62-8.15-9.53-12.5-5.75-8.59-7.29-18.65-9.43-28.48-.14-.66-.35-1.3-.37-1.37C646.2,450,651,451.1,655.51,450.29Zm52.27-14.55a27.42,27.42,0,0,1-13.93,8.77c-4.44,1.17-6.77,0-8.78-4.12-.63-1.28-1.28-2.81-2.38-3.58-6.18-4.33-6.31-11.33-7-17.56-.3-2.6,3.1-5.75,5.09-8.45,1-1.29,2.58-2.07,3.87-3.12,6.83-5.55,7.18-7.2,4.88-15.8a94.57,94.57,0,0,1-2.36-13.48,5,5,0,0,1,1.72-3.67c2.51-2.11,3.73-1.72,4.94,1.46,1.06,2.8,1.6,5.79,2.73,8.56,1,2.53,2.11,5.3,4,7.19a40.29,40.29,0,0,0,12.21,8.92,48.35,48.35,0,0,1,6.52,4.14,10,10,0,0,1,4.36,8.49c-.31,4.85-1.66,8.09-5.34,10.91C714.21,427.48,711.18,431.87,707.78,435.74Zm-7.6-45.84,8.1-1.66-4,4.52Zm7.52,5.86c8.45.47,15.23,5.13,15.78,10.19Zm11.27,30c3.64-2.72,6.36-5.59,6.31-10.45,0,4,.11,8.07,0,12.09a15,15,0,0,1-1.11,4.83c-1.36,3.49-3.82,4.59-7.39,3.58-1.67-.48-3.36-.9-6-1.62C713.8,431,716.07,428,719,425.79ZM728.56,372l3.32,2.16,2.89-4.42c.08.73.33,1.28.16,1.65-1.8,3.95-.12,6.87,2.49,9.78a50.93,50.93,0,0,1,5.9,8c4.95,8.37,4,17.06-.59,24.92s-10.31,14.71-15.59,22a24.11,24.11,0,0,1-2.36,2.5c-2.17,2.24-4.49,2.86-7.1.69a21.27,21.27,0,0,0-2.07-1.31,19.16,19.16,0,0,1,2.08-.25c5.24,0,7.07-1,8.35-6.12,2.24-8.86,2.26-17.86-.81-26.51-2.45-6.88-8.54-9.42-15.16-10.88-.81-.18-1.64-.24-2.45-.43-.27-.07-.49-.37-.86-.66,1.27-4.11,5.14-3.64,8.11-4.46,2.39-.66,5-.46,7.41-1.12,1.14-.31,2-1.73,3-2.65-1.26-.54-2.6-1.67-3.77-1.52a97,97,0,0,0-10.33,2.22c-2.41.61-4.73,1.59-7.16,2.05-1.06.2-2.28-.49-3.42-.77.4-1.06.49-2.57,1.25-3.07a24.46,24.46,0,0,1,6.83-3.38c5.61-1.48,11.31-2.66,17-3.72C728.34,376.13,729.27,374.87,728.56,372Zm11.75-15.16,20-9.7C758.14,350.38,750.1,354.41,740.31,356.81Zm43.31-9.51c-1.86,7-3.44,14.1-5.66,21-1.89,5.88-7.17,6.86-11.17,2.13-4.59-5.43-5-12.35-5.68-19.06a1.58,1.58,0,0,1,.75-1.23l17.91-7.61c2.8,0,4.09.69,4.17,2.54A7.36,7.36,0,0,1,783.62,347.3Zm-2.74-11.86c1.36,2.14,2.7,4.22,4,6.3-6.36-3.46-10.89,1.63-16.28,2.72Zm-11.74-43.81a1.47,1.47,0,0,1-.55.41l-.55.26,0,.12-.1.12a15.5,15.5,0,0,0-.28,7c.66,3.91,2.25,7.7,2.63,11.65a20.54,20.54,0,0,1,.34,3.73,14.68,14.68,0,0,0,4.25,11.94c2.1,2.16,1.72,3.78,0,5.89A55.57,55.57,0,0,1,754,348.4c-4.92,2.18-9.7,4.65-14.56,7a11.88,11.88,0,0,1-2.15.4c1.73-1.95,3-3.35,4.25-4.77,5.81-6.62,8.14-15,11.35-22.89,4.55-11.18,9-22.43,13.47-33.63a7.92,7.92,0,0,1,1.53-1.94c0-.06,0-.12,0-.18l.12-.06c1.82-3.69,3.24-7.67,5.6-11a66.14,66.14,0,0,1,10.47-11Q776.64,281,769.14,291.63ZM901.73,191.05,888,202.75C887.26,197.66,896.62,189.46,901.73,191.05ZM774.3,166.43c1.09-8.37,1.45-16.84,2.11-25.26.27-3.44.74-6.86.83-10.3a18.76,18.76,0,0,0-1-4.43c3.11,1.24,4.58-1.86,6.63-3.67,3.61-3.19,3.57-3.24,6.08.76,1.64,2.63,3.3,5.24,4.91,7.88.78,1.27,1.59,1.75,2.5.21q7.41-12.51,14.73-25.08c.12-.21,0-.58-.14-1.48-4,2.91-7.67,5.88-11.65,8.26-3.71,2.21-7.47,5.32-12.21,3.48l28-17.51c-5.77,14.08-12.23,27.61-16.86,41.74s-7.47,29.07-11.14,43.81c-2.06-5.44-6.2-9.3-10.5-13C774.79,170.33,773.93,169.2,774.3,166.43Zm14.56-46.19,16.64-8.39.48.38c-3.46,5.88-6.91,11.77-10.67,18.17Zm-72.12,69.7,4.22,5.13-2.72,2.12c-.71-2.56-1.34-4.79-2-7Zm28,51c-9.08,4.07-18.32,3-27.41.06a6.52,6.52,0,0,1-3.65-3.77c-3.57-11.82-3.68-23.34,4-33.88,1.82-2.5,3.71-5,5.4-7.55,3-4.61,7.58-6.11,12.64-6.87,4.63-.7,9.26-1.37,13.86-2.23a28.18,28.18,0,0,0,4.48-1.57c3,7.39,6,14.8,8.93,22.25,2.08,5.28,2.23,10.45-1,15.49-2.15,3.38-4.13,6.89-6,10.44C753.54,237.89,748.87,239.08,744.7,241Zm20.74-30.71c-1.76-5.28-4.13-10.35-6-15.61-1.24-3.58-2-7.32-2.93-11a21.44,21.44,0,0,0-1-3.88c-1.18,4.15-4.19,5.08-7.76,5.56-5.08.69-10.12,1.7-15.17,2.57l-.43-1c4.11-2.88,8.09-6,12.38-8.58,5.11-3.1,18.73-1.56,22.4,2.92,2,2.46,2.84,6.1,3.58,9.35.77,3.43.71,7.05,1.19,10.56,1.3,9.65-2.48,17.63-8.1,25a10.09,10.09,0,0,1-3.27,3c1.42-2.7,2.7-5.5,4.29-8.1C766.78,217.53,766.63,213.82,765.44,210.24Zm-1.91,47.55c-7.08,10.9-17.58,17-29.75,20.39-5,1.38-10-.71-14.77-3.33a40.33,40.33,0,0,1,4.53-1.2c8.89-1.33,16.54-4.5,20.67-13.28,1.75-3.74,4.13-7.24,5.48-11.12,2.86-8.22,8.77-14.19,14-20.8,3.45-4.4,6-9.58,8.5-14.64a15,15,0,0,0,1.29-7.27c-.37-6.55-.9-13.12-1.9-19.61s-5.51-9.68-12.41-11.26c-10.15-2.33-18,1.57-25.25,8-2.76,2.47-5.7,4.73-8.56,7.08l-.83-.88c5.65-5.82,10.74-12.39,17.16-17.19,4.13-3.09,10.16-3.77,15.43-5.14a15.44,15.44,0,0,1,7.7-.38c10.89,3.11,17.8,10.65,21.68,21.06a9.16,9.16,0,0,1,.13,5c-3,13.27-5.73,26.62-9.45,39.69-1.58,5.53-5.3,10.45-8.13,15.6C767.27,251.64,765.49,254.77,763.53,257.79Zm29.32,11.37-4.62-2.9c1.64-1.89,3.52-4,5.35-6.22,3.31-3.94,3.65-5.58.8-9.89-3.19-4.8-6.8-9.34-10.32-13.91-1-1.36-2-1.67-3.29.29-4.16,6.41-8.61,12.63-13,18.92l-1.21-.56c12.94-16.44,16.68-36.14,20.1-55.95l1,.19c0,4.25,0,8.5,0,12.75-.14,12.38,4.54,22.93,12.25,32.31a14.34,14.34,0,0,0,3,2.65,31.45,31.45,0,0,0,3.72,1.9C800.09,250.44,792,262.71,792.85,269.16Zm53-48.19c.76,4.89.16,8.81-4.31,12-5.62,3.95-10.51,9-16.31,12.64s-20.13,2-23.92-2.4c-6.25-7.23-10.83-15.5-11.57-25.21-.59-7.79-.35-15.64-.53-23.47-.05-2.37.74-3.42,3.35-3.78a10,10,0,0,0,5.5-3q13.25-14.29,26.15-28.93c6.09-6.89,13.51-10.39,22.77-10.18,5.9.13,10.16,2.64,12.62,7.92,3.46,7.44,4.89,15.39,5.39,23.53a7.82,7.82,0,0,1-.18,1.86,6.23,6.23,0,0,1-.43,1.13l-1,.25c-2.43-5.62-4.48-11.45-7.38-16.81-2.78-5.13-1.84-11.78-6.61-16.08-.66,8.77-1,17.33.66,25.93,1.27,6.48,5.78,10.83,9,16a32.6,32.6,0,0,1,2.94,6.06c.6,1.67-.21,2.5-2,3.36a47.65,47.65,0,0,0-10.2,6.33C845.91,211.39,845.1,216.15,845.84,221ZM881,231c-3.47,1.59-6.81,3.46-10.27,5.07-5.05,2.35-9.89.47-14.44-1.42-7.46-3.11-9.08-6.67-7.69-14.63.25-1.43.17-2.93.45-4.36,1.35-6.8,3.85-9,10.88-9.69,3-.3,6-.53,9.21-.82-.74-3.49-1.46-6.4-2-9.35-.81-4.79-.54-9.42,3.43-12.89a3.34,3.34,0,0,1,.8-.52,12.92,12.92,0,0,1,1.93-.68c.34-.1.66-.2,1-.32.15.56.36,1.12.54,1.68a6,6,0,0,1,.31,1.69c0,7.78,2.6,14.39,8.5,19.59.15.13.25.41.41.45,6.43,1.64,6.2,7.69,7.66,12.28,1.24,3.89,1.41,8.21,1.54,12.35.2,6.47-3.49,8.49-9.74,5.39l8-6.14-.63-.95C887.08,227.05,884.16,229.48,881,231Z"/><path class="cls-1" d="M767.92,292.36c0,.06,0,.12,0,.18h0a1.13,1.13,0,0,1,0-.18l.07.06-.07-.06.12-.06h0Z"/><path class="cls-1" d="M404.87,60.8h0l-.09.08Z"/><path class="cls-1" d="M404.87,60.8h0l-.09-.17h0Z"/><path class="cls-1" d="M404.78,60.88l.09-.08-.09-.17Z"/><path class="cls-1" d="M401.86,118.34l-.85.27,1.12.53Z"/><path class="cls-1" d="M739.35,360.33h0l-.07-.06Z"/><path class="cls-1" d="M693,361.94h0c1.39,0,2.82-.16,4.2-.08C695.77,361.78,694.34,361.94,693,361.94Z"/><path class="cls-1" d="M826.22,65.87c.64-1.07,1.29-2.14,1.77-2.92-4.4-4.12.24-8.7-1.27-13-3.47,5.3-.21,10.6-1.55,15.65Z"/><path class="cls-1" d="M408.44,241.28l-1.17,7.77C411.88,247.34,412,244.53,408.44,241.28Z"/><path class="cls-1" d="M401.18,257.58c-.15.09.31,1.24.48,1.89,3.42-4.82,3.88-10.08,1.59-12-.1,1.15-.2,2.14-.27,3.14C402.8,253.05,404.19,255.85,401.18,257.58Z"/><path class="cls-1" d="M834.1,44.79c-.11,2.19-.21,4.38-.32,6.56l1.09.38c.55-1.32,1.45-2.62,1.54-4,.08-1-.86-2.16-1.35-3.25Z"/><path class="cls-1" d="M767.61,299.59a15.51,15.51,0,0,1,.28-7h0A15.64,15.64,0,0,0,767.61,299.59Z"/><path class="cls-1" d="M767.89,292.54l.1-.12-.07-.06A1.13,1.13,0,0,0,767.89,292.54Z"/><path class="cls-1" d="M404.85,61c0-.05,0-.1,0-.15l-.09.08A.23.23,0,0,1,404.85,61Z"/><path class="cls-1" d="M739.2,360.37h.06s0-.06,0-.09Z"/><path class="cls-1" d="M739.26,360.36l.09,0-.07-.06S739.27,360.33,739.26,360.36Z"/><path class="cls-1" d="M768,292.42l0-.12-.12.06Z"/><path class="cls-1" d="M768,292.3l.55-.26-.55.26Z"/><rect class="cls-3" y="192" width="1279" height="327"/><rect class="cls-4" y="3" width="1279" height="94" transform="translate(1279 100) rotate(180)"/></g></g></svg>