<svg xmlns="http://www.w3.org/2000/svg" xmlns:xlink="http://www.w3.org/1999/xlink" viewBox="0 0 1279 518"><defs><style>.cls-1{fill:#fff;}.cls-2{fill:url(#linear-gradient);}.cls-3,.cls-6{fill:none;stroke:green;stroke-miterlimit:10;}.cls-3{stroke-dasharray:5 5;}.cls-4,.cls-7{fill:green;}.cls-4{opacity:0.1;}.cls-5{fill:#00a900;}.cls-7{opacity:0.5;}.cls-8{fill:#3c804a;}.cls-9{fill:#00354f;}.cls-10{fill:url(#linear-gradient-2);}</style><linearGradient id="linear-gradient" x1="-10824.5" y1="-14414" x2="-10824.5" y2="-14508" gradientTransform="translate(11464 14508)" gradientUnits="userSpaceOnUse"><stop offset="0" stop-color="#fff"/><stop offset="1" stop-color="#fff" stop-opacity="0"/></linearGradient><linearGradient id="linear-gradient-2" x1="639.5" y1="518" x2="639.5" y2="302" gradientTransform="matrix(1, 0, 0, 1, 0, 0)" xlink:href="#linear-gradient"/></defs><title>Asset 1</title><g id="Layer_2" data-name="Layer 2"><g id="Layer_1-2" data-name="Layer 1"><rect class="cls-1" y="3" width="1279" height="513"/><rect class="cls-2" width="1279" height="94" transform="translate(1279 94) rotate(180)"/><polygon class="cls-3" points="341.56 166.01 271.02 166.01 235.75 227.1 271.02 288.19 341.56 288.19 376.83 227.1 341.56 166.01"/><polygon class="cls-4" points="454.24 106.63 385.73 106.63 351.47 165.97 385.73 225.3 454.24 225.3 488.5 165.97 454.24 106.63"/><polygon class="cls-5" points="454.24 230.47 385.73 230.47 351.47 289.81 385.73 349.14 454.24 349.14 488.5 289.81 454.24 230.47"/><polygon class="cls-3" points="454.24 355.33 385.73 355.33 351.47 414.66 385.73 474 454.24 474 488.5 414.66 454.24 355.33"/><polygon class="cls-4" points="674.01 230.47 605.5 230.47 571.24 289.81 605.5 349.14 674.01 349.14 708.27 289.81 674.01 230.47"/><polygon class="cls-6" points="674.01 355.33 605.5 355.33 571.24 414.66 605.5 474 674.01 474 708.27 414.66 674.01 355.33"/><polygon class="cls-3" points="895.3 106.63 826.79 106.63 792.53 165.97 826.79 225.3 895.3 225.3 929.56 165.97 895.3 106.63"/><polygon class="cls-5" points="895.3 230.47 826.79 230.47 792.53 289.81 826.79 349.14 895.3 349.14 929.56 289.81 895.3 230.47"/><polygon class="cls-6" points="895.3 355.33 826.79 355.33 792.53 414.66 826.79 474 895.3 474 929.56 414.66 895.3 355.33"/><polygon class="cls-6" points="562.86 43.19 494.34 43.19 460.09 102.52 494.34 161.86 562.86 161.86 597.12 102.52 562.86 43.19"/><polygon class="cls-3" points="562.86 167.03 494.34 167.03 460.09 226.36 494.34 285.7 562.86 285.7 597.12 226.36 562.86 167.03"/><polygon class="cls-7" points="562.86 293.41 494.34 293.41 460.09 352.74 494.34 412.08 562.86 412.08 597.12 352.74 562.86 293.41"/><polygon class="cls-7" points="783.64 167.03 715.13 167.03 680.87 226.36 715.13 285.7 783.64 285.7 817.9 226.36 783.64 167.03"/><polygon class="cls-3" points="783.64 293.41 715.13 293.41 680.87 352.74 715.13 412.08 783.64 412.08 817.9 352.74 783.64 293.41"/><polygon class="cls-6" points="1008.99 167.03 940.48 167.03 906.22 226.36 940.48 285.7 1008.99 285.7 1043.25 226.36 1008.99 167.03"/><path class="cls-8" d="M639.71,198.72H616.38c-.41,0-.9.13-1.19-.06s-.9-.77-.89-1.17.52-.88.94-1.13.78-.05,1.19-.05h46.51c.35,0,.79-.12,1,0,.45.28,1.17.82,1.1,1.1-.1.49-.68.93-1.15,1.25-.24.16-.69,0-1,0Z"/><path class="cls-8" d="M628.67,193.8H624V183.08h4.66Z"/><path class="cls-8" d="M645.65,193.8H641V183.08h4.65Z"/><path class="cls-8" d="M628.67,212h-4.62V201.27h4.62Z"/><path class="cls-8" d="M645.68,212H641V201.25h4.66Z"/><path class="cls-8" d="M622.61,178.09h-5.17c-2.36,0-3.22.85-3.23,3.17,0,1.71,0,3.42,0,5.23h-2.38c0-2.3-.13-4.56,0-6.81a4.62,4.62,0,0,1,4.18-4c1.76-.1,3.53,0,5.3,0h1.27Z"/><path class="cls-8" d="M656.72,178.09v-2.31c2.42,0,4.83-.18,7.2.05a4.38,4.38,0,0,1,3.63,4c.12,2.2,0,4.42,0,6.71h-2.39v-5.22c0-2.33-.87-3.19-3.21-3.2Z"/><path class="cls-8" d="M622.67,217.11v2.17c-2.37,0-4.74.15-7.07-.05a4.42,4.42,0,0,1-3.74-3.87c-.15-2.25,0-4.52,0-6.85h2.38c0,1.74,0,3.49,0,5.24,0,2.32.88,3.17,3.22,3.18l4.85,0A1.73,1.73,0,0,1,622.67,217.11Z"/><path class="cls-8" d="M665.19,208.51h2.39c0,2.28.1,4.5,0,6.7a4.58,4.58,0,0,1-4.06,4.08c-2.2.14-4.42,0-6.71,0v-2.39H662c2.34,0,3.2-.87,3.22-3.18Z"/><path class="cls-8" d="M621.41,193.8h-2.23V183.06h2.23Z"/><path class="cls-8" d="M633.55,193.8h-2.24V183.06h2.24Z"/><path class="cls-8" d="M638.4,193.8h-2.23V183.06h2.23Z"/><path class="cls-8" d="M650.53,193.84h-2.22V183.07h2.22Z"/><path class="cls-8" d="M655.37,193.8h-2.24V183h2.24Z"/><path class="cls-8" d="M658,183h2.23V193.8H658Z"/><path class="cls-8" d="M621.41,212h-2.23V201.26h2.23Z"/><path class="cls-8" d="M631.31,201.23h2.24V212h-2.24Z"/><path class="cls-8" d="M636.15,201.19h2.22V212h-2.22Z"/><path class="cls-8" d="M648.29,201.23h2.25V212h-2.25Z"/><path class="cls-8" d="M655.38,212h-2.21V201.27h2.21Z"/><path class="cls-8" d="M658,201.21h2.21V212H658Z"/><path class="cls-8" d="M774.16,460a2,2,0,0,1-2.1,1.19q-23.28,0-46.58,0a1.71,1.71,0,0,1-1.69-2.42c2.61-6.93,5.16-13.89,7.74-20.85a1.62,1.62,0,0,1,1.77-1.25h6.46c.16,0,.4.08.44.18.4,1,.75,2,1.14,3h-6.71c-.3,0-.46.06-.57.38q-3.18,8.63-6.39,17.26a4.38,4.38,0,0,0-.14.46h42.75c-.28-.76-.54-1.48-.81-2.2q-2.87-7.72-5.72-15.46a.58.58,0,0,0-.67-.45c-2,0-4,0-6.07,0h-.6c.3-.74.59-1.43.85-2.13.39-1.05.39-1.05,1.5-1.05h5.68a1.65,1.65,0,0,1,1.84,1.3q3.84,10.4,7.69,20.77c0,.13.13.25.19.38Z"/><path class="cls-8" d="M748.88,446.64c-.67-1.08-1.31-2.07-1.92-3.08a36.66,36.66,0,0,1-3.84-8,14.28,14.28,0,0,1-.74-5.34,6.49,6.49,0,0,1,12.92-.76,13.51,13.51,0,0,1-.73,6.39,41.66,41.66,0,0,1-4.66,9.2Zm0-13.32a2.83,2.83,0,1,0-2.85-2.79A2.85,2.85,0,0,0,748.89,433.32Z"/><path class="cls-8" d="M733.36,451.47l-.53-1.51,4.86-1.7.42,1.54Z"/><path class="cls-8" d="M759.27,450.1l.43-1.54,4.39,1.64-.38,1.55Z"/><path class="cls-8" d="M742.12,449l-.24-1.58,4.69-.29v1.6Z"/><path class="cls-8" d="M755.49,447.71l-.24,1.58-4.5-.44.08-1.6Z"/><path class="cls-9" d="M879.07,264.66h-2.25a1.62,1.62,0,0,1-.26-.55c-.26-3.72-.26-3.72-4-3.72H848.7c-2.41,0-2.84.44-2.84,2.87,0,15.83,0,31.67,0,47.5,0,1.42.37,2.09,1.89,2.08,9.09,0,18.18,0,27.27,0a9.08,9.08,0,0,0,1.46-.25v-8.09h2.62v2c0,4.26,0,8.52,0,12.78,0,2.95-1.27,4.33-4.14,4.33q-13.84,0-27.69,0a3.76,3.76,0,0,1-4-3.93q0-29,0-57.95a4.15,4.15,0,0,1,4.2-4.09q13.74-.1,27.48,0c2.57,0,4.1,1.81,4.11,4.35Zm-33.22,51.18v1.71c0,3.38,0,3.43,3.49,3.43h22.77c4.62,0,4.62,0,4.37-4.57a2,2,0,0,0-.22-.57Z"/><path class="cls-9" d="M894.87,267.72c1.47,0,2.14.56,2.13,2.16-.06,9.14,0,18.28,0,27.42,0,2.85-1.69,4.5-4.6,4.5-5.6,0-11.21.14-16.81-.06a4.09,4.09,0,0,0-4.16,2.45c-.61,1.09-1.18,2.2-1.84,3.26-.92,1.5-1.91,1.54-2.9.08-.67-1-1.2-2-1.8-3.07-.92-1.54-1.64-3.07-4.07-2.75-1.84.25-3.45-1.78-3.46-3.72q0-14.26,0-28.52a3.26,3.26,0,0,1,3.17-3.44c11.21,0,22.41,0,33.6,0,.3.64.56,1.2.81,1.76-3.92.27-7.83.69-11.75.76-7,.12-13.92.06-20.88,0-1.63,0-2.45.38-2.43,2.26q.12,13,0,26c0,1.81.77,2.46,2.42,2.31a3.4,3.4,0,0,1,3.67,1.75c.61,1.12,1.26,2.22,2,3.56A11.31,11.31,0,0,0,869,302.8c1.22-2.81,3.13-3.95,6.37-3.76,5.23.33,10.5.1,15.75.09,2.77,0,3.25-.47,3.25-3.17,0-6.75,0-13.5,0-20.24C894.46,273.05,894.72,270.39,894.87,267.72Z"/><path class="cls-1" d="M845.85,315.84h30.41a2,2,0,0,1,.22.57c.25,4.57.25,4.57-4.37,4.57H849.34c-3.45,0-3.5-.05-3.49-3.43Zm12.85,1.38v2.37h4.92v-2.37Z"/><path class="cls-1" d="M894.87,267.72c-.15,2.67-.41,5.33-.44,8-.06,6.74,0,13.49,0,20.24,0,2.7-.48,3.17-3.25,3.17-5.25,0-10.52.24-15.75-.09-3.24-.19-5.15.95-6.37,3.76a11.31,11.31,0,0,1-1.06,1.61c-.76-1.34-1.41-2.44-2-3.56a3.4,3.4,0,0,0-3.67-1.75c-1.65.15-2.44-.5-2.42-2.31q.09-13,0-26c0-1.88.8-2.27,2.43-2.26,7,0,13.92.11,20.88,0,3.92-.07,7.83-.49,11.75-.76ZM868.05,287.5a4.63,4.63,0,0,0,.81.22c1.41.06,3.34-.42,4.1.31s.48,2.73.8,4.13c.11.48.67,1.2,1.06,1.22,2.23.11,4.47.06,6.53.06.29-2,0-4.25.92-5.15s3.17-.55,5-.76v-7.82c-1.31,0-2.45-.06-3.57,0-1.59.1-2.18-.58-2-2.14.1-1.1,0-2.21,0-3.29H874a8.41,8.41,0,0,0-.23,1.16c-.25,4-.25,4-4.16,4.25-.07,0-.17,0-.21,0-.44.42-1.22.83-1.24,1.28C868,283.16,868.05,285.35,868.05,287.5Z"/><path class="cls-9" d="M858.7,317.22h4.92v2.37H858.7Z"/><path class="cls-9" d="M868.05,287.5c0-2.15-.07-4.34.06-6.51,0-.45.8-.86,1.24-1.28,0,0,.14,0,.21,0,3.91-.29,3.91-.29,4.16-4.25a8.41,8.41,0,0,1,.23-1.16h7.7c0,1.08.08,2.19,0,3.29-.13,1.56.46,2.24,2,2.14,1.12-.07,2.26,0,3.57,0v7.82c-1.81.21-4-.17-5,.76s-.63,3.12-.92,5.15c-2.06,0-4.3.05-6.53-.06-.39,0-1-.74-1.06-1.22-.32-1.4,0-3.35-.8-4.13s-2.69-.25-4.1-.31A4.63,4.63,0,0,1,868.05,287.5Zm11-4.93V277.1h-2.57v5.56h-5.58c0,.94.08,1.62.13,2.52h5.54v5.56l2.65-.12v-5.53h5.3v-2.52Z"/><path class="cls-1" d="M879,282.57h5.47v2.52h-5.3v5.53l-2.65.12v-5.56H871c0-.9-.08-1.58-.13-2.52h5.58V277.1H879Z"/><path class="cls-9" d="M613.5,447.19h7v-1.92c0-5.3,0-10.59,0-15.89,0-1.63.56-2.29,2.23-2.27,6.64.06,13.27.08,19.91,0,1.7,0,2.06.67,2,2.16,0,5.41,0,10.83,0,16.25,0,.88-.09,1.74,1.23,1.74,7.91,0,15.81,0,23.95,0V423.44a3.62,3.62,0,0,1,.05-1.44,7.48,7.48,0,0,1,1.17-1.43,13.82,13.82,0,0,1,1.31,1.46c.15.21,0,.6,0,.9V447c0,2.21-.17,2.38-2.41,2.38q-28.12,0-56.25,0c-1.72,0-2.44-.42-2.41-2.34.1-8.1,0-16.19,0-24.29v-.55c0-.78-.13-1.68,1.07-1.71s1.13.84,1.12,1.65v25Zm20.41-.05h8.35V429.39h-8.35Zm-10.78-17.73v17.68h8.19V429.41Z"/><path class="cls-9" d="M655.73,417.28c-3.59,2.92-5.74,2.93-9.27,0-4.14,2.88-6.42,2.87-9,.27-1.75.67-3.35,1.75-5,1.75s-3.19-1.07-5-1.76c-3.39,2.63-5.28,2.63-8.85-.27a17.15,17.15,0,0,0-1.74,1.18c-3.22,2.83-8.17-.67-8.63-4.17-.37-2.89,1.05-4.42,3-6.08,2.25-2,4.25-4.23,6.41-6.31.3-.29.91-.26,1.37-.38,0,.58.17,1.36-.13,1.69-2,2.18-4.08,4.26-6.12,6.38-1.16,1.21-2.61,2.26-2.2,4.33a4.41,4.41,0,0,0,3.1,3.32,3.72,3.72,0,0,0,3.55-2.44.87.87,0,0,1,.07-.17l1.45-2.08a15.33,15.33,0,0,1,1.32,2.28,4.17,4.17,0,0,0,3.46,2.42,3.6,3.6,0,0,0,3.11-3c0-.89.17-1.7,1.13-1.61.42,0,.87.88,1.12,1.44,1,2.36,3.46,4.5,5.87,2.13.53-.51.67-1.38,1.09-2s.84-1.49,1.37-1.57c.87-.14,1.12.66,1.19,1.57a4,4,0,0,0,3.43,3.07c1.43,0,3.22-1.83,3.51-3.34.1-.5.67-.91,1-1.36.37.44,1,.83,1.08,1.32.3,1.54,2,3.35,3.47,3.38s3.17-1.6,3.55-3.21c.13-.56.71-1,1.09-1.51a7.62,7.62,0,0,1,1.26,1.28c.46.76.59,1.81,1.19,2.38,2.59,2.49,5,0,5.94-2.25.21-.52.8-.9,1.22-1.34.32.49.86.95.92,1.46a3.55,3.55,0,0,0,2.81,3.12,3.11,3.11,0,0,0,3.58-1.86c.6-1.26,1.24-2.82-.27-4.3-2.57-2.52-5-5.24-7.34-7.94-.31-.35-.2-1.07-.29-1.62.55.09,1.28,0,1.61.29,2.76,2.7,5.54,5.38,8.13,8.25,1.63,1.8,1.22,5.67-.59,7.48s-4.59,2.9-7.1.92c-1-.77-1.73-1.28-3.19-.15C660.3,420.69,658,419.34,655.73,417.28Z"/><path class="cls-9" d="M658.25,400.26a30.87,30.87,0,0,1-3.47,0,9.3,9.3,0,0,0-7.11,2.28c-3,2.38-9.82,2.54-12.88-.95a3.23,3.23,0,0,0-3.59-1.3c-1.44.37-3.08-.2-4.64-.19-2.31,0-4.63.07-6.93.29-1.69.16-2.56-.39-2.57-2.12,0-3.77,0-7.55,0-11.33,0-1.44.57-2.05,2.09-2,4.08.08,8.16.12,12.24,0a6.09,6.09,0,0,0,3-1.25c3-2.06,6.18-3.57,9.92-1.93,2,.88,3.89,2,5.92,2.75a13.15,13.15,0,0,0,4.36.71c3.2,0,6.41-.16,9.61-.21,2.18,0,2.36.19,2.36,2.4,0,3.59-.08,7.19,0,10.78.06,1.77-.69,2.21-2.26,2.16C662.27,400.22,660.26,400.27,658.25,400.26Zm-38.9-13v10.45c1.79.19,3.29.46,4.79.48s3-.29,4.5-.31c1.26,0,2.61.54,3.74.22a2.25,2.25,0,0,1,2.63.79,8.88,8.88,0,0,0,12.94.62,6.48,6.48,0,0,1,5-1.66c2.19,0,4.38,0,6.57,0h4.63V387.3c-4.34,0-8.55.07-12.74-.06a3.93,3.93,0,0,1-2.75-1.19c-2.71-3.59-10.06-4.12-13.37,0a3.58,3.58,0,0,1-3.12,1.33C628,387.24,623.78,387.3,619.35,387.3Z"/><path class="cls-9" d="M645.65,410.26c-6.33,0-12.66,0-19,0-2.63,0-5.25,0-7.87-.16-.56,0-1.09-.66-1.63-1,.53-.44,1.06-1.24,1.61-1.25,2.22,0,4.45.23,6.68.27,1.19,0,2.39-.32,3.58-.32q17.63,0,35.26,0c.42,0,1-.13,1.25.07a2,2,0,0,1,.85,1.22c0,.28-.49.78-.87.93a4.75,4.75,0,0,1-1.61.14H645.65Z"/><path class="cls-9" d="M657.91,438.09c-1.27,0-2.55,0-3.83,0s-1.86-.6-1.85-1.88c0-2.44,0-4.87,0-7.3,0-1.2.54-1.8,1.75-1.79h7.85c1.23,0,1.74.62,1.73,1.81,0,2.43,0,4.87,0,7.3,0,1.28-.48,1.93-1.83,1.87S659.19,438.09,657.91,438.09Zm3.21-2.25v-6.42h-6.21v6.42Z"/><path class="cls-1" d="M633.91,447.14V429.39h8.35v17.75Z"/><path class="cls-1" d="M623.13,429.41h8.19v17.68h-8.19Z"/><path class="cls-1" d="M619.35,387.3c4.43,0,8.63-.06,12.82,0a3.58,3.58,0,0,0,3.12-1.33c3.31-4.08,10.66-3.55,13.37,0a3.93,3.93,0,0,0,2.75,1.19c4.19.13,8.4.06,12.74.06v10.6h-4.63c-2.19,0-4.38,0-6.57,0a6.48,6.48,0,0,0-5,1.66,8.88,8.88,0,0,1-12.94-.62,2.25,2.25,0,0,0-2.63-.79c-1.13.32-2.48-.23-3.74-.22-1.5,0-3,.33-4.5.31s-3-.29-4.79-.48V387.3Zm25.51,8.28c1.44-.86,4.18,1.13,4.08-2.22,0-1.06.12-2.65-.47-3.07-.88-.63-2.35-.44-3.54-.6-1.11-1.19.9-3.65-1.53-4.12-1.46-.29-3.07.15-4.61.27l.3.57-.47,3.53h-3.69c-.84,4.8-.62,5.12,3.46,5.45.1,0,.18.15.12.09.37,1.48.7,2.8,1.08,4.29,1.52-.07,3.34.35,4.41-.36C644.79,398.88,644.61,396.89,644.86,395.58Z"/><path class="cls-1" d="M661.12,435.84h-6.21v-6.42h6.21Z"/><path class="cls-9" d="M644.86,395.58c-.25,1.31-.07,3.3-.86,3.83-1.07.71-2.89.29-4.41.36-.38-1.49-.71-2.81-1.08-4.29.06.06,0-.08-.12-.09-4.08-.33-4.3-.65-3.46-5.45h3.69l.47-3.53-.3-.57c1.54-.12,3.15-.56,4.61-.27,2.43.47.42,2.93,1.53,4.12,1.19.16,2.66,0,3.54.6.59.42.43,2,.47,3.07C649,396.71,646.3,394.72,644.86,395.58Zm-3.38-8.17-.57.48c0,.72,0,1.44,0,2.16.07,1.45-.08,2.45-2,1.7a1.42,1.42,0,0,0-2.06,1.2l4.1.95v3.53c2,.41,1.44-1,1.42-1.86,0-2.14.22-2.36,2.34-2.1,1,.13,2.09.33,2.42-1.22a10.78,10.78,0,0,0-1.61-.31c-2.08-.08-3.27-.82-2.85-3.19C642.73,388.38,641.9,387.86,641.48,387.41Z"/><path class="cls-1" d="M641.48,387.41c.42.45,1.25,1,1.19,1.34-.42,2.37.77,3.11,2.85,3.19a10.78,10.78,0,0,1,1.61.31c-.33,1.55-1.45,1.35-2.42,1.22-2.12-.26-2.38,0-2.34,2.1,0,.9.6,2.27-1.42,1.86V393.9l-4.1-.95a1.42,1.42,0,0,1,2.06-1.2c1.93.75,2.08-.25,2-1.7,0-.72,0-1.44,0-2.16Z"/><polygon class="cls-6" points="452.74 106.3 384.23 106.3 349.97 165.64 384.23 224.97 452.74 224.97 487 165.64 452.74 106.3"/><polygon class="cls-6" points="674.32 231.19 605.8 231.19 571.54 290.52 605.8 349.86 674.32 349.86 708.57 290.52 674.32 231.19"/><path class="cls-9" d="M767,240.1c0,4.59,0,9,0,13.45a27.73,27.73,0,0,1-.08,3.16c-.37,3.25-2.23,5.09-5,5a5.16,5.16,0,0,1-4.82-5.43c-.07-4.23,0-8.46,0-12.69a12.26,12.26,0,0,0-.41-2.21h-.82a12.61,12.61,0,0,0-.4,2.16c0,4.09,0,8.18,0,12.27,0,3.16-1.92,5.6-4.44,5.91-3.07.38-5.55-2.14-5.59-5.8-.05-4.51,0-9,0-13.53v-1.8c-1.91-.56-3.74-.69-5.09-1.57-1.63-1.07-1.87-3.05-1.81-5,.11-3.52,0-7.05,0-10.57.1-5.43,3.31-8.73,7.64-10.21,1.6-.55,3.52-.15,5.3-.15,3.69,0,7.39.07,11.08,0,6.19-.11,10.77,3.35,11.25,9.3a85.25,85.25,0,0,1,.09,13.08C773.56,239.18,771.89,240.13,767,240.1Zm-18.78.19c0,5.42,0,10.85,0,16.28a2.66,2.66,0,0,0,1.12,2.06,3,3,0,0,0,2.62-.45,4.46,4.46,0,0,0,.83-2.83c.09-4.3,0-8.6,0-12.9,0-2.23,1.58-4.09,3.4-4s3.36,1.92,3.37,4.05c0,4.44,0,8.88,0,13.32a3.69,3.69,0,0,0,1,2.5,2.54,2.54,0,0,0,2.41.32,3.84,3.84,0,0,0,1.18-2.65c.07-10.5,0-21,0-31.51,0-1.18.05-2.5,1.52-2.4.48,0,1.2,1.54,1.24,2.39.14,3.38.08,6.76.05,10.15,0,1.56.41,3,2.12,3s2.24-1.49,2.25-3a94.37,94.37,0,0,0-.07-11.41c-.42-3.91-2.34-7.39-7.42-7.26-5.31.14-10.63,0-15.94.07-4.26.06-6.5,2.77-6.9,6.29a82.9,82.9,0,0,0,0,13.09,3.13,3.13,0,0,0,2.07,2.13c1.18.19,2.14-.63,2.11-2.2-.07-3.66,0-7.33,0-11,0-1.14-.15-2.43,1.54-2.41s1.35,1.34,1.36,2.32C748.22,229.57,748.2,234.93,748.2,240.29Z"/><path class="cls-9" d="M729.59,254c0,.89,0,1.51,0,2.13,0,2.87,0,2.78,2.85,3,.77.07,2,.74,2.11,1.27.22,1.51-1.16,1.23-2.09,1.23-5,0-10,0-15,0-.62,0-1.22-.75-1.83-1.16.51-.45,1-1.2,1.53-1.3,3.78-.68,3.79-.63,3.39-5.14h-4.32c-2.63,0-4-.85-4.49-2.79-.58-2.29.3-3.65,2.52-4.48.47-.18.71-1.51.73-2.31.07-4.37,0-8.74,0-13.11,0-3.38,0-6.76,0-10.14,0-4.15.93-5.24,4.73-6.33,0-3.49,1.44-4.57,3.94-5.07,0-4.76-.05-9.54,0-14.32a11.06,11.06,0,0,1,.88-2.84l1,0a10.46,10.46,0,0,1,1,2.94c.1,4.71,0,9.43,0,14.13,3.2,1.06,3.64,1.64,4,5.23,3.76.95,4.79,2.3,4.79,6.28v25.29c3.16,1.26,3.94,2.6,3.14,5.1-.59,1.85-2.09,2.31-3.72,2.43S731.54,254,729.59,254Zm-11.85-7.27h14.68v-4.14a16.67,16.67,0,0,1-3.26-.05c-.62-.14-1.12-.84-1.67-1.29.55-.53,1-1.35,1.66-1.5a13.57,13.57,0,0,1,3.25-.07v-3a18.27,18.27,0,0,1-3.5-.07c-.54-.11-.95-.9-1.42-1.38.5-.36,1-1,1.5-1a24.9,24.9,0,0,1,3.45-.05v-3.32a12.52,12.52,0,0,1-3-.06c-.71-.18-1.29-.89-1.92-1.36a6.67,6.67,0,0,1,1.91-1.14,16.16,16.16,0,0,1,3,0v-3c-4.92-.21-4.92-.21-4.74-2.6h4.86v-1.88c0-2.89-.25-3.15-3.11-3.15h-8.88c-2.39,0-2.81.41-2.82,2.82,0,4.37,0,8.74,0,13.11Zm-3.8,3.47.35.65h21.84l.22-.64c-.53-.28-1.07-.79-1.61-.79q-9.59-.09-19.17,0C715,249.44,714.49,250,713.94,250.22Zm13.17,3.94h-3.85v4.75h3.85Zm.32-41.49h-4.57l-.14,2.3h4.94C727.58,214.13,727.51,213.47,727.43,212.67Z"/><path class="cls-9" d="M780.75,244.48c0,4,0,7.87,0,11.73,0,2.86-1.36,5-3.36,5.45-2.5.6-5.42-1.86-5.47-4.69-.06-3.39,0-6.77,0-10.15a4,4,0,0,0-.5-1.63,18.46,18.46,0,0,0-1.12-1.79c.4-.24.88-.77,1.19-.69a4.77,4.77,0,0,1,2.47,1.18,5.1,5.1,0,0,1,.65,2.8c.08,3,0,5.92,0,8.88a5.31,5.31,0,0,0,.32,2.27A2.23,2.23,0,0,0,776.5,259,2.11,2.11,0,0,0,778,257.8a5.63,5.63,0,0,0,.29-2.26c0-8,0-15.93,0-23.89,0-1-.24-2.28,1.27-2,.5.09,1.12,1.28,1.17,2,.15,2.46-.08,4.95.15,7.39.09,1,.9,2.55,1.55,2.64,1.62.22,1.81-1.23,1.79-2.59-.05-2.53,0-5.07,0-7.61,0-3.78-1.81-5.88-5.47-6.67-.65-.14-1.13-1.1-1.68-1.68.81-.34,1.72-1.12,2.41-1a9,9,0,0,1,7.3,9.69c-.09,2,0,4.09,0,6.13C786.71,242.88,785.72,244,780.75,244.48Z"/><path class="cls-9" d="M756.32,192.71c5.13.7,9.23,4,9.22,9.79,0,5-4.82,9.76-9.44,9.62s-9.77-5.23-9.37-9.9C747.23,196.45,750.81,193.35,756.32,192.71Zm-.32,16.1c4.49.17,6.85-2.71,7-6.31a6.78,6.78,0,1,0-13.56-.18A6.65,6.65,0,0,0,756,208.81Z"/><path class="cls-9" d="M772.59,207.05c-1.38.81-2.56,1.46-3.69,2.19-.45.28-.74.87-1.2,1.07s-1.31.4-1.65.15a1.66,1.66,0,0,1-.21-1.6c2.4-3.34,6.09-4.84,9.68-3.3,3.88,1.66,6,5.4,4.92,9.22a13.19,13.19,0,0,1-2.06,4.06,2.22,2.22,0,0,1-2.12.45c-1.1-.68-.3-1.43.31-2.14,2.26-2.64,2.34-5.38,0-7.8C775.55,208.35,774,207.87,772.59,207.05Z"/><path class="cls-1" d="M748.2,240.29c0-5.36,0-10.72,0-16.08,0-1,.25-2.3-1.36-2.32s-1.54,1.27-1.54,2.41c0,3.67-.07,7.34,0,11,0,1.57-.93,2.39-2.11,2.2a3.13,3.13,0,0,1-2.07-2.13,82.9,82.9,0,0,1,0-13.09c.4-3.52,2.64-6.23,6.9-6.29,5.31-.08,10.63.07,15.94-.07,5.08-.13,7,3.35,7.42,7.26a94.37,94.37,0,0,1,.07,11.41c0,1.51-.57,3-2.25,3s-2.14-1.45-2.12-3c0-3.39.09-6.77-.05-10.15,0-.85-.76-2.36-1.24-2.39-1.47-.1-1.52,1.22-1.52,2.4,0,10.51,0,21,0,31.51a3.84,3.84,0,0,1-1.18,2.65,2.54,2.54,0,0,1-2.41-.32,3.69,3.69,0,0,1-1-2.5c-.09-4.44,0-8.88,0-13.32,0-2.13-1.58-4-3.37-4.05s-3.4,1.81-3.4,4c0,4.3,0,8.6,0,12.9a4.46,4.46,0,0,1-.83,2.83,3,3,0,0,1-2.62.45,2.66,2.66,0,0,1-1.12-2.06C748.16,251.14,748.2,245.71,748.2,240.29Z"/><path class="cls-1" d="M717.74,246.75V233.59c0-4.37,0-8.74,0-13.11,0-2.41.43-2.81,2.82-2.82h8.88c2.86,0,3.12.26,3.11,3.15v1.88h-4.86c-.18,2.39-.18,2.39,4.74,2.6v3a16.16,16.16,0,0,0-3,0,6.67,6.67,0,0,0-1.91,1.14c.63.47,1.21,1.18,1.92,1.36a12.52,12.52,0,0,0,3,.06v3.32a24.9,24.9,0,0,0-3.45.05c-.53.07-1,.67-1.5,1,.47.48.88,1.27,1.42,1.38a18.27,18.27,0,0,0,3.5.07v3a13.57,13.57,0,0,0-3.25.07c-.64.15-1.11,1-1.66,1.5.55.45,1,1.15,1.67,1.29a16.67,16.67,0,0,0,3.26.05v4.14Z"/><path class="cls-1" d="M713.94,250.22c.55-.27,1.09-.78,1.63-.78q9.58-.09,19.17,0c.54,0,1.08.51,1.61.79l-.22.64H714.29Z"/><path class="cls-1" d="M727.11,254.16v4.75h-3.85v-4.75Z"/><path class="cls-1" d="M727.43,212.67c.08.8.15,1.46.23,2.3h-4.94l.14-2.3Z"/><path class="cls-1" d="M756,208.81a6.65,6.65,0,0,1-6.56-6.49,6.78,6.78,0,1,1,13.56.18C762.85,206.1,760.49,209,756,208.81Z"/><path class="cls-9" d="M636.71,261.09l1.88,1.68L637.28,264l-1.57-1.88Z"/><path class="cls-9" d="M632.88,257.29c.64.54,1.27,1.09,1.9,1.64l-1.28,1.22-1.62-1.87Z"/><path class="cls-9" d="M635.55,260l1.52-2.32c.51.34,1.44.67,1.45,1C638.57,260.11,637.53,260.31,635.55,260Z"/><path class="cls-9" d="M645,292.82c-.19,4.47-2,8.44-4.36,12.08A39,39,0,0,1,625,319.18c-3.84,1.86-7.91,3.72-12.36,1.89a12.45,12.45,0,0,1-3.89-2.43c-2.93-2.82-5.82-5.72-8.48-8.79s-2.64-6.8-1.59-10.54c2.31-8.28,7.35-14.6,14.31-19.46A24.72,24.72,0,0,1,625.56,275a11.2,11.2,0,0,1,9.37,3.34c2.28,2.39,4.65,4.68,7,7A9.38,9.38,0,0,1,645,292.82ZM626.7,277.44a24.86,24.86,0,0,0-4.53.67,33.36,33.36,0,0,0-21.35,23.32c-.63,2.7.24,4.85,1.38,6.89a6.07,6.07,0,0,0,3.6,2.53,15.34,15.34,0,0,0,10.72-1.57c8.88-4.74,15.3-11.51,17.85-21.61C635.51,283.1,632.59,277.13,626.7,277.44Zm-18.43,36.64-.35.56c1.77,1.33,3.36,3.14,5.34,3.88,3.83,1.43,7.46-.09,10.91-1.84,5.82-3,10.25-7.43,14-12.68a27,27,0,0,0,4.15-9.68c1-4.3-1.79-7-4.85-9.5C635.71,299.86,622.21,313.1,608.27,314.08Z"/><path class="cls-9" d="M670.77,304.32c-2.47,1.41-4.82,2.79-7.21,4.11-4.7,2.6-9.85,2.73-15,2.54a54.45,54.45,0,0,1-6.26-.5c-.63-.1-1.67-1.07-1.6-1.51.17-1.16,1.15-1.14,2.27-1,4.93.63,9.86,1,14.78-.27,3.9-1,7.5-2.33,10.49-5.29,4.07-4,2.83-8.81-1-11.75a25.54,25.54,0,0,0-15.7-5.1c-2.11,0-4.21,0-6.46,0V283c4.74.39,9.52-.79,14.12,1.23,2.43,1.06,5.08,1.69,7.39,2.95,4.3,2.36,6.88,6,6.71,11.12-.14,4-.24,8-.4,12-.12,3.14-2.29,5.17-4.6,6.52a35.33,35.33,0,0,1-23.82,4.5,33.22,33.22,0,0,1-10-2.72c-.69-.35-1.1-1.28-1.65-1.93a7.23,7.23,0,0,1,2.47-.47,19.83,19.83,0,0,1,3.29,1.22c6.17,2.35,12.61,2.12,18.84,1,4.56-.79,9.52-2.1,12.09-6.62,1-1.83.84-4.37,1.19-6.58A4.26,4.26,0,0,0,670.77,304.32Z"/><path class="cls-9" d="M658.73,290.43c.47.29,1.22.51,1.27.84a1.86,1.86,0,0,1-.55,1.58c-3.66,2.27-7.36,4.49-11.12,6.58-.47.27-1.38-.25-2.08-.41.33-.67.48-1.62,1-1.95,3.31-2.06,6.7-4,10.07-5.95C657.73,290.89,658.16,290.71,658.73,290.43Z"/><path class="cls-9" d="M658,272.21c-.64-.85-1.3-1.49-1.2-1.66a19.11,19.11,0,0,1,1.85-2.31c.51.49,1.52,1.24,1.44,1.41A17.24,17.24,0,0,1,658,272.21Z"/><path class="cls-9" d="M660.26,275.36c-.67.28-1.53,1-2,.75a3.75,3.75,0,0,1-1.48-1.95c-.11-.26.73-1.24.77-1.21,1,.52,1.86,1.13,2.77,1.72Z"/><path class="cls-9" d="M655,272.93c.34,1.69.18,3-1.57,3.22-.34.05-1.23-.91-1.16-1.26A2.17,2.17,0,0,1,655,272.93Z"/><path class="cls-9" d="M654.92,271.46c-1.61.45-2.51-.33-2.69-1.85-.05-.41.88-1.37,1.12-1.3C654.82,268.77,655.6,269.76,654.92,271.46Z"/><path class="cls-9" d="M631.89,263.28a19.31,19.31,0,0,1,1.71-1.79c.06-.05,1.13.69,1.13,1.05,0,1.5-1.1,1.52-2.2,1.37Z"/><path class="cls-1" d="M626.7,277.44c5.89-.31,8.81,5.66,7.67,10.23-2.55,10.1-9,16.87-17.85,21.61a15.34,15.34,0,0,1-10.72,1.57,6.07,6.07,0,0,1-3.6-2.53c-1.14-2-2-4.19-1.38-6.89a33.36,33.36,0,0,1,21.35-23.32A24.86,24.86,0,0,1,626.7,277.44Zm-11.26,28.47a10.86,10.86,0,0,0,1.13-2.12c.92-3.38,1.74-6.79,2.6-10.19a76.46,76.46,0,0,1,2.05-7.7c.46-1.27.74-2.26-.62-2.69-.41-.13-1.59.94-1.81,1.65-1,3.2-1.74,6.48-2.61,9.72-.79,3-1.63,5.95-2.43,8.93C613.38,304.87,614,305.63,615.44,305.91Z"/><path class="cls-1" d="M608.27,314.08c13.94-1,27.44-14.22,29.22-29.26,3.06,2.49,5.86,5.2,4.85,9.5a27,27,0,0,1-4.15,9.68c-3.77,5.25-8.2,9.72-14,12.68-3.45,1.75-7.08,3.27-10.91,1.84-2-.74-3.57-2.55-5.34-3.88Z"/><path class="cls-9" d="M615.44,305.91c-1.48-.28-2.06-1-1.69-2.4.8-3,1.64-5.95,2.43-8.93.87-3.24,1.63-6.52,2.61-9.72.22-.71,1.4-1.78,1.81-1.65,1.36.43,1.08,1.42.62,2.69a76.46,76.46,0,0,0-2.05,7.7c-.86,3.4-1.68,6.81-2.6,10.19A10.86,10.86,0,0,1,615.44,305.91Z"/><path class="cls-9" d="M865.62,181.36c1.42-1.31,2.35-.58,3.28.36a15.15,15.15,0,0,0,11,4.58,15.62,15.62,0,0,0,12.49-5.66,16.09,16.09,0,0,0,3.69-13.49,14.38,14.38,0,0,0-3.86-7.74c-3.93-4-7.93-8-12.4-12.49-2.12,2.33-4.11,4.57-6.19,6.74s-4.34,4.43-6.57,6.58a14.41,14.41,0,0,1-2.07,1.44l-.81-.58c.46-1,.68-2.25,1.41-3,4.14-4.21,8.4-8.31,12.13-12-4.69-5-8.66-10.39-13.73-14.36-4.6-3.61-10.43-3.6-15.94-.75-6.23,3.23-8.86,8.55-8.92,15.26,0,1.87.94,3.74,1.25,5.64.09.6-.46,1.31-.71,2-.53-.41-1.34-.73-1.53-1.26-1.46-4.15-2.15-8.16-.58-12.68a19.13,19.13,0,0,1,10.2-11.71,17.36,17.36,0,0,1,15.5.09c5,2.4,8.32,6.8,12.14,10.57,6.36,6.29,12.78,12.54,18.82,19.13,4.83,5.26,5.82,11.53,3.4,18.39-2.14,6-6.18,10-12.24,11.69-7.15,2-13.5.25-18.82-5a2.94,2.94,0,0,1-.46-.67C866,182.12,865.84,181.81,865.62,181.36Z"/><path class="cls-9" d="M823.86,172.41c0-1.13.1-2.27,0-3.38-.64-6,3.79-9.12,7.59-11,6.17-3.08,12.7-3.12,19.23-2,4.67.8,9.06,2.72,11.89,6.78a12.53,12.53,0,0,1,1.85,5.55c.31,2.5,0,5.06.09,7.6.11,4.62-2.3,7.59-6.16,9.67-5.5,3-11.35,3.5-17.51,3a28.15,28.15,0,0,1-10.2-2.57c-4.37-2.08-7.28-5-6.78-10.25C824,174.67,823.86,173.53,823.86,172.41Zm20.26,5.19c3.13-.6,6.32-1,9.37-1.84a12.22,12.22,0,0,0,7.1-4.82c.75-1.14,1.45-2.83,1.15-4-.76-3.07-3-5.06-5.91-6.44A28.36,28.36,0,0,0,842,158,22.82,22.82,0,0,0,829.78,162c-4.49,3.14-4.75,8.09.25,11.48C834.33,176.35,839,177.38,844.12,177.6Zm17.74-3.32c-11.85,7.61-23.6,7.74-35.76,0,.32,2,.16,4,.95,5.42,2.4,4.44,7.07,5.49,11.45,6.19a31.09,31.09,0,0,0,15.73-1.17C858.18,183.24,862.87,180.59,861.86,174.28Z"/><path class="cls-9" d="M844.6,145.21c-.24-2.73,1-5,2.53-7a2.3,2.3,0,0,1,2.1-.57c1,.39.64,1.16.08,1.94-2,2.79-3,5.78-1.42,9.14.41.85,1,1.62,1.37,2.5a6.11,6.11,0,0,1,.13,1.83c-.74-.1-1.93,0-2.14-.36a58,58,0,0,1-2.63-6A4.51,4.51,0,0,1,844.6,145.21Z"/><path class="cls-9" d="M883.11,153.48c-.85.67-1.43,1.47-2,1.45s-.93-1-1.39-1.48c.56-.44,1.08-1.11,1.7-1.25C881.82,152.12,882.37,152.88,883.11,153.48Z"/><path class="cls-9" d="M874.17,162.28c-.81.68-1.34,1.36-2,1.56-.27.09-.86-.85-1.31-1.33a8.59,8.59,0,0,1,1.79-1.43C872.86,161,873.46,161.71,874.17,162.28Z"/><path class="cls-9" d="M887.34,171.35c-.88.62-1.46,1.28-2.11,1.38-.35.05-.84-.89-1.26-1.38.56-.48,1.06-1.18,1.7-1.36C886,169.9,886.61,170.72,887.34,171.35Z"/><path class="cls-9" d="M884.45,181.53c-.87.82-1.36,1.52-2,1.79-.24.1-.9-.81-1.37-1.26a8.4,8.4,0,0,1,1.72-1.51C883,180.43,883.67,181.05,884.45,181.53Z"/><path class="cls-9" d="M878.47,180.18c-.85.65-1.39,1.32-2,1.45-.35.07-1.35-1-1.26-1.18a3,3,0,0,1,1.46-1.57C877,178.76,877.63,179.56,878.47,180.18Z"/><path class="cls-9" d="M877.45,174c-1,.77-1.56,1.46-2.26,1.66-.32.09-.91-.82-1.38-1.28a7.49,7.49,0,0,1,1.67-1.49C875.78,172.8,876.41,173.43,877.45,174Z"/><path class="cls-9" d="M883.67,167.06c-.31-.66-.89-1.35-.83-2,0-.43.9-1,1.49-1.12.33-.09,1.24.63,1.21.73a21.87,21.87,0,0,1-1.19,2.37Z"/><path class="cls-9" d="M873.68,170.07c-.56-.71-1.22-1.27-1.13-1.5A3,3,0,0,1,873.9,167c.26-.11.93.74,1.42,1.15Z"/><path class="cls-9" d="M879.8,171.64c-.65-.78-1.36-1.32-1.27-1.59a7.72,7.72,0,0,1,1.26-1.82c.4.45,1.11.89,1.12,1.35S880.34,170.7,879.8,171.64Z"/><path class="cls-9" d="M889.08,177.22a9.41,9.41,0,0,1-2.17,1.46c-.26.09-1.2-.88-1.13-1a4.06,4.06,0,0,1,1.44-1.72C887.46,175.8,888.21,176.6,889.08,177.22Z"/><path class="cls-9" d="M869,170.79c1.64,1.1,2.51,1.82,1.23,2.84-.43.33-1.22.2-1.85.28Z"/><path class="cls-9" d="M884.4,159.74l-2.6,1-.55-.52c.35-.68.56-1.65,1.12-2s1.34.29,2,.47Z"/><path class="cls-9" d="M879.84,176.94c-.43-2,.32-2.72,2.18-2.29C882.42,177,882.28,177.11,879.84,176.94Z"/><path class="cls-9" d="M872.65,178.58c-.84.67-1.32,1.31-1.9,1.41-.31.06-1.17-.91-1.09-1.26a2.65,2.65,0,0,1,1.31-1.51C871.17,177.11,871.85,177.91,872.65,178.58Z"/><path class="cls-9" d="M877,156.22l1.42,1.56a11.49,11.49,0,0,1-1.75,1.46c-.1.06-1.08-.83-1-1.16C875.7,157.52,876.31,157,877,156.22Z"/><path class="cls-9" d="M878.84,162.2c.28.64.95,1.49.75,1.87-.34.64-1.25,1-1.91,1.43L877,165l.92-2.8Z"/><path class="cls-9" d="M867.83,168.76c-.61-.82-1.29-1.53-1.19-1.67a4.5,4.5,0,0,1,1.67-1.36c.15-.07,1.07.83,1,1.06A8.54,8.54,0,0,1,867.83,168.76Z"/><path class="cls-1" d="M844.12,177.6c-5.14-.22-9.79-1.25-14.09-4.16-5-3.39-4.74-8.34-.25-11.48A22.82,22.82,0,0,1,842,158a28.36,28.36,0,0,1,13.8,2.46c2.88,1.38,5.15,3.37,5.91,6.44.3,1.19-.4,2.88-1.15,4a12.22,12.22,0,0,1-7.1,4.82C850.44,176.62,847.25,177,844.12,177.6Zm-9.21-5,.59.67a4.79,4.79,0,0,0,1.81-.18c5-2.87,10-5.77,14.91-8.77.43-.26.43-1.23.63-1.87-.67-.1-1.53-.51-2-.24q-7.19,4-14.23,8.3A8.29,8.29,0,0,0,834.91,172.61Z"/><path class="cls-1" d="M861.86,174.28c1,6.31-3.68,9-7.63,10.4a31.09,31.09,0,0,1-15.73,1.17c-4.38-.7-9-1.75-11.45-6.19-.79-1.45-.63-3.4-.95-5.42C838.26,182,850,181.89,861.86,174.28Z"/><path class="cls-9" d="M834.91,172.61a8.29,8.29,0,0,1,1.71-2.09q7.05-4.26,14.23-8.3c.47-.27,1.33.14,2,.24-.2.64-.2,1.61-.63,1.87-4.93,3-9.91,5.9-14.91,8.77a4.79,4.79,0,0,1-1.81.18Z"/><path class="cls-9" d="M280.2,223.23V195.52a4.72,4.72,0,0,1,4.84-5c15.08,0,30.17,0,45.25,0,3.23,0,5.16,2.22,5.22,5.46.14,8,.06,15.93.05,23.89,0,1-.19,2.21-1.55,1.84a2.4,2.4,0,0,1-1.27-1.88c-.09-7.75-.06-15.5-.06-23.26,0-2.79-.78-3.54-3.68-3.54q-21.35,0-42.71,0c-3.25,0-3.72.73-3.71,3.86,0,9.8.05,19.59,0,29.39,0,2.94-.41,5.89-.37,8.83q.09,8,.54,15.94c.11,2,1.84,2.43,3.49,2.46,4.51.06,9,0,13.53.06.61,0,1.21.56,1.81.86-.58.5-1.15,1.43-1.74,1.43-5.13,0-10.27,0-15.4-.23-2.79-.15-4.24-2.07-4.24-4.8Z"/><path class="cls-9" d="M317.2,265.88c-6.39-.21-11.08-3.65-12.6-8.73a12.52,12.52,0,0,1,3.14-13.09c5.45-5.4,10.74-11,16.31-16.25a12.64,12.64,0,1,1,17.11,18.61c-5.57,5.39-11,10.94-16.53,16.36A11.79,11.79,0,0,1,317.2,265.88Zm-.78-26.78c-2.43,2.44-4.86,4.85-7.26,7.29a9.33,9.33,0,0,0-2.13,10c2.84,7.9,11.88,8.28,16.41,4.07,2.51-2.34,4.77-4.94,7-7.23C325.89,248.69,321.21,243.94,316.42,239.1Zm1.95-2.09c4.64,4.62,9,8.94,13.32,13.27.7.69,1.1,1.17,2.08,0,1.72-2,3.85-3.71,5.72-5.62,4.23-4.3,4.41-10.83.2-15a9.71,9.71,0,0,0-10.57-2C324.6,229.71,322.2,233.91,318.37,237Z"/><path class="cls-9" d="M287.36,213.05a22.89,22.89,0,0,1,2.35-4.17,90.34,90.34,0,0,1,6.55-6.58,5.09,5.09,0,0,1,5.16-1.47c2.1.74,3.88,1.82,4.3,4.64a6.09,6.09,0,0,1-2.28,6.17c-2,1.73-3.69,3.78-5.5,5.71a6,6,0,0,1-6.19,1.53A7,7,0,0,1,287.36,213.05Zm6.2-4.6c-.85,1-1.53,1.74-2.26,2.5-1.2,1.27-1.47,2.67-.39,4.07,1.56,2,2.7,2.21,4.61.93a5.94,5.94,0,0,0,1.74-1.64c.31-.51.5-1.52.21-1.88C296.38,211.1,295.07,210,293.56,208.45Zm2.12-1.76,4.24,5c3.61-3.26,4.45-5.65,2.79-7.27S298.44,203.47,295.68,206.69Z"/><path class="cls-9" d="M293.71,245.83a6.51,6.51,0,0,1-5.42-3.61c-1.38-2.3-.32-4.64,1-6.22a78.91,78.91,0,0,1,8.37-7.86c1.12-1,5.25-.49,6.35.44a6.4,6.4,0,0,1,1.77,6c-.59,2.39-2.35,3.8-4,5.32-1.81,1.65-3.56,3.37-5.46,4.9A8.74,8.74,0,0,1,293.71,245.83Zm6.48-8.08c1.74-1.6,3.89-2.77,3.18-5.6a2.9,2.9,0,0,0-2.86-2.2c-2.44-.22-3.62,1.79-5.22,3.11C297,234.73,298.57,236.2,300.19,237.75Zm-9.83,2.12c0,1.71,1.83,3.72,3.35,3.15s2.88-2.07,4.3-3.16a36.88,36.88,0,0,0-4.58-4.36C292.71,235,290.35,238.36,290.36,239.87Z"/><path class="cls-9" d="M309,212.88a23.83,23.83,0,0,1,2.43-4.28,70.44,70.44,0,0,1,6.26-6.2c3.31-3,7-1.9,9.06,1.24,1.53,2.35.78,5.82-1.42,7.94-1.93,1.86-3.8,3.78-5.75,5.63-1.56,1.49-3.36,2.65-5.62,1.89C310.87,218.09,309.4,216,309,212.88Zm3,.14c0,2,1.92,4.25,3.5,3.62s2.77-2.33,4.12-3.57a34.36,34.36,0,0,0-4.62-4.19C314.14,208.38,311.91,211.52,311.92,213Zm4.81-6.05,5.18,4.37a18.57,18.57,0,0,0,2.66-3.15,3,3,0,0,0-.82-4.06C321.89,202.8,320,203.52,316.73,207Z"/><path class="cls-1" d="M316.42,239.1c4.79,4.84,9.47,9.59,14,14.17-2.2,2.29-4.46,4.89-7,7.23-4.53,4.21-13.57,3.83-16.41-4.07a9.33,9.33,0,0,1,2.13-10C311.56,244,314,241.54,316.42,239.1Z"/><path class="cls-1" d="M318.37,237c3.83-3.1,6.23-7.3,10.75-9.34a9.71,9.71,0,0,1,10.57,2c4.21,4.16,4,10.69-.2,15-1.87,1.91-4,3.59-5.72,5.62-1,1.16-1.38.68-2.08,0C327.36,246,323,241.63,318.37,237Zm9.84-3c2.47-1.86,5-3.14,7.82-.73.85.73,1.77.64,2.18-.19.22-.44-.29-1.59-.81-2a7.29,7.29,0,0,0-9.13-.26C326.92,231.77,326.62,232.72,328.21,234Z"/><path class="cls-1" d="M293.56,208.45c1.51,1.5,2.82,2.65,3.91,4,.29.36.1,1.37-.21,1.88a5.94,5.94,0,0,1-1.74,1.64c-1.91,1.28-3,1.08-4.61-.93-1.08-1.4-.81-2.8.39-4.07C292,210.19,292.71,209.4,293.56,208.45Z"/><path class="cls-1" d="M295.68,206.69c2.76-3.22,5.23-4.07,7-2.31s.82,4-2.79,7.27Z"/><path class="cls-1" d="M300.19,237.75c-1.62-1.55-3.17-3-4.9-4.69,1.6-1.32,2.78-3.33,5.22-3.11a2.9,2.9,0,0,1,2.86,2.2C304.08,235,301.93,236.15,300.19,237.75Z"/><path class="cls-1" d="M290.36,239.87c0-1.51,2.35-4.88,3.07-4.37a36.88,36.88,0,0,1,4.58,4.36c-1.42,1.09-2.69,2.56-4.3,3.16S290.37,241.58,290.36,239.87Z"/><path class="cls-1" d="M311.92,213c0-1.5,2.22-4.64,3-4.14a34.36,34.36,0,0,1,4.62,4.19c-1.35,1.24-2.52,2.94-4.12,3.57S311.94,215,311.92,213Z"/><path class="cls-1" d="M316.73,207c3.29-3.45,5.16-4.17,7-2.84a3,3,0,0,1,.82,4.06,18.57,18.57,0,0,1-2.66,3.15Z"/><path class="cls-9" d="M328.21,234c-1.59-1.29-1.29-2.24.06-3.15a7.29,7.29,0,0,1,9.13.26c.52.38,1,1.53.81,2-.41.83-1.33.92-2.18.19C333.22,230.87,330.68,232.15,328.21,234Z"/><path class="cls-9" d="M423.37,181.59a53.27,53.27,0,0,1-4-3.58,3.13,3.13,0,0,0-3.24-1.31c-1.77.29-1.17-1.34-.86-2.17a29.67,29.67,0,0,1,2-4,2.8,2.8,0,0,0-.67-3.9c-3.83-3.32-5.21-7.89-6.52-12.53a22.89,22.89,0,0,0-1.88-3.66c.46-.24,1.23-1,2-1,3.91-.17,6.7-2.24,9.12-5,1.85-2.12,1.87-2.12,4-.31a20.74,20.74,0,0,0,13.12,5.32c.83,0,1.63.91,2.44,1.4l-2.44,2.36a23,23,0,0,1-7,14c-.68.61-.58,2.69-.14,3.81,2.55,6.39,7.36,8.2,13.9,7.86.24,0,.47-.29.78-.49-3.57-2.26-5.94-5.32-6.26-9.59a16.16,16.16,0,0,1,.44-4.36c.72-3.6,2-7.14,2.26-10.77.39-6.06-.74-11.89-5.34-16.91-.69,4.53-4.14,4.36-7.09,4.44a98.57,98.57,0,0,1-12.51-.42c-3-.29-3.6-1.2-4.18-4-1.21,1.87-2.82,3.6-3.54,5.64a41.68,41.68,0,0,0-1.43,7.93c-.58,4.24.68,8.32,1.3,12.46.32,2.17.9,4.3,1.18,6.48a5,5,0,0,1-.55,2.61c-.18.38-1.17.8-1.45.63A1.9,1.9,0,0,1,406,171a11.85,11.85,0,0,0-.3-6.07c-1.77-6.27-2.75-12.7-1.45-19.23.93-4.66,2.76-8.86,6.89-11.69a2.11,2.11,0,0,0,.69-1.36c.1-1,0-2,0-3a3.8,3.8,0,0,1,3.78-3.64c4.93,0,9.87.14,14.8-.06,2.43-.1,4.5,1.43,4.19,4.18-.26,2.41.89,3.78,2.45,5.24a18.29,18.29,0,0,1,4.92,8.92,28.46,28.46,0,0,1,.7,11.81,41.94,41.94,0,0,1-1.88,8.26,10,10,0,0,0,5.59,12.44,15.52,15.52,0,0,1,2.57,1.31,1.62,1.62,0,0,1,.47,1.36,1.79,1.79,0,0,1-.93,1.08,9.07,9.07,0,0,1-1.6.32,18.43,18.43,0,0,0-1.81.74c2.73,4.91,1.71,10.2,1.84,15.37a3.78,3.78,0,0,1-3.77,3.92q-14.6,0-29.2,0a6.46,6.46,0,0,1-.76-.14c-.32-1.92.7-2.4,2.36-2.39,6.13,0,12.26,0,18.61,0v-6.09c1.9-.62,2.75-.15,2.64,1.74-.07,1.34,0,2.68,0,4.33a53.32,53.32,0,0,0,6.08-.09,2.43,2.43,0,0,0,1.47-1.82,58.68,58.68,0,0,0,0-9.09,16,16,0,0,0-1.92-5,2,2,0,0,0-1.47-.89c-4.26-.07-8-1.31-10.88-4.6-.78-.87-1.48-.36-2.21.41C426.46,178.8,424.91,180.13,423.37,181.59Zm-11.06-30c.54,2,1,3.78,1.48,5.57a15.71,15.71,0,0,0,4.74,7.8c2.68,2.47,5.89,2.86,8.91.42,4-3.22,5.62-7.64,6.32-12.5.06-.42-.76-1.33-1.27-1.42A23.19,23.19,0,0,1,423,147c-1.12-.81-1.66-.76-2.64.14C418.16,149.12,416,151.14,412.31,151.61Zm19.83-13.93c0-2.51,0-4.83,0-7.15,0-1-.09-2-1.53-2-5.2,0-10.4,0-16.12,0a64.27,64.27,0,0,1-.06,7,2.53,2.53,0,0,0,2.54,3.11C422,139,427.1,139.71,432.14,137.68Zm-5.79,31.74h-5.82c-1.88,4.41-1.88,4.41,3,8.7l4.13-4.08C427.15,172.2,426.75,170.82,426.35,169.42Z"/><path class="cls-9" d="M416.48,187.47V190c0,4.9-2,7.7-6.61,9.43-5.54,2.07-11.25,2-16.89,1-3.19-.58-6.46-1.76-8.49-4.6a10.81,10.81,0,0,1-1.79-4.65,60.69,60.69,0,0,1-.08-6.75c-.07-4.28,2.29-7,5.8-8.86,5.41-2.92,11.24-3.28,17.08-2,4,.84,7.85,2.41,10.18,6.17a5.67,5.67,0,0,1,.77,2.51C416.56,184,416.48,185.71,416.48,187.47Zm-16.43,3.8c1.05-.14,2.43-.3,3.81-.5,3.57-.52,6.84-1.65,9.22-4.57a5.14,5.14,0,0,0,.3-5.34c-2.44-3.74-6.51-4.59-10.36-5.21a20.49,20.49,0,0,0-13.9,2.47c-1.84,1.09-3.52,2.45-3.65,4.94s1.33,4,3.21,5.23C392,190.54,395.84,191,400.05,191.27Zm13.75-1.61c-9.53,5.62-18.88,5.44-28.53.05.24,1.61.31,3.49,1.26,4.61,2.31,2.69,5.76,3.7,9.09,4,4.28.34,8.72.71,12.83-1.17C412.77,195.13,414.74,194,413.8,189.66Z"/><path class="cls-9" d="M432.78,187.8a9.71,9.71,0,0,1-2.29,0c-.49-.13-1.25-.73-1.22-1,.07-.55.61-1.43,1-1.47a24.58,24.58,0,0,1,5,0c.52,0,1,.84,1.43,1.29a6,6,0,0,1-1.65,1.26A7.6,7.6,0,0,1,432.78,187.8Z"/><path class="cls-9" d="M393.46,167.44c-.57-1.11-1.18-1.83-1-2.08a13.44,13.44,0,0,1,1.94-2.06c.45.46,1.37,1.17,1.28,1.34A19.66,19.66,0,0,1,393.46,167.44Z"/><path class="cls-9" d="M392.43,159.21c1.8-.57,2.86.1,3.23,1.65.07.31-.86,1.26-1.19,1.2A2.25,2.25,0,0,1,392.43,159.21Z"/><path class="cls-9" d="M399.79,166.53c-1.63.43-2.51-.39-2.69-1.88-.05-.4.93-1.35,1.15-1.27C399.65,163.89,400.52,164.83,399.79,166.53Z"/><path class="cls-9" d="M393.86,144.77c-1.06.7-1.66,1.38-2.31,1.42-.4,0-1.3-1-1.2-1.4.18-.69.93-1.22,1.44-1.81Z"/><path class="cls-9" d="M388.45,146.63a8.06,8.06,0,0,1,.78,2.39c0,.35-.86,1-1.36,1s-1.38-.69-1.33-.92a12.22,12.22,0,0,1,1-2.52Z"/><path class="cls-9" d="M391.68,146.22a8.62,8.62,0,0,1,1.44,2.4c.08.41-.67,1-1.06,1.47-.6-.56-1.45-1-1.71-1.73C390.2,148,391,147.21,391.68,146.22Z"/><path class="cls-9" d="M400.71,160.29a22.61,22.61,0,0,1-2.66,1.76c-.1.06-1-.86-.95-1.24.16-1,.66-2.07,2-1.74C399.57,159.17,399.93,159.67,400.71,160.29Z"/><path class="cls-9" d="M386.44,144c.69-.43,1.17-2.08,2.22-.36a6.25,6.25,0,0,1,.36,2.17l-2.76-1Z"/><path class="cls-1" d="M412.31,151.61c3.67-.47,5.85-2.49,8-4.46,1-.9,1.52-1,2.64-.14a23.19,23.19,0,0,0,9.53,4.47c.51.09,1.33,1,1.27,1.42-.7,4.86-2.34,9.28-6.32,12.5-3,2.44-6.23,2-8.91-.42a15.71,15.71,0,0,1-4.74-7.8C413.34,155.39,412.85,153.62,412.31,151.61Z"/><path class="cls-1" d="M432.14,137.68c-5,2-10.14,1.35-15.18,1a2.53,2.53,0,0,1-2.54-3.11,64.27,64.27,0,0,0,.06-7c5.72,0,10.92,0,16.12,0,1.44,0,1.52,1,1.53,2C432.16,132.85,432.14,135.17,432.14,137.68Zm-11-5.43-1.95,1.7,2.3,1.27,1.51,2.57,2.2-2.51,2.22-1.47-2.68-2.14-1.37-1.82Z"/><path class="cls-1" d="M426.35,169.42c.4,1.4.8,2.78,1.33,4.62l-4.13,4.08c-4.9-4.29-4.9-4.29-3-8.7Z"/><path class="cls-1" d="M400.05,191.27c-4.21-.3-8-.73-11.37-3-1.88-1.27-3.35-2.7-3.21-5.23s1.81-3.85,3.65-4.94a20.49,20.49,0,0,1,13.9-2.47c3.85.62,7.92,1.47,10.36,5.21a5.14,5.14,0,0,1-.3,5.34c-2.38,2.92-5.65,4.05-9.22,4.57C402.48,191,401.1,191.13,400.05,191.27Zm-8-3.63.7.77a18.39,18.39,0,0,0,2.23-.79c1.26-.64,2.48-1.36,3.69-2.09,2.64-1.59,5.29-3.18,7.86-4.87.41-.27.44-1.1.65-1.67-.65-.13-1.49-.57-1.93-.32q-5.86,3.32-11.59,6.88C392.92,186,392.54,186.93,392,187.64Z"/><path class="cls-1" d="M413.8,189.66c.94,4.37-1,5.47-5.35,7.45-4.11,1.88-8.55,1.51-12.83,1.17-3.33-.26-6.78-1.27-9.09-4-.95-1.12-1-3-1.26-4.61C394.92,195.1,404.27,195.28,413.8,189.66Z"/><path class="cls-9" d="M421.14,132.25l2.23-2.4,1.37,1.82,2.68,2.14-2.22,1.47-2.2,2.51-1.51-2.57-2.3-1.27Z"/><path class="cls-9" d="M392,187.64c.53-.71.91-1.66,1.61-2.09q5.72-3.57,11.59-6.88c.44-.25,1.28.19,1.93.32-.21.57-.24,1.4-.65,1.67-2.57,1.69-5.22,3.28-7.86,4.87-1.21.73-2.43,1.45-3.69,2.09a18.39,18.39,0,0,1-2.23.79Z"/><path class="cls-9" d="M520.34,196.93c-3.1,0-6.2-.07-9.29,0-2.4.08-3.54,1.41-3.54,3.82V256a5.06,5.06,0,0,0,5.14,5.26q18.51.06,37,0a4.68,4.68,0,0,0,4.81-4.42c.18-1.64.48-1.87,2.3-1.8,1.53,4.42-2.92,9.07-7.48,9.12q-18.09.21-36.17,0a8.34,8.34,0,0,1-8.21-8.34q.18-27.39,0-54.79c0-3.34,2.06-6.59,6.38-6.59,2.54,0,5.09.09,7.62-.06a6,6,0,0,0,2.4-1.13c.47-.28.78-.87,1.27-1.08a18.11,18.11,0,0,0,5.12-2.95c2-1.81,6.54-.66,8.4,1.39a5.6,5.6,0,0,0,1.63.86c1,.55,2.5.86,3.06,1.73.78,1.2,1.64,1.22,2.76,1.25,3.15.09,6.31.14,9.45.43a4.62,4.62,0,0,1,4,4.6c0,7.06,0,14.11,0,21.16,0,.71-.66,1.41-1,2.11-.49-.72-1.39-1.44-1.4-2.18-.11-6.55-.07-13.11-.07-19.67,0-2.83-1-3.9-3.88-3.94-2.61,0-5.22-.06-7.83,0-.54,0-1.06.62-1.6.94l.3.71c3.08,0,6.17.06,9.26,0,1.84-.06,2.51.72,2.5,2.5q-.06,9.72,0,19.46c0,1.75-.51,2.56-2.55,2V201.17c-3,0-5.81,0-8.61,0a1.25,1.25,0,0,0-.9.41c-1.27,1.91-3.19,1.72-5.1,1.7-3.81,0-7.62.09-11.42-.08a6.48,6.48,0,0,1-3.18-1.4c-1.1-.79-2.07-1.11-3.09-.09-1.49,1.51-2.91,3.08-4.48,4.74h3.78a6.85,6.85,0,0,1,.06-2.22c.2-.54.9-.91,1.38-1.35.36.47.93.9,1,1.43.73,3.68-.24,4.79-4.09,4.83-5.27,0-4.57-.64-4.57,4.62,0,12.76.08,25.52.12,38.28,0,5,0,5,5.13,5q15.22,0,30.46.07h2.59l2-2.27c.45.46,1.16.85,1.31,1.39.3,1.07-1.4,3.11-2.57,3.27a8.81,8.81,0,0,1-1.26,0H512.92c-2.69,0-3.73-1-3.73-3.62,0-15.58-.05-31.16.06-46.74a5.89,5.89,0,0,1,1.58-3.44,58.46,58.46,0,0,1,5.67-5.68,14.26,14.26,0,0,1,3-1.47,10.08,10.08,0,0,0,1.34-1Zm3.25,3.8c4.75,0,9.24,0,13.73,0a2,2,0,0,0,1.48-1.22,45.17,45.17,0,0,0,.07-5.1c-.86,0-1.41,0-2,0-1.46,0-2.66.13-2.88-2-.16-1.63-2-1.26-3.29-1.33s-2.26.12-2.42,1.41c-.21,1.71-1.19,2-2.63,2-.67,0-1.35.06-2.1.1Z"/><path class="cls-9" d="M538,239.3a22.43,22.43,0,0,0,0-2.32c-.69-6,2.74-8.33,6.78-10.17,5.39-2.44,11.13-2.36,16.76-1a16.58,16.58,0,0,1,6.38,3.14,9.28,9.28,0,0,1,3.33,5c.75,4.55,1.71,9.38-1.38,13.56a11.49,11.49,0,0,1-8,4.38,60.16,60.16,0,0,1-10.35.8c-4.46-.19-8.74-1.49-11.86-4.95a8.51,8.51,0,0,1-1.59-4A24.22,24.22,0,0,1,538,239.3Zm17.33,3.81c4-.43,8.77-.86,12.29-4.79a4.35,4.35,0,0,0,.4-5.78c-2.18-3-5.46-4.15-8.86-4.64a36.73,36.73,0,0,0-8.32,0,12.82,12.82,0,0,0-9.36,4.57c-1.55,1.91-1.22,5.43.76,6.78A22.11,22.11,0,0,0,555.31,243.11Zm13.5-1.87c-9.4,6-18.77,5.84-28.36.15.09,1.51-.34,3.36.32,3.91a20.65,20.65,0,0,0,6.57,4c4.78,1.57,9.71,1.27,14.63.14C566.47,248.41,569,245.68,568.81,241.24Z"/><path class="cls-9" d="M516.65,221.47c-.73-2.45-.69-2.53,1.58-2.54,8.59,0,17.17,0,25.76,0,.74,0,2.06.64,2.1,1.06.08,1.15-.87,1.46-2,1.45C534.92,221.45,525.77,221.47,516.65,221.47Z"/><path class="cls-9" d="M531.05,213c4.29,0,8.58-.06,12.87.05.76,0,1.5.74,2.25,1.14-.75.45-1.49,1.28-2.24,1.28-8.52.1-17,.06-25.54.06-.28,0-.67.1-.83,0a18.74,18.74,0,0,1-1.38-1.56c.52-.31,1-.87,1.57-.88C522.18,213,526.61,213,531.05,213Z"/><path class="cls-9" d="M539,227.39c-7.26,0-14.41,0-21.57,0-.43,0-1.24-.73-1.19-1a3.14,3.14,0,0,1,1-1.51c.2-.18.68-.07,1-.07,6.25,0,12.5,0,18.76,0C538.87,224.71,539.61,225.3,539,227.39Z"/><path class="cls-9" d="M528.46,242.38a47.58,47.58,0,0,1-5.07-.06c-.67-.07-1.27-.79-1.9-1.21.66-.48,1.31-1.35,2-1.38,3.3-.14,6.61-.14,9.91,0,.69,0,1.35.88,2,1.36-.63.43-1.23,1.16-1.9,1.23A47.4,47.4,0,0,1,528.46,242.38Z"/><path class="cls-9" d="M528.31,236.55a37.16,37.16,0,0,1-4.84-.07c-.71-.09-1.33-.89-2-1.37.63-.32,1.27-.89,1.91-.91,3.37-.09,6.75-.09,10.12,0,.62,0,1.23.56,1.84.87-.6.49-1.15,1.34-1.79,1.41A46.07,46.07,0,0,1,528.31,236.55Z"/><path class="cls-9" d="M528.43,248.13c-1.75,0-3.52.09-5.27,0-.58-.05-1.12-.69-1.67-1.05.56-.48,1.1-1.35,1.68-1.37,3.37-.13,6.76-.14,10.13,0,.58,0,1.13.91,1.7,1.4-.57.36-1.12,1-1.72,1C531.68,248.22,530.05,248.13,528.43,248.13Z"/><path class="cls-9" d="M519.64,234.12c.38,1.75-.31,2.54-1.7,2.36-.65-.08-1.79-1-1.71-1.28C516.78,233.28,518.38,234.51,519.64,234.12Z"/><path class="cls-9" d="M519.78,241.08a2.08,2.08,0,0,1-3.12.94,2.35,2.35,0,0,1,0-2.1C517.94,239.21,519,239.77,519.78,241.08Z"/><path class="cls-9" d="M516.42,248.41v-3.17l3.48,1.17,0,1Z"/><path class="cls-1" d="M523.59,200.73v-6.26c.75,0,1.43-.13,2.1-.1,1.44.06,2.42-.26,2.63-2,.16-1.29,1.26-1.47,2.42-1.41s3.13-.3,3.29,1.33c.22,2.17,1.42,2.07,2.88,2,.55,0,1.1,0,2,0a45.17,45.17,0,0,1-.07,5.1,2,2,0,0,1-1.48,1.22C532.83,200.77,528.34,200.73,523.59,200.73Zm12.69-2.36.05-1a12.68,12.68,0,0,0-2.78-.85c-1.82-.13-3.66,0-5.49-.06-1.07,0-1.93.33-1.8,1.37.06.51,1.09,1.24,1.72,1.29a46.14,46.14,0,0,0,6.11,0A8.1,8.1,0,0,0,536.28,198.37Z"/><path class="cls-1" d="M555.31,243.11a22.11,22.11,0,0,1-13.09-3.9c-2-1.35-2.31-4.87-.76-6.78a12.82,12.82,0,0,1,9.36-4.57,36.73,36.73,0,0,1,8.32,0c3.4.49,6.68,1.66,8.86,4.64a4.35,4.35,0,0,1-.4,5.78C564.08,242.25,559.31,242.68,555.31,243.11Zm7.1-12.23-.75-.78c-5.27,2.19-10,5.41-14.85,8.38.45,1.47,1.29,2.07,2.4,1.45q5.92-3.35,11.7-6.94C561.58,232.57,561.92,231.6,562.41,230.88Z"/><path class="cls-1" d="M568.81,241.24c.16,4.44-2.34,7.17-6.84,8.2-4.92,1.13-9.85,1.43-14.63-.14a20.65,20.65,0,0,1-6.57-4c-.66-.55-.23-2.4-.32-3.91C550,247.08,559.41,247.24,568.81,241.24Z"/><path class="cls-9" d="M536.28,198.37a8.1,8.1,0,0,1-2.19.78,46.14,46.14,0,0,1-6.11,0c-.63,0-1.66-.78-1.72-1.29-.13-1,.73-1.41,1.8-1.37,1.83.08,3.67-.07,5.49.06a12.68,12.68,0,0,1,2.78.85Z"/><path class="cls-9" d="M562.41,230.88c-.49.72-.83,1.69-1.5,2.11q-5.77,3.6-11.7,6.94c-1.11.62-2,0-2.4-1.45,4.87-3,9.58-6.19,14.85-8.38Z"/><path class="cls-9" d="M854.1,408.36c-.05.41,0,.82-.15,1.05-.47.61-1,1.15-1.56,1.72-.31-.66-.9-1.32-.91-2-.08-4.51,0-9-.05-13.53a2.35,2.35,0,0,0,0-.63l-3-2.38,2.46-1.61.57.36v-5.59c0-3.48.37-3.89,4.23-4.24,0-1.48,0-3,0-4.52a3,3,0,0,1,3.06-3.22c7.19-.06,14.38-.08,21.57,0,1.72,0,3.15.75,2.9,2.94-.06.56.06,1.14,0,1.69-.24,2,0,3.34,2.56,3.43a2.28,2.28,0,0,1,2.1,2.67c-.08,1.69,0,3.38,0,5.07,0,1.14.11,1.89,1.55,1.9.47,0,.93.79,1.4,1.22-.39.42-.79,1.2-1.17,1.19-2,0-1.78,1.32-1.77,2.59q0,24.42,0,48.84c0,2.64-.13,2.66-2.71,2.82-5.59.35-11.17.82-16.76,1.24-.42,0-.85,0-1.27,0-1.22,0-2.43-.15-2.39-1.61,0-.34,1.47-.85,2.29-.91,6.08-.42,12.17-.75,18.61-1.12,0-3.88.06-7.45-.09-11,0-.37-1.25-.95-1.92-1-4-.09-7.9,0-11.84,0-.43,0-.92.14-1.26,0a20.35,20.35,0,0,1-2-1.33c.65-.4,1.29-1.1,1.95-1.13,3.31-.11,6.62-.05,9.93-.05,5.27,0,5.27,0,5.28-5.18s0-10.43,0-15.65c0-1,.22-2-1.37-2C874.23,408.37,864.23,408.36,854.1,408.36Zm0-2.63H884c1.19,0,1.54-.6,1.51-1.73a71.83,71.83,0,0,1,0-7.19c.16-2.11-.49-2.79-2.67-2.76-8.81.12-17.63.05-26.44.05h-2.37Zm31.44-14.37c0-1.72-.12-3.27,0-4.78.18-1.92-.61-2.39-2.41-2.38-9.08.08-18.16,0-27.23,0-.61,0-1.21.08-1.75.11v7Zm-5-14.74c-6.74,0-13.56.09-20.38-.05-2.24-.05-1.86,1.26-1.9,2.57s-.2,2.58,2,2.52c5.56-.15,11.13-.05,16.69-.05,4.54,0,4.54,0,4-4.51A3.82,3.82,0,0,0,880.51,376.62Z"/><path class="cls-9" d="M846.78,431.6c0-3.46.05-6.2,0-9a9.48,9.48,0,0,1,11.42-9.52c4.24.92,7.47,3.86,7.61,9.6.13,5.42.19,10.85,0,16.26-.22,5.69-3.14,9.09-8.9,9.76a9.15,9.15,0,0,1-9.3-5.84C846,438.94,847.35,434.87,846.78,431.6Zm9.58.54c-1.83,0-3.66-.07-5.48,0-.55,0-1.52.61-1.51.91.1,2.92,0,5.93.7,8.71.8,3,3.41,4.53,6.7,4.21,3.7-.37,5.29-1.77,6-4.88a35.77,35.77,0,0,0,.43-7.9c0-.36-.86-1-1.36-1C860,432.06,858.19,432.14,856.36,432.14Zm6.92-2.63c0-2.58.16-5,0-7.32a6.92,6.92,0,0,0-6.58-6.62c-3.34-.34-6.28,1.83-7,5.6a34.89,34.89,0,0,0-.29,7.31c0,.35.9,1,1.39,1C854.8,429.55,858.87,429.51,863.28,429.51Z"/><path class="cls-9" d="M826.22,438.28c-.38,3.06.73,4.91,3.5,6.19a22.07,22.07,0,0,0,15.63,1.47c.62-.17,1.47.49,2.22.77-.51.51-.92,1.26-1.54,1.5-4.27,1.65-8.6,1.43-13,.24-2.8-.76-5.45-1.66-7.51-3.85a6.38,6.38,0,0,1-2.07-4.82c.09-2.18.12-4.37,0-6.55-.22-3.8,2-6.05,4.9-7.73a22.44,22.44,0,0,1,13.31-2.74,2.57,2.57,0,0,1,1.38.33,7.34,7.34,0,0,1,1.12,1.54c-.51.27-1.08.85-1.54.77A22.74,22.74,0,0,0,832,426.61a9.12,9.12,0,0,0-5.74,4.68c-1,2,1.41,5.53,4.38,6.7a23.08,23.08,0,0,0,12.08,1.47c.51-.08,1.15.71,1.72,1.1-.35.41-.64,1.1-1.07,1.19a14.67,14.67,0,0,1-4.34.56C833.28,441.85,831.17,441.58,826.22,438.28Z"/><path class="cls-9" d="M878.1,420c0-1.76-.09-3.53,0-5.28.05-.67.64-1.29,1-1.93.5.67,1.37,1.3,1.43,2,.19,2.17.07,4.36.07,6.55,0,1.13-.06,2.26,0,3.38s-.15,2.27-1.45,2.19c-.42,0-1-1.44-1.05-2.27A42.2,42.2,0,0,1,878.1,420Z"/><path class="cls-9" d="M844.76,430.76c-2.5,1.53-5,3.08-7.51,4.59a17.43,17.43,0,0,1-3,1.5c-.48.17-1.12-.15-1.69-.24.14-.62.09-1.58.47-1.81,3.08-1.88,6.22-3.68,9.41-5.35.54-.28,1.47.17,2.21.28Z"/><path class="cls-9" d="M840.6,411.42c1.78-.34,2.87.35,3.12,1.94.06.36-1,1.33-1.3,1.23C841,414.15,840,413.27,840.6,411.42Z"/><path class="cls-9" d="M838.59,411.47c.61,1.87-.59,2.62-1.87,3.12-.25.09-1.36-1-1.26-1.29C836,412,836.74,410.86,838.59,411.47Z"/><path class="cls-9" d="M844.34,407.62a23.72,23.72,0,0,1-2.79,2c-.13.07-1.11-1.06-1.08-1.1a14.16,14.16,0,0,1,2.23-2.15C842.82,406.24,843.53,407,844.34,407.62Z"/><path class="cls-9" d="M836.21,406.39c1.29.35,2.8.52,2.43,2.36-.07.36-1.35.89-1.74.69A1.81,1.81,0,0,1,836.21,406.39Z"/><path class="cls-9" d="M827.69,392.21c.6-.14,1.3-.56,1.78-.37.64.25,1.11,1,1.65,1.47-.44.46-.88,1.27-1.33,1.29s-1-.74-1.47-1.16Z"/><path class="cls-9" d="M833.9,391.23c.49.91,1.08,1.51,1,1.88-.2.61-.86,1.07-1.33,1.59-.38-.49-1.09-1-1-1.48S833.22,392.12,833.9,391.23Z"/><path class="cls-9" d="M832.52,396.07l2.3.11v2.14C832.72,398.71,832.45,398.48,832.52,396.07Z"/><path class="cls-9" d="M831.06,396.23c.1,1.84-.59,2.59-2.39,2.29v-2.29Z"/><path class="cls-1" d="M854.08,405.73V394.1h2.37c8.81,0,17.63.07,26.44-.05,2.18,0,2.83.65,2.67,2.76a71.83,71.83,0,0,0,0,7.19c0,1.13-.32,1.73-1.51,1.73Z"/><path class="cls-1" d="M885.52,391.36H854.15v-7c.54,0,1.14-.11,1.75-.11,9.07,0,18.15,0,27.23,0,1.8,0,2.59.46,2.41,2.38C885.4,388.09,885.52,389.64,885.52,391.36Z"/><path class="cls-1" d="M880.51,376.62a3.82,3.82,0,0,1,.33.48c.58,4.51.58,4.51-4,4.51-5.56,0-11.13-.1-16.69.05-2.16.06-2-1.12-2-2.52s-.34-2.62,1.9-2.57C867,376.71,873.77,376.62,880.51,376.62Z"/><path class="cls-1" d="M856.36,432.14c1.83,0,3.67-.08,5.49.05.5,0,1.37.68,1.36,1a35.77,35.77,0,0,1-.43,7.9c-.72,3.11-2.31,4.51-6,4.88-3.29.32-5.9-1.17-6.7-4.21-.72-2.78-.6-5.79-.7-8.71,0-.3,1-.87,1.51-.91C852.7,432.07,854.53,432.14,856.36,432.14Z"/><path class="cls-1" d="M863.28,429.51c-4.41,0-8.48,0-12.55,0-.49,0-1.39-.64-1.39-1a34.89,34.89,0,0,1,.29-7.31c.76-3.77,3.7-5.94,7-5.6a6.92,6.92,0,0,1,6.58,6.62C863.44,424.55,863.28,426.93,863.28,429.51Zm-7.7-12.38a25.62,25.62,0,0,0-3,2.25c-.36.36-.28,1.16-.4,1.77a8.39,8.39,0,0,0,2.12,0,4.67,4.67,0,0,0,1.66-1c.6-.47,1.13-1,1.69-1.55Z"/><path class="cls-9" d="M855.58,417.13l2.11,1.51c-.56.52-1.09,1.08-1.69,1.55a4.67,4.67,0,0,1-1.66,1,8.39,8.39,0,0,1-2.12,0c.12-.61,0-1.41.4-1.77A25.62,25.62,0,0,1,855.58,417.13Z"/><path class="cls-9" d="M517.74,125.39c3.78,3,7.32,6.35,11.33,8.94,5.64,3.65,14.45,3.27,18.94-3.71,4.08-6.35,3.22-11.58-2-18.08,1.16-1.57,2-1.63,3.17-.1,7.15,9.5,4,20.64-5.86,25.38-5.9,2.85-11.7,1.64-16.9-2.39-7.59-5.87-15.32-11.57-22.82-17.56-5.83-4.66-7.73-10.47-5.84-17.79.82-3.18,3-5.81,5.74-8.07,4.09-3.36,8.74-3.72,13.32-2.89,2.93.52,5.53,2.85,8.27,4.41a3.42,3.42,0,0,1,1.21,1A8.07,8.07,0,0,1,527,96.3c-.74.08-1.61.44-2.19.17a11.88,11.88,0,0,1-2.71-2c-5.67-5-15.77-4-20.15,2.69-3.9,5.9-2.52,14.74,3.45,18.81,3.15,2.14,6.07,4.63,9,7,1,.76,1.44.81,2.29-.33,3.51-4.69,7.14-9.28,10.83-13.83.4-.5,1.46-.46,2.21-.67-.06.67.14,1.54-.2,2C525.63,115.29,521.62,120.39,517.74,125.39Z"/><path class="cls-9" d="M572.2,89.88c.26,5.23-3.78,9.69-8.24,11.67-5.12,2.27-10.11,4.81-15.23,7.07-2.45,1.09-5,2.4-7.61,2.56a11.31,11.31,0,0,1-10-4.52c-4.15-5.34-3.45-13,1.79-17,2.49-1.9,5.58-3,8.44-4.4,4.18-2,8.43-3.87,12.59-5.93,7.47-3.68,15.62-.32,17.89,7.65A16.51,16.51,0,0,1,572.2,89.88Zm-19,13.85-8.07-17.36c-2,.92-4,1.71-5.81,2.65A23.24,23.24,0,0,0,534,92.16a9.33,9.33,0,0,0-1,12.78c2.68,3.63,7.51,4.6,12.21,2.37C547.78,106.1,550.37,105,553.22,103.73Zm2.31-1.24c2.57-1.22,4.81-2.41,7.16-3.36,4.6-1.86,6.95-5.06,6.88-9.87-.09-5.61-6.14-10.24-11.48-8.48-3.58,1.18-7,2.86-10.7,4.4Z"/><path class="cls-9" d="M526.93,87.22l-9.77-2.77c-2.25-.63-4.47-1.35-6.74-1.9-3.5-.83-7-5-6.81-8.73a9.22,9.22,0,0,1,7-8.64c3.18-.91,5.85.77,8.68,1.42,3.53.81,6.92,2.2,10.4,3.26a8.59,8.59,0,0,1,6,8.42c-.27,3.68-1.7,6.91-6.27,8.13C528.54,86.62,527.77,86.94,526.93,87.22Zm-7.75-4.88c2.16.6,4,1.15,5.84,1.62,3.3.85,5.75-.09,7.5-2.81,1-1.46.46-5.09-.63-6.54-2.26-3-5.8-2.94-9.13-4.1L521,76.26C520.41,78.23,519.82,80.2,519.18,82.34Zm1-12.57a10.29,10.29,0,0,0-2.3-.85c-2.57-.26-4.84-2.41-7.78-.79a6.84,6.84,0,0,0-3.87,5.17,5.72,5.72,0,0,0,3.12,5.7,44.81,44.81,0,0,0,5,1.87c2.08.85,2.84.4,3.25-1.88.19-1.07.65-2.08.94-3.14C519.06,73.82,519.6,71.79,520.15,69.77Z"/><path class="cls-9" d="M503.39,104.27a44.53,44.53,0,0,1,2-4.83c.23-.43,1.3-.42,2-.62,0,.58.31,1.29.07,1.72-2,3.57-1.53,6.83,1.3,9.66.78.78,1.06,1.36.2,1.94-.36.25-1.27,0-1.74-.31C504.6,110.16,504,107.44,503.39,104.27Z"/><path class="cls-1" d="M553.22,103.73c-2.85,1.27-5.44,2.37-8,3.58-4.7,2.23-9.53,1.26-12.21-2.37a9.33,9.33,0,0,1,1-12.78A23.24,23.24,0,0,1,539.34,89c1.84-.94,3.77-1.73,5.81-2.65Z"/><path class="cls-1" d="M555.53,102.49l-8.14-17.31c3.7-1.54,7.12-3.22,10.7-4.4,5.34-1.76,11.39,2.87,11.48,8.48.07,4.81-2.28,8-6.88,9.87C560.34,100.08,558.1,101.27,555.53,102.49Zm10.05-13c.22-3.1-2.3-5.84-4.5-5.61-.57.06-1.06.73-1.59,1.13a9.15,9.15,0,0,0,1.21,1.34c.76.56,1.62,1,2.42,1.48S564.51,88.78,565.58,89.5Z"/><path class="cls-1" d="M519.18,82.34c.64-2.14,1.23-4.11,1.83-6.08l1.75-5.75c3.33,1.16,6.87,1.08,9.13,4.1,1.09,1.45,1.58,5.08.63,6.54-1.75,2.72-4.2,3.66-7.5,2.81C523.17,83.49,521.34,82.94,519.18,82.34Z"/><path class="cls-1" d="M520.15,69.77c-.55,2-1.09,4-1.66,6.08-.29,1.06-.75,2.07-.94,3.14-.41,2.28-1.17,2.73-3.25,1.88a44.81,44.81,0,0,1-5-1.87,5.72,5.72,0,0,1-3.12-5.7,6.84,6.84,0,0,1,3.87-5.17c2.94-1.62,5.21.53,7.78.79A10.29,10.29,0,0,1,520.15,69.77ZM513,71c-.68-.71-1-1.37-1.48-1.48-1.09-.26-3.72,2-3.63,3.16,0,.5,1.07,1.38,1.13,1.34C510.32,73.14,511.54,72.14,513,71Z"/><path class="cls-9" d="M565.58,89.5c-1.07-.72-1.75-1.21-2.46-1.66s-1.66-.92-2.42-1.48A9.15,9.15,0,0,1,559.49,85c.53-.4,1-1.07,1.59-1.13C563.28,83.66,565.8,86.4,565.58,89.5Z"/><path class="cls-9" d="M513,71c-1.45,1.14-2.67,2.14-4,3-.06,0-1.09-.84-1.13-1.34-.09-1.16,2.54-3.42,3.63-3.16C512,69.63,512.31,70.29,513,71Z"/><path class="cls-9" d="M394,409.7c0-5,0-9.36,0-13.73.06-3.88,2.55-5.93,6.14-5.18.52-3.66,2.34-5.56,5-4.86,1.05.27,1.87,1.36,2.82,2.05.62.45,1.24,1.18,1.9,1.23,3.48.26,4.48,1.15,4.83,4.74.07.61.08,1.23.12,1.84,3.52-.1,5.38,1.7,5.4,5.09,0,2.18.11,4.38-.06,6.55-.05.74-.81,1.42-1.25,2.13-.45-.68-1.23-1.33-1.29-2-.18-2,.05-4.09-.1-6.12a16.44,16.44,0,0,0-.93-3.28l-1.05.06a18.39,18.39,0,0,0-.79,3.36c-.12,2.46,0,4.93,0,7.4,0,1.55-.68,2.35-2.52,1.71,0-5.15.05-10.29,0-15.42,0-1.38.53-3.48-1.76-3.47s-1.56,2.08-1.57,3.4c-.07,4.86,0,9.73-.07,14.59a8.87,8.87,0,0,1-.93,2.57l-1-.1a13.62,13.62,0,0,1-.61-2.77c-.06-5.64,0-11.28,0-16.92a7.47,7.47,0,0,0-.37-2.68c-.27-.66-1-1.13-1.54-1.69-.47.72-1.27,1.4-1.35,2.16a54.29,54.29,0,0,0-.07,5.71c0,4.44,0,8.88,0,13.33,0,.49.16,1.09-.07,1.45a6.53,6.53,0,0,1-1.41,1.3c-.35-.5-1-1-1-1.5-.08-4.3,0-8.6,0-12.91,0-.63,0-1.27,0-1.9.1-1.39-.64-2.66-1.8-2.54-.75.08-1.71,1.62-1.93,2.64a24.38,24.38,0,0,0-.08,4.84v14.6c0,2.2.63,3.66,3,4.58a8.16,8.16,0,0,1,5.15,6.11,1.81,1.81,0,0,1-.81,1.58c-.48.13-1.6-.37-1.66-.72-.5-3.1-2.85-4.09-5.26-5.32a7.05,7.05,0,0,1-2.54-3.32c-1.14-2.47-1.83-5.17-3.07-7.59-.88-1.72-1.64-3.84-4.42-4.45.26,1.84.19,3.55.75,5,2.28,6,3.58,12.49,7.53,17.85a39.26,39.26,0,0,1,4.19,6.62,20.56,20.56,0,0,1,1.27,5.84c.06.45-.67,1-1,1.52-.48-.53-1.35-1-1.39-1.58-.23-3.55-1.85-6.43-3.82-9.27-2.93-4.24-5.84-8.48-6.91-13.74a72.75,72.75,0,0,0-3-9.18,4.34,4.34,0,0,1,1.38-5.23c1.77-1.13,3.2-.15,4.48.95a16.72,16.72,0,0,1,2.2,2.54C393.05,408.09,393.36,408.67,394,409.7Z"/><path class="cls-9" d="M427.35,398.1a12.19,12.19,0,0,0-1.09,3c-.17,2,.06,4.09-.11,6.12-.07.71-.85,1.36-1.3,2-.41-.69-1.11-1.36-1.16-2.08-.16-2-.06-4.08-.06-6.13,0-3.55,1.7-5.28,5.27-5.33.21-1.14.44-2.28.62-3.44a3.22,3.22,0,0,1,3.66-3.05c1.39.06,2.24-.15,2.87-1.7a3.28,3.28,0,0,1,3.85-1.72,4.45,4.45,0,0,1,3.59,3.37,2.19,2.19,0,0,1,0,.95,22.4,22.4,0,0,1,4.23,1.46c1.72,1,2,2.95,2.05,4.8,0,4.27,0,8.54,0,12.76,1.46-1.59,2.79-3.2,4.3-4.63a2.79,2.79,0,0,1,4-.28,3.87,3.87,0,0,1,1.38,4.46c-1.49,4.86-2.76,9.82-4.67,14.51a50.7,50.7,0,0,1-5.39,9c-1.95,2.85-3.69,5.68-3.81,9.28,0,.53-.9,1-1.39,1.57-.37-.58-1.05-1.15-1.05-1.73,0-4.22,2-7.68,4.37-10.94A38.23,38.23,0,0,0,454,417.53c.72-2.69,1.71-5.32,2.46-8a20.81,20.81,0,0,0,.34-3.27c-2.74.53-3.48,2.71-4.36,4.52-1.36,2.76-2.26,5.76-3.65,8.5a6.83,6.83,0,0,1-3,2.82c-1.92.92-3.42,1.94-4,4.13-.17.62-1.3,1.49-1.82,1.39-1.29-.27-1-1.27-.61-2.33a9.83,9.83,0,0,1,5.83-5.75,4.6,4.6,0,0,0,2.08-3.49c.2-6.69.18-13.39,0-20.08,0-1-1.16-2.65-1.9-2.72-1.39-.13-1.84,1.29-1.83,2.69,0,4.73,0,9.45,0,14.17,0,.89.18,2.14-1.19,1.9-.54-.09-1.28-1.26-1.29-1.95-.1-6.27-.06-12.54-.06-18.82,0-.49.16-1.08-.06-1.45a9.93,9.93,0,0,0-1.47-1.65c-.48.46-1.17.83-1.39,1.39a7.25,7.25,0,0,0-.43,2.66c0,5.71,0,11.42,0,17.13a19.16,19.16,0,0,1-.41,2.79c-1.76,0-2.15-.9-2.14-2.22q0-7.61,0-15.22a4.59,4.59,0,0,0-.3-2,1.86,1.86,0,0,0-1.4-.83,1.79,1.79,0,0,0-1.27.93,5.79,5.79,0,0,0-.38,2.23c0,5.21,0,10.41,0,15.66-1.76.65-2.52.05-2.53-1.62,0-2.39.06-4.79,0-7.19a25.78,25.78,0,0,0-.63-3.54Z"/><path class="cls-9" d="M409.67,423.68c-.28-6.5,5.72-12.49,12.53-12.43,6.62.06,12.54,5.95,12.46,12.57a12.79,12.79,0,0,1-13,12.51C416.09,436.3,409.3,430.69,409.67,423.68Zm12.4,10c5.6.52,10.18-5.35,10-9.76-.25-6.15-4.35-10.1-10-10-5.9.1-9.73,4.14-9.81,9.9A9.72,9.72,0,0,0,422.07,433.71Z"/><path class="cls-1" d="M422.07,433.71a9.72,9.72,0,0,1-9.84-9.86c.08-5.76,3.91-9.8,9.81-9.9,5.69-.1,9.79,3.85,10,10C432.25,428.36,427.67,434.23,422.07,433.71Zm-5-3.51a14.33,14.33,0,0,0,1.58-1.13c3-2.94,6-5.87,8.82-8.9.47-.5.36-1.54.51-2.32-.8.19-1.8.14-2.35.62-1.65,1.41-3.12,3-4.66,4.56s-3.11,3-4.57,4.64a2.35,2.35,0,0,0-.39,1.64C416.05,429.59,416.63,429.83,417.09,430.2Z"/><path class="cls-9" d="M417.09,430.2c-.46-.37-1-.61-1.06-.89a2.35,2.35,0,0,1,.39-1.64c1.46-1.6,3-3.11,4.57-4.64s3-3.15,4.66-4.56c.55-.48,1.55-.43,2.35-.62-.15.78,0,1.82-.51,2.32-2.86,3-5.85,6-8.82,8.9A14.33,14.33,0,0,1,417.09,430.2Z"/><path class="cls-9" d="M425,274.33c3.95-3.95,5.36-3.52,7.71-.74L445.16,261c.4-.4.74-1,1.22-1.14a8.82,8.82,0,0,1,2.25-.19c-.18.65-.16,1.51-.58,1.94-3.91,4-7.92,7.84-11.86,11.8-.88.89-2,1.63-.43,3.3.68.73,0,2.94-.37,4.4-.19.77-1,1.38-1.63,2.18a7.15,7.15,0,0,1,1.12,1.24c1.49,2.59,1.21,4.21-1.06,6.46l-22.94,22.69c.47,1.43.92,2.5,1.17,3.62.44,2-.9,3-2.37,3.75a3.11,3.11,0,0,1-3.85-.55l-5.3-5.07-4.63,4.94a36.58,36.58,0,0,1,2.91,3.09c.31.4.09,1.21.11,1.83-.68,0-1.63.25-2-.1q-6.93-6.75-13.67-13.67c-.43-.44-.32-1.42-.46-2.14.81.1,1.9-.11,2.39.34,2.83,2.6,2.61,2.45,5.59-.11,1.92-1.64,1.79-2.62.1-4.08-1.13-1-2.09-2.15-3.19-3.18-1.5-1.41-1.38-3-.44-4.54a3.47,3.47,0,0,1,4.66-1.54c.63.27,1.3.46,2.2.77,4.59-4.63,9.27-9.33,13.95-14,2.71-2.73,5.39-5.48,8.11-8.19S420.72,270.78,425,274.33ZM395.5,299.21l11.34,11.23c2.06,2.05,2.06,2.06,4,.09s2.05-2-.07-4.25c-.33-.35-.84-.62-1-1a11,11,0,0,1-.37-2.15c.74.08,1.67-.09,2.17.3a31.1,31.1,0,0,1,3.19,3.11,13.92,13.92,0,0,1,1.53-1.46c1.67-1.22,1.35-2.26-.08-3.45a28.4,28.4,0,0,1-2.51-2.66c1.12-1.67,2.08-1.52,3.1-.23.84,1,1.75,2,2.68,3.13a27.61,27.61,0,0,1,2.25-2.29c1.09-.87,1.22-1.46,0-2.42a24.54,24.54,0,0,1-3-3.24c1-1.54,1.89-1.62,2.94-.38.9,1.06,1.85,2.08,2.88,3.22l3-3.24.63-.64a48.16,48.16,0,0,1-3.8-3c-.32-.3-.09-1.17-.12-1.78.66,0,1.56-.28,1.91.05a52,52,0,0,1,3.57,4c1-1.3,1.63-2.14,2.32-2.91a3.14,3.14,0,0,0,0-4.17c-3.2-3.12-6.5-6.16-9.62-9.37-1.22-1.26-2.23-1.24-3.33-.14C411.32,283.4,403.46,291.26,395.5,299.21Zm-4.75-.89c-.6.4-1.43.73-1.41,1a3.31,3.31,0,0,0,.78,2c5.37,5.46,10.8,10.87,16.22,16.28a3.26,3.26,0,0,0,1.34.94,2,2,0,0,0,1.64-.27c.26-.24.15-1.05,0-1.54a3.28,3.28,0,0,0-.9-1.12q-8.1-8.08-16.2-16.15A12.63,12.63,0,0,0,390.75,298.32Zm7.58,15.43c-.95-1.19-1.74-2.06-2.4-3-1-1.45-1.93-1-2.89,0-3.32,3.57-3.33,3.58-.1,6.61.31.29,1.2.47,1.42.26C395.86,316.29,397.25,314.83,398.33,313.75Zm33.71-32c.6-1.56,1.76-3.07,1.39-3.94a7.56,7.56,0,0,0-3.39-3.19c-.52-.28-1.79.69-2.61,1.26-.13.09.22,1.18.58,1.61C429.13,278.75,430.36,280,432,281.71Z"/><path class="cls-9" d="M457.42,284.3a9,9,0,0,1-17.54,3.62c-1.69-4.5-.05-8.27,1.89-11.88,1.37-2.54,3.67-4.58,5.54-6.85.71-.87,1.28-.75,2.08,0a26.24,26.24,0,0,1,7.86,12.4A13,13,0,0,1,457.42,284.3Zm-9-12.57c-3.18,3.23-5.91,6.57-6.36,11.31-.31,3.23.06,5.87,3.43,7.59a5.92,5.92,0,0,0,6.79-.66,6.56,6.56,0,0,0,2.59-6.29C454.23,279,451.87,275.23,448.44,271.73Z"/><path class="cls-1" d="M395.5,299.21c8-7.95,15.82-15.81,23.7-23.65,1.1-1.1,2.11-1.12,3.33.14,3.12,3.21,6.42,6.25,9.62,9.37a3.14,3.14,0,0,1,0,4.17c-.69.77-1.29,1.61-2.32,2.91a52,52,0,0,0-3.57-4c-.35-.33-1.25-.05-1.91-.05,0,.61-.2,1.48.12,1.78a48.16,48.16,0,0,0,3.8,3l-.63.64-3,3.24c-1-1.14-2-2.16-2.88-3.22-1-1.24-2-1.16-2.94.38a24.54,24.54,0,0,0,3,3.24c1.25,1,1.12,1.55,0,2.42a27.61,27.61,0,0,0-2.25,2.29c-.93-1.08-1.84-2.08-2.68-3.13-1-1.29-2-1.44-3.1.23a28.4,28.4,0,0,0,2.51,2.66c1.43,1.19,1.75,2.23.08,3.45a13.92,13.92,0,0,0-1.53,1.46,31.1,31.1,0,0,0-3.19-3.11c-.5-.39-1.43-.22-2.17-.3a11,11,0,0,0,.37,2.15c.15.4.66.67,1,1,2.12,2.21,2.12,2.21.07,4.25s-2,2-4-.09Z"/><path class="cls-1" d="M390.75,298.32a12.63,12.63,0,0,1,1.46,1.1q8.12,8.07,16.2,16.15a3.28,3.28,0,0,1,.9,1.12c.16.49.27,1.3,0,1.54a2,2,0,0,1-1.64.27,3.26,3.26,0,0,1-1.34-.94c-5.42-5.41-10.85-10.82-16.22-16.28a3.31,3.31,0,0,1-.78-2C389.32,299.05,390.15,298.72,390.75,298.32Z"/><path class="cls-1" d="M398.33,313.75c-1.08,1.08-2.47,2.54-4,3.88-.22.21-1.11,0-1.42-.26-3.23-3-3.22-3,.1-6.61,1-1,1.87-1.48,2.89,0C396.59,311.69,397.38,312.56,398.33,313.75Z"/><path class="cls-1" d="M432,281.71c-1.68-1.76-2.91-3-4-4.26-.36-.43-.71-1.52-.58-1.61.82-.57,2.09-1.54,2.61-1.26a7.56,7.56,0,0,1,3.39,3.19C433.8,278.64,432.64,280.15,432,281.71Z"/><path class="cls-1" d="M448.44,271.73c3.43,3.5,5.79,7.27,6.45,11.95A6.56,6.56,0,0,1,452.3,290a5.92,5.92,0,0,1-6.79.66c-3.37-1.72-3.74-4.36-3.43-7.59C442.53,278.3,445.26,275,448.44,271.73Zm1.6,17.85c2.68-1.87,3.62-3.12,3.53-5.12,0-.61-.65-1.19-1-1.78A10.91,10.91,0,0,0,451.4,284a19.11,19.11,0,0,1-1.71,2.73C448.55,287.87,448.67,288.7,450,289.58Z"/><path class="cls-9" d="M450,289.58c-1.37-.88-1.49-1.71-.35-2.88A19.11,19.11,0,0,0,451.4,284a10.91,10.91,0,0,1,1.17-1.29c.35.59,1,1.17,1,1.78C453.66,286.46,452.72,287.71,450,289.58Z"/><path class="cls-9" d="M528.39,330.81H557c3.08,0,5.94.69,7.57,3.52a10.81,10.81,0,0,1,1.38,4.89c.15,7.33.08,14.67.08,22,0,2.49,0,5,0,7.46a62.59,62.59,0,0,1-.51,9.21,5.25,5.25,0,0,1-2.86,3.48c-1.73.63-3.83.22-5.77.3-1.45.07-2.91.33-4.36.3-2.51-.05-5-.4-7.54-.38-15.73.1-31.45.27-47.17.4-4.63,0-7.07-2.43-7.07-7.06,0-11.63,0-23.27,0-34.9,0-5.24,3.18-9.27,9.19-9.23C509.36,330.85,518.88,330.81,528.39,330.81ZM493.21,348v26.77c0,3.24,1.48,4.74,4.69,4.74,20.51,0,41,0,61.53,0,2.65,0,3.31-.38,4-3.39a12.5,12.5,0,0,0,.28-2.93c-.07-7.8-.17-15.6-.25-23.4,0-.74,0-1.47,0-1.67l-9.22,1.25c-.24,3.27-1.06,4.58-3,4.72-3.75.26-4.6-.49-5.56-4.95H511.09c-.25,3.52-1.06,4.81-3,4.95-3.75.26-4.57-.46-5.6-4.68Zm61.51-2.07-.38.67c1.93-.12,4,.19,5.76-.48,3-1.18,4.12-4.43,3.27-8.13-.7-3.06-2.74-4.6-6.26-4.6q-28.77,0-57.54,0a6.75,6.75,0,0,0-3.42.7c-2.73,1.7-3.31,4.49-2.91,7.47a5.18,5.18,0,0,0,3.75,4.65,14,14,0,0,0,5,.16c.52-.07.93-1.23,1.35-1.91,1.42-2.26,3.71-1.43,5.54-1.21,1,.11,1.78,1.71,2.66,2.64l-.41.48a5.74,5.74,0,0,0,.82.1c10.79,0,21.58,0,32.36-.05a3,3,0,0,0,1.92-1.39c1.17-1.88,2.81-2.68,5.8-1.82C553.1,343.48,553.84,344.94,554.72,345.88Zm-49-.18a1.78,1.78,0,0,0-.2.47c0,1,0,2,0,2.94,0,2.51.3,2.72,2.81,2.14V345.7Zm43.11,0a4.23,4.23,0,0,0-.16.62c0,.91,0,1.82,0,2.73,0,2.53.26,2.72,2.84,2.27v-5.62Z"/><path class="cls-9" d="M516.49,329.58c-.3-.48-.75-.91-.82-1.39-.72-4.56,1.79-10.06,7.39-9.72,4.35.26,8.74,0,13.11.06s7.39,5.6,6.42,9.83c-.1.45-.91.74-1.39,1.1-.34-.53-1-1.07-1-1.58.13-2.53-.51-4.67-2.6-6.21a2.62,2.62,0,0,0-1.45-.58c-4.43-.08-8.87-.19-13.3-.07-3.07.08-4.67,2-4.71,5.13C518.16,327.43,518.52,328.88,516.49,329.58Z"/><path class="cls-9" d="M535,325.73H522.94a15.24,15.24,0,0,1-.27,2.56c-.13.45-.8,1.16-1,1.09a2.21,2.21,0,0,1-1.31-1.13c-1.06-3.12.67-5.48,4-5.49s6.61-.13,9.91.07c1.1.06,2.75.73,3.08,1.56.54,1.32.24,3,.18,4.54,0,.18-.82.57-1,.45a2.75,2.75,0,0,1-1.27-1.25A9.48,9.48,0,0,1,535,325.73Z"/><path class="cls-1" d="M493.21,348l9.24,1.44c1,4.22,1.85,4.94,5.6,4.68,2-.14,2.79-1.43,3-4.95h34.58c1,4.46,1.81,5.21,5.56,4.95,1.95-.14,2.77-1.45,3-4.72l9.22-1.25c0,.2,0,.93,0,1.67.08,7.8.18,15.6.25,23.4a12.5,12.5,0,0,1-.28,2.93c-.69,3-1.35,3.4-4,3.39-20.51-.06-41,0-61.53,0-3.21,0-4.69-1.5-4.69-4.74Zm40.69,11c-.21-2.5.49-6-2.88-6-6.84-.16-7-1.85-8.33,6.07-5.06.5-5.84.95-5.77,4,0,1.75,0,3.94,1,5.11s3.14,1.13,4.91,1.67c.88,5.13,1.26,5.86,3.49,5.81,2-.05,4.48.31,5.85-.71s1.57-3.51,2.35-5.53c4.51-.34,5.52-1.07,5.59-4.32C540.24,360,539.91,359.64,533.9,359Z"/><path class="cls-1" d="M554.72,345.88c-.88-.94-1.62-2.4-2.68-2.7-3-.86-4.63-.06-5.8,1.82a3,3,0,0,1-1.92,1.39c-10.78.08-21.57.06-32.36.05a5.74,5.74,0,0,1-.82-.1l.41-.48c-.88-.93-1.68-2.53-2.66-2.64-1.83-.22-4.12-1.05-5.54,1.21-.42.68-.83,1.84-1.35,1.91a14,14,0,0,1-5-.16,5.18,5.18,0,0,1-3.75-4.65c-.4-3,.18-5.77,2.91-7.47a6.75,6.75,0,0,1,3.42-.7q28.77-.06,57.54,0c3.52,0,5.56,1.54,6.26,4.6.85,3.7-.23,6.95-3.27,8.13-1.72.67-3.83.36-5.76.48Z"/><path class="cls-1" d="M505.72,345.7h2.57v5.55c-2.51.58-2.79.37-2.81-2.14,0-1,0-2,0-2.94A1.78,1.78,0,0,1,505.72,345.7Z"/><path class="cls-1" d="M548.83,345.68h2.66v5.62c-2.58.45-2.82.26-2.84-2.27,0-.91,0-1.82,0-2.73A4.23,4.23,0,0,1,548.83,345.68Z"/><path class="cls-9" d="M533.9,359c6,.67,6.34,1,6.23,6.09-.07,3.25-1.08,4-5.59,4.32-.78,2-1,4.53-2.35,5.53s-3.85.66-5.85.71c-2.23.05-2.61-.68-3.49-5.81-1.77-.54-4-.57-4.91-1.67s-1-3.36-1-5.11c-.07-3.07.71-3.52,5.77-4,1.33-7.92,1.49-6.23,8.33-6.07C534.39,353,533.69,356.47,533.9,359Zm-14.29,2.7c-.08.47-.14.66-.15.87-.16,4.12-.16,4.17,4,4.2,1.71,0,2.45.69,2.38,2.4-.06,1.3,0,2.6,0,4H528c3.26,0,3.26,0,3.27-3.33,0-3,0-3,3-3a7.35,7.35,0,0,1,1.05,0c1.78.26,2.36-.55,2.34-2.26,0-2.83,0-2.83-2.73-2.84h-1.69c-1.33,0-2.09-.47-2-2s0-2.78,0-4.22h-5.51v4.12a1.8,1.8,0,0,1-2,2.08Z"/><path class="cls-1" d="M519.61,361.67h4.14a1.8,1.8,0,0,0,2-2.08v-4.12h5.51c0,1.44.08,2.83,0,4.22s.65,2,2,2h1.69c2.77,0,2.7,0,2.73,2.84,0,1.71-.56,2.52-2.34,2.26a7.35,7.35,0,0,0-1.05,0c-3,0-3,0-3,3,0,3.34,0,3.34-3.27,3.33h-2.24c0-1.37,0-2.67,0-4,.07-1.71-.67-2.39-2.38-2.4-4.13,0-4.13-.08-4-4.2C519.47,362.33,519.53,362.14,519.61,361.67Z"/><path class="cls-9" d="M718.71,347.76c0-4.93,0-9.87,0-14.8,0-1.79.57-2.59,2.45-2.42,1.47.14,3-.06,4.44,0,4.9.35,9-1.89,12.81-4.4a82.73,82.73,0,0,0,8.74-7c1.22-1.07,2.08-1.11,3.18,0a47.55,47.55,0,0,0,13.76,9.86c3,1.47,6.39,1.64,9.79,1.55,4.84-.13,4.92-1,4.88,4.82-.06,8.74.09,17.48-.05,26.22s-3.93,15.29-11.61,19.77c-4.78,2.78-9.19,6.18-13.77,9.31-.85.58-1.73,1.12-2.52,1.77-1.47,1.22-2.82.94-4.27-.07-6-4.14-11.91-8.38-18-12.3-6.66-4.26-9.38-10.51-9.72-18C718.52,357.35,718.71,352.55,718.71,347.76Zm2.93-14.87c0,11-.11,21.52.06,32a12.45,12.45,0,0,0,3.86,9.14,90.61,90.61,0,0,0,8.42,6.7c4.47,3.21,9,6.29,13.64,9.31a2.64,2.64,0,0,0,2.31-.18c5.52-3.64,10.92-7.48,16.48-11.07,5.74-3.72,9.42-8.54,9.4-15.68,0-9.23,0-18.46,0-27.7v-2.15c-3-.16-5.88.14-8.47-.52C760.62,331,755,327.19,750,322.5c-1.09-1-1.55-1-2.64,0-5,4.67-10.65,8.56-17.37,10.25C727.45,333.43,724.59,332.89,721.64,332.89Z"/><path class="cls-1" d="M721.64,332.89c3,0,5.81.54,8.37-.11,6.72-1.69,12.33-5.58,17.37-10.25,1.09-1,1.55-1,2.64,0,5,4.69,10.6,8.54,17.31,10.25,2.59.66,5.43.36,8.47.52v2.15c0,9.24,0,18.47,0,27.7,0,7.14-3.66,12-9.4,15.68-5.56,3.59-11,7.43-16.48,11.07a2.64,2.64,0,0,1-2.31.18c-4.61-3-9.17-6.1-13.64-9.31a90.61,90.61,0,0,1-8.42-6.7,12.45,12.45,0,0,1-3.86-9.14C721.53,354.41,721.64,343.92,721.64,332.89Zm27.1-4.46c1.41,1.05,2.64,2.07,4,2.93,5.55,3.63,11.18,7.1,18.16,6.93.82,0,2.28-.68,2.3-1.11.07-1.25-1-1.43-2.21-1.57-2.67-.3-5.62-.26-7.92-1.42-4.5-2.27-8.61-5.31-13-7.91a3,3,0,0,0-2.57-.26c-1.93,1.17-3.58,2.8-5.5,4-4.92,3-9.88,6-16,5.68-1.82-.1-2.06,1.33-2.06,2.76,0,7.82-.17,15.66.07,23.47.13,4.48,1.12,8.87,4.86,12,.48.4,1.41.26,2.14.37-.11-.73,0-1.74-.37-2.14a12.85,12.85,0,0,1-3.9-9.83c0-7.26,0-14.52,0-21.79v-2.13C735.6,338.06,742.08,333.22,748.74,328.43Zm17.33,26.19a59.09,59.09,0,0,0-.08-7.17,11,11,0,0,0-1.72-4.74,7.45,7.45,0,0,0-8.51-2.7,8.56,8.56,0,0,0-5.75,7.71c-.07,4.29.09,8.58,0,12.87a8.07,8.07,0,0,0,1.92,5.66c2.4,2.94,5.3,3.73,9.47,2.39,2.4-.77,4.7-4.32,4.7-7.26Zm-32.17,6.89c3.06,1,6,2,9.08,2.85a7.53,7.53,0,0,0,3.77-.06,3.07,3.07,0,0,0,1.88-1.91c.3-1.48-1-1.33-2-1.34-.42,0-.84.09-1.26.1-2.93.06-5.91.26-8.51-1.39-3.21-2-4.19-4.38-1.14-6.8,3.23-2.55,6.89-2.77,10.77-2.28a2.53,2.53,0,0,0,2.13-.95c.5-1.14-.34-1.58-1.51-1.88-3.39-.87-6.6,0-9.66,1.1-4.25,1.46-6.8,4.38-6.11,9.3.17,1.25-.23,2.6.08,3.79.38,1.45.88,3.23,2,4a20.56,20.56,0,0,0,6.23,3.06,15.72,15.72,0,0,0,10.29-.21c.76-.28,1.85-.53,1.25-1.61a2.23,2.23,0,0,0-1.95-.76,22.56,22.56,0,0,1-11-.43C735.63,365.5,734,363.71,733.9,361.51Zm39.93.35c-.59-1.05-1.22-3-1.79-3-1.93.06-1.15,1.9-1.31,3.1a3,3,0,0,0,0,.42A12.68,12.68,0,0,1,765,373.57c-4.92,3.53-10,6.77-15.08,10.15a2,2,0,0,1-2.6-.15q-4.53-3.13-9.19-6.07c-.48-.3-1.28-.11-1.94-.15.17.75.08,1.86.55,2.19,3.56,2.51,7.21,4.92,10.91,7.23a2.52,2.52,0,0,0,2.19-.06c2.31-1.4,4.51-3,6.75-4.48,3.8-2.58,7.7-5,11.37-7.77C772,371.43,773.1,366.91,773.83,361.86Zm-35.65-2.75c2.73.72,9.76-2.92,10.38-4.66.11-.31-.29-1-.65-1.24a1.63,1.63,0,0,0-1.42-.21c-2.24,1.3-4.45,2.65-6.59,4.11A10.47,10.47,0,0,0,738.18,359.11Zm32.56-11a26.39,26.39,0,0,0,0,3.56,1.84,1.84,0,0,0,1.14,1.24,1.59,1.59,0,0,0,1.24-1,69.86,69.86,0,0,0,0-7.09c0-.39-.78-.75-1.2-1.13-.42.48-1.09.91-1.21,1.46A13.52,13.52,0,0,0,770.74,348.09Z"/><path class="cls-9" d="M748.74,328.43c-6.66,4.79-13.14,9.63-22,9.92v2.13c0,7.27,0,14.53,0,21.79a12.85,12.85,0,0,0,3.9,9.83c.42.4.26,1.41.37,2.14-.73-.11-1.66,0-2.14-.37-3.74-3.09-4.73-7.48-4.86-12-.24-7.81-.07-15.65-.07-23.47,0-1.43.24-2.86,2.06-2.76,6.16.34,11.12-2.64,16-5.68,1.92-1.18,3.57-2.81,5.5-4a3,3,0,0,1,2.57.26c4.35,2.6,8.46,5.64,13,7.91,2.3,1.16,5.25,1.12,7.92,1.42,1.17.14,2.28.32,2.21,1.57,0,.43-1.48,1.09-2.3,1.11-7,.17-12.61-3.3-18.16-6.93C751.38,330.5,750.15,329.48,748.74,328.43Z"/><path class="cls-9" d="M766.07,354.62v6.76c0,2.94-2.3,6.49-4.7,7.26-4.17,1.34-7.07.55-9.47-2.39a8.07,8.07,0,0,1-1.92-5.66c.12-4.29,0-8.58,0-12.87a8.56,8.56,0,0,1,5.75-7.71,7.45,7.45,0,0,1,8.51,2.7,11,11,0,0,1,1.72,4.74A59.09,59.09,0,0,1,766.07,354.62Zm-14,1.45a63,63,0,0,0,1.55,7.89c.66,2,2.56,2.67,4.69,2.61s3.87-.74,4.39-2.82c.62-2.45.81-5,1.21-7.68Zm.11-3.24c3.28.23,5.93.42,8.57.59,2.81.17,2.81.16,2.81-2.88,0-1,0-2-.05-2.94a5.6,5.6,0,0,0-4.64-5.2,4.88,4.88,0,0,0-5.54,3.29C752.59,347.91,752.56,350.37,752.2,352.83Z"/><path class="cls-9" d="M733.9,361.51c.05,2.2,1.73,4,4.31,4.63a22.56,22.56,0,0,0,11,.43,2.23,2.23,0,0,1,1.95.76c.6,1.08-.49,1.33-1.25,1.61a15.72,15.72,0,0,1-10.29.21,20.56,20.56,0,0,1-6.23-3.06c-1.08-.82-1.58-2.6-2-4-.31-1.19.09-2.54-.08-3.79-.69-4.92,1.86-7.84,6.11-9.3,3.06-1.05,6.27-2,9.66-1.1,1.17.3,2,.74,1.51,1.88a2.53,2.53,0,0,1-2.13.95c-3.88-.49-7.54-.27-10.77,2.28-3.05,2.42-2.07,4.77,1.14,6.8,2.6,1.65,5.58,1.45,8.51,1.39.42,0,.84-.1,1.26-.1,1,0,2.31-.14,2,1.34a3.07,3.07,0,0,1-1.88,1.91,7.53,7.53,0,0,1-3.77.06C739.94,363.55,737,362.49,733.9,361.51Z"/><path class="cls-9" d="M773.83,361.86c-.73,5.05-1.82,9.57-5.87,12.6-3.67,2.75-7.57,5.19-11.37,7.77-2.24,1.51-4.44,3.08-6.75,4.48a2.52,2.52,0,0,1-2.19.06c-3.7-2.31-7.35-4.72-10.91-7.23-.47-.33-.38-1.44-.55-2.19.66,0,1.46-.15,1.94.15q4.67,2.94,9.19,6.07a2,2,0,0,0,2.6.15c5-3.38,10.16-6.62,15.08-10.15a12.68,12.68,0,0,0,5.72-11.19,3,3,0,0,1,0-.42c.16-1.2-.62-3,1.31-3.1C772.61,358.85,773.24,360.81,773.83,361.86Z"/><path class="cls-9" d="M738.18,359.11a10.47,10.47,0,0,1,1.72-2c2.14-1.46,4.35-2.81,6.59-4.11a1.63,1.63,0,0,1,1.42.21c.36.24.76.93.65,1.24C747.94,356.19,740.91,359.83,738.18,359.11Z"/><path class="cls-9" d="M770.74,348.09a13.52,13.52,0,0,1,0-2.92c.12-.55.79-1,1.21-1.46.42.38,1.19.74,1.2,1.13a69.86,69.86,0,0,1,0,7.09,1.59,1.59,0,0,1-1.24,1,1.84,1.84,0,0,1-1.14-1.24A26.39,26.39,0,0,1,770.74,348.09Z"/><path class="cls-1" d="M752.09,356.07h11.84c-.4,2.68-.59,5.23-1.21,7.68-.52,2.08-2.31,2.75-4.39,2.82s-4-.59-4.69-2.61A63,63,0,0,1,752.09,356.07Z"/><path class="cls-1" d="M752.2,352.83c.36-2.46.39-4.92,1.15-7.14a4.88,4.88,0,0,1,5.54-3.29,5.6,5.6,0,0,1,4.64,5.2c.1,1,0,2,.05,2.94,0,3,0,3-2.81,2.88C758.13,353.25,755.48,353.06,752.2,352.83Zm3.32-5c1-.78,1.93-1.37,2.71-2.09a8.69,8.69,0,0,0,1.11-1.53c-.68-.31-1.56-1-2-.83a21,21,0,0,0-3.3,2.41Z"/><path class="cls-9" d="M755.52,347.87l-1.47-2a21,21,0,0,1,3.3-2.41c.43-.21,1.31.52,2,.83a8.69,8.69,0,0,1-1.11,1.53C757.45,346.5,756.55,347.09,755.52,347.87Z"/><rect class="cls-10" y="302" width="1279" height="216"/></g></g></svg>