<?xml version="1.0" encoding="utf-8"?>
<!-- Generator: Adobe Illustrator 22.0.0, SVG Export Plug-In . SVG Version: 6.00 Build 0)  -->
<svg version="1.1" id="Layer_1" xmlns="http://www.w3.org/2000/svg" xmlns:xlink="http://www.w3.org/1999/xlink" x="0px" y="0px"
	 viewBox="0 0 131 62.9" style="enable-background:new 0 0 131 62.9;" xml:space="preserve">
<style type="text/css">
	.st0{fill:#00C800;}
</style>
<g>
	<path class="st0" d="M5.1,60h11.4c10.4,0,21.6-6.9,21.6-22.2V22.4c0-15.3-11.2-22.2-21.6-22.2H5.1c-2.8,0-4.9,1.9-4.9,4.5v50.9
		C0.2,58.1,2.3,60,5.1,60z M16.5,50.3H10L10,10h6.5c5.7,0,11.8,3.3,11.8,12.4v15.4C28.3,47,22.2,50.3,16.5,50.3z"/>
	<path class="st0" d="M65.8,9.3c1.7,0,3.1,0.4,4.3,0.7c1,0.3,2,0.5,2.9,0.5c2.1,0,3.9-1.5,4.5-3.6c0.5-2.2-0.4-4.3-2.3-5.4
		c-2.7-1.3-6.7-2-9.4-2c-12.5,0-21.6,9.3-21.6,22.2v17c0,12.9,9.1,22.3,21.6,22.3c2.8,0,6.9-0.6,9.5-2.1c1.9-1,2.8-3.2,2.3-5.3
		c-0.5-2.2-2.3-3.6-4.5-3.6c-1,0-1.9,0.3-2.9,0.5c-1.2,0.3-2.6,0.7-4.3,0.7c-7.2,0-11.8-4.9-11.8-12.4v-17
		C54,14.2,58.7,9.3,65.8,9.3z"/>
	<path class="st0" d="M131.3,42.8c0-8.4-5.6-17.3-17.9-17.3h-12.6c-6,0-8.2-3.9-8.2-7.6c0-3.7,2.2-7.6,8.2-7.6H112
		c6,0,8.2,3.9,8.2,7.6c0,2.7,2,4.5,4.8,4.5c2.8,0,4.9-1.9,4.9-4.5c0-8.7-6.1-17.4-17.9-17.4h-11.2c-11.8,0-17.9,8.8-17.9,17.4
		c0,8.6,6.2,17.3,17.9,17.3h12.6c6,0,8.2,3.9,8.2,7.6c0,1.8-0.6,7.7-8.2,7.7h-14c-6,0-8.2-3.9-8.2-7.6c0-2.7-2-4.6-4.8-4.6
		c-2.8,0-4.9,1.9-4.9,4.6c0,8.6,6.1,17.3,17.9,17.3h14C125.7,60.3,131.3,51.2,131.3,42.8z"/>
</g>
</svg>
