<svg xmlns="http://www.w3.org/2000/svg" viewBox="0 0 102.68 65.06"><defs><style>.cls-1{fill:#00a900;}.cls-2{fill:#fff;}.cls-3{fill:red;}</style></defs><title>Asset 8</title><g id="Layer_2" data-name="Layer 2"><g id="Layer_1-2" data-name="Layer 1"><path class="cls-1" d="M6.7.39A6.73,6.73,0,0,0,0,7.09V58a6.72,6.72,0,0,0,6.7,6.7h6.37V.39Z"/><circle class="cls-1" cx="24.19" cy="24.19" r="24.19"/><circle class="cls-2" cx="24.19" cy="24.19" r="12.98"/><path class="cls-3" d="M23.36,63.91V56.13a1.06,1.06,0,0,1,.28-.79,1,1,0,0,1,.73-.28,1,1,0,0,1,.75.28,1.07,1.07,0,0,1,.29.79V59h4.3v-2.9a1.1,1.1,0,0,1,.28-.79,1,1,0,0,1,.74-.28,1,1,0,0,1,.75.28,1.07,1.07,0,0,1,.29.79v7.78a1.06,1.06,0,0,1-.28.79,1,1,0,0,1-.76.28A1,1,0,0,1,30,64.7a1.1,1.1,0,0,1-.28-.79v-3h-4.3v3a1.06,1.06,0,0,1-.28.79,1,1,0,0,1-.76.28,1,1,0,0,1-.73-.28A1.06,1.06,0,0,1,23.36,63.91Z"/><path class="cls-3" d="M33.32,63.55l2.74-7.45a2,2,0,0,1,.57-.81,1.39,1.39,0,0,1,.91-.31,1.44,1.44,0,0,1,.9.3,1.69,1.69,0,0,1,.55.82l2.69,7.45c0,.09,0,.18.07.28a1,1,0,0,1,0,.24.85.85,0,0,1-.28.65.92.92,0,0,1-.65.26,1,1,0,0,1-.67-.19,1,1,0,0,1-.35-.52L39.43,63H35.62l-.41,1.26a1.13,1.13,0,0,1-.34.55,1,1,0,0,1-.65.19,1,1,0,0,1-.71-.28.88.88,0,0,1-.3-.68,1.16,1.16,0,0,1,0-.22C33.28,63.66,33.31,63.58,33.32,63.55Zm2.9-2.46h2.61l-1.29-4Z"/><path class="cls-3" d="M43.14,63.91v-7.7a.94.94,0,0,1,1-1.07H46.6a3.75,3.75,0,0,1,2.5.73A2.91,2.91,0,0,1,50,58.24,2.25,2.25,0,0,1,49.28,60a3.34,3.34,0,0,1-1.81.81l2.33,2.5a.91.91,0,0,1,.28.6,1.08,1.08,0,0,1-.29.75,1,1,0,0,1-.73.32,1.09,1.09,0,0,1-.41-.09.88.88,0,0,1-.38-.27l-3-3.7,0,3a1.1,1.1,0,0,1-.28.79,1,1,0,0,1-.76.28,1,1,0,0,1-.74-.28A1.1,1.1,0,0,1,43.14,63.91ZM45.2,57v2.41h1.4a1.37,1.37,0,0,0,.94-.32,1.33,1.33,0,0,0,0-1.78A1.33,1.33,0,0,0,46.6,57Z"/><path class="cls-3" d="M50.78,63.74,52,56.1a1.11,1.11,0,0,1,.42-.7,1.4,1.4,0,0,1,.92-.34,1.45,1.45,0,0,1,.88.29,1.35,1.35,0,0,1,.49.69l1.62,5.43L58,56a1.49,1.49,0,0,1,.48-.67,1.4,1.4,0,0,1,.89-.31,1.36,1.36,0,0,1,.91.31,1.22,1.22,0,0,1,.43.73L62,63.74V64a.91.91,0,0,1-.29.71A.94.94,0,0,1,61,65a1,1,0,0,1-.74-.23A1.28,1.28,0,0,1,60,64l-.8-5.59-1.67,5.75a1,1,0,0,1-1.1.8,1.11,1.11,0,0,1-.79-.28,1,1,0,0,1-.3-.52l-1.65-5.75L52.8,64a1.2,1.2,0,0,1-.3.73,1.11,1.11,0,0,1-.77.23,1,1,0,0,1-.7-.27.94.94,0,0,1-.28-.72A.81.81,0,0,1,50.78,63.74Z"/><path class="cls-3" d="M63.34,63.55l2.74-7.45a1.92,1.92,0,0,1,.58-.81,1.37,1.37,0,0,1,.9-.31,1.44,1.44,0,0,1,.9.3,1.7,1.7,0,0,1,.56.82l2.68,7.45c0,.09,0,.18.08.28a1.52,1.52,0,0,1,0,.24.88.88,0,0,1-.27.65,1,1,0,0,1-.66.26,1,1,0,0,1-1-.71L69.45,63H65.64l-.41,1.26a1.06,1.06,0,0,1-.34.55,1,1,0,0,1-.64.19,1,1,0,0,1-.72-.28.88.88,0,0,1-.3-.68,1,1,0,0,1,0-.22Zm2.91-2.46h2.6l-1.29-4Z"/><path class="cls-3" d="M72.78,60a5.13,5.13,0,0,1,1.32-3.61A4.42,4.42,0,0,1,77.5,55a5.06,5.06,0,0,1,1.83.31c.73.28,1.1.69,1.1,1.22a.93.93,0,0,1-.23.64.77.77,0,0,1-.62.26s-.37-.1-1-.31a3.49,3.49,0,0,0-1-.15,2.25,2.25,0,0,0-1.9.89,3.55,3.55,0,0,0-.68,2.21,3.36,3.36,0,0,0,.65,2.13,2.28,2.28,0,0,0,1.93.91,3,3,0,0,0,1-.18l1.12-.4a.85.85,0,0,1,.69.34,1,1,0,0,1,.22.59c0,.58-.39,1-1.15,1.31a5.45,5.45,0,0,1-1.92.31,4.37,4.37,0,0,1-3.39-1.45A5.08,5.08,0,0,1,72.78,60Z"/><path class="cls-3" d="M86.12,65.06a3.68,3.68,0,0,1-3-1.45,6.12,6.12,0,0,1,0-7.2,3.82,3.82,0,0,1,6,0A5.48,5.48,0,0,1,90.28,60a5.56,5.56,0,0,1-1.16,3.59A3.68,3.68,0,0,1,86.12,65.06Zm0-1.89a1.94,1.94,0,0,0,1.71-1,4.62,4.62,0,0,0,0-4.41,2,2,0,0,0-3.41,0A3.91,3.91,0,0,0,83.84,60a4,4,0,0,0,.56,2.2A2,2,0,0,0,86.12,63.17Z"/><path class="cls-3" d="M91.45,63.74l1.26-7.64a1.11,1.11,0,0,1,.42-.7,1.4,1.4,0,0,1,.92-.34,1.45,1.45,0,0,1,.88.29,1.35,1.35,0,0,1,.49.69L97,61.47,98.68,56a1.49,1.49,0,0,1,.48-.67,1.4,1.4,0,0,1,.89-.31,1.36,1.36,0,0,1,.91.31,1.28,1.28,0,0,1,.44.73l1.28,7.64V64a.93.93,0,0,1-.28.71,1,1,0,0,1-.7.28,1,1,0,0,1-.74-.23,1.28,1.28,0,0,1-.33-.73l-.8-5.59-1.67,5.75a1,1,0,0,1-1.09.8,1.12,1.12,0,0,1-.8-.28,1,1,0,0,1-.3-.52l-1.65-5.75L93.48,64a1.27,1.27,0,0,1-.31.73,1.1,1.1,0,0,1-.76.23,1,1,0,0,1-.71-.27.94.94,0,0,1-.28-.72A.81.81,0,0,1,91.45,63.74Z"/><rect class="cls-3" x="20.77" y="16.9" width="6.84" height="14.57" rx="1.32"/><rect class="cls-3" x="20.77" y="16.9" width="6.84" height="14.57" rx="1.32" transform="translate(0 48.37) rotate(-90)"/></g></g></svg>