<svg xmlns="http://www.w3.org/2000/svg" viewBox="0 0 158.37 53.3"><defs><style>.cls-1{fill:red;}.cls-2{fill:#090;}.cls-3{fill:#00a900;}.cls-4{fill:green;}.cls-5{fill:none;}</style></defs><title>Asset 9</title><g id="Layer_2" data-name="Layer 2"><g id="Layer_1-2" data-name="Layer 1"><path class="cls-1" d="M127.89,48.16a5.28,5.28,0,0,1,1.34-3.68A4.49,4.49,0,0,1,132.69,43a5.12,5.12,0,0,1,1.88.32c.74.29,1.11.7,1.11,1.24a1,1,0,0,1-.23.66.79.79,0,0,1-.63.26s-.38-.1-1.06-.32a3.64,3.64,0,0,0-1.07-.15,2.27,2.27,0,0,0-1.93.91,3.59,3.59,0,0,0-.69,2.25,3.38,3.38,0,0,0,.66,2.17,2.33,2.33,0,0,0,2,.93,3.16,3.16,0,0,0,1.07-.18l1.14-.41a.85.85,0,0,1,.7.35,1,1,0,0,1,.22.6c0,.59-.39,1-1.17,1.33a5.63,5.63,0,0,1-2,.32,4.45,4.45,0,0,1-3.45-1.48A5.21,5.21,0,0,1,127.89,48.16Z"/><path class="cls-1" d="M141.48,53.3a3.73,3.73,0,0,1-3-1.48,5.6,5.6,0,0,1-1.2-3.66,5.68,5.68,0,0,1,1.19-3.68,3.91,3.91,0,0,1,6.11,0,6.2,6.2,0,0,1,0,7.32A3.73,3.73,0,0,1,141.48,53.3Zm0-1.93a2,2,0,0,0,1.75-1,4.73,4.73,0,0,0,0-4.5,2.06,2.06,0,0,0-3.48,0,4,4,0,0,0-.59,2.25,4.08,4.08,0,0,0,.57,2.25A2,2,0,0,0,141.48,51.37Z"/><path class="cls-1" d="M146.91,52l1.29-7.8a1.19,1.19,0,0,1,.43-.71,1.44,1.44,0,0,1,.94-.35,1.43,1.43,0,0,1,.89.3,1.32,1.32,0,0,1,.5.71l1.65,5.53,1.68-5.53a1.52,1.52,0,0,1,.49-.69,1.44,1.44,0,0,1,.91-.32,1.39,1.39,0,0,1,.92.32,1.21,1.21,0,0,1,.44.74l1.32,7.8v.25a1,1,0,0,1-.3.73,1,1,0,0,1-.71.27,1,1,0,0,1-.75-.23,1.38,1.38,0,0,1-.34-.74l-.81-5.7-1.7,5.86a1.33,1.33,0,0,1-.31.54,1.13,1.13,0,0,1-.81.27,1.2,1.2,0,0,1-.81-.27,1.12,1.12,0,0,1-.31-.54l-1.67-5.86-.87,5.7a1.3,1.3,0,0,1-.31.74,1.09,1.09,0,0,1-.78.23,1,1,0,0,1-.72-.27,1,1,0,0,1-.28-.73A1.38,1.38,0,0,1,146.91,52Z"/><polygon class="cls-2" points="61.98 52.57 76.96 52.57 61.48 0 46.49 0 61.98 52.57"/><polygon class="cls-2" points="30.98 52.57 45.97 52.57 30.48 0 15.49 0 30.98 52.57"/><polygon class="cls-3" points="45.98 52.57 30.99 52.57 46.48 0 61.47 0 45.98 52.57"/><polygon class="cls-3" points="14.99 52.75 0 52.75 15.49 0 30.48 0 14.99 52.75"/><polygon class="cls-4" points="22.98 25.42 24.51 30.59 30.47 0 22.98 25.42"/><polygon class="cls-4" points="53.98 25.42 55.5 30.59 61.47 0 53.98 25.42"/><path class="cls-2" d="M105.56,0H81.39V52.57h24.17a29,29,0,0,0,0-52.57Zm-4.21,40.54h-5V12h5a15.73,15.73,0,0,1,0,28.51Z"/><rect class="cls-3" x="81.39" width="14.99" height="52.57"/><path class="cls-5" d="M101.36,12h-5V40.54h5a15.73,15.73,0,0,0,0-28.51Z"/><path class="cls-5" d="M105.56,0H81.39V52.57h24.17a29,29,0,0,0,0-52.57Zm-4.21,40.54h-5V12h5a15.73,15.73,0,0,1,0,28.51Z"/><polygon class="cls-4" points="96.37 52.57 100.18 52.57 99.31 40.54 96.37 40.54 96.37 12.03 97.24 12.03 96.37 0 96.37 0 96.37 52.57"/></g></g></svg>