<svg xmlns="http://www.w3.org/2000/svg" viewBox="0 0 81.72 81.72"><defs><style>.cls-1{fill:#008c00;}</style></defs><title>Asset 20</title><g id="Layer_2" data-name="Layer 2"><g id="Layer_1-2" data-name="Layer 1"><path class="cls-1" d="M81.72,64V81.72H4a5.24,5.24,0,0,1-4-4V4A5.22,5.22,0,0,1,4,0H50.28c3.14,1.18,4,2.41,4,5.78V20.64c1-.5,2-.91,2.85-1.42a2.45,2.45,0,0,1,2.63,0c1.09.6,2.23,1.12,3.35,1.68Q69.57,24.1,76,27.29a1.76,1.76,0,0,1,1.22,1.61c0,3.85,0,7.71,0,11.56A1.52,1.52,0,0,1,75.76,42a1.57,1.57,0,0,1-1.68-1.46c0-.24,0-.48,0-.72V32.43c0-.27,0-.55,0-.92-1.33.65-2.53,1.27-3.76,1.83a1.05,1.05,0,0,0-.72,1.13c0,4.18,0,8.35,0,12.53A11.36,11.36,0,0,1,68,52.94c-.31.52-.66,1-1,1.57.29.09.53.18.78.25,2.71.85,5.44,1.64,8.13,2.54a8.32,8.32,0,0,1,5.44,5.42C81.48,63.14,81.59,63.58,81.72,64ZM51.07,13.59H3.24V66.5H35.11c0-.26,0-.47,0-.68a8.55,8.55,0,0,1,6.47-8.75c2.41-.67,4.78-1.45,7.16-2.18l1.1-.38c-2.2-3.57-2.58-4.72-2.58-7.87,0-4.07,0-8.14,0-12.2a1,1,0,0,0-.68-1.09c-1.92-.91-3.81-1.88-5.72-2.8-.71-.35-1.29-.76-1.3-1.64s.57-1.29,1.28-1.64q4.84-2.37,9.64-4.77c.24-.12.55-.42.56-.64C51.09,19.12,51.07,16.39,51.07,13.59ZM78.53,78.5V65.76a5.29,5.29,0,0,0-4.06-5.58q-5-1.56-10-3a1.44,1.44,0,0,0-1,.08,11.14,11.14,0,0,1-10.28,0,1.26,1.26,0,0,0-.81-.08c-3.48,1-7,2.09-10.43,3.2a5.12,5.12,0,0,0-3.7,5.19q0,6.1,0,12.2c0,.26,0,.52,0,.78h4.9v-.89c0-2.74,0-5.48,0-8.22a1.58,1.58,0,0,1,1.85-1.67,1.67,1.67,0,0,1,1.34,1.82c0,2.71,0,5.42,0,8.14v.83h24V77.6c0-2.66,0-5.32,0-8,0-1.21.64-2,1.63-2s1.56.72,1.56,1.91c0,2.69,0,5.37,0,8.06v.86ZM51.07,10.29V5.39c0-1.7-.49-2.19-2.17-2.19H5c-1,0-1.78.52-1.81,1.41-.05,1.88,0,3.76,0,5.69ZM3.19,69.78v6.53c0,1.73.49,2.21,2.24,2.21q14.43,0,28.86,0c.26,0,.52,0,.77,0V69.78ZM50.48,42.07c0,2-.09,3.85,0,5.7a7.94,7.94,0,0,0,7.15,7.45,7.73,7.73,0,0,0,8.46-6.15,51.23,51.23,0,0,0,.38-7c-.45.18-.69.27-.92.38-2,.89-4,1.75-6,2.69a2.62,2.62,0,0,1-2.42,0C55,44.08,52.8,43.12,50.48,42.07ZM72,28.93a3.25,3.25,0,0,0-.37-.23q-6.37-3.16-12.78-6.3a1.3,1.3,0,0,0-1,.06c-4.15,2-8.29,4.07-12.43,6.11a6.27,6.27,0,0,0-.57.36l.56.29c1.07.54,2.13,1.08,3.22,1.58a1.38,1.38,0,0,0,.83,0,34.79,34.79,0,0,1,18,0,1.27,1.27,0,0,0,.82,0C69.47,30.21,70.67,29.59,72,28.93Zm-21.56,4.8c0,1.51,0,2.86,0,4.21a.81.81,0,0,0,.59.88c2.3,1,4.59,2.08,6.89,3.09a1.3,1.3,0,0,0,.95,0c2.34-1,4.65-2.08,7-3.11a.77.77,0,0,0,.55-.83c0-1.14,0-2.28,0-3.42,0-.56-.15-.78-.7-.9a30.92,30.92,0,0,0-10-.73C54,33.09,52.23,33.45,50.45,33.73Z"/><path class="cls-1" d="M24.72,27.13V31.6h5.52c.32,0,.64,0,1,0a1.56,1.56,0,0,1,1.57,1.65,1.54,1.54,0,0,1-1.61,1.53c-1.94,0-3.88,0-5.82,0h-.61v4.47h.88c1.86,0,3.72,0,5.58,0a1.55,1.55,0,0,1,1.58,1.56,1.51,1.51,0,0,1-1.45,1.6q-4.18.06-8.37,0A1.49,1.49,0,0,1,21.5,41c0-.13,0-.27,0-.4,0-4.94,0-9.89,0-14.83,0-1.27.6-1.82,1.88-1.83,2.5,0,5,0,7.5,0,1.19,0,1.88.58,1.9,1.57s-.69,1.62-1.92,1.62C28.83,27.14,26.82,27.13,24.72,27.13Z"/><path class="cls-1" d="M27.63,5.21h4.86c1.13,0,1.81.6,1.83,1.56A1.61,1.61,0,0,1,32.55,8.4q-4.95,0-9.88,0a1.59,1.59,0,1,1,0-3.17c1.64,0,3.29,0,4.93,0Z"/><path class="cls-1" d="M27.11,75.72a1.6,1.6,0,0,1-1.57-1.59,1.59,1.59,0,1,1,1.57,1.59Z"/></g></g></svg>