<svg xmlns="http://www.w3.org/2000/svg" viewBox="0 0 51.41 51.41"><defs><style>.cls-1{fill:#008c00;}</style></defs><title>Asset 23</title><g id="Layer_2" data-name="Layer 2"><g id="Layer_1-2" data-name="Layer 1"><path class="cls-1" d="M2.11,51.41a2.69,2.69,0,0,1-2-2A3.16,3.16,0,0,1,0,48.67V7.9A2.6,2.6,0,0,1,2.76,5.13H5.82c.65,0,1,.32,1,.85s-.35.85-1,.86H2.92C2,6.85,1.71,7.12,1.71,8V48.55c0,.86.28,1.15,1.13,1.15H8.07l.46,0V12L8,12H4.48c-.66,0-1-.31-1.05-.83s.39-.88,1.05-.88H8.56V2.93A2.62,2.62,0,0,1,11.46,0H19.4a2.59,2.59,0,0,1,2.88,2.88v.54H28c.69,0,1.07.31,1.08.85s-.37.86-1.1.86h-5.7V49.66h8.52V49q0-22.17,0-44.33A4.31,4.31,0,0,1,31,3.48a2.49,2.49,0,0,1,2.42-1.76c1.73,0,3.45,0,5.17,0A2.5,2.5,0,0,1,41.1,4c0,.4,0,.8,0,1.2V12l.55,0h4.37a.93.93,0,0,1,1,.58.84.84,0,0,1-.84,1.13c-.78,0-1.57,0-2.36,0H41.18v36h7.39c.85,0,1.13-.29,1.13-1.15V9.74c0-.89-.28-1.18-1.16-1.18H43.92c-.7,0-1.06-.3-1.06-.85s.38-.86,1.07-.86h4.26c1.89,0,2.5.39,3.22,2.09V49.3a2.87,2.87,0,0,1-2.11,2.11ZM10.32,6.85V49.67H20.57V3.06c0-.17,0-.34,0-.5a.84.84,0,0,0-.89-.84q-4.26,0-8.53,0c-.41,0-.78.2-.8.61-.06.92,0,1.85,0,2.8h7.41a1,1,0,0,1,1,.49c.3.61-.14,1.22-.9,1.22H10.32ZM32.59,8.56V49.69h6.83V4.76c0-.16,0-.33,0-.5a.82.82,0,0,0-.88-.83q-2.53,0-5.07,0a.77.77,0,0,0-.87.73c-.05.88,0,1.76,0,2.69h3.55a6.23,6.23,0,0,1,.75,0,.85.85,0,0,1,.82.9.82.82,0,0,1-.87.79c-.38,0-.77,0-1.15,0Z"/><path class="cls-1" d="M29.13,20.61v5.72c0,.8-.29,1.08-1.09,1.09H25c-.72,0-1-.31-1-1.05,0-3.87,0-7.73,0-11.6,0-.76.28-1,1.06-1h3c.77,0,1.05.29,1.05,1.07Zm-1.74,5.07V15.47H25.73V25.68Z"/><path class="cls-1" d="M46.28,25.68V21.62c0-.68.32-1.06.87-1s.84.39.84,1v8.18c0,.68-.34,1.06-.89,1s-.82-.37-.82-1Z"/><path class="cls-1" d="M42.85,25.66v-4c0-.7.3-1.06.85-1.06s.86.38.86,1.06q0,4.07,0,8.13c0,.82-.57,1.28-1.2,1a.88.88,0,0,1-.51-.9C42.86,28.47,42.85,27.06,42.85,25.66Z"/><path class="cls-1" d="M26.57,44.57h1.65a.82.82,0,0,1,.9.85.83.83,0,0,1-.86.85c-1.13,0-2.27,0-3.4,0a.85.85,0,1,1,.05-1.7Z"/><path class="cls-1" d="M45.38,46.28c-.53,0-1.07,0-1.6,0a.84.84,0,0,1-.92-.89.82.82,0,0,1,.94-.81H47c.6,0,1,.33,1,.83s-.39.86-1,.88h-1.6Z"/><path class="cls-1" d="M26.59,41.14h1.66a.85.85,0,1,1,0,1.7q-1.71,0-3.42,0a.85.85,0,1,1,0-1.7Z"/><path class="cls-1" d="M45.42,41.14h1.65a.85.85,0,1,1,0,1.7c-1.13,0-2.25,0-3.37,0a.85.85,0,1,1,0-1.7Z"/><path class="cls-1" d="M5.14,20.58c.3,0,.61,0,.91,0a.82.82,0,0,1,.79.81.81.81,0,0,1-.73.87,15.86,15.86,0,0,1-1.95,0,.84.84,0,0,1-.73-.88.85.85,0,0,1,.81-.8h.9Z"/><path class="cls-1" d="M5.17,24c.3,0,.6,0,.9,0a.8.8,0,0,1,.77.83.81.81,0,0,1-.75.85c-.63,0-1.27,0-1.91,0a.83.83,0,0,1-.75-.86A.85.85,0,0,1,4.22,24C4.53,24,4.85,24,5.17,24Z"/><path class="cls-1" d="M5.15,44.57H6a.82.82,0,0,1,.83.77.81.81,0,0,1-.74.91,13.39,13.39,0,0,1-1.9,0,.85.85,0,0,1,.1-1.69Z"/><path class="cls-1" d="M5.15,41.15c.31,0,.63,0,.95,0a.75.75,0,0,1,.73.75.74.74,0,0,1-.62.88,11.87,11.87,0,0,1-2.15,0c-.43,0-.63-.41-.63-.84a.8.8,0,0,1,.76-.78C4.51,41.13,4.83,41.15,5.15,41.15Z"/><path class="cls-1" d="M18.86,20.58v5.67c0,.89-.28,1.17-1.17,1.17H13.13c-.86,0-1.13-.28-1.13-1.15q0-5.71,0-11.43c0-.84.27-1.12,1.11-1.13h4.66c.8,0,1.09.29,1.09,1.09Zm-5.11-5.12V25.67h3.36V15.46Z"/><path class="cls-1" d="M15.4,42.85c-.83,0-1.67,0-2.5,0a.81.81,0,0,1-.86-.63.78.78,0,0,1,.34-.92,1.33,1.33,0,0,1,.56-.15h5a.86.86,0,0,1,1,.82.87.87,0,0,1-.94.89Z"/><path class="cls-1" d="M15.38,46.28H13c-.64,0-1-.34-1-.86s.37-.85,1-.85h4.86a.86.86,0,1,1,0,1.7C17.05,46.29,16.22,46.28,15.38,46.28Z"/><path class="cls-1" d="M36,20.58c.28,0,.56,0,.85,0a.84.84,0,0,1,.08,1.68,15.06,15.06,0,0,1-1.9,0,.82.82,0,0,1-.76-.89.84.84,0,0,1,.82-.79C35.4,20.56,35.71,20.58,36,20.58Z"/><path class="cls-1" d="M36,44.57c.3,0,.6,0,.9,0a.78.78,0,0,1,.78.76c0,.46-.18.84-.63.88a12.27,12.27,0,0,1-2.1,0,.78.78,0,0,1-.67-.86.83.83,0,0,1,.82-.8Z"/><path class="cls-1" d="M36,18.86c-.28,0-.57,0-.85,0a.86.86,0,0,1-.88-.89.85.85,0,0,1,.91-.81h1.6a.83.83,0,0,1,.9.81.84.84,0,0,1-.88.89C36.55,18.87,36.28,18.86,36,18.86Z"/><path class="cls-1" d="M36,42.84c-.3,0-.6,0-.9,0a.86.86,0,0,1-.82-.9.84.84,0,0,1,.87-.79c.56,0,1.13,0,1.7,0a.81.81,0,0,1,.84.81.83.83,0,0,1-.79.87,6.76,6.76,0,0,1-.9,0Z"/><path class="cls-1" d="M36,15.41c-.32,0-.64,0-1,0a.85.85,0,0,1-.77-.89.82.82,0,0,1,.82-.79q.9,0,1.8,0A.84.84,0,0,1,37,15.4a7.51,7.51,0,0,1-1,0Z"/></g></g></svg>