<svg xmlns="http://www.w3.org/2000/svg" xmlns:xlink="http://www.w3.org/1999/xlink" viewBox="0 0 245.84 65.36"><defs><style>.cls-1{fill:url(#radial-gradient);}.cls-2{fill:url(#radial-gradient-2);}.cls-3{fill:url(#radial-gradient-3);}.cls-4{fill:url(#radial-gradient-4);}.cls-5{fill:url(#radial-gradient-5);}.cls-6{fill:url(#radial-gradient-6);}.cls-7{fill:url(#radial-gradient-7);}.cls-8{fill:url(#radial-gradient-8);}.cls-9{fill:url(#radial-gradient-9);}.cls-10{fill:url(#radial-gradient-10);}.cls-11{fill:url(#radial-gradient-11);}.cls-12{fill:url(#radial-gradient-12);}.cls-13{fill:#00a900;}.cls-14{fill:red;}</style><radialGradient id="radial-gradient" cx="31.04" cy="43.39" r="22.73" gradientTransform="translate(2.74 -9.23) scale(0.99 0.97)" gradientUnits="userSpaceOnUse"><stop offset="0.4" stop-color="#fff" stop-opacity="0"/><stop offset="0.47" stop-color="#fcfcfc" stop-opacity="0.03"/><stop offset="0.57" stop-color="#f3f3f3" stop-opacity="0.13"/><stop offset="0.68" stop-color="#e5e5e5" stop-opacity="0.3"/><stop offset="0.8" stop-color="#d0d0d0" stop-opacity="0.52"/><stop offset="0.93" stop-color="#b7b7b7" stop-opacity="0.81"/><stop offset="1" stop-color="#a6a6a6"/></radialGradient><radialGradient id="radial-gradient-2" cx="31.04" cy="43.39" r="22.73" xlink:href="#radial-gradient"/><radialGradient id="radial-gradient-3" cx="30.98" cy="43.4" r="23.39" xlink:href="#radial-gradient"/><radialGradient id="radial-gradient-4" cx="30.98" cy="43.4" r="16.56" xlink:href="#radial-gradient"/><radialGradient id="radial-gradient-5" cx="30.98" cy="43.4" r="10.35" xlink:href="#radial-gradient"/><radialGradient id="radial-gradient-6" cx="30.98" cy="43.4" r="16.56" xlink:href="#radial-gradient"/><radialGradient id="radial-gradient-7" cx="30.98" cy="43.4" r="23.06" xlink:href="#radial-gradient"/><radialGradient id="radial-gradient-8" cx="30.98" cy="43.34" r="23.39" xlink:href="#radial-gradient"/><radialGradient id="radial-gradient-9" cx="30.98" cy="43.34" r="16.56" xlink:href="#radial-gradient"/><radialGradient id="radial-gradient-10" cx="30.98" cy="43.34" r="10.35" xlink:href="#radial-gradient"/><radialGradient id="radial-gradient-11" cx="30.98" cy="43.34" r="16.56" xlink:href="#radial-gradient"/><radialGradient id="radial-gradient-12" cx="30.98" cy="43.34" r="23.06" xlink:href="#radial-gradient"/></defs><title>Asset 9</title><g id="Layer_2" data-name="Layer 2"><g id="Layer_1-2" data-name="Layer 1"><rect class="cls-1" x="33.08" y="1.64" width="0.77" height="62.09"/><rect class="cls-2" x="1.64" y="32.31" width="63.64" height="0.75"/><polygon class="cls-3" points="42.94 63.02 23.14 2.58 23.87 2.36 43.67 62.79 42.94 63.02"/><polygon class="cls-4" points="42.92 53 23.2 12.7 23.89 12.38 43.61 52.68 42.92 53"/><polygon class="cls-5" points="43.07 42.71 23.2 23.19 23.74 22.67 43.61 42.19 43.07 42.71"/><polygon class="cls-6" points="53.85 42.71 12.63 23.34 12.96 22.67 54.18 42.04 53.85 42.71"/><polygon class="cls-7" points="63.79 42.65 2.79 23.44 3.02 22.73 64.02 41.94 63.79 42.65"/><polygon class="cls-8" points="23.87 62.96 23.14 62.73 42.94 2.3 43.67 2.52 23.87 62.96"/><polygon class="cls-9" points="23.89 52.94 23.2 52.62 42.92 12.32 43.61 12.64 23.89 52.94"/><polygon class="cls-10" points="23.74 42.65 23.2 42.13 43.07 22.61 43.61 23.13 23.74 42.65"/><polygon class="cls-11" points="12.96 42.65 12.63 41.98 53.85 22.61 54.18 23.28 12.96 42.65"/><polygon class="cls-12" points="3.02 42.59 2.79 41.88 63.79 22.67 64.02 23.38 3.02 42.59"/><path class="cls-13" d="M54,20a3,3,0,1,0,3.09,3A3.06,3.06,0,0,0,54,20Z"/><path class="cls-13" d="M54,29.52a3,3,0,1,0,3.09,3A3.07,3.07,0,0,0,54,29.52Z"/><path class="cls-13" d="M54,39.15a3,3,0,1,0,3.09,3A3.06,3.06,0,0,0,54,39.15Z"/><path class="cls-13" d="M12.93,39.15a3,3,0,1,0,3.1,3A3.06,3.06,0,0,0,12.93,39.15Z"/><path class="cls-13" d="M12.93,20A3,3,0,1,0,16,23,3.06,3.06,0,0,0,12.93,20Z"/><path class="cls-13" d="M12.93,29.52a3,3,0,1,0,3.1,3A3.07,3.07,0,0,0,12.93,29.52Z"/><path class="cls-13" d="M2.77,39.47a2.7,2.7,0,1,0,0,5.4,2.7,2.7,0,1,0,0-5.4Z"/><path class="cls-13" d="M2.77,20.32a2.7,2.7,0,1,0,0,5.4,2.7,2.7,0,1,0,0-5.4Z"/><path class="cls-13" d="M2.77,29.84a2.71,2.71,0,1,0,0,5.41,2.71,2.71,0,1,0,0-5.41Z"/><path class="cls-13" d="M64.15,25.72A2.7,2.7,0,1,0,61.38,23,2.74,2.74,0,0,0,64.15,25.72Z"/><path class="cls-13" d="M64.15,39.47a2.7,2.7,0,1,0,2.77,2.7A2.74,2.74,0,0,0,64.15,39.47Z"/><path class="cls-13" d="M64.15,29.84a2.71,2.71,0,1,0,2.77,2.7A2.74,2.74,0,0,0,64.15,29.84Z"/><path class="cls-14" d="M33.46,28.2a4.35,4.35,0,1,0,4.46,4.34A4.41,4.41,0,0,0,33.46,28.2Z"/><path class="cls-13" d="M33.46,5.41A2.74,2.74,0,0,0,36.23,2.7a2.77,2.77,0,0,0-5.54,0A2.74,2.74,0,0,0,33.46,5.41Z"/><path class="cls-14" d="M33.46,26.49A3.47,3.47,0,1,0,29.9,23,3.52,3.52,0,0,0,33.46,26.49Z"/><path class="cls-14" d="M33.46,38.7A3.47,3.47,0,1,0,37,42.17,3.52,3.52,0,0,0,33.46,38.7Z"/><path class="cls-13" d="M33.46,15.64a3,3,0,1,0-3.1-3A3.07,3.07,0,0,0,33.46,15.64Z"/><path class="cls-13" d="M33.46,49.72a3,3,0,1,0,3.1,3A3.07,3.07,0,0,0,33.46,49.72Z"/><path class="cls-13" d="M33.46,60a2.71,2.71,0,1,0,2.77,2.71A2.74,2.74,0,0,0,33.46,60Z"/><path class="cls-13" d="M43.28,5.41A2.74,2.74,0,0,0,46.05,2.7a2.77,2.77,0,0,0-5.54,0A2.74,2.74,0,0,0,43.28,5.41Z"/><path class="cls-14" d="M43.28,36a3.47,3.47,0,1,0-3.56-3.47A3.52,3.52,0,0,0,43.28,36Z"/><path class="cls-13" d="M43.28,19.55A3.47,3.47,0,1,0,46.84,23,3.52,3.52,0,0,0,43.28,19.55Z"/><path class="cls-13" d="M43.28,38.7a3.47,3.47,0,1,0,3.56,3.47A3.52,3.52,0,0,0,43.28,38.7Z"/><path class="cls-13" d="M43.28,15.64a3,3,0,1,0-3.1-3A3.07,3.07,0,0,0,43.28,15.64Z"/><path class="cls-13" d="M43.28,60a2.71,2.71,0,1,0,2.77,2.71A2.74,2.74,0,0,0,43.28,60Z"/><path class="cls-13" d="M43.28,49.72a3,3,0,1,0,3.1,3A3.07,3.07,0,0,0,43.28,49.72Z"/><path class="cls-13" d="M23.64,5.41A2.74,2.74,0,0,0,26.41,2.7a2.77,2.77,0,0,0-5.54,0A2.74,2.74,0,0,0,23.64,5.41Z"/><path class="cls-13" d="M23.64,19.55A3.47,3.47,0,1,0,27.2,23,3.52,3.52,0,0,0,23.64,19.55Z"/><path class="cls-13" d="M23.64,38.7a3.47,3.47,0,1,0,3.56,3.47A3.52,3.52,0,0,0,23.64,38.7Z"/><path class="cls-14" d="M23.64,29.07a3.47,3.47,0,1,0,3.56,3.47A3.52,3.52,0,0,0,23.64,29.07Z"/><path class="cls-13" d="M23.64,15.64a3,3,0,1,0-3.1-3A3.07,3.07,0,0,0,23.64,15.64Z"/><path class="cls-13" d="M23.64,60a2.71,2.71,0,1,0,2.77,2.71A2.74,2.74,0,0,0,23.64,60Z"/><path class="cls-13" d="M23.64,49.72a3,3,0,1,0,3.1,3A3.07,3.07,0,0,0,23.64,49.72Z"/><path class="cls-13" d="M86.83,17.34a4.51,4.51,0,0,0-3.24,1.32h0A4.53,4.53,0,0,0,75.84,22V32a1.24,1.24,0,0,0,2.47,0V22a2,2,0,1,1,4,0V32a1.24,1.24,0,0,0,2.47,0V22a2,2,0,1,1,4,0V32a1.25,1.25,0,0,0,2.48,0V22A4.41,4.41,0,0,0,86.83,17.34Z"/><path class="cls-13" d="M100.58,30.52h0a2.94,2.94,0,0,0-.83.14,3.92,3.92,0,0,1-1.08.19,3,3,0,0,1-3.11-3.29v-.68c0-.16.06-.24.17-.24h1.21a1.25,1.25,0,0,0,0-2.48H95.71a.17.17,0,0,1-.17-.17v-.81a3,3,0,0,1,3.11-3.29,3.92,3.92,0,0,1,1.08.19,2.94,2.94,0,0,0,.83.14h0a1.28,1.28,0,0,0,1.06-1.06,1.07,1.07,0,0,0-.54-1.2,5.39,5.39,0,0,0-2.45-.54,5.49,5.49,0,0,0-5.59,5.76v4.38a5.63,5.63,0,0,0,8,5.23,1.08,1.08,0,0,0,.54-1.2A1.29,1.29,0,0,0,100.58,30.52Z"/><path class="cls-13" d="M107.43,17.55h-3a1.16,1.16,0,0,0-1.24,1.12V31.92a1.16,1.16,0,0,0,1.24,1.13h3A5.43,5.43,0,0,0,113,27.31v-4A5.42,5.42,0,0,0,107.43,17.55Zm0,13h-1.74V20h1.74a3,3,0,0,1,3.1,3.27v4A3,3,0,0,1,107.43,30.58Z"/><path class="cls-13" d="M116.24,17.55A1.16,1.16,0,0,0,115,18.67V32a1.25,1.25,0,0,0,2.48,0V18.67A1.16,1.16,0,0,0,116.24,17.55Z"/><path class="cls-13" d="M129.73,17.55a1.16,1.16,0,0,0-1.24,1.12v5.45h-6.21V18.67a1.25,1.25,0,0,0-2.48,0V32a1.25,1.25,0,0,0,2.48,0V26.6h6.21V32A1.25,1.25,0,0,0,131,32V18.67A1.16,1.16,0,0,0,129.73,17.55Z"/><path class="cls-13" d="M143,17.55a1.16,1.16,0,0,0-1.24,1.12v8.87a3.11,3.11,0,1,1-6.21,0V18.67a1.25,1.25,0,0,0-2.48,0v8.87a5.43,5.43,0,0,0,5.58,5.75,5.45,5.45,0,0,0,5.59-5.75V18.67A1.16,1.16,0,0,0,143,17.55Z"/><path class="cls-13" d="M155.82,22.58a4.92,4.92,0,0,0-5.18-5h-3.06a1.22,1.22,0,0,0-1.24,1.23v13A1.23,1.23,0,0,0,147.58,33H152a4.42,4.42,0,0,0,4.63-4.5,4.73,4.73,0,0,0-1.46-3.36A5.15,5.15,0,0,0,155.82,22.58ZM152,30.5h-3.19v-4h3c1.55,0,2.25.61,2.34,2A1.93,1.93,0,0,1,152,30.5Zm.91-6.43A5.33,5.33,0,0,0,152,24h-3.19V20h1.82a2.44,2.44,0,0,1,2.7,2.56A2.7,2.7,0,0,1,152.92,24.07Z"/><path class="cls-13" d="M172.28,30.48a3,3,0,0,0-.75.14,4.53,4.53,0,0,1-1.13.18,3,3,0,0,1-3.11-3.27V23.11a3,3,0,0,1,3.11-3.27,4.11,4.11,0,0,1,1.13.18,3,3,0,0,0,.75.13,1.21,1.21,0,0,0,.56-2.27h0a6.46,6.46,0,0,0-2.43-.51A5.53,5.53,0,0,0,166.33,19a5.86,5.86,0,0,0-1.53,4.09v4.42a5.92,5.92,0,0,0,1.53,4.1,5.53,5.53,0,0,0,4.07,1.66,5.36,5.36,0,0,0,2.45-.54,1.22,1.22,0,0,0-.57-2.27Z"/><path class="cls-13" d="M184.93,17.55a1.16,1.16,0,0,0-1.24,1.12v5.45h-6.21V18.67a1.25,1.25,0,0,0-2.48,0V32a1.25,1.25,0,0,0,2.48,0V26.6h6.21V32a1.25,1.25,0,0,0,2.48,0V18.67A1.16,1.16,0,0,0,184.93,17.55Z"/><path class="cls-13" d="M193.85,17.34a5.46,5.46,0,0,0-5.58,5.75V32a1.25,1.25,0,0,0,2.48,0V26.6H197V32a1.25,1.25,0,0,0,2.48,0V23.09A5.43,5.43,0,0,0,193.85,17.34Zm0,2.48A3,3,0,0,1,197,23.13v1h-6.21v-1A3,3,0,0,1,193.85,19.82Z"/><path class="cls-13" d="M206.88,17.34a5.46,5.46,0,0,0-5.58,5.77V32a1.25,1.25,0,0,0,2.48,0V23.09a3.11,3.11,0,1,1,6.21,0V32a1.25,1.25,0,0,0,2.48,0V23.09A5.43,5.43,0,0,0,206.88,17.34Z"/><path class="cls-13" d="M219.9,17.34a5.45,5.45,0,0,0-5.58,5.77V32a1.24,1.24,0,0,0,2.47,0V23.09a3.11,3.11,0,1,1,6.21,0V32a1.25,1.25,0,0,0,2.48,0V23.09A5.42,5.42,0,0,0,219.9,17.34Z"/><path class="cls-13" d="M234.75,30.52h0a2.89,2.89,0,0,0-.83.14,3.92,3.92,0,0,1-1.08.19,3,3,0,0,1-3.11-3.29v-.68c0-.16.06-.24.17-.24h1.21a1.25,1.25,0,0,0,0-2.48h-1.21a.17.17,0,0,1-.17-.17v-.81a3,3,0,0,1,3.11-3.29,3.92,3.92,0,0,1,1.08.19,2.94,2.94,0,0,0,.83.14h0a1.31,1.31,0,0,0,1.07-1.06,1.08,1.08,0,0,0-.55-1.2,5.36,5.36,0,0,0-2.45-.54,5.48,5.48,0,0,0-5.58,5.76v4.38a5.63,5.63,0,0,0,8,5.23,1.08,1.08,0,0,0,.55-1.2A1.32,1.32,0,0,0,234.75,30.52Z"/><path class="cls-13" d="M245.84,31.66a1.2,1.2,0,0,0-1.18-1.21,1,1,0,0,0-.53.12,3.37,3.37,0,0,1-1.38.28,3,3,0,0,1-3.11-3.27V18.67a1.24,1.24,0,0,0-2.47,0v8.91a5.45,5.45,0,0,0,5.58,5.75,5.35,5.35,0,0,0,2.43-.53h0A1.22,1.22,0,0,0,245.84,31.66Z"/><path class="cls-14" d="M75.65,46.78V40.47a.79.79,0,0,1,.23-.61.89.89,0,0,1,.64-.22h2.16a2.17,2.17,0,0,1,1.5.55,1.82,1.82,0,0,1,.61,1.43,1.69,1.69,0,0,1-1,1.64,2,2,0,0,1,1.2.67,1.85,1.85,0,0,1,.5,1.26,2.27,2.27,0,0,1-.71,1.8,2.69,2.69,0,0,1-1.89.64H76.55a.89.89,0,0,1-.65-.23A.79.79,0,0,1,75.65,46.78Zm1.68-5.66v1.69h.88a.9.9,0,0,0,.65-.24.88.88,0,0,0,.24-.66.7.7,0,0,0-.25-.58,1,1,0,0,0-.64-.21Zm0,3.17v1.86h1.33a1.1,1.1,0,0,0,.75-.26.93.93,0,0,0,.3-.73.77.77,0,0,0-.3-.64,1.48,1.48,0,0,0-.89-.23Z"/><path class="cls-14" d="M83.07,46.78V40.61a1.09,1.09,0,0,1,.21-.71.81.81,0,0,1,.66-.26h4.24a.76.76,0,0,1,.59.23.8.8,0,0,1,.2.54.83.83,0,0,1-.2.55.73.73,0,0,1-.59.23H84.75v1.64h3.3a.81.81,0,0,1,.59.22.77.77,0,0,1,.22.54.8.8,0,0,1-.22.55.75.75,0,0,1-.59.24h-3.3v1.7h3.52a.8.8,0,0,1,.6.23.76.76,0,0,1,.21.54.76.76,0,0,1-.81.78H83.92a.81.81,0,0,1-.85-.85Z"/><path class="cls-14" d="M92.08,46.82V41.19H90.84a.69.69,0,0,1-.57-.23.82.82,0,0,1-.19-.55.78.78,0,0,1,.21-.54.7.7,0,0,1,.55-.23H95a.74.74,0,0,1,.56.23.86.86,0,0,1,0,1.09.67.67,0,0,1-.57.23H93.76v5.63a.89.89,0,0,1-.23.65.85.85,0,0,1-.62.23.81.81,0,0,1-.6-.23A.85.85,0,0,1,92.08,46.82Z"/><path class="cls-14" d="M98.48,46.82V41.19H97.25a.66.66,0,0,1-.57-.23.82.82,0,0,1-.19-.55.77.77,0,0,1,.2-.54.74.74,0,0,1,.56-.23h4.13a.72.72,0,0,1,.55.23.78.78,0,0,1,.21.54A.82.82,0,0,1,102,41a.69.69,0,0,1-.57.23h-1.21v5.63a.8.8,0,0,1-.86.88.85.85,0,0,1-.6-.23A.89.89,0,0,1,98.48,46.82Z"/><path class="cls-14" d="M103.54,46.78V40.61a1,1,0,0,1,.22-.71.81.81,0,0,1,.66-.26h4.24a.74.74,0,0,1,.58.23.76.76,0,0,1,.2.54.78.78,0,0,1-.2.55.71.71,0,0,1-.58.23h-3.43v1.64h3.29a.82.82,0,0,1,.6.22.76.76,0,0,1,.21.54.79.79,0,0,1-.21.55.75.75,0,0,1-.6.24h-3.29v1.7h3.52a.78.78,0,0,1,.59.23.73.73,0,0,1,.22.54.77.77,0,0,1-.81.78H104.4a.84.84,0,0,1-.62-.23A.81.81,0,0,1,103.54,46.78Z"/><path class="cls-14" d="M111.21,46.82v-6.3a.77.77,0,0,1,.85-.88h2a3.11,3.11,0,0,1,2.06.6,2.4,2.4,0,0,1,.75,1.94,1.88,1.88,0,0,1-.61,1.45,2.74,2.74,0,0,1-1.48.66l1.91,2a.76.76,0,0,1,.22.49.87.87,0,0,1-.23.62.79.79,0,0,1-.6.26.9.9,0,0,1-.34-.07.77.77,0,0,1-.31-.22l-2.49-3,0,2.44a.89.89,0,0,1-.23.65.85.85,0,0,1-.62.23.81.81,0,0,1-.6-.23A.85.85,0,0,1,111.21,46.82Zm1.68-5.63v2H114a1.06,1.06,0,0,0,.77-.27.92.92,0,0,0,.29-.72.94.94,0,0,0-.28-.74,1.18,1.18,0,0,0-.78-.25Z"/><path class="cls-14" d="M123,46.82V40.45a.86.86,0,0,1,.23-.64.86.86,0,0,1,1.46.64v2.38h3.52V40.45a.86.86,0,0,1,.23-.64.78.78,0,0,1,.6-.23.81.81,0,0,1,.61.23.83.83,0,0,1,.24.64v6.37a.8.8,0,0,1-.85.88.81.81,0,0,1-.6-.23.89.89,0,0,1-.23-.65V44.38h-3.52v2.44a.8.8,0,0,1-.86.88.85.85,0,0,1-.6-.23A.89.89,0,0,1,123,46.82Z"/><path class="cls-14" d="M132,46.78V40.61a1,1,0,0,1,.22-.71.81.81,0,0,1,.66-.26h4.24a.74.74,0,0,1,.58.23.76.76,0,0,1,.2.54.78.78,0,0,1-.2.55.71.71,0,0,1-.58.23h-3.43v1.64h3.29a.82.82,0,0,1,.6.22.76.76,0,0,1,.21.54.79.79,0,0,1-.21.55.75.75,0,0,1-.6.24h-3.29v1.7h3.52a.78.78,0,0,1,.59.23.73.73,0,0,1,.22.54.77.77,0,0,1-.81.78h-4.35a.85.85,0,0,1-.62-.23A.81.81,0,0,1,132,46.78Z"/><path class="cls-14" d="M139.55,46.53l2.24-6.1a1.59,1.59,0,0,1,.47-.66,1.2,1.2,0,0,1,1.48,0,1.38,1.38,0,0,1,.45.67l2.2,6.1a1.55,1.55,0,0,1,.07.23c0,.09,0,.15,0,.2a.71.71,0,0,1-.22.53.76.76,0,0,1-.54.21.87.87,0,0,1-.54-.15.89.89,0,0,1-.29-.43l-.34-1.06h-3.12l-.33,1a.92.92,0,0,1-.28.45.8.8,0,0,1-.53.16.82.82,0,0,1-.58-.22.72.72,0,0,1-.25-.57.82.82,0,0,1,0-.18A1.88,1.88,0,0,0,139.55,46.53Zm2.38-2h2.13L143,41.26Z"/><path class="cls-14" d="M148.29,46.71V40.45a.86.86,0,0,1,.23-.64.78.78,0,0,1,.6-.23.81.81,0,0,1,.61.23.83.83,0,0,1,.24.64v5.63h2a.79.79,0,0,1,.62.26.87.87,0,0,1,.19.55.71.71,0,0,1-.23.52.78.78,0,0,1-.58.22h-2.8a.85.85,0,0,1-.65-.24A1,1,0,0,1,148.29,46.71Z"/><path class="cls-14" d="M155.41,46.82V41.19h-1.23a.69.69,0,0,1-.57-.23.82.82,0,0,1-.19-.55.78.78,0,0,1,.21-.54.7.7,0,0,1,.55-.23h4.13a.74.74,0,0,1,.56.23.86.86,0,0,1,0,1.09.69.69,0,0,1-.57.23H157.1v5.63a.89.89,0,0,1-.23.65.94.94,0,0,1-1.23,0A.89.89,0,0,1,155.41,46.82Z"/><path class="cls-14" d="M160.48,46.82V40.45a.82.82,0,0,1,.23-.64.78.78,0,0,1,.6-.23.81.81,0,0,1,.85.87v2.38h3.52V40.45a.86.86,0,0,1,.23-.64.79.79,0,0,1,.6-.23.81.81,0,0,1,.61.23.83.83,0,0,1,.24.64v6.37a.8.8,0,0,1-.85.88.83.83,0,0,1-.6-.23.89.89,0,0,1-.23-.65V44.38h-3.52v2.44a.89.89,0,0,1-.23.65.86.86,0,0,1-.62.23.81.81,0,0,1-.6-.23A.85.85,0,0,1,160.48,46.82Z"/><path class="cls-14" d="M173.74,43.64a4.23,4.23,0,0,1,1.07-3,3.6,3.6,0,0,1,2.79-1.18,4.22,4.22,0,0,1,1.5.26c.6.23.9.56.9,1a.73.73,0,0,1-.19.52.64.64,0,0,1-.51.22l-.85-.26a2.91,2.91,0,0,0-.85-.13,1.86,1.86,0,0,0-1.56.73,2.91,2.91,0,0,0-.55,1.81,2.71,2.71,0,0,0,.53,1.75,1.88,1.88,0,0,0,1.58.74,2.66,2.66,0,0,0,.85-.14l.92-.33a.66.66,0,0,1,.56.28.8.8,0,0,1,.18.48c0,.47-.31.83-.94,1.07a4.49,4.49,0,0,1-1.57.26,3.6,3.6,0,0,1-2.78-1.19A4.2,4.2,0,0,1,173.74,43.64Z"/><path class="cls-14" d="M185.35,47.77a3,3,0,0,1-2.45-1.19,5,5,0,0,1,0-5.89,3.14,3.14,0,0,1,4.91,0,4.52,4.52,0,0,1,1,2.94,4.57,4.57,0,0,1-.95,2.94A3,3,0,0,1,185.35,47.77Zm0-1.55a1.57,1.57,0,0,0,1.4-.78,3.21,3.21,0,0,0,.46-1.8,3.24,3.24,0,0,0-.46-1.81,1.58,1.58,0,0,0-1.4-.77,1.6,1.6,0,0,0-1.39.77,3.27,3.27,0,0,0-.47,1.81,3.21,3.21,0,0,0,.46,1.8A1.57,1.57,0,0,0,185.35,46.22Z"/><path class="cls-14" d="M190.41,46.69l1-6.26a1,1,0,0,1,.35-.57,1.17,1.17,0,0,1,1.47,0,1.09,1.09,0,0,1,.41.56L195,44.83l1.35-4.45a1.17,1.17,0,0,1,.39-.55,1.15,1.15,0,0,1,.73-.25,1.11,1.11,0,0,1,.74.25,1,1,0,0,1,.36.6l1.05,6.26v.2a.77.77,0,0,1-.81.81.82.82,0,0,1-.6-.19,1.05,1.05,0,0,1-.27-.6l-.65-4.57-1.37,4.71a.94.94,0,0,1-.25.43.88.88,0,0,1-.65.22.93.93,0,0,1-.65-.22,1,1,0,0,1-.25-.43l-1.34-4.71-.7,4.57a1,1,0,0,1-.25.6.85.85,0,0,1-.62.19.77.77,0,0,1-.81-.81A.88.88,0,0,1,190.41,46.69Z"/><path class="cls-14" d="M201.24,46.69l1-6.26a.92.92,0,0,1,.35-.57,1.11,1.11,0,0,1,.75-.28,1.16,1.16,0,0,1,.72.24,1.07,1.07,0,0,1,.4.56l1.33,4.45,1.34-4.45a1.26,1.26,0,0,1,.4-.55,1.21,1.21,0,0,1,1.47,0,1,1,0,0,1,.36.6l1.05,6.26v.2a.79.79,0,0,1-.81.81.8.8,0,0,1-.6-.19,1.05,1.05,0,0,1-.27-.6l-.65-4.57-1.37,4.71a1,1,0,0,1-.25.43.9.9,0,0,1-.65.22.92.92,0,0,1-.65-.22,1,1,0,0,1-.25-.43l-1.34-4.71-.7,4.57a1,1,0,0,1-.25.6.86.86,0,0,1-.63.19.77.77,0,0,1-.57-.22.74.74,0,0,1-.23-.59A.53.53,0,0,1,201.24,46.69Z"/><path class="cls-14" d="M212.22,44.45v-4a.86.86,0,0,1,.23-.64.81.81,0,0,1,.6-.23.81.81,0,0,1,.86.87v3.91a1.92,1.92,0,0,0,.47,1.33,1.6,1.6,0,0,0,1.26.53,1.54,1.54,0,0,0,1.22-.55,1.94,1.94,0,0,0,.48-1.31V40.45a.86.86,0,0,1,.23-.64.81.81,0,0,1,.62-.23.78.78,0,0,1,.6.23.82.82,0,0,1,.23.64v4a3.16,3.16,0,0,1-1,2.36,3.31,3.31,0,0,1-2.39,1,3.38,3.38,0,0,1-2.42-1A3.15,3.15,0,0,1,212.22,44.45Z"/><path class="cls-14" d="M220.9,46.82V40.45a.82.82,0,0,1,.23-.64.78.78,0,0,1,.6-.23.86.86,0,0,1,.38.1.88.88,0,0,1,.34.26L226,44.69l0-4.24a.86.86,0,0,1,.23-.64.85.85,0,0,1,.63-.23.81.81,0,0,1,.6.23.86.86,0,0,1,.23.64v6.37a.89.89,0,0,1-.23.65.82.82,0,0,1-1,.12,1.07,1.07,0,0,1-.34-.27l-3.55-4.69,0,4.19a.89.89,0,0,1-.23.65.85.85,0,0,1-.62.23.81.81,0,0,1-.6-.23A.85.85,0,0,1,220.9,46.82Z"/><path class="cls-14" d="M229.64,46.82V40.45a.86.86,0,0,1,.23-.64.78.78,0,0,1,.6-.23.81.81,0,0,1,.61.23.83.83,0,0,1,.24.64v6.37a.89.89,0,0,1-.23.65.85.85,0,0,1-.62.23.81.81,0,0,1-.6-.23A.89.89,0,0,1,229.64,46.82Z"/><path class="cls-14" d="M234.61,46.82V41.19h-1.24a.69.69,0,0,1-.57-.23.87.87,0,0,1-.19-.55.78.78,0,0,1,.21-.54.72.72,0,0,1,.55-.23h4.13a.72.72,0,0,1,.56.23.78.78,0,0,1,.21.54.87.87,0,0,1-.19.55.69.69,0,0,1-.58.23h-1.21v5.63a.8.8,0,0,1-.85.88.81.81,0,0,1-.6-.23A.89.89,0,0,1,234.61,46.82Z"/><path class="cls-14" d="M243.24,43.88v3a.78.78,0,0,1-.86.83.78.78,0,0,1-.62-.24.87.87,0,0,1-.21-.59v-3l-2.46-3a.85.85,0,0,1-.16-.52.75.75,0,0,1,.24-.57.85.85,0,0,1,.63-.23.91.91,0,0,1,.79.33l1.79,2.34,1.8-2.34a.92.92,0,0,1,.76-.33.91.91,0,0,1,.65.23.72.72,0,0,1,.25.57.85.85,0,0,1-.16.52Z"/></g></g></svg>