<svg xmlns="http://www.w3.org/2000/svg" xmlns:xlink="http://www.w3.org/1999/xlink" viewBox="0 0 200.41 208.96"><defs><style>.cls-1{fill:url(#radial-gradient);}.cls-2{fill:url(#radial-gradient-2);}.cls-3{fill:url(#radial-gradient-3);}.cls-4{fill:url(#radial-gradient-4);}.cls-5{fill:url(#radial-gradient-5);}.cls-6{fill:url(#radial-gradient-6);}.cls-7{fill:url(#radial-gradient-7);}.cls-8{fill:url(#radial-gradient-8);}.cls-9{fill:url(#radial-gradient-9);}.cls-10{fill:url(#radial-gradient-10);}.cls-11{fill:url(#radial-gradient-11);}.cls-12{fill:url(#radial-gradient-12);}.cls-13{fill:#00a900;}.cls-14{fill:red;}</style><radialGradient id="radial-gradient" cx="99.38" cy="68.39" r="48.31" gradientTransform="translate(2.18 3.41) scale(0.99 0.97)" gradientUnits="userSpaceOnUse"><stop offset="0.4" stop-color="#fff" stop-opacity="0"/><stop offset="0.47" stop-color="#fcfcfc" stop-opacity="0.03"/><stop offset="0.57" stop-color="#f3f3f3" stop-opacity="0.13"/><stop offset="0.68" stop-color="#e5e5e5" stop-opacity="0.3"/><stop offset="0.8" stop-color="#d0d0d0" stop-opacity="0.52"/><stop offset="0.93" stop-color="#b7b7b7" stop-opacity="0.81"/><stop offset="1" stop-color="#a6a6a6"/></radialGradient><radialGradient id="radial-gradient-2" cx="99.37" cy="68.39" r="48.32" xlink:href="#radial-gradient"/><radialGradient id="radial-gradient-3" cx="99.26" cy="68.41" r="49.71" xlink:href="#radial-gradient"/><radialGradient id="radial-gradient-4" cx="99.26" cy="68.41" r="35.2" xlink:href="#radial-gradient"/><radialGradient id="radial-gradient-5" cx="99.26" cy="68.41" r="21.99" xlink:href="#radial-gradient"/><radialGradient id="radial-gradient-6" cx="99.26" cy="68.41" r="35.19" xlink:href="#radial-gradient"/><radialGradient id="radial-gradient-7" cx="99.26" cy="68.41" r="49" xlink:href="#radial-gradient"/><radialGradient id="radial-gradient-8" cx="99.26" cy="68.27" r="49.71" xlink:href="#radial-gradient"/><radialGradient id="radial-gradient-9" cx="99.26" cy="68.27" r="35.2" xlink:href="#radial-gradient"/><radialGradient id="radial-gradient-10" cx="99.26" cy="68.27" r="21.99" xlink:href="#radial-gradient"/><radialGradient id="radial-gradient-11" cx="99.26" cy="68.27" r="35.19" xlink:href="#radial-gradient"/><radialGradient id="radial-gradient-12" cx="99.26" cy="68.27" r="49" xlink:href="#radial-gradient"/></defs><title>Asset 2</title><g id="Layer_2" data-name="Layer 2"><g id="Layer_1-2" data-name="Layer 1"><rect class="cls-1" x="99.73" y="3.48" width="1.63" height="131.96"/><rect class="cls-2" x="32.91" y="68.66" width="135.25" height="1.59"/><polygon class="cls-3" points="120.7 133.94 78.61 5.49 80.16 5.01 122.25 133.45 120.7 133.94"/><polygon class="cls-4" points="120.64 112.64 78.74 27 80.21 26.31 122.11 111.95 120.64 112.64"/><polygon class="cls-5" points="120.97 90.78 78.73 49.29 79.89 48.17 122.13 89.66 120.97 90.78"/><polygon class="cls-6" points="143.88 90.78 56.27 49.6 56.98 48.17 144.59 89.34 143.88 90.78"/><polygon class="cls-7" points="165 90.65 35.36 49.81 35.86 48.3 165.5 89.14 165 90.65"/><polygon class="cls-8" points="80.16 133.81 78.61 133.32 120.7 4.88 122.25 5.36 80.16 133.81"/><polygon class="cls-9" points="80.21 112.5 78.74 111.82 120.64 26.18 122.11 26.87 80.21 112.5"/><polygon class="cls-10" points="79.89 90.65 78.73 89.53 120.97 48.04 122.13 49.16 79.89 90.65"/><polygon class="cls-11" points="56.98 90.65 56.27 89.21 143.88 48.04 144.59 49.47 56.98 90.65"/><polygon class="cls-12" points="35.86 90.52 35.36 89 165 48.17 165.5 49.68 35.86 90.52"/><path class="cls-13" d="M144.17,42.5a6.42,6.42,0,1,0,6.58,6.42A6.51,6.51,0,0,0,144.17,42.5Z"/><path class="cls-13" d="M144.17,62.74a6.42,6.42,0,1,0,6.58,6.42A6.51,6.51,0,0,0,144.17,62.74Z"/><path class="cls-13" d="M144.17,83.2a6.42,6.42,0,1,0,6.58,6.42A6.51,6.51,0,0,0,144.17,83.2Z"/><path class="cls-13" d="M56.91,83.2a6.42,6.42,0,1,0,6.58,6.42A6.51,6.51,0,0,0,56.91,83.2Z"/><path class="cls-13" d="M56.91,42.5a6.42,6.42,0,1,0,6.58,6.42A6.51,6.51,0,0,0,56.91,42.5Z"/><path class="cls-13" d="M56.91,62.74a6.42,6.42,0,1,0,6.58,6.42A6.51,6.51,0,0,0,56.91,62.74Z"/><path class="cls-13" d="M35.32,83.88a5.75,5.75,0,1,0,5.89,5.74A5.83,5.83,0,0,0,35.32,83.88Z"/><path class="cls-13" d="M35.32,43.18a5.75,5.75,0,1,0,5.89,5.74A5.83,5.83,0,0,0,35.32,43.18Z"/><path class="cls-13" d="M35.32,63.42a5.75,5.75,0,1,0,5.89,5.74A5.82,5.82,0,0,0,35.32,63.42Z"/><path class="cls-13" d="M165.77,54.67a5.75,5.75,0,1,0-5.89-5.75A5.83,5.83,0,0,0,165.77,54.67Z"/><path class="cls-13" d="M165.77,83.88a5.75,5.75,0,1,0,5.89,5.74A5.82,5.82,0,0,0,165.77,83.88Z"/><path class="cls-13" d="M165.77,63.42a5.75,5.75,0,1,0,5.89,5.74A5.82,5.82,0,0,0,165.77,63.42Z"/><path class="cls-14" d="M100.55,59.92A9.24,9.24,0,1,0,110,69.16,9.37,9.37,0,0,0,100.55,59.92Z"/><path class="cls-13" d="M100.55,11.49a5.83,5.83,0,0,0,5.89-5.74,5.89,5.89,0,0,0-11.78,0A5.82,5.82,0,0,0,100.55,11.49Z"/><path class="cls-14" d="M100.55,56.3A7.38,7.38,0,1,0,93,48.92,7.48,7.48,0,0,0,100.55,56.3Z"/><path class="cls-14" d="M100.55,82.25a7.38,7.38,0,1,0,7.56,7.37A7.48,7.48,0,0,0,100.55,82.25Z"/><path class="cls-13" d="M100.55,33.24A6.43,6.43,0,1,0,94,26.81,6.52,6.52,0,0,0,100.55,33.24Z"/><path class="cls-13" d="M100.55,105.67a6.43,6.43,0,1,0,6.58,6.42A6.51,6.51,0,0,0,100.55,105.67Z"/><path class="cls-13" d="M100.55,127.42a5.75,5.75,0,1,0,5.89,5.74A5.82,5.82,0,0,0,100.55,127.42Z"/><path class="cls-13" d="M121.42,11.49a5.82,5.82,0,0,0,5.88-5.74,5.89,5.89,0,0,0-11.77,0A5.82,5.82,0,0,0,121.42,11.49Z"/><path class="cls-14" d="M121.42,76.54a7.38,7.38,0,1,0-7.56-7.38A7.49,7.49,0,0,0,121.42,76.54Z"/><path class="cls-14" d="M121.42,41.55A7.38,7.38,0,1,0,129,48.92,7.48,7.48,0,0,0,121.42,41.55Z"/><path class="cls-14" d="M121.42,82.25A7.38,7.38,0,1,0,129,89.62,7.48,7.48,0,0,0,121.42,82.25Z"/><path class="cls-13" d="M121.42,33.24a6.43,6.43,0,1,0-6.59-6.43A6.52,6.52,0,0,0,121.42,33.24Z"/><path class="cls-13" d="M121.42,127.42a5.75,5.75,0,1,0,5.88,5.74A5.82,5.82,0,0,0,121.42,127.42Z"/><path class="cls-13" d="M121.42,105.67a6.43,6.43,0,1,0,6.58,6.42A6.52,6.52,0,0,0,121.42,105.67Z"/><path class="cls-13" d="M79.68,11.49a5.82,5.82,0,0,0,5.89-5.74,5.89,5.89,0,0,0-11.78,0A5.82,5.82,0,0,0,79.68,11.49Z"/><path class="cls-14" d="M79.68,41.55a7.38,7.38,0,1,0,7.56,7.37A7.48,7.48,0,0,0,79.68,41.55Z"/><path class="cls-14" d="M79.68,82.25a7.38,7.38,0,1,0,7.56,7.37A7.48,7.48,0,0,0,79.68,82.25Z"/><path class="cls-14" d="M79.68,61.79a7.38,7.38,0,1,0,7.56,7.37A7.48,7.48,0,0,0,79.68,61.79Z"/><path class="cls-13" d="M79.68,33.24a6.43,6.43,0,1,0-6.58-6.43A6.52,6.52,0,0,0,79.68,33.24Z"/><path class="cls-13" d="M79.68,127.42a5.75,5.75,0,1,0,5.89,5.74A5.82,5.82,0,0,0,79.68,127.42Z"/><path class="cls-13" d="M79.68,105.67a6.43,6.43,0,1,0,6.58,6.42A6.51,6.51,0,0,0,79.68,105.67Z"/><path class="cls-13" d="M26.71,155.44a10.1,10.1,0,0,0-7.41,3l0,0v0a9.85,9.85,0,0,0-7.43-3,10.31,10.31,0,0,0-7.17,2.79A10.08,10.08,0,0,0,1.56,166v23a2.41,2.41,0,0,0,.92,1.95,3.21,3.21,0,0,0,3.82,0A2.41,2.41,0,0,0,7.22,189V166a4.78,4.78,0,0,1,1.31-3.68,4.59,4.59,0,0,1,3.29-1.25,4.63,4.63,0,0,1,3.29,1.25,4.81,4.81,0,0,1,1.3,3.68v23a2.39,2.39,0,0,0,.93,1.95,3.2,3.2,0,0,0,3.81,0,2.39,2.39,0,0,0,.93-1.95V166a4.42,4.42,0,0,1,4.63-4.93A4.59,4.59,0,0,1,30,162.36,4.78,4.78,0,0,1,31.31,166v23a2.41,2.41,0,0,0,.92,1.95,3.17,3.17,0,0,0,3.82,0A2.42,2.42,0,0,0,37,189V166a10.12,10.12,0,0,0-3.09-7.81A10.35,10.35,0,0,0,26.71,155.44Z"/><path class="cls-13" d="M50.91,163.33a6.63,6.63,0,0,1,5.18-2.05,8.69,8.69,0,0,1,2.19.34,7.92,7.92,0,0,0,2.22.41A2.7,2.7,0,0,0,62.85,160a2.46,2.46,0,0,0-1.13-3.13,11.26,11.26,0,0,0-5.63-1.24,12.19,12.19,0,0,0-9.25,3.77,13.27,13.27,0,0,0-3.53,9.43v10a13.27,13.27,0,0,0,3.53,9.43A12.19,12.19,0,0,0,56.09,192a11.2,11.2,0,0,0,5.62-1.24,2.45,2.45,0,0,0,1.14-3.13,2.73,2.73,0,0,0-2.44-2.06,8.85,8.85,0,0,0-2.13.42,9.17,9.17,0,0,1-2.19.34,6.64,6.64,0,0,1-5.19-2.06A7.69,7.69,0,0,1,49,178.84v-1.55c0-.31.09-.41.13-.45a.31.31,0,0,1,.26-.12h2.77a2.39,2.39,0,0,0,1.94-.92,3,3,0,0,0,.64-1.91,3,3,0,0,0-.63-1.91,2.4,2.4,0,0,0-2-.93H49.37a.36.36,0,0,1-.28-.11.37.37,0,0,1-.11-.28v-1.85A7.69,7.69,0,0,1,50.91,163.33Z"/><path class="cls-13" d="M87.23,159.11h0a13.46,13.46,0,0,0-8.74-3.21H71.7a3,3,0,0,0-1.91.64,2.39,2.39,0,0,0-.93,2v30.34a2.38,2.38,0,0,0,.93,1.94,3,3,0,0,0,1.91.64h6.79a13.44,13.44,0,0,0,4.67-.83,13.21,13.21,0,0,0,4.07-2.37,11,11,0,0,0,3-4.22,14.9,14.9,0,0,0,1.07-5.74v-9.19a14.88,14.88,0,0,0-1.07-5.73A10.9,10.9,0,0,0,87.23,159.11Zm-1.63,9.95v9.19c0,2.5-.66,4.32-2,5.58a7.16,7.16,0,0,1-5.08,1.91h-4V161.57h4a7.16,7.16,0,0,1,5.08,1.91C84.94,164.74,85.6,166.57,85.6,169.06Z"/><path class="cls-13" d="M102.89,156.54a3.2,3.2,0,0,0-3.81,0,2.39,2.39,0,0,0-.93,2V189a2.39,2.39,0,0,0,.93,1.95,3.16,3.16,0,0,0,3.81,0,2.39,2.39,0,0,0,.93-1.95v-30.5A2.39,2.39,0,0,0,102.89,156.54Z"/><path class="cls-13" d="M136.08,156.54a3.2,3.2,0,0,0-3.81,0,2.39,2.39,0,0,0-.93,2V171H117.12V158.49a2.39,2.39,0,0,0-.93-2,3.2,3.2,0,0,0-3.81,0,2.39,2.39,0,0,0-.93,2V189a2.39,2.39,0,0,0,.93,1.95,3.2,3.2,0,0,0,3.81,0,2.39,2.39,0,0,0,.93-1.95V176.64h14.22V189a2.39,2.39,0,0,0,.93,1.95,3.16,3.16,0,0,0,3.81,0A2.39,2.39,0,0,0,137,189v-30.5A2.4,2.4,0,0,0,136.08,156.54Z"/><path class="cls-13" d="M168.77,156.54a3.21,3.21,0,0,0-3.82,0,2.42,2.42,0,0,0-.92,2V178.8a7.29,7.29,0,0,1-12.19,5.59c-1.37-1.24-2-3.1-2-5.68V158.49a2.4,2.4,0,0,0-.93-2,3.21,3.21,0,0,0-3.82,0,2.42,2.42,0,0,0-.92,2V178.8c0,4.14,1.29,7.41,3.83,9.72a13.37,13.37,0,0,0,17.88,0c2.55-2.31,3.85-5.58,3.85-9.72V158.49A2.4,2.4,0,0,0,168.77,156.54Z"/><path class="cls-13" d="M197.06,173.26a12,12,0,0,0,1.46-5.83,11.64,11.64,0,0,0-3.1-8.05c-2.08-2.31-5-3.48-8.75-3.48h-7a2.83,2.83,0,0,0-2.83,2.84v29.67a2.83,2.83,0,0,0,2.83,2.83h10.15a10.1,10.1,0,0,0,7.82-3.11,10.4,10.4,0,0,0,2.78-7.19A10.71,10.71,0,0,0,197.06,173.26Zm-7.25,12.31h-7.32v-9.23h6.91c3.5,0,5.16,1.44,5.34,4.6a4.68,4.68,0,0,1-1.23,3.33A4.75,4.75,0,0,1,189.81,185.57Zm2.07-14.73a12.57,12.57,0,0,0-2.07-.17h-7.32v-9.1h4.18a5.61,5.61,0,0,1,6.18,5.86A6,6,0,0,1,191.88,170.84Z"/><path class="cls-14" d="M0,207.8v-7.43a.92.92,0,0,1,.28-.73,1.09,1.09,0,0,1,.75-.25H3.57a2.56,2.56,0,0,1,1.77.65,2.18,2.18,0,0,1,.71,1.68,2,2,0,0,1-1.21,1.93,2.5,2.5,0,0,1,1.42.79,2.15,2.15,0,0,1,.58,1.48A2.7,2.7,0,0,1,6,208.05a3.2,3.2,0,0,1-2.23.75H1.06a1.09,1.09,0,0,1-.76-.27A.93.93,0,0,1,0,207.8Zm2-6.66v2H3a1.06,1.06,0,0,0,.77-.28,1,1,0,0,0,.29-.78.84.84,0,0,0-.3-.68,1.17,1.17,0,0,0-.76-.24Zm0,3.72v2.2H3.54a1.32,1.32,0,0,0,.89-.31,1.07,1.07,0,0,0,.35-.86.93.93,0,0,0-.35-.75,1.73,1.73,0,0,0-1-.28Z"/><path class="cls-14" d="M8.73,207.8v-7.27A1.3,1.3,0,0,1,9,199.7a.94.94,0,0,1,.78-.31h5a.87.87,0,0,1,.69.27.94.94,0,0,1,.23.63,1,1,0,0,1-.23.66.87.87,0,0,1-.69.27h-4v1.93H14.6a.91.91,0,0,1,.7.26.88.88,0,0,1,.25.63.91.91,0,0,1-.25.65.88.88,0,0,1-.7.28H10.72v2h4.14a.93.93,0,0,1,.7.26.9.9,0,0,1,.26.64.92.92,0,0,1-.26.64.87.87,0,0,1-.7.28H9.74a1,1,0,0,1-.72-.27A1,1,0,0,1,8.73,207.8Z"/><path class="cls-14" d="M19.34,207.85v-6.63H17.89a.82.82,0,0,1-.67-.27,1,1,0,0,1-.23-.66.88.88,0,0,1,.25-.63.83.83,0,0,1,.65-.27h4.86a.85.85,0,0,1,.66.27.92.92,0,0,1,.24.63,1,1,0,0,1-.22.66.84.84,0,0,1-.68.27H21.33v6.63a.95.95,0,0,1-1,1,1,1,0,0,1-.71-.27A1,1,0,0,1,19.34,207.85Z"/><path class="cls-14" d="M26.89,207.85v-6.63H25.43a.83.83,0,0,1-.67-.27,1,1,0,0,1-.22-.66.92.92,0,0,1,.24-.63.83.83,0,0,1,.65-.27H30.3a.83.83,0,0,1,.65.27.93.93,0,0,1,.25.63A1,1,0,0,1,31,201a.82.82,0,0,1-.67.27H28.87v6.63a1,1,0,0,1-.27.76,1,1,0,0,1-.73.27,1,1,0,0,1-.71-.27A1,1,0,0,1,26.89,207.85Z"/><path class="cls-14" d="M32.85,207.8v-7.27a1.25,1.25,0,0,1,.25-.83.92.92,0,0,1,.78-.31h5a.87.87,0,0,1,.69.27.9.9,0,0,1,.24.63,1,1,0,0,1-.24.66.87.87,0,0,1-.69.27h-4v1.93h3.88a.88.88,0,0,1,.95.89.91.91,0,0,1-.25.65.87.87,0,0,1-.7.28H34.83v2H39a.88.88,0,0,1,1,.9,1,1,0,0,1-.25.64.88.88,0,0,1-.7.28H33.85a1,1,0,0,1-.72-.27A1,1,0,0,1,32.85,207.8Z"/><path class="cls-14" d="M41.87,207.85v-7.43a.91.91,0,0,1,1-1H45.2a3.71,3.71,0,0,1,2.42.7,2.86,2.86,0,0,1,.88,2.29,2.18,2.18,0,0,1-.71,1.7,3.12,3.12,0,0,1-1.74.78l2.24,2.41a.88.88,0,0,1,.27.58,1.09,1.09,0,0,1-.28.73.92.92,0,0,1-.7.3,1,1,0,0,1-.4-.09.87.87,0,0,1-.37-.25L43.88,205l0,2.88a1,1,0,0,1-.27.76,1,1,0,0,1-.73.27,1,1,0,0,1-.71-.27A1,1,0,0,1,41.87,207.85Zm2-6.63v2.32H45.2a1.29,1.29,0,0,0,.91-.31,1.1,1.1,0,0,0,.33-.85,1.12,1.12,0,0,0-.33-.87,1.34,1.34,0,0,0-.91-.29Z"/><path class="cls-14" d="M55.8,207.85v-7.51a1,1,0,0,1,.27-.75.92.92,0,0,1,.71-.28,1,1,0,0,1,.72.28,1,1,0,0,1,.28.75v2.81h4.15v-2.81a1,1,0,0,1,.27-.75.93.93,0,0,1,.71-.28,1,1,0,0,1,1,1v7.51a1,1,0,0,1-.27.76,1,1,0,0,1-.73.27,1,1,0,0,1-.71-.27,1,1,0,0,1-.27-.76V205H57.78v2.88a1,1,0,0,1-.27.76,1,1,0,0,1-.73.27,1,1,0,0,1-.71-.27A1,1,0,0,1,55.8,207.85Z"/><path class="cls-14" d="M66.3,207.8v-7.27a1.3,1.3,0,0,1,.25-.83.94.94,0,0,1,.78-.31h5a.84.84,0,0,1,.68.27.9.9,0,0,1,.24.63A1,1,0,0,1,73,201a.84.84,0,0,1-.68.27h-4v1.93h3.89a.91.91,0,0,1,.7.26.88.88,0,0,1,.25.63.91.91,0,0,1-.25.65.88.88,0,0,1-.7.28H68.28v2h4.15a.93.93,0,0,1,.7.26.89.89,0,0,1,.25.64.91.91,0,0,1-.25.64.87.87,0,0,1-.7.28H67.31a1,1,0,0,1-.72-.27A1,1,0,0,1,66.3,207.8Z"/><path class="cls-14" d="M75.25,207.51l2.64-7.19a1.85,1.85,0,0,1,.55-.78,1.36,1.36,0,0,1,.88-.3,1.34,1.34,0,0,1,.86.29,1.65,1.65,0,0,1,.54.79l2.59,7.19c0,.08,0,.17.07.27a1.31,1.31,0,0,1,0,.23.84.84,0,0,1-.26.62.89.89,0,0,1-.64.25.9.9,0,0,1-1-.69l-.4-1.24H77.47l-.4,1.22a1.1,1.1,0,0,1-.33.53,1,1,0,0,1-.62.18,1,1,0,0,1-.69-.26.88.88,0,0,1-.29-.66c0-.11,0-.18,0-.22Zm2.8-2.38h2.51l-1.24-3.83Z"/><path class="cls-14" d="M85.54,207.72v-7.38a1,1,0,0,1,.27-.75.93.93,0,0,1,.71-.28,1,1,0,0,1,1,1V207h2.35a.93.93,0,0,1,.73.3,1,1,0,0,1,.22.65.83.83,0,0,1-.26.61,1,1,0,0,1-.69.26h-3.3a1,1,0,0,1-.76-.28A1.12,1.12,0,0,1,85.54,207.72Z"/><path class="cls-14" d="M93.93,207.85v-6.63H92.48a.84.84,0,0,1-.68-.27,1,1,0,0,1-.22-.66.92.92,0,0,1,.24-.63.85.85,0,0,1,.66-.27h4.86a.83.83,0,0,1,.65.27.88.88,0,0,1,.25.63A1,1,0,0,1,98,201a.82.82,0,0,1-.67.27H95.91v6.63a1,1,0,0,1-.27.76,1,1,0,0,1-.73.27,1,1,0,0,1-.71-.27A1,1,0,0,1,93.93,207.85Z"/><path class="cls-14" d="M99.89,207.85v-7.51a1,1,0,0,1,.27-.75.93.93,0,0,1,.71-.28,1,1,0,0,1,1,1v2.81H106v-2.81a1,1,0,0,1,.27-.75.93.93,0,0,1,.71-.28,1,1,0,0,1,1,1v7.51a1,1,0,0,1-.27.76,1,1,0,0,1-.73.27,1,1,0,0,1-.71-.27,1,1,0,0,1-.27-.76V205h-4.15v2.88a1,1,0,0,1-.27.76,1,1,0,0,1-.73.27,1,1,0,0,1-.71-.27A1,1,0,0,1,99.89,207.85Z"/><path class="cls-14" d="M115.51,204.1a5,5,0,0,1,1.26-3.48,4.26,4.26,0,0,1,3.28-1.38,5,5,0,0,1,1.77.3c.71.27,1.06.66,1.06,1.17a.92.92,0,0,1-.23.63.77.77,0,0,1-.59.25l-1-.31a3.62,3.62,0,0,0-1-.14,2.16,2.16,0,0,0-1.83.86,3.37,3.37,0,0,0-.65,2.12,3.23,3.23,0,0,0,.62,2.07,2.22,2.22,0,0,0,1.86.87,3.1,3.1,0,0,0,1-.17l1.08-.39a.8.8,0,0,1,.66.33,1,1,0,0,1,.21.57c0,.56-.37,1-1.11,1.26a5.28,5.28,0,0,1-1.85.3,4.23,4.23,0,0,1-3.27-1.39A5,5,0,0,1,115.51,204.1Z"/><path class="cls-14" d="M129.18,209a3.56,3.56,0,0,1-2.89-1.39,5.91,5.91,0,0,1,0-6.95,3.69,3.69,0,0,1,5.77,0,5.28,5.28,0,0,1,1.14,3.46,5.36,5.36,0,0,1-1.13,3.47A3.52,3.52,0,0,1,129.18,209Zm0-1.82a1.86,1.86,0,0,0,1.65-.92,4.45,4.45,0,0,0,0-4.25,1.85,1.85,0,0,0-1.65-.91,1.88,1.88,0,0,0-1.64.91,4.42,4.42,0,0,0,0,4.25A1.88,1.88,0,0,0,129.18,207.14Z"/><path class="cls-14" d="M135.14,207.69l1.22-7.37a1.12,1.12,0,0,1,.41-.68,1.32,1.32,0,0,1,.88-.33,1.37,1.37,0,0,1,.85.29,1.28,1.28,0,0,1,.47.67l1.56,5.23,1.59-5.23a1.3,1.3,0,0,1,.46-.65,1.35,1.35,0,0,1,.86-.31,1.32,1.32,0,0,1,.87.31,1.11,1.11,0,0,1,.42.7l1.24,7.37v.24a.93.93,0,0,1-.27.69,1.13,1.13,0,0,1-1.39,0,1.27,1.27,0,0,1-.32-.7l-.76-5.4-1.62,5.55a1.14,1.14,0,0,1-.29.51,1.08,1.08,0,0,1-.76.26,1.12,1.12,0,0,1-.77-.26,1,1,0,0,1-.29-.51l-1.59-5.55-.81,5.4a1.26,1.26,0,0,1-.3.7,1,1,0,0,1-.73.22,1,1,0,0,1-.69-.26.9.9,0,0,1-.27-.69A.7.7,0,0,1,135.14,207.69Z"/><path class="cls-14" d="M147.89,207.69l1.22-7.37a1.12,1.12,0,0,1,.41-.68,1.34,1.34,0,0,1,.88-.33,1.37,1.37,0,0,1,.85.29,1.28,1.28,0,0,1,.47.67l1.56,5.23,1.59-5.23a1.43,1.43,0,0,1,1.32-1,1.32,1.32,0,0,1,.87.31,1.11,1.11,0,0,1,.42.7l1.25,7.37v.24a.94.94,0,0,1-.28.69,1.13,1.13,0,0,1-1.39,0,1.27,1.27,0,0,1-.32-.7l-.76-5.4-1.62,5.55a1.14,1.14,0,0,1-.29.51,1.08,1.08,0,0,1-.76.26,1.14,1.14,0,0,1-.77-.26,1,1,0,0,1-.29-.51l-1.58-5.55-.82,5.4a1.26,1.26,0,0,1-.3.7,1,1,0,0,1-.73.22.94.94,0,0,1-.68-.26.88.88,0,0,1-.28-.69A.7.7,0,0,1,147.89,207.69Z"/><path class="cls-14" d="M160.83,205.05v-4.71a1,1,0,0,1,.27-.75.91.91,0,0,1,.7-.28,1,1,0,0,1,.72.28,1,1,0,0,1,.29.75v4.6a2.28,2.28,0,0,0,.55,1.57,1.88,1.88,0,0,0,1.48.63,1.84,1.84,0,0,0,1.44-.65,2.27,2.27,0,0,0,.57-1.55v-4.6a1,1,0,0,1,.27-.75,1,1,0,0,1,.74-.28.91.91,0,0,1,.7.28,1,1,0,0,1,.27.75v4.71a3.71,3.71,0,0,1-1.17,2.78,4.12,4.12,0,0,1-5.66,0A3.68,3.68,0,0,1,160.83,205.05Z"/><path class="cls-14" d="M171,207.85v-7.51a1,1,0,0,1,.27-.75.93.93,0,0,1,.71-.28,1.08,1.08,0,0,1,.45.12,1,1,0,0,1,.39.31l4.18,5.6,0-5a1,1,0,0,1,.27-.75,1,1,0,0,1,.73-.28.93.93,0,0,1,.71.28,1,1,0,0,1,.27.75v7.51a1,1,0,0,1-.27.76,1,1,0,0,1-1.16.14,1.31,1.31,0,0,1-.4-.32l-4.17-5.52,0,4.94a1,1,0,0,1-.27.76,1,1,0,0,1-.73.27,1,1,0,0,1-.71-.27A1,1,0,0,1,171,207.85Z"/><path class="cls-14" d="M181.33,207.85v-7.51a1,1,0,0,1,.27-.75.93.93,0,0,1,.71-.28,1,1,0,0,1,1,1v7.51a1,1,0,0,1-.27.76,1,1,0,0,1-.73.27,1,1,0,0,1-.71-.27A1,1,0,0,1,181.33,207.85Z"/><path class="cls-14" d="M187.19,207.85v-6.63h-1.46a.82.82,0,0,1-.67-.27,1,1,0,0,1-.23-.66.93.93,0,0,1,.25-.63.83.83,0,0,1,.65-.27h4.86a.84.84,0,0,1,.66.27.92.92,0,0,1,.24.63,1,1,0,0,1-.22.66.84.84,0,0,1-.68.27h-1.42v6.63a1,1,0,0,1-.27.76,1,1,0,0,1-.74.27.94.94,0,0,1-.7-.27A1,1,0,0,1,187.19,207.85Z"/><path class="cls-14" d="M197.35,204.39v3.51a1,1,0,0,1-.23.68,1,1,0,0,1-.78.3.91.91,0,0,1-.73-.28,1.05,1.05,0,0,1-.25-.7v-3.51l-2.9-3.52a1,1,0,0,1-.19-.6.89.89,0,0,1,.29-.68,1,1,0,0,1,.74-.28,1.08,1.08,0,0,1,.93.4l2.11,2.75,2.12-2.75a1.09,1.09,0,0,1,.89-.4,1,1,0,0,1,.76.28.87.87,0,0,1,.3.68,1,1,0,0,1-.18.6Z"/></g></g></svg>