<svg id="Layer_1" data-name="Layer 1" xmlns="http://www.w3.org/2000/svg" xmlns:xlink="http://www.w3.org/1999/xlink" viewBox="0 0 288.2335 115.09683"><defs><style>.cls-1{fill:none;}.cls-2{clip-path:url(#clip-path);}.cls-3{fill:#a60532;}.cls-4,.cls-5{fill:#223341;}.cls-4{fill-rule:evenodd;}</style><clipPath id="clip-path"><rect class="cls-1" x="11.47499" y="5.27222" width="265.84812" height="107.2677"/></clipPath></defs><title>logo web tai tro</title><g class="cls-2"><polygon class="cls-3" points="258.41 84.026 140.137 112.54 21.866 84.026 258.41 84.026"/><path class="cls-4" d="M263.89878,11.70539a6.50264,6.50264,0,1,0,6.52136-6.43417,6.4646,6.4646,0,0,0-6.52136,6.43417m1.1759,0a5.32772,5.32772,0,1,1,10.651,0,5.33,5.33,0,1,1-10.651,0m2.81905,3.80226h1.17612V12.25784h1.2449l2.05738,3.24981h1.26332l-2.161-3.337a1.94013,1.94013,0,0,0,1.98461-2.05749c0-1.45035-.84509-2.15922-2.64089-2.15922h-2.92444Zm1.17612-6.605h1.55751c.79252,0,1.65758.15641,1.65758,1.15959,0,1.1942-.95048,1.24324-1.98838,1.24324h-1.22671Z"/><polygon class="cls-5" points="11.475 67.216 43.74 67.216 43.74 61.147 24.304 61.147 24.304 37.692 40.456 37.692 40.456 31.626 24.304 31.626 24.304 11.343 43.184 11.343 43.184 5.27 11.475 5.27 11.475 67.216"/><path class="cls-4" d="M143.18843,41.08059c.29442-8.48434,2.75538-14.52758,7.561-14.52758,4.24011,0,6.3341,5.8125,6.4994,14.52758Zm24.9313,4.58013c.08165-1.71748.08165-2.17186.08165-3.26057,0-12.58834-6.82666-19.74214-17.53378-19.74214-11.52316,0-19.41322,8.60415-19.41322,22.37028,0,14.66935,8.05358,23.36635,20.55828,23.36635a21.51677,21.51677,0,0,0,13.039-4.08048l.816-5.88694c-3.67857,2.98979-6.9083,4.07672-10.26183,4.07672-7.8752,0-12.21738-6.50861-12.21738-16.84322Z"/><path class="cls-5" d="M127.61885,26.18139A21.77207,21.77207,0,0,0,115.41567,22.839c-12.44834,0-20.91438,9.32766-20.91438,23.45543,0,13.31351,8.23885,21.91589,20.18022,21.91589,4.36924,0,7.42836-.41434,11.10515-2.859l1.14506-5.70522a12.58837,12.58837,0,0,1-8.49332,2.76447c-7.31743,0-11.59593-5.79075-11.59593-16.92863,0-11.2324,3.766-17.59557,9.693-17.85737,4.9745-.21621,7.32275,2.1956,9.28584,4.015Z"/><path class="cls-5" d="M200.89827,23.02287a14.9073,14.9073,0,0,0-1.88122-.0944c-5.06746,0-8.49887,3.44417-11.85041,11.86483v-10.958H176.29778V67.21464h10.86886V44.03377c0-5.07468,3.76044-9.24047,8.41878-9.24047a8.67569,8.67569,0,0,1,4.82385,1.35961Z"/><path class="cls-5" d="M75.42021,67.21575H86.28907V23.83657H75.42021V48.55876c0,7.61728-2.23932,11.9558-7.15946,11.9558-4.75463,0-6.82843-3.557-6.82843-8.97689V23.83657H50.55791V52.73731c0,12.26286,6.03969,15.28914,12.79912,15.28914,5.71265,0,9.63838-3.30982,12.06318-7.42281Z"/><path class="cls-5" d="M230.75859,67.21575h10.87064v-23.797c0-11.81036,4.37834-12.881,6.91207-12.881,3.30983,0,6.50317,2.25019,6.50317,10.31819v26.3598h10.87064V37.27722c0-11.92484-7.10843-14.4385-12.30657-14.4385-4.66011,0-9.03313,2.69171-11.97931,7.51911V23.83657H230.75859Z"/><rect class="cls-5" x="208.10388" y="5.27222" width="11.2669" height="11.2669"/><rect class="cls-5" x="208.01491" y="23.8348" width="11.44506" height="43.37928"/></g></svg>