<svg xmlns="http://www.w3.org/2000/svg" viewBox="0 0 119.65 119.81"><defs><style>.cls-1{fill:#f2f2f2;}.cls-2{fill:#e3e3e2;}</style></defs><title>Asset 14</title><g id="Layer_2" data-name="Layer 2"><g id="Layer_1-2" data-name="Layer 1"><circle class="cls-1" cx="59.83" cy="59.83" r="59.83"/><path class="cls-2" d="M65.42,119.81H54.05a16.35,16.35,0,0,0-1.69-.35c-7-.73-14.1-1-21-2.3a69.68,69.68,0,0,1-14.8-4.86c-3.44-1.48-4-3.46-3.37-7.61,1.66-10.78,6.68-18.48,15.71-22.5,5.68-2.52,11.57-4.49,16.61-8.67,2.31-1.91,2.69-4.78,1.4-7.7-1.74-3.91-3.12-8-4.67-12.07-.22-.59-.38-1.52-.76-1.66-4.45-1.71-4.78-6-4.85-10.33a4.55,4.55,0,0,1,1.07-3.11c1.15-.94,1.06-2,1-3.24-.17-3.92-.5-7.85-.44-11.78.09-5.89,3.74-10.49,8.67-11.39a3.38,3.38,0,0,0,.95-.51l8.41-5H62.8c3.17,1.12,6.37,2.16,9.52,3.39,3.61,1.41,6,4.33,7.16,8.5a51.59,51.59,0,0,1,2,17.29,3.86,3.86,0,0,0,.41,2.23C84.73,42,83.21,49.87,79.23,52A3.35,3.35,0,0,0,78,53.58c-1.81,4.44-3.47,9-5.37,13.35-1,2.35-.73,4.68,1.09,6.24,5.1,4.39,11.13,6.47,17,9,8,3.42,12.81,10.16,15.17,19.34,1.92,7.49.94,9.62-5.41,12.34C93,117,85.21,118,77.37,118.83,73.39,119.23,69.4,119.49,65.42,119.81Z"/></g></g></svg>