<svg xmlns="http://www.w3.org/2000/svg" viewBox="0 0 305.03 220.78"><defs><style>.cls-1{fill:#00354f;}</style></defs><title>Asset 3</title><g id="Layer_2" data-name="Layer 2"><g id="Layer_1-2" data-name="Layer 1"><path class="cls-1" d="M0,220.78c1.24-1.4,2.47-2.81,3.74-4.2l13.81-15c-1.93-1.13-2-1.19-3.66.59-4.44,4.79-8.8,9.64-13.19,14.46-.22.23-.47.43-.7.64Z"/><path class="cls-1" d="M21.73,195.22c.46-.37.92-.74,1.38-1.09a81.71,81.71,0,0,1,18.79-11A99,99,0,0,1,64,177.23a159.35,159.35,0,0,1,20.1-1.7c1.1,0,2.2-.11,3.3-.08.8,0,1.59.29,2.39.29,1.07,0,2.16-.27,3.23-.21,6.63.32,13.26.64,19.89,1.08,3.13.21,6.23.67,9.35,1,3.33.42,6.67.87,10,1.31q6.88.9,13.77,1.83c5.5.74,11,1.61,16.48,2.22,5.78.64,11.59,1.13,17.39,1.52a101.81,101.81,0,0,0,21.93-.76,59.42,59.42,0,0,0,14.23-3.92c5.95-2.5,11.4-5.7,15.44-10.84,4.87-6.19,5.24-12.81-.61-18.81-4.38-4.49-9.71-7.67-15.25-10.4-9.23-4.56-18.61-8.81-27.92-13.2a63.59,63.59,0,0,1-14.85-9.11c-4.39-3.79-7.67-8.29-7.88-14.3a34.29,34.29,0,0,1,.9-8.49,13.65,13.65,0,0,1,2.46-5.5c3.84-4.76,9.09-7.31,15-8.54,3.24-.67,6.5-1.24,9.77-1.79s6.65-.95,10-1.52c2.27-.4,4.52-.92,6.75-1.52.4-.11.81-.86.89-1.36a4.05,4.05,0,0,0-.28-1.87c-1.3-3.71-2.47-7.49-4-11.08A29,29,0,0,0,198,50.07c-5.37-4.28-11.75-6.44-18.07-8.76a27.08,27.08,0,0,1-5.11-2.4c-1.46-.93-1.37-2.26,0-3.33a9.08,9.08,0,0,1,2.7-1.54c5.39-1.7,10.78-3.42,16.22-4.92,6.89-1.91,13.84-3.6,20.76-5.42q12.34-3.24,24.67-6.56,9.69-2.62,19.35-5.39c4.44-1.27,8.85-2.66,13.28-3.93,7.52-2.17,15-4.35,22.59-6.4A45.38,45.38,0,0,1,302.13,0a2.5,2.5,0,0,1,2.8,3.32,28.66,28.66,0,0,1-2,6c-5.3,10.87-10.59,21.75-16.1,32.51-4.5,8.79-9.2,17.48-14,26.1a57.89,57.89,0,0,1-5.77,8,3.27,3.27,0,0,1-4.33.8c-1.31-.7-2.67-1.33-3.9-2.14-4-2.7-8-5.58-12.09-8.19a12.08,12.08,0,0,0-12.89-.65,49,49,0,0,0-9.12,6.71c-2.34,2-2.58,2-4.94.37a2.93,2.93,0,0,1-4.18-.8,17.12,17.12,0,0,1-2.52-4q-3.36-8.13-6.43-16.36c-1.21-3.27-.73-4.49,2-6.7a7.79,7.79,0,0,1,.65-.48c5.73-3.9,12.06-6.7,18.29-9.65s12.71-5.83,19.09-8.7q7.77-3.51,15.6-6.91,11-4.77,22-9.41c3.66-1.54,7.38-3,11.13-4.27.89-.31,2.63-.26,2.91.23.66,1.16-.66,1.88-1.52,2.45-2.63,1.75-5.27,3.5-8,5.1-8.62,5.08-17.3,10.07-25.94,15.11q-16.65,9.7-33.27,19.46c-1.54.9-3,2-4.46,2.95a11.72,11.72,0,0,1,6.39,1.46c4.74,2.69,9.44,5.46,14.13,8.24,5,3,10,6,15.08,9,1.51.88,2.2.63,3.05-.93,1.41-2.61,2.7-5.27,4.11-7.88s2.81-3.32,5.14-2.82c-.46.74-.82,1.42-1.26,2a28.5,28.5,0,0,0-2.3,2.91c-1.42,2.48-2.59,5.09-4,7.54-1.25,2.12-2.86,2.51-5.12,1.57-.82-.34-1.62-.71-2.42-1.06a46.19,46.19,0,0,0,5.38,3.54,1.49,1.49,0,0,0,2.08-.25A27.89,27.89,0,0,0,268.77,70c5.23-9.32,10.5-18.62,15.46-28.09C289,32.81,293.45,23.55,298,14.32,299.59,11,301,7.5,302.41,4c.66-1.64.32-2-1.45-1.63-4.11.92-8.2,1.9-12.26,3C281.12,7.53,273.58,9.78,266,12s-15.4,4.41-23.12,6.55c-7.06,1.95-14.15,3.84-21.23,5.72-6.26,1.66-12.54,3.21-18.79,4.92-7.68,2.11-15.33,4.31-23,6.52a30.07,30.07,0,0,0-3.65,1.62c.87.4,1.27.61,1.69.77,4.82,1.92,9.72,3.65,14.45,5.78a30,30,0,0,1,13.43,11.59,60.16,60.16,0,0,1,7.07,17.36c.72,2.8.81,4.63-3.1,5.6-3.33.84-6.76,1.3-10.16,1.86-6.4,1.05-12.9,1.58-19.08,3.7-6.51,2.23-11.73,5.75-12.85,13.29-.57,3.84-.75,7.56,1,11.2a24.66,24.66,0,0,0,8,9.07c5.51,4.14,11.81,6.84,18,9.81,8.65,4.16,17.38,8.18,25.95,12.5A45.55,45.55,0,0,1,232.1,148c6.23,6.14,7.4,13.4,2.34,20.92-4.37,6.51-10.78,10.37-17.83,13.25a67.32,67.32,0,0,1-17.91,4.3c-9.8,1.14-19.54.45-29.28-.41-3.94-.35-7.86-.88-11.79-1.36-4.68-.58-9.37-1.17-14-1.81-5.26-.73-10.51-1.6-15.78-2.24q-8.65-1.06-17.36-1.81c-9.4-.8-18.81-1.6-28.26-.95-5.07.35-10.19.53-15.22,1.24s-9.87,1.9-14.76,3.08a69.73,69.73,0,0,0-18.9,7.87,91.11,91.11,0,0,0-14.53,10.79l-2.27-1c1.1-1.25,1.89-2.67,3.77-1.62C20.29,196.39,20.29,196.39,21.73,195.22ZM281,13.82c-6.75,2.89-13.51,5.76-20.25,8.7q-7.88,3.43-15.7,7c-6.2,2.82-12.42,5.57-18.53,8.56-5.22,2.56-10.3,5.41-15.43,8.15a10,10,0,0,0-1.41,1,2.4,2.4,0,0,0-.88,3.1c2,5.25,3.92,10.57,6,15.82a22.71,22.71,0,0,0,2.36,3.94c.21.32.68.48,1,.72.24-.37.67-.73.67-1.1,0-1.57-.17-3.14-.17-4.71,0-3.27-.08-6.54.22-9.78a6.77,6.77,0,0,1,3.2-4.86c4.13-2.81,8.27-5.62,12.55-8.18,7.7-4.61,15.5-9,23.26-13.55l23.37-13.57c1.89-1.1,3.77-2.24,5.65-3.36l-.15-.32C284.83,12.21,282.89,13,281,13.82ZM228.47,66.3a18.76,18.76,0,0,1,7.72-4,38.3,38.3,0,0,1,6.44-.19,2.48,2.48,0,0,0,.8-.06c-4.7-3.06-9.29-6.3-14.54-8.3-3.6-1.38-5.23.47-5.95,4.32-.66,3.56-.92,7.19-1.28,10.8a13,13,0,0,0,.34,2.64C224.35,69.62,226.38,67.92,228.47,66.3Z"/></g></g></svg>