<svg xmlns="http://www.w3.org/2000/svg" viewBox="0 0 1006.08 324"><defs><style>.cls-1{fill:#00354f;}</style></defs><title>Asset 4</title><g id="Layer_2" data-name="Layer 2"><g id="Layer_1-2" data-name="Layer 1"><path class="cls-1" d="M1006.08,202.48c-10.82,2.57-21.64,5.18-32.47,7.7-10.62,2.47-21.25,4.91-31.9,7.24-17.07,3.72-34.1,7.73-51.28,10.88-16.1,2.95-32.34,5.38-48.6,7.24-21.74,2.48-43.55,4.34-65.34,6.18-18.36,1.56-36.75,2.83-55.14,4-16.6,1.07-33.23,1.93-49.85,2.75-5.16.25-5.72-.16-7.49-5.21-3.36-9.63-7.29-19.17-9.47-29.08-1.77-8.06-1.38-16.6-1.82-24.94a57.84,57.84,0,0,1,.5-6.93L638,185.1c-2.38.43-2.57,2.31-2.46,4.11q.78,12.36,1.76,24.72c.44,5.67,1.11,11.34,1.37,17,.07,1.56-1,3.18-2.08,4.76-5.35-7.07-6.9-15.32-8.21-23.51a53.24,53.24,0,0,1,1.94-25.32,16.48,16.48,0,0,0-2.75-.37c-8.81.63-16.63-2.19-24-6.69a36.61,36.61,0,0,0-20.25-5.7c-7.94.17-15.88-.09-23.81.24a36.07,36.07,0,0,0-10.4,2.13c-1.55.55-2.53,2.71-3.77,4.15,1.46,1.16,2.79,3.06,4.41,3.33,3.49.6,7.12.33,10.69.47,3.23.12,6.46.33,9.7.45,7.6.28,12.83,5.09,18.14,9.62,9.35,8,19,15.71,27.72,24.34,4.37,4.32,7.13,10.33,10.36,15.72,1.53,2.56,1.06,5.37-1.23,9-.46-1-1.15-1.84-1-2.35,2.18-6.36-2.29-10.46-5.12-15-5.55-9-14.41-14.64-22.06-21.5-5.11-4.58-10.61-8.72-15.9-13.1a19.33,19.33,0,0,0-12-4.42c-6.25-.26-12.5-.56-18.75-.85-3.95-.18-6.68-2-7.08-4.8-.49-3.45,1.11-6.34,5.29-7.3a93.87,93.87,0,0,1,17.75-2.6c8.13-.26,16.42-.36,24.39.94,5.73.93,11.41,3.69,16.51,6.66,8.37,4.89,17.36,5.61,26.51,5,4.55-.28,9-2.2,13.5-3.35a10.8,10.8,0,0,1,2.63-.44c9.38.08,18.25-2.72,27.23-4.84q17.22-4.06,34.4-8.26c6.48-1.58,12.94-3.29,19.42-4.86a28,28,0,0,1,3.9-.41l.54,1.09a12.93,12.93,0,0,1-3,1.7c-5.62,1.38-11.28,2.57-16.91,3.91-10.81,2.57-21.6,5.19-32.45,8.45a16.14,16.14,0,0,0,3.68,0c8-1.95,15.93-1,23.85.79,15,3.42,29.9,7,45,10,13.32,2.61,26.79,4.44,40.19,6.56a25.88,25.88,0,0,0,3.84,0l.24-1.08c-4.7-1.71-9.36-3.59-14.13-5.08-9.85-3.09-19.77-6-29.66-8.94-5.75-1.73-11.52-3.41-17.26-5.18-1.14-.36-2.52-.79-3.15-1.66-.53-.72-.54-2.79,0-3.12,2.94-1.92,5.91-4.18,9.21-5.09q19.47-5.36,39.14-9.89c11.31-2.6,22.72-4.86,34.41-2.26,7.94,1.77,15.92,3.34,23.79,5.36,18.31,4.68,36.56,9.6,54.85,14.37,4.74,1.24,9.55,2.18,14.28,3.44a14.68,14.68,0,0,1,3.4,2l-.45,1c-5-1.23-10.09-2.4-15.1-3.71-18.29-4.78-36.51-9.88-54.88-14.31-11.67-2.82-23.52-5.08-35.4-6.75-4.91-.7-10.21.38-15.18,1.38-12,2.43-23.93,5.14-35.82,8-5.48,1.34-10.81,3.35-16.17,5.17A40.05,40.05,0,0,0,736.6,171c6.07,2,11.16,3.73,16.32,5.3,10.09,3.07,20.26,5.89,30.31,9.09,6.12,1.94,12.11,4.32,18.06,6.73,1.07.43,1.7,2,2.53,3-1.07.61-2.19,1.81-3.21,1.74-7.66-.51-15.42-.67-22.92-2.09-16.73-3.18-33.32-7-50-10.59-8.38-1.79-16.73-3.87-25.2-5.07-4.86-.69-9.95-.12-14.91.3-9.11.78-18.18,2.05-27.3,2.75-3.76.29-5,2.1-5.27,5.41a82.57,82.57,0,0,0,2.21,28.26c2.41,9,5.82,17.68,8.73,26.52.9,2.72,2.49,3.82,5.47,3.65,18.17-1.07,36.36-1.94,54.53-3,11.6-.66,23.19-1.4,34.77-2.3,14.36-1.13,28.7-2.44,43-3.72,11.34-1,22.7-1.91,34-3.24,11.62-1.38,23.24-2.94,34.77-4.94,16.12-2.79,32.22-5.82,48.23-9.19s31.67-7.23,47.49-10.91c11.38-2.65,22.74-5.36,34.13-8a23.37,23.37,0,0,1,3.66-.27ZM632.65,189.11c-4.76,13.7-2.19,26.93,2.39,40l1.18-.1Z"/><path class="cls-1" d="M0,321.87c12.15-.63,24.31-1.23,36.46-1.89,9.81-.53,19.62-1.15,29.44-1.7Q95,316.65,124.11,315a14.57,14.57,0,0,0,2.35-.55c-2-3.73-5.54-3.95-8.69-4.42-7.71-1.15-15.55-1.59-23.2-3-13-2.45-22-9.83-26.32-22.59S64,258.52,66,245.39q3-20,6.64-39.88c2.21-12,4.82-24,7.37-36,1.14-5.32,2.48-10.6,3.91-15.85.27-1,1.39-1.78,2.12-2.66.93.83,2.24,1.47,2.73,2.51,1.56,3.29,2.8,6.72,4.9,10.06a47.9,47.9,0,0,0-.46-6c-1.65-8.38-1.77-8.52,5.89-12.22,8.87-4.29,17.85-8.32,26.81-12.4,3-1.36,4.06-.77,3.77,2.43-.6,6.43-1.32,12.87-2.43,19.23-2,11.74-4.36,23.42-6.63,35.11-.35,1.82-1,3.58-1.8,6.14,2.23-.88,3.89-1.55,5.57-2.17a48.38,48.38,0,0,1,5.67-1.9c1-.22,2.66-.14,3,.43a3.9,3.9,0,0,1,0,3.34,64.94,64.94,0,0,1-5.39,8.78c-8.63,11.41-17.46,22.65-26.1,34-3.27,4.32-6.35,8.8-9.23,13.38-1.62,2.57-.44,4.08,2.65,3.77,2.11-.21,4.19-.69,6.29-.88,1-.09,2.92-.06,3,.34a5.83,5.83,0,0,1-.12,3.78c-1.38,3.13-3.3,6-4.58,9.19a63.6,63.6,0,0,0-3.1,10.12,4,4,0,0,0,3.32,5c3.33.8,6.88,2.11,10.1,1.62,9.87-1.49,15,3.75,18.89,11.64a95.38,95.38,0,0,0,8.73,14.28c.37-2.73.74-5.47,1.13-8.21.63-4.41,1.37-8.8,1.88-13.22.71-6.11,4.51-9.7,9.66-12.21,4.77-2.33,9.55-4.66,14.45-6.69,1.7-.71,3.76-.52,5.65-.73l.13,1c-5,2.13-10,4.39-15.16,6.35-8.71,3.34-13.21,9.48-13.72,18.84-.28,5.22-1.12,10.42-1.9,15.59-.16,1-1.17,1.95-1.79,2.92-1-.72-2.41-1.21-3-2.19-4.12-6.83-8-13.77-12.09-20.64-1.92-3.26-4.67-4.67-8.62-4.5a54.31,54.31,0,0,1-12.62-.73c-7.7-1.53-8.75-6.18-6.3-13.47,1.79-5.33,4.48-10.36,6.92-15.85-2.74.33-5.23.82-7.74.89-4.88.13-6.89-2.73-4.33-6.79,4-6.34,8.52-12.39,13-18.41,8.67-11.65,17.48-23.2,26.21-34.8A25.6,25.6,0,0,0,131,195l-.53-.94-13.11,4.84-1.06-.85c4.59-20.65,9.19-41.3,11.17-63.32-5,2.22-9.32,4.07-13.57,6.06-5.44,2.54-10.79,5.27-16.24,7.76-2.48,1.14-3.45,2.49-2.77,5.39a61.69,61.69,0,0,1,1.41,10.94c.07,1.17-1.06,2.4-1.65,3.61-1-.72-2.38-1.22-2.89-2.19-1.3-2.43-2.18-5.08-3.26-7.62a10.05,10.05,0,0,0-2.64-3.95c-1.1,4.39-2.34,8.75-3.28,13.16-1.91,9-3.78,18.09-5.47,27.18-2.39,12.81-4.44,25.68-6.92,38.47-2.19,11.34-3.59,22.74-2.83,34.28.63,9.52,2.46,18.74,8.81,26.41,5.31,6.4,12.36,9.64,20.36,10.95,9,1.46,18.09,2.43,27,4.18,2,.4,3.9,2.93,5.34,4.85,1.19,1.59.49,2.85-1.81,3-10.37.58-20.73,1.31-31.1,1.88-20.75,1.14-41.5,2.2-62.24,3.33-9,.49-18.06,1.12-27.09,1.61-2.22.12-4.45,0-6.67-.08Z"/><path class="cls-1" d="M517.58,63.69c.25,14.13-2.72,27.82-6.61,41.24-1.33,4.59-4.71,8.74-7.75,12.63-6.47,8.3-13,16.66-21.9,23.25l9.81,9.35V133.53l.9-.51a10.56,10.56,0,0,1,1.91,2.66c1.89,6.15,3.64,12.34,6.09,18.56,0-1.81,0-3.62,0-5.43,0-7.61.35-8,7-4.43,6.79,3.71,13.41,7.81,19.8,12.17,2,1.38,3.44,4,4.51,6.33,2,4.44,3.67,9.05,5.35,13.63s.72,5.92-4.06,5.9c-5.93,0-11.85-.1-17.77-.15a7.75,7.75,0,0,0-3.43.52c10.51,1.39,21.19-.54,31.67,1.15l.15,1.28c-3.05.68-6.13,1.23-9.14,2-7.82,2.11-15.61,4.35-23.42,6.5-7.34,2-10.56,6.88-10.07,14.36.25,3.79.25,7.61.78,11.35.61,4.38,1.28,4.63,5.78,4,4.75-.68,9.51-1.23,14.26-1.89,5.59-.78,10,.85,12.72,6.06a21.44,21.44,0,0,0,2.24,2.9c1.45-2.88,2.62-5.47,4-7.91s3.23-4.48,6.41-3.72c3.71.89,6.67,4.42,6.71,7.65,0,.56,0,1.12,0,2.22a27.27,27.27,0,0,0,2.78-2.53c2-2.46,4.43-2.46,6.88-1.16,3.14,1.68,4.42,4.56,3.43,7.46-.91,2.65-2.1,5.21-3.47,8.54,6.57-6.68,12.3-4.88,16.71,1.58q4.88,7.14,9.9,14.16c.89,1.25,2,2.37,3.09,3.7l6-4.55c-3.42-3.9-6.78-7.67-10.06-11.51s-6.69-8-10-12a2.4,2.4,0,0,1-.65-1.15c-.1-1.24-.07-2.5-.08-3.74,1.15.35,2.69.34,3.38,1.11,3.56,3.95,6.86,8.14,10.33,12.17,3.11,3.6,6.29,7.14,9.5,10.65,2,2.19,4.22,3.95,7.51,3.57.48-.06,1,.53,1.63.86-2.45,2.45-3,2.38-9.48-1,.24,5-4.8,5.08-7.13,7.72-.25.29-2.33-.46-3-1.22-2.39-2.62-4.54-5.47-7.16-8a55.14,55.14,0,0,1,3.23,5.62,6.22,6.22,0,0,1,.56,4.06c-.19.6-2.3.87-3.5.79a10.77,10.77,0,0,1-10.33-11c0-3.35.15-6.72-.09-10.05-.09-1.28-.81-3.1-1.77-3.57s-2.83.17-3.81.94c-1.73,1.35-3,3.25-4.63,4.76a24.05,24.05,0,0,1-3.35,2.24c-1.55-4.4.89-7.11,2.2-10.09.67-1.53,1.48-3,2.11-4.53,1-2.56-.12-4.22-2.29-5.52s-3.65-.19-4.69,1.59c-2,3.44-3.78,7-5.83,10.4-.57.95-1.77,1.5-2.68,2.24-.39-1.18-1.34-2.5-1.08-3.5.79-3,2.06-5.86,3.12-8.79a5.49,5.49,0,0,0-4.41-7.59A4.06,4.06,0,0,0,543,223c-1.66,3.09-3.54,6.31-4.07,9.68-.28,1.82,1.52,4.73,3.24,6,4.83,3.43,9.45,6.92,12.46,12.17,1.51,2.61,4,3.34,6.83,3.2,5.67-.28,8.25,4.45,13,7.1-10.28,3-30.24-11.13-38.82-26.28-1,1.21-1.75,3.18-3,3.48-1.51.37-3.51-.32-5-1.07a29.46,29.46,0,0,1-6.36-4.14c-3.17-2.78-3.08-4.67-.18-7.78.35-.37.67-.77,1.26-1.47l-20.68,2.43c-.23,2.54,1.27,3.73,3.3,4.32s3.66.52,4.71-1.78c.37-.83,1.57-1.3,2.39-1.93a10.34,10.34,0,0,1,1,2.94c.35,17.43.7,34.86.83,52.29,0,3.22.82,4.27,4.13,4.05,9.33-.61,7.63.25,8.23-8.12.78-11,1.67-22,2.61-33,.08-.91.93-1.75,1.42-2.63.48,1,1.36,2,1.39,3,.15,4.53.07,9.06.07,14.58,3.35-1.21,5.74-2.27,8.23-2.91,4.23-1.09,8.53-5.32,13.07,1.24.6,3.64,1.53,8.55,2.2,13.49.33,2.44,1.24,3.42,3.85,3.3,8.15-.36,16.31-.46,24.46-.67,2.61-.06,5.22-.22,7.82-.13.8,0,1.57.71,2.36,1.09l-.24.88-37.2,1.19c-2.3.07-2.68-1.49-3-3.27-.76-4.71-1.58-9.41-2.47-14.64-3.4,1.88-6.42,3.9-9.7,5.27-3,1.25-6.19,3.68-10.41.68l3.61-3.15-4.57-1.3c-.21,1.67-.5,3.28-.6,4.89-.4,6.35-.8,12.71-1.06,19.07-.09,2.07-.77,3-3,3a80.09,80.09,0,0,0-9.68.75c-3.05.45-3.62-1-3.66-3.58-.2-14.86-.49-29.72-.73-44.57-.05-2.67,0-5.35,0-8-1.87.26-3.5.81-5,.64-3.9-.44-6.13-2.63-7.31-6.59-1.91-6.43-3.9-12.74-3.88-19.56,0-7.89,2.12-14.91,7.63-20.74.19-.21.18-.6.27-.9-3.91-1.71-7.59-.74-9.23,3-3.1,7.11-6,14.31-8.61,21.62-2.11,5.95-3.72,12.09-5.36,18.2-.9,3.35.11,4.56,3.65,4.27,3.1-.25,6.15-1.07,9.24-1.49,2-.26,4-.26,5.95-.38l.67.77c-.72,1-1.24,2.34-2.2,3-5.07,3.59-10.67,6.51-16.94,6.18q-31.26-1.67-62.48-4.12c-7.61-.61-13-5.67-18-11.13-8.9-9.82-17.26-20.16-22.09-32.54-5.17-13.25-7.67-27.27-3-41.2,2.78-8.2,8.64-14.71,16.12-19.36,4.27-2.65,8.09-1.49,11.51,3.19.21-5.43,4-6.33,7.27-6.9,5.59-1,11.3-1.27,17-1.78a4.7,4.7,0,0,1,1.78.53c.08.38.22.63.15.79-2.39,5.07-3.4,6,3.83,5.87a38.21,38.21,0,0,1,6.3.94c0,.54.09,1.08.14,1.62L430,140.68l5.11,7c8.06,11,16.18,22,24.15,33,2.07,2.87,4.86,2.49,7.82,2.89-1.83-9.92-6.49-19.08-4-29.3-2.69.81-3.79-1.2-5-3.52-4.64-9.19-9.52-18.25-14.08-27.47-1.71-3.44.71-8.27,4.47-9.09,1.12-.24,2.89.68,3.8,1.62,6.26,6.4,12.37,13,18.55,19.45a1.79,1.79,0,0,0,1.75.39c-2.2-2.58-4.5-5.09-6.58-7.76-3.48-4.46-6.82-9-10.21-13.54-.33-.44-.84-.88-.9-1.36-.21-1.53-.24-3.07-.34-4.61,1.28.4,2.74.53,3.79,1.26,3.47,2.38,6.79,5,10.19,7.47a7.16,7.16,0,0,0,1.34.69c-3.95-4.48-8.6-8.69-11.89-13.77-3-4.62-5.67-9.36-9-13.83-4.7-6.3-2.66-12.1,3.78-16.62,1.4-1,1.89-4.15,1.75-6.24-.51-7.8.51-15.8,5-21.68,5.52-7.27,12.57-14.12,23.32-13.09,6.09.58,12.25.86,18.23,2,2.71.53,5.22,2.7,7.54,4.49s4.53,4.28,6.86,6.35a27.68,27.68,0,0,0,14.08,7.08c2.07.33,2.57,1.47,1.31,3A114.39,114.39,0,0,1,523,64.1c-2,2-3.09,1.71-5.41-.39-.91-.29-2-.33-2.68-.9-3.33-2.9-6.7-5.79-9.75-9-5.38-5.59-11.37-10-19.32-10.76-4.64-.45-9.32-.5-14-.73l-.06,1c4.79,2.66,8.93,6.77,15.46,4.38,5-1.85,9.3.28,12.61,4.42q3.43,4.29,7.11,8.38C509.87,63.77,514.7,65.13,517.58,63.69Zm-93.84,65.18c-5,.77-10.35,1.52-15.7,2.5-2.79.52-3.77,2-1.88,4.73a82.1,82.1,0,0,1,6.06,9.54c.69,1.32.15,3.28.17,4.94-1.34-.88-3-1.49-4-2.68-3-3.83-5.62-8-8.63-11.79-2.71-3.45-4.56-4-8-1.82-7.2,4.46-12.91,10.75-15.26,18.71-3.9,13.16-1.93,26.52,3.08,39,5,12.32,13.18,22.84,22.36,32.4,3.16,3.28,6.95,7.08,11.07,8.08,9.35,2.26,19.06,3.32,28.69,4.15,11.57,1,23.21,1.17,34.8,1.85,5.94.35,11.16-1.5,16.17-4.4-3.32,0-6.59.47-9.87.55-5.11.12-7.2-2.29-5.59-7.08,4.45-13.25,9.13-26.42,13.91-39.56a8,8,0,0,1,8.55-5.62c3.73.17,7.5.64,10.88-1.91,1-.75,2.78-.67,4.19-.65,5.81.1,11.62.29,17.42.52,2.21.08,2.92-.91,2.2-2.85-2-5.52-4.1-11-6.36-16.45a7.2,7.2,0,0,0-2.84-2.73c-5.2-3.38-10.44-6.71-15.75-9.92-2.1-1.28-4.43-2.19-6.43-3.16-.54,6.07-1,11.66-1.47,16.58,1.29,1.23,2.91,2,3.1,3.09.79,4.38,1.19,8.84,1.6,13.28.07.69-.54,1.44-.84,2.16l-1.06,0c-4.33-10.88-6.39-22.48-10.14-33.61a48.5,48.5,0,0,0,.05,5.53,10.06,10.06,0,0,1-.52,2.43,7.29,7.29,0,0,1-2.36-.78c-1.67-1.35-3.19-2.88-4.78-4.34a25.23,25.23,0,0,0,.28,7.43c1.16,8.29,2.22,16.59,3.53,24.85.65,4.09.58,4.51-3.63,4.39-8.91-.25-17.82-.72-26.73-.95-15.19-.39-30.38-.65-45.56-1.07-1.07,0-2.12-.93-3.17-1.43l.39-1.49h14.84l.36-1.12a46.86,46.86,0,0,0-4.08-3.65c-6.49-4.64-13.09-9.14-19.52-13.86-1-.73-1.34-2.34-2-3.55,1.39.07,2.89-.18,4.14.27,3.06,1.1,6,2.53,9.69,4.12.17-3.08.11-5.4.47-7.65a25.47,25.47,0,0,1,1.63-4.65,24.24,24.24,0,0,1,3.09,3.91c3.6,7.14,7,14.4,10.6,21.53a4.21,4.21,0,0,0,2.84,1.66c4.39.7,8.82,1.15,13.23,1.75,3.13.43,6.24,1,9.36,1.46l.44-.72-30.44-41.07,6.8-3.52c-2.91-.14-5.67.53-7.06-.56S424.64,131.72,423.74,128.87Zm33.75-16.66a27.65,27.65,0,0,0,2,3.56c5.65,6.83,11.48,13.52,17,20.47,2.31,2.91,4.25,2.65,6.45.28,5.5-5.9,11.07-11.74,16.36-17.83,4.41-5.09,9-10.2,10.49-17.09.7-3.15,1.48-6.29,2-9.47,1.21-7.36,2.28-14.74,3.42-22.11.32-2-.11-3.33-2.51-3.75-4.27-.76-7.28-3.47-9.85-6.86a90.77,90.77,0,0,0-6.31-7.27c-1.81-2-4-3.19-6.82-2.57-4.71,1-9.46,2.7-14-.94A16.22,16.22,0,0,1,470.74,70a11,11,0,0,0-3.82,4.11c-1.66,3.94-2.8,8.1-4.15,12.17-.93,2.82-1.09,6.46-3,8.26-3.26,3.1-1.94,5.37-.2,8A34,34,0,0,0,463,107c3.87,4.26,7.64,8.78,13.41,10.54,3.6,1.1,7.39,1.6,11,2.57.91.24,1.61,1.27,2.4,1.94-.75.65-1.41,1.65-2.28,1.91-6.1,1.8-11.73,0-16.93-3C466.33,118.59,462.41,115.56,457.49,112.21Zm11.95,37c-.9,2-1.37,3.19-2,4.33-.91,1.72-2.89,3.54-2.68,5.09,1,7.12,2.47,14.19,4,21.23.47,2.11,2,1.3,3,.18a5.12,5.12,0,0,0,.81-2.52c.85-6.86,1.68-13.72,2.43-20.59a6.18,6.18,0,0,0-.4-2.92c-2.94-7.08-3-7.07,3.7-11,.16-.09.23-.34.08-.11-12.17-6.11-20-17-29-26.54-4.12,2.63-4.64,3.24-2.73,7.2,4,8.38,8.6,16.51,12.72,24.85,1.44,2.9,2.91,3.91,5.8,1.93C466.06,149.8,467.27,149.79,469.44,149.24ZM528.37,54.9c-2.63-.93-5.12-1.25-6.91-2.54A136.48,136.48,0,0,1,507.27,41c-2.55-2.41-5.18-4.32-8.52-4.69-6.52-.71-13.09-1.27-19.65-1.37-4.05-.06-7.31,2.3-10.56,5.62,5.19,0,9.74,0,14.28,0,9.15-.06,16.37,4.07,22.65,10.32a139.54,139.54,0,0,0,10.28,9.79c3.86,3.12,4.85,2.81,8.29-.87C525.39,58.33,526.67,56.82,528.37,54.9ZM473.8,183.79c3.46,0,7.11,0,10.76,0s3.73-.27,3.2-3.85c-1-6.82-1.87-13.66-2.88-20.47A76.89,76.89,0,0,0,483,149a5.15,5.15,0,0,0-3.4-3.07,5.66,5.66,0,0,0-4.33,1.75c-.55.58,0,2.76.7,3.81a8.84,8.84,0,0,1,1.36,7.53,41.84,41.84,0,0,0-.47,4.65C475.87,170.1,474.89,176.54,473.8,183.79Zm-6-140.53c-1.5,2-3.31,3.54-4.15,5.55-1.89,4.48-3.11,9.25-5,13.75-1.56,3.77-.73,6.53,2.31,9a14.82,14.82,0,0,1,2.21,3c2.11-2.25,3.94-4.87,6.37-6.65,6.28-4.6,7.72-12.38,3-18.43Zm58,143.21-.16-.46c-5.1,0-10.27.49-15.29-.18-3.22-.43-5.16.51-6.82,2.74a29.58,29.58,0,0,0-3.8,6.2c-1,2.35-1.35,4.95-2.13,8,2.16-3.1,3.36-6.06,5.55-7.68,2.86-2.11,6.43-3.36,9.83-4.6C517.14,188.94,521.48,187.79,525.76,186.47ZM410,164.44l18.72,13.63-10.69-21.58C416.78,166.12,416.78,166.12,410,164.44ZM531.66,236l1.2-.71c-1.06-2.66-2-5.4-3.27-7.93-.48-.93-2.19-2.1-2.88-1.86a22.34,22.34,0,0,0-5.21,3.18c-.18.13.1,1.31.48,1.71A16.94,16.94,0,0,0,531.66,236ZM453.75,76.2c-4.06,1.39-4.48,4.3-4.6,7.18a9.15,9.15,0,0,0,5.5,8.77C454.36,86.9,454.07,81.79,453.75,76.2Zm132,185.38-8.62-13.65-1,.21c-.36,3.23-.73,6.45,1.2,9.58C579.06,260.53,581.59,261.62,585.73,261.58ZM457,77.78v16C461.38,90,460.38,84,457,77.78ZM428.55,180.17c1.18,1.39,1.75,2.66,2.36,2.68,5.48.16,11,.09,16.45.09l.06-.77ZM457.85,71,456,72.23l4.13,5.44,1.15-.73C460.16,75,459,73,457.85,71Z"/><path class="cls-1" d="M257.63,203.68c-1.88-1.73-3.67-3.58-5.66-5.17q-22.77-18.13-45.59-36.2a32.82,32.82,0,0,1-4.7-4.16c-.73-.85-.74-2.31-1.07-3.49,1.13.08,2.47-.2,3.36.31,5.75,3.31,11.39,6.84,17.11,10.22,2.86,1.69,5.77,3.34,8.75,4.79,7,3.41,12.38-.24,17.61-4.29.09-.07.13-.2.22-.25,10.91-6.22,9-15.72,6.54-25.39q-1.44-5.67-2.45-11.42c-.16-.88.51-1.91.79-2.86.74.64,1.89,1.15,2.14,2q2.82,8.88,5.3,17.87c2.13,7.71,4.13,15.46,6.15,23.2a13.54,13.54,0,0,1,.17,2.48l-.91.39a10.45,10.45,0,0,1-1.63-2.6c-1.53-5.77-2.92-11.58-4.39-17.5-.31.25-.47.32-.48.39-.76,11.79-10.1,16-18.66,20.59-5.85,3.1-11.26-.18-16.35-3-3.87-2.18-7.57-4.64-11.37-6.93a4.74,4.74,0,0,0-3.16-.72c10.45,8.16,21,16.25,31.32,24.5,6.16,4.9,12.13,10.05,18.16,15.11a7.19,7.19,0,0,1,2,2.2,14.86,14.86,0,0,1,.74,3.32c-1.05.11-2.34.66-3.12.25-4.48-2.38-9.26-4.46-13.15-7.61-15.51-12.56-30.72-25.48-46-38.27-.83-.69-1.63-1.4-3.21-2.77.58,2.41.85,4,1.36,5.58,4.47,13.51,9,27,13.45,40.51A96.57,96.57,0,0,1,216,232.16c.33,12.51.87,25,1.22,37.52a18.07,18.07,0,0,1-.89,4.13l-1.18.17c-2.52-4.37-5.2-8.66-7.51-13.13-6.49-12.53-13.11-25-19.14-37.75-6.77-14.33-13-28.94-19.39-43.44-1.75-4-3.16-8.08-5.19-11.88-1.32-2.48-.21-3.81,1.38-5,2.9-2.23,6-4.24,8.94-6.38a10,10,0,0,0,1.25-1.41L156,145.41l.42-1.48c3.8.2,7.62.27,11.41.62,12,1.11,24.09,1.78,36-.54,3.87-.75,7.56-2.46,12.13-4-3.74-2.89-6.83-5.26-9.91-7.66-1.57-1.24-3.07-2.57-4.67-3.77-8-6-11.32-14.29-12.12-23.86-.5-6-.7-12-1.21-18a22.82,22.82,0,0,0-1.41-6.46c-3.44-8.55-1.64-15.89,5.39-21.55a272.41,272.41,0,0,1,23.18-17.2c8.78-5.67,15.5-13.25,22.23-20.95,1.36-1.56,2.71-3.15,4.24-4.94l26.38,21.24c1.77-6.19-2-14.72-7.94-18.89-6.5-4.52-13.91-6.81-21.5-8.71-6.36-1.59-12.61-3.61-19-5.2-16-4-30.84-1.07-44.58,8-11,7.22-20.78,15.78-26.91,27.59a91.68,91.68,0,0,0-7.15,18.94c-2.44,9.24-4.28,18.66-5.8,28.1-1.12,6.92-1.27,14-1.93,21-.51,5.45,1.81,9.47,6.16,12.44,6.87,4.69,13.77,9.31,20.66,13.95a25.41,25.41,0,0,1,3.83,2.63c.65.64.73,1.85,1.07,2.81-.91.15-1.95.65-2.72.39-4.1-1.39-8.14-2.94-12.18-4.49s-8.27-3.26-12.42-4.84a3.85,3.85,0,0,0-3,.17c2.74,2.46,5.18,5.4,8.27,7.29,5.46,3.33,6.83,8.51,7.81,14.14,1.84,10.65,3.86,21.27,5.64,31.93a77.74,77.74,0,0,1,.93,11c0,1.26-.88,2.55-1.36,3.83-1.12-.89-2.83-1.55-3.26-2.7-2.13-5.7-4-11.52-5.82-17.32-3.32-10.46-6.56-20.95-9.87-31.41a7.65,7.65,0,0,0-1.17-2c-.17-.24-.51-.35-1.49-1,.26,3.36.11,6.25.76,9,2,8.21,3.87,16.48,6.54,24.48a55.66,55.66,0,0,1,1.83,27.71c-1.43,8.21-3.06,16.4-4.77,24.56a8.84,8.84,0,0,1-5.6,6.93c-4.53,1.78-9,3.83-13.43,5.78-.87.38-1.68.88-2.52,1.32l.25.79c3.82-.88,7.65-1.75,11.47-2.66a44.06,44.06,0,0,1,4.84-1.24,8.66,8.66,0,0,1,2.92.69c-.51.88-.79,2.13-1.54,2.58-5,2.93-10,5.67-15,8.52a30.87,30.87,0,0,0-6.78,4.92c3.9-1,7.89-1.81,11.69-3.15a22.68,22.68,0,0,1,16.53.13c9.23,3.52,18.77,6.22,28.16,9.31a22,22,0,0,1,2.6,1.23l-.06.95a12.13,12.13,0,0,1-3.41,0c-6.47-2-12.92-4.1-19.36-6.2-4.65-1.52-9.2-3.79-14-4.4-3.76-.49-7.82.89-11.68,1.74-4.66,1-9.24,2.4-13.88,3.53-.93.23-2,0-3.66-.71,1-1.15,1.85-2.61,3.11-3.4,5.34-3.37,10.81-6.54,16.23-9.8.87-.52,1.69-1.13,3.28-2.2-8.27,1.52-15.35,4.47-22.94,4.13l-.64-1.21a32.58,32.58,0,0,1,4.4-2.92c7.38-3.33,14.89-6.36,22.17-9.88a8.91,8.91,0,0,0,4.41-4.88c1.83-6.75,3.14-13.66,4.44-20.54.62-3.28.66-6.66,1.14-10,1.38-9.51-1.93-18.25-4.22-27.18q-3-11.79-5.54-23.7c-.47-2.24-1.18-5.41,1.75-6.39,3.14-1.05,4.58,2,5.4,4.24q4,11.27,7.49,22.75c2.48,8.25,4.64,16.6,6.95,24.91l1.42-.24c-.43-3.85-.67-7.74-1.33-11.55-1.85-10.64-4-21.23-5.78-31.88-.75-4.49-2.53-7.88-6.43-10.55-3.25-2.22-6-5.28-8.69-8.21-.79-.87-.72-2.54-1.05-3.84,1.26-.13,2.65-.68,3.74-.31,5.05,1.69,10,3.65,15,5.49,1.31.48,2.64.87,4,1.3l.37-.77c-3.69-2.49-7.43-4.92-11.07-7.49a103.86,103.86,0,0,1-8.45-6.43c-3-2.58-4.84-6-4.48-10,.85-9.77,1.37-19.62,3.11-29.24a288,288,0,0,1,8-33c4.1-13.37,13.35-23.29,24.06-31.85A81,81,0,0,1,188.59,2.76C197-.39,205.65-.52,214.32.77c13.24,2,26,6,38.49,10.58,9.69,3.51,16.43,10,18.21,20.58a18.13,18.13,0,0,1,.23,5c-.2,1.9-.53,4.09-3.38,2.7,1.07,6,2.17,11.74,3.11,17.53q1.89,11.69,3.54,23.41a20,20,0,0,1-2.38,13.55c-3.51,5.89-6.83,11.9-10.29,17.82-5.66,9.66-14.75,11.41-24.63,9.63-16.78-3-30.75-11.63-43-23.23A8.28,8.28,0,0,1,193,96.81a13.54,13.54,0,0,1-.84-1.76l-1.37.74c.59,4.45,1.39,8.9,1.73,13.37.82,10.87,9,16.3,16.29,22.33,3.32,2.73,6.91,5.12,10.73,7.93-4.28,3.92-9.31,5.49-14.42,6.67-10.57,2.43-21.27,2.33-32,1.23a23.36,23.36,0,0,0-6.8.43l13.88,6.9c-3.94,2.94-7,5.38-10.24,7.6-4.54,3.12-4.61,3.09-2.34,8.18,8.54,19.13,16.79,38.39,25.7,57.34,6.25,13.29,13.41,26.14,20.17,39.19l.93-.14a31.75,31.75,0,0,0,.34-4c-.46-12.51-.5-25-1.66-37.5-.66-7.12-2.81-14.17-4.92-21.07-4.15-13.59-8.72-27-13.14-40.55-.9-2.75-2-5.44-2.82-8.2a5.1,5.1,0,0,1,.18-3c21.17,18,40.84,37.51,64.55,51.95ZM248,25.45a21.35,21.35,0,0,0-1.65,1.74,92.41,92.41,0,0,1-36.54,28.94c-10.1,4.59-19.25,11.28-19,24.48.11,6.33,1.34,12.58,6,17a99.13,99.13,0,0,0,14.81,11.15c9,5.71,18.51,10.12,29.43,10.76,7.34.42,13.83-1.08,18-7.67,3.72-5.88,7.1-12,10.6-18a19.06,19.06,0,0,0,2.21-14.78,132.4,132.4,0,0,1-2.35-13.46c-.79-5.62-1.32-11.29-2.09-16.92a19.52,19.52,0,0,0-7.17-13.08C256.24,32.34,252.27,29,248,25.45ZM246.66,23c-4.2-4.59-4-4.44-7.84-.46C233,28.58,227.44,34.92,221,40.21c-7,5.73-15.09,10.08-22.24,15.64A55.54,55.54,0,0,0,188.52,67a6.56,6.56,0,0,0,.31,8.57c.39-1.32.7-2.72,1.19-4.06,2.3-6.27,7-10.54,12.48-13.8,6.66-4,13.85-7.07,20.46-11.12C232.64,40.67,239.67,31.91,246.66,23Z"/><path class="cls-1" d="M340.19,266.34c5.23,1.84,5.77,8.11,1.31,14,2.35,1.53,2.35,2.89-.21,4.45a55.58,55.58,0,0,0-8,5.3,8.7,8.7,0,0,1,2.68-.57,5.13,5.13,0,0,1,3.1,1.1c.42.44.17,2.18-.38,2.77a50.82,50.82,0,0,1-5.46,4.77c-.38.3-1.14.15-1.72.21.11-.66,0-1.54.38-1.92a19.86,19.86,0,0,0,3.93-4.34c-3.54,1.17-7,2.49-10.63,3.43-1.17.3-2.61-.39-3.92-.63.76-1,1.33-2.27,2.32-2.88,3.65-2.25,7.44-4.27,11.1-6.6-3.88.14-7.39,3.21-11.41,1.65l-.48-1.19c3.05-1.57,6.07-3.21,9.16-4.7,2.09-1,4.29-1.79,6.4-2.75,4.3-2,5.12-5.15,2.17-9.6-3.5,1.71-7,3.6-10.65,5.14a70.15,70.15,0,0,1-8.8,2.88c-.64.17-1.52-.49-2.28-.76.46-.78.75-1.92,1.43-2.26,3.47-1.74,7.06-3.24,10.58-4.88,8.66-4.05,9.13-3.89,4.59-13.3a17.25,17.25,0,0,0-4.79-5.34c-1.18-1-3.51-.65-3.1,1.29,1.22,5.68-2.87,8.3-6.25,10.76-3,2.19-7,3-10.48,4.52a6.88,6.88,0,0,0-2.71,2.08c-3.17,4.28-6.12,8.72-9.33,13a11.25,11.25,0,0,1-4,3.32c-3.64,1.71-5,.89-6.56-3.45-1.26,2.65-2.33,5.28-3.74,7.72-1.88,3.22-3.8,3.6-8.07,2-2.73-1-2.28-3.17-1.93-5.31a17,17,0,0,0,0-2.08c-2.66,5.27-4.6,6.41-8.55,5.34-6.08-1.64-7.54-3.57-5-9.32,3.46-7.78,7.82-15.14,11.81-22.68.71-1.33,1.49-2.62,2.36-4.16-5.13-1.62-10.85-.09-15.22-5.25-2.26,4.64-4.33,8.85-6.37,13.08s-3.95,8.4-6,12.55a5.53,5.53,0,0,1-5.27,3.39c-11.6-.2-23.21-.12-34.8-.66-9.25-.43-18.44-2-27.69-2.36-8-.34-14.77,3.52-21.15,7.95-4.21,2.92-8.41,5.9-10.62,10.77a26.88,26.88,0,0,0-1,20.51c.32.9,2.21,1.81,3.35,1.79q20.28-.48,40.54-1.3c9.15-.37,18.29-1.18,27.44-1.48,15.4-.49,30.83-.46,46.22-1.16,14.5-.66,29.05-1.36,43.41-3.31,6.11-.83,11.77-4.92,17.68-7.45a10,10,0,0,1,2.77-.32,8.88,8.88,0,0,1-1.8,2.3,53.84,53.84,0,0,1-28.92,8.87c-11.15.21-22.27,1.53-33.42,2.25-3.89.25-7.81.12-11.71.24q-18.08.54-36.14,1.15c-22.1.78-44.21,1.53-66.31,2.44-3.65.15-5.15-1.44-6-4.7-3-11.61,0-23.75,11.63-31.51,6.39-4.25,12.8-8.63,20.66-9.43,3.47-.35,7.06.29,10.59.62,17.69,1.66,35.37,3.3,53.18,2.78,2.77-.08,4.73-.92,5.9-3.43,2.2-4.73,4.86-9.3,6.46-14.22,2.86-8.8,9.31-13.41,17.3-16.74,3.85-1.61,7.55-3.59,11.53-5.5-.47-.25-.57-.35-.66-.35-5.72.35-6.09-.11-6.92-6.11-1.85-13.26-3.89-26.48-5.75-39.73-.31-2.17,0-4.42-.23-6.61a16.36,16.36,0,0,0-1-3.35,13.59,13.59,0,0,1-.92-4.86c2.77,2.6,3.18,6.11,3.7,9.49,2.36,15.43,4.68,30.87,6.85,46.33.42,3,1.88,3.08,4.13,2.41,2-.6,4.07-1.13,6.1-1.71,4.83-1.39,9.47-1.42,14.14,2.69.09-1.9.24-3,.2-4.17q-1.05-25.45-2.16-50.91c-.21-4.79-1.56-6.43-6.2-7.94-2.32-.75-4.72-1.29-7-2.15-.75-.28-1.24-1.24-1.85-1.88l.75-1.07c4.19,1.6,8.41,3.11,12.55,4.83a6.09,6.09,0,0,1,3.79,5.81c.6,12.5,1.25,25,1.88,37.49.32,6.36.59,12.72,1,19.08a7.27,7.27,0,0,0,.95,2.2,8.45,8.45,0,0,0,1.41-2.09c2.34-8.11,4.61-16.25,6.92-24.38a4.45,4.45,0,0,1,.65-1.53c.58-.71,1.29-1.32,1.94-2,.44.93,1.35,1.91,1.25,2.78-.64,5.63-1.34,11.28-2.33,16.86-.84,4.71-2.08,9.34-3.17,14-.58,2.46.44,3.91,2.79,4.41,4.22.9,8.68,1.13,11.84,4.7a1.43,1.43,0,0,0,1.17.4c5.57-1.2,8.11,2.46,10.29,6.5C339.42,258.07,341.22,261.9,340.19,266.34Zm-43.76-9.62,1.66.31c0,1.29.34,2.7,0,3.87-1.8,5.36-4,10.59-5.65,16-.62,2-.81,6-.26,6.16,2.77.89,4.19-1.66,5.61-3.62,3.24-4.49,6.39-9,9.66-13.51.53-.73,1.52-1.73,2.19-1.66,6.46.75,10.3-3.5,14.16-7.47,1.05-1.07,1.11-3.11,1.62-4.71l-.92-.54c-3,1.91-5.89,1.2-8.94.07a15.24,15.24,0,0,0-6.21-.65c-4.57.31-9.1,1.08-13.66,1.39a102.93,102.93,0,0,1-12,.11c-1-.06-2-1.42-3-2.19.93-.59,1.81-1.6,2.79-1.7,6.21-.64,12.44-1.1,18.68-1.56,1.84-.14,4.41.44,4.53-2.06.07-1.34-1.9-2.78-3-4.16-.75-1-1.86-1.78-2.22-2.85-.76-2.25-6.06-6.1-8.45-5.74a3.35,3.35,0,0,0-1.34.78,33.79,33.79,0,0,1-4.6,3.57c-5.56,2.92-11.26,5.58-16.86,8.44-1.82.93-3.48,2.16-5.21,3.25l.12.9c3,.51,6,1,9,1.52,4.07.66,4.4,1.62,2.43,5.16-4.67,8.42-9.25,16.9-13.66,25.47-1.13,2.19-1.13,4.63,2.09,5.59,3.68,1.11,5.43.25,6.63-2.83,3.26-8.37,6.65-16.68,10.08-25a10.3,10.3,0,0,1,2-2.43l1.33.62c-3,10.39-6.07,20.79-9.07,31.05,5.19,2.36,5.94,2.15,7.59-1.92,2.8-6.88,5.43-13.83,8.31-20.68C293.2,262.62,294.91,259.71,296.43,256.72Zm26.88-7.2,0-1.14c-3.81-3.63-9.57-2.18-13.61-5l-1.62,4.6c3.8.82,7.41,1.76,11.07,2.32C320.49,250.53,321.94,249.82,323.31,249.52ZM313.2,218.86l-1-.12c-1.27,4.95-2.66,9.87-3.76,14.85-.57,2.57-.92,4.95-4.49,4.59l4.56,3C310.11,233.44,311.65,226.15,313.2,218.86Z"/><path class="cls-1" d="M964.24,87.15c-5.21,2.55-10.46,5-15.62,7.67-15.84,8.12-31.43,16.75-47.52,24.32-13,6.13-26.52,11.33-40.05,16.29-5,1.84-10.71,2.07-16.14,2.58-19.78,1.85-39.23,4.82-58.16,11.47-15.16,5.33-30.87,9.14-46.34,13.6a7.75,7.75,0,0,1-1.61.09l-.66-.8c.75-.68,1.41-1.81,2.26-2,18.52-3.57,36.2-10,54-15.86,12-3.94,24.37-6.07,36.93-7.41,10-1.06,20.15-1.67,29.74-4.3,10.52-2.89,20.73-7.33,30.61-12.07,19-9.11,37.63-18.92,56.44-28.39,6.84-3.45,13.74-6.79,20.64-10.13a13,13,0,0,1,2.86-.48,14.45,14.45,0,0,1-1.22,2.7c-8,10.22-16.11,20.42-26.38,28.58a18.82,18.82,0,0,1-3.81,2.64c-3,1.33-3.26,3.24-1.27,5.47,2.5,2.82,5.26,5.4,7.85,8.13a42.64,42.64,0,0,1,5,5.75c1.69,2.61.82,4.68-2.21,5.08A162.14,162.14,0,0,1,931,141.88c-14.18.25-28.38,0-42.57,0a11.39,11.39,0,0,0-4.94,1c2.45,1.76,4.82,3.63,7.36,5.25,9.43,6,18.94,11.92,28.35,18a31.27,31.27,0,0,1,4.19,3.89l-.75,1-7.26-4.67c-10.36-6.64-20.76-13.19-31-20-1.63-1.08-2.51-3.3-3.73-5,1.92-.61,3.84-1.69,5.78-1.75,8.71-.23,17.43-.18,26.14-.22,9.28-.05,18.56,0,27.83-.2,3.09-.07,6.16-.75,10.13-1.26-.95-1.62-1.41-2.92-2.29-3.82-3.31-3.42-6.92-6.56-10.12-10.08-3.56-3.89-3.38-7.23,1.37-10.86,7.32-5.59,13.57-12.58,20.16-19.08a78.67,78.67,0,0,0,5.09-6.1Z"/><path class="cls-1" d="M470.19,293.87c3.91,0,7.44.16,10.95,0,8.58-.46,17.16-1.09,25.73-1.64q38.11-2.47,76.22-4.89a20.71,20.71,0,0,1,4.55.72l-.13,1.36c-6.28.49-12.55,1.06-18.83,1.47q-31.09,2-62.19,3.91c-11.92.74-23.85,1.48-35.78,2.15-3.74.21-3.78,0-2.91-3.62,3-12.32,6-24.64,8.8-37a81.13,81.13,0,0,0,1-9.3c-3.58,0-6.79-.06-10,0-11.06.25-22.11.36-33.16.85-11.81.51-21.37-4-29.57-12.15-4.84-4.82-9.82-9.52-14.75-14.26-.37-.36-.83-.62-2.22-.7l2.88,35.82,1.12.28c2-2.27,3.81-4.69,6-6.77,1-.91,2.58-1.13,3.9-1.67-.05,1.45.37,3.11-.21,4.3Q390,277,378,301.11a5.41,5.41,0,0,1-3.73,2.64c-9.36.58-18.74.88-28.12,1.16-.88,0-1.78-.69-2.67-1.06.89-.46,1.75-1.28,2.65-1.33,8.92-.47,17.86-.74,26.78-1.27a4.59,4.59,0,0,0,3.3-2c7.28-14.38,14.41-28.84,21.55-43.29a2.84,2.84,0,0,0,.07-2.47l-6.17,7.52c-2.55-2-2.82-5.14-3.09-7.7-1.22-11.65-2-23.35-2.93-35a15.67,15.67,0,0,1,.45-3.36l1.24-.73a52.63,52.63,0,0,0,4.14,5.1c6.46,6.23,13.07,12.32,19.55,18.53s14.93,7.79,23.5,7.73c13.63-.08,27.24-.64,40.86-1.07,4.32-.13,5,.12,4.41,4.32-1.17,7.92-2.72,15.79-4.39,23.62C473.84,279.59,472,286.65,470.19,293.87Z"/><path class="cls-1" d="M343,299.49a27.55,27.55,0,0,1,3.15-2.68c4.55-2.87,8.91-6,10.39-11.47a18.38,18.38,0,0,0,.44-8.55c-2.5-10.92-5.16-21.82-8.26-32.59-4.59-15.88-9.89-31.57-14.35-47.49-3.48-12.4-6.14-25-9.18-37.57a2.2,2.2,0,0,0-1.15-1.48c-.68,4.87-1.38,9.74-2,14.62-1.05,7.72-2.07,15.46-3.12,23.18a5.09,5.09,0,0,1-.49,1.93,15.1,15.1,0,0,1-1.78,2.07c-.54-.74-1.44-1.43-1.55-2.22a72.09,72.09,0,0,1-.74-8.67c-.18-10.39-.05-20.78-.47-31.16-.14-3.45-1.59-6.86-2.41-10.29-.17-.71-.22-1.44-.46-3,3.94,2.79,4.68,6.17,4.84,9.53.48,10,.67,20.09,1,30.13a41.85,41.85,0,0,0,.54,5.48c2.26-13,2.85-26.17,5.65-39l1.69-.19c1.06,3.24,2.32,6.42,3.15,9.71,2.51,10,4.78,20.11,7.28,30.14,2.16,8.63,4.35,17.25,6.84,25.79,2.24,7.66,4.91,15.19,7.39,22.78,4.4,13.42,8.83,26.83,10.27,41a15.29,15.29,0,0,1-4.84,13.3c-3.28,3-7,5.5-10.6,8.23Z"/><path class="cls-1" d="M624.44,244.89c-1,1.2-1.69,2.93-2.94,3.49-3.7,1.66-5.52-1.61-7.68-3.63-.26,3.24-.52,6.43-.77,9.61l-1.58,0c-.13-.89-.62-1.91-.34-2.65,1.33-3.59-.26-6.24-2.45-8.79q-8-9.31-15.95-18.64c-.08-.08-.18-.16-.2-.26-.41-1.45-.81-2.91-1.21-4.36,1.41.6,3.2.85,4.18,1.87,6.65,6.94,13.13,14.06,19.69,21.08,1.27,1.36,2.53,3.21,4.11,3.63,1.17.31,2.85-1.33,4.31-2.11Z"/><path class="cls-1" d="M286.17,154.67c-3-6.1-5.74-11.55-8.41-17-.17-.35,0-.86,0-1.93,8,1.64,15.94,2.74,23.19,6.22l-.32,1.33-19.71-4.65c1.64,3.39,3.18,5.81,4,8.45C285.54,149.3,289,151.13,286.17,154.67Z"/><path class="cls-1" d="M339.86,305.72l-5-2.29.1-1.22,4.88-2Z"/><path class="cls-1" d="M922.4,180.17a5,5,0,0,1,8,0Z"/><path class="cls-1" d="M457.85,71c1.15,2,2.31,4,3.46,6l-1.15.73L456,72.23Z"/></g></g></svg>