<svg xmlns="http://www.w3.org/2000/svg" viewBox="0 0 185.76 182.35"><defs><style>.cls-1{fill:#00354f;}</style></defs><title>Asset 9</title><g id="Layer_2" data-name="Layer 2"><g id="Layer_1-2" data-name="Layer 1"><path class="cls-1" d="M149.34,161.56a16.28,16.28,0,0,1-.48,2h-.53c-2.25-4.68-3-9.75-3.83-14.83a45.29,45.29,0,0,1,2.9,4.92C148.63,156.13,149.62,158.7,149.34,161.56Z"/><path class="cls-1" d="M35.81,81.76l-2.65,3.42-.29-.26,2.7-3.35Z"/><path class="cls-1" d="M26.56,116.14l-.9,1.44c-.52-.54-1.24-.85-.95-1.75Z"/><path class="cls-1" d="M23.73,115l-1.14-1,2-.3Z"/><polygon class="cls-1" points="41.2 38.92 41.22 38.91 41.2 38.92 41.2 38.92 41.2 38.92 41.2 38.92"/><path class="cls-1" d="M41.2,38.92h0Z"/><path class="cls-1" d="M41.2,38.92c-.61-.64-1.25-1.26-1.83-1.93.58.67,1.22,1.29,1.83,1.93Z"/><path class="cls-1" d="M41.22,38.94l0,0h0Z"/><path class="cls-1" d="M52.44,52.8c1,.4,1,1.09,1.07,1.89-1.19-.79-2.76-2.93-2.62-3.54C51.4,51.72,51.81,52.55,52.44,52.8Z"/><path class="cls-1" d="M32.48,55.37c2.34.39,6.74,2.73,7.25,4.59a39.17,39.17,0,0,0-3.33-2.57A41.37,41.37,0,0,0,32.48,55.37Z"/><path class="cls-1" d="M37.05,68.09a1.76,1.76,0,0,0-2.55.31l-.24-.32c.32-.32.59-.81,1-.92C36,66.93,36.59,67.4,37.05,68.09Z"/><path class="cls-1" d="M30.05,63.05c1.8.45,5.1,2.29,5.19,3l-5.31-2.76Z"/><path class="cls-1" d="M36.38,47c3.42,1.3,5.47,4.14,7.65,6.83l-.21.23-7.71-6.76Z"/><path class="cls-1" d="M71.26,89.16l-.35.34c-2.6-2.65-5.21-5.29-7.78-8-.12-.12,0-.5.13-1C66.09,83.55,68.68,86.35,71.26,89.16Z"/><path class="cls-1" d="M35.39,149.5c.18.22.37.43.53.66-.16-.23-.36-.44-.54-.66Z"/><polygon class="cls-1" points="35.38 149.5 35.38 149.5 35.38 149.5 35.38 149.5"/><polygon class="cls-1" points="35.38 149.5 35.38 149.5 35.39 149.5 35.38 149.5 35.38 149.5"/><polygon class="cls-1" points="35.38 149.5 35.38 149.5 35.38 149.5 35.38 149.5"/><polygon class="cls-1" points="35.38 149.5 35.38 149.5 35.38 149.5 35.38 149.5"/><path class="cls-1" d="M12.27,182.15c2.41,0,4.81-.06,7.22-.07L36.22,182c.41,0,.83,0,1.53-.08l-1.24-1.33,1.58-.17c-.31-.7-.56-1.28-.88-2,.55-1.43.43-1.66-1.34-2.05-.63-.13-1.27-.24-1.9-.36.38-1.06.3-1.18-1.25-1.79,1.13-.82,1.06-1.53-.22-2.16a3.35,3.35,0,0,0-4.14.78,1.6,1.6,0,0,1-.66-2.3,4.62,4.62,0,0,0,3.62.66c.66-.17,1.28-.46,1.18-1.15-.07-.45-.64-.84-1-1.24-.11-.12-.3-.15-.49-.25,1.61-1.17,1.61-1.17.47-2.56a5.78,5.78,0,0,0,.69-.5,1.31,1.31,0,0,0-.45-2.27A5.28,5.28,0,0,0,28,163c-.87.33-1.05.06-1-.72,0-.38,0-.76.06-1.35a5.88,5.88,0,0,1,.84.49,5.92,5.92,0,0,0,4.77,1.1,1.09,1.09,0,0,0,.65-2,14.76,14.76,0,0,0-1.94-1.42l.77.06a4.19,4.19,0,0,0,1.7.12c.53-.2,1.21-.76,1.27-1.23a2.05,2.05,0,0,0-.92-1.51,5.73,5.73,0,0,0-3.83-.77l-1.47.18c.27-.74.48-1.34.77-2.13a5.54,5.54,0,0,0,4,1.8c1.22,0,2.21-.28,2.3-1,.15-1.22-1-1.23-1.84-1.68a5.74,5.74,0,0,0,1.52-.26c.47-.25,1.2-.71,1.18-1,0-.53-.58-1-.92-1.55-.16-.23-.36-.44-.54-.66h0a3.87,3.87,0,0,1-.93.2c-1.18,0-2.35-.12-3.69-.19a6.64,6.64,0,0,1,.57-1.22c.54-.8.8-.7,1.57-.11a15.84,15.84,0,0,0,2.48,1.32h0c.71.52,1.48.78,2.1,0s.22-1.64-.63-2.41l1.53-.29c.92-.16,1.28-.84.73-1.59a3,3,0,0,0-1.35-1,6,6,0,0,0-4.09-.13c-.19.07-.72-.19-.75-.36a2,2,0,0,1,.67-2.3c.54,1.31,1.76,1.67,2.93,2.08a1.85,1.85,0,0,0,2.11-.57,1.16,1.16,0,0,0-.2-1.84c.91-1.19,1.37-1.08.12-2.7a2.3,2.3,0,0,0,.35-.41c.23-.42.7-1,.59-1.27a2.12,2.12,0,0,0-1.17-1.23,4.27,4.27,0,0,0-4.17.93c-.19-.75-.33-1.32-.52-2.1a15.2,15.2,0,0,1,1.54.31,5.37,5.37,0,0,0,3.6-.3,1,1,0,0,0,.23-1.75,11.63,11.63,0,0,0-1.92-.86s0-.05,0-.08c1.52-1.4,1.43-2.22-.51-3-1.71-.67-3.1-.56-4.62,1.4l-.51-1.27a4.5,4.5,0,0,0-.3.43,5.24,5.24,0,0,1,.83,2.87.49.49,0,0,0,0,.19,9.93,9.93,0,0,1,1.8,4.19c.06.21.25.42.21.61-.28,1.51-.22,3.11-1.2,4.45a2.25,2.25,0,0,0-.33,2.38c.13.3,0,.74-.09,1.11a8.41,8.41,0,0,1-1.78,3.66c-.49.69-.48,1.77-1.17,2.47a.68.68,0,0,0-.12.56,5.91,5.91,0,0,1-1,4.43,11.82,11.82,0,0,0-1.59,4.58,4.24,4.24,0,0,0-.08,2.54c.11.24-.07.59-.09.9a15.39,15.39,0,0,0-.16,2.44c.12,1.49.5,3,.51,4.47,0,1.09,1,1.63,1.12,2.47s.16,1.86,1.24,2.28a.49.49,0,0,1,.26.36c-.12,1.45,1,2.33,1.74,3.25A4.84,4.84,0,0,0,35.05,181a13.08,13.08,0,0,1,1.51.22l0,.31c-.23,0-.46.06-.69.06m.22-50.18c-1-.25-1.94-.45-2.84-.7-.73-.21-.8-.62-.29-1.19a3.1,3.1,0,0,1,4.46.05,1.22,1.22,0,0,1-.08,1.17A4,4,0,0,1,36.07,131.45ZM34,133.78a1.62,1.62,0,0,1,.18-.44,3.36,3.36,0,0,1,4.28-.7c.24.15.54.59.47.75a1.33,1.33,0,0,1-.79.74A6.46,6.46,0,0,1,34,133.78Zm-1.44-1.32a7.68,7.68,0,0,1-.35-1.53l3.25.83a13.57,13.57,0,0,0-1.31,1C33.36,133.51,33,133.49,32.57,132.46Zm2.67,7.8-1.15.16v-1.58Zm-.48-3.57a3.06,3.06,0,0,1,3.87-.66,1.4,1.4,0,0,1,.48,1,1,1,0,0,1-.55.71C37.85,138,35.51,137.72,34.76,136.69Zm3.33,3.77a3.27,3.27,0,0,1-3-1.13c-.22-.27-.48-.73-.39-1s.62-.33,1.11-.56A19.42,19.42,0,0,1,38.37,139C39.1,139.42,38.91,140.15,38.09,140.46Zm-4,.57a4.18,4.18,0,0,1,3.85.32c.25.11.58.46.55.67a1.37,1.37,0,0,1-.54.94C36.82,143.59,34.44,142.41,34.08,141Zm-.51,3.7c1-.83,4.15-.64,5,.3a.82.82,0,0,1-.37,1.44C36.74,146.82,34.18,146,33.57,144.73Zm-.65,2.44a24.1,24.1,0,0,1,2.82,0,2.34,2.34,0,0,1,1.31.72,1.42,1.42,0,0,1,.15,1.14c0,.19-.53.44-.75.39A4.45,4.45,0,0,1,32.92,147.17Zm-.54-.36.52-1.87,1.89,1.55Zm-1.05,4.34c-.28-.29-.67-.9.08-1a6.5,6.5,0,0,1,4.52.57,1.27,1.27,0,0,1,.42,1.05c0,.25-.5.48-.82.62a1.28,1.28,0,0,1-.61,0A4.41,4.41,0,0,1,31.33,151.15Zm-1.15,2.27c.17-.11.34-.3.54-.33a8.4,8.4,0,0,1,4.49.88c.6.27.47.79-.19,1.15C33.74,155.82,30.9,154.85,30.18,153.42Zm.12-2.73,2,1.87-2.42.25C29.39,152,29.84,151.36,30.3,150.69Zm-1.24,6a5,5,0,0,1,5.14.45,1,1,0,0,1-.06,1.71C32.74,159.44,29.77,158.23,29.06,156.65Zm-1.42,3.63,2-1.27c1.14.56,2.17,1,3.11,1.57a1.26,1.26,0,0,1,.46,1c0,.24-.6.55-.92.53a11.54,11.54,0,0,1-3.05-.45C28.59,161.48,28.15,160.77,27.64,160.28Zm.54-3,1.8,1.39-2.54.73A2.1,2.1,0,0,1,28.18,157.32Zm.52,8.29-2.11,1c.15-1,.26-1.65.39-2.56Zm.12-.58a7.21,7.21,0,0,1-1.2-1.26l1.55-.74a15.75,15.75,0,0,1,2.16.51c.36.14.84.53.86.84a1.35,1.35,0,0,1-.71,1A2.69,2.69,0,0,1,28.82,165Zm-1.47,2c.64-1.51,3.67-1.22,4.59.15C31,168.35,28.23,168.27,27.35,167.07Zm.56,3a2.81,2.81,0,0,1,3.75-.73c.22.15.5.48.46.66a1,1,0,0,1-.61.64A3.79,3.79,0,0,1,27.91,170.09Zm-.63-.52c-.12-.67-.21-1.21-.33-1.84l2.2.88Zm2.56,6.54h2.89l-2.1,1.81C30.38,177.36,30.14,176.8,29.84,176.11Zm-1.44-2.18.32-.18,2.65.61a5.31,5.31,0,0,0-1.08.59c-.36.33-.75.63-1.15.23A5.5,5.5,0,0,1,28.4,173.93Zm4.14-.26a6,6,0,0,1-3.83-.51,3,3,0,0,1,4-.57C33.19,173,33.15,173.54,32.54,173.67Zm1.24,1.83H30.37C31.59,174.58,33.1,174.57,33.78,175.5Zm3.16,2.25c0,.16-.31.36-.52.41a1.94,1.94,0,0,1-.66-.09c-1.22-.18-2.43-.42-3.52.47-.15.12-.6-.15-1.16-.3.54-.57.8-1,1.19-1.23a5,5,0,0,1,4.39,0C36.83,177.11,37,177.52,36.94,177.75Zm-3.89.72h2.63a1.41,1.41,0,0,1,0,.21H33.05Zm-.25,1c1.2-.17,2.42-.4,3.66-.5.6,0,.92.4,1,1C35.66,180.34,33,180,32.8,179.45Z"/><path class="cls-1" d="M34.5,125.65a2.37,2.37,0,0,0-2.77.8c-.41.47-.81.59-1.26.11,0,0,0-.21.08-.55l.45.66a3.25,3.25,0,0,1,3.14-1.56c1,.12,1.94,1,1.58,1.75A2.27,2.27,0,0,1,34.4,128a2.54,2.54,0,0,1-2.19-.46,12,12,0,0,0,2.11,0c.35-.08.9-.51.89-.76A1.5,1.5,0,0,0,34.5,125.65Z"/><path class="cls-1" d="M23.73,115l-1.14-1,2-.3Z"/><path class="cls-1" d="M52.44,52.8c1,.4,1,1.09,1.07,1.89-1.19-.79-2.76-2.93-2.62-3.54C51.4,51.72,51.81,52.55,52.44,52.8Z"/><path class="cls-1" d="M40.73,37.89a4.65,4.65,0,0,1-1-1.25,1.2,1.2,0,0,1,0-1,4.68,4.68,0,0,1,3.1-1.94C41,34.52,39.78,35.64,40.73,37.89Z"/><path class="cls-1" d="M71.26,89.16l-.35.34c-2.6-2.65-5.21-5.29-7.78-8-.12-.12,0-.5.13-1C66.09,83.55,68.68,86.35,71.26,89.16Z"/><path class="cls-1" d="M149.34,161.56a16.28,16.28,0,0,1-.48,2h-.53c-2.25-4.68-3-9.75-3.83-14.83a45.29,45.29,0,0,1,2.9,4.92C148.63,156.13,149.62,158.7,149.34,161.56Z"/><path class="cls-1" d="M46.53,98l-3.31,2.35-.3-.22c.44-1.21.87-2.42,1.31-3.64Z"/><path class="cls-1" d="M37.05,68.09a1.76,1.76,0,0,0-2.55.31l-.24-.32c.32-.32.59-.81,1-.92C36,66.93,36.59,67.4,37.05,68.09Z"/><path class="cls-1" d="M32.48,55.37c2.34.39,6.74,2.73,7.25,4.59a39.17,39.17,0,0,0-3.33-2.57A41.37,41.37,0,0,0,32.48,55.37Z"/><path class="cls-1" d="M30.05,63.05c1.8.45,5.1,2.29,5.19,3l-5.31-2.76Z"/><path class="cls-1" d="M35.81,81.76l-2.65,3.42-.29-.26,2.7-3.35Z"/><path class="cls-1" d="M36.38,47c3.42,1.3,5.47,4.14,7.65,6.83l-.21.23-7.71-6.76Z"/><path class="cls-1" d="M10.94,99l.1-.19h1.28l.13.23c-.26.18-.52.52-.77.51S11.18,99.21,10.94,99Z"/><path class="cls-1" d="M10,92.05V97.8A8.13,8.13,0,0,1,10,92.05Z"/><path class="cls-1" d="M.21,76.45c.13.83.43,1.63.59,2.45.43,2.21,2,3.42,3.8,4.45,2.82,1.62,5.63,3.26,8.46,4.86.54.31.66.64.37,1.18s-.68,1.31-1,2a6.47,6.47,0,0,0-.25,4.1c.12.67.19,1.35.34,2s-.25.91-.72.88-1.13-.29-1.15-.49a36.46,36.46,0,0,1-.14-5.22,28,28,0,0,1,.81-3.89,3.53,3.53,0,0,0,0-.65L11,88a10.07,10.07,0,0,0-.84,1.63A24.55,24.55,0,0,0,9,94a8.56,8.56,0,0,0,.34,3.63c.28.83,1.17,1.46,1.76,2.19a3.17,3.17,0,0,1,.45.83c.27.77.51,1.55.78,2.32.08.24.3.46.3.69,0,1.13.78,1.6,1.62,2.08a1.5,1.5,0,0,1,.72.93,2.27,2.27,0,0,0,1.51,2,2,2,0,0,1,.91.86,2.17,2.17,0,0,0,1.76,1.32,1.4,1.4,0,0,1,1.13.88,12.24,12.24,0,0,0,1.33,1.58c.36.43.7.88,1.06,1.3,1,1.15,2,2.28,2.92,3.45.2.25.1.74.3,1a27.45,27.45,0,0,1,2.52,4.28,1.39,1.39,0,0,0,.57.5c.61.33,1.17.64,1,1.5,0,.1.22.25.43.47l.11-1.31c.68.1,1.33.2,2,.28a5.24,5.24,0,0,0,1,0c1-.06,1.75-.66,1.77-1.35,0-1-.77-1.22-1.52-1.45a3.94,3.94,0,0,0-.63-.12c.13-.29.23-.51.32-.74.38-.9.15-1.61-.78-1.81-1.68-.35-3.41-.75-4.77.87a.71.71,0,0,1-.72,0,13.71,13.71,0,0,1-1-1.57c1.41,0,2.56,0,3.72,0,.61,0,1.19-.15,1.3-.89a1.39,1.39,0,0,0-.92-1.62c-.51-.2-1-.33-1.57-.5v-2.51l-3.1-.21c.1-.86,1.6-2.4-.86-2.59-.18-2.06-.18-2.06-2.3-2.51.16-1.34.13-1.38-1.3-2.17.05-1.44-.25-1.75-1.68-1.83-1.61-.09-3.12,0-4.15,1.53a.58.58,0,0,1-.47.19,2.72,2.72,0,0,1-1.78-1.69l.64-.07c1.18-.14,2.37-.24,3.55-.44a1.16,1.16,0,0,0,1.09-1.27A1.33,1.33,0,0,0,17,100.86a4.2,4.2,0,0,0-4.1,1.88,1.89,1.89,0,0,1-.75-2.43,14.8,14.8,0,0,0,2.3.14,2,2,0,0,0,1.32-.63A1.71,1.71,0,0,0,16,98.4c-.12-.27-.82-.43-1.24-.41a8.39,8.39,0,0,0-1.68.45c-.23-1.51-.53-3-.69-4.6-.2-1.94,1.07-3.37,1.82-5.07a10.31,10.31,0,0,0,7.85,1.57c3.12-.68,6.31-1.15,9.15-2.73a5.78,5.78,0,0,0,1.53-1.3c.4-.47.65-.48,1.21-.22,2.47,1.14,4.07,3.21,5.79,5.17l3.49,4a1.19,1.19,0,0,1,.26,1.59c-.93,1.72-1.74,3.59-1.22,5.56a17.06,17.06,0,0,0,2,4.45c1.9,3.09,4,6.09,6,9.09.52.75.52,1.2-.19,1.76-1,.83-2,1.72-3.26,2.74-.59-2.56.71-4.33,1.63-6.19l-.39-.15c-.59,1.14-1.24,2.26-1.74,3.45a3.79,3.79,0,0,0-.47,2.3,14.48,14.48,0,0,0,1.95,3.89c4.15,5.88,9.14,11.06,13.9,16.43A243.12,243.12,0,0,0,85.28,163c4.15,3.57,8.21,7.26,12.49,10.67a98.08,98.08,0,0,0,8.43,5.63c1.65,1.06,3.39,2,5.2,3a6.11,6.11,0,0,0,.28-4.25c-.7-2.64-2.59-4.4-4.76-5.79-2.66-1.69-5.46-3.16-8.2-4.73a2.89,2.89,0,0,0-.44-.18l.17-.27c.49,0,1,0,1.47,0,4.67.22,9.34.47,14,.66a18.46,18.46,0,0,0,3.4-.24c.42-.06.78-.46,1.17-.71-.26-.34-.46-.85-.8-1A77.69,77.69,0,0,0,110,163c-3.33-.92-6.76-1.51-10.15-2.25-2.94-.64-5.91-1.2-8.82-1.94a18.92,18.92,0,0,1-7.81-3.5,7.49,7.49,0,0,1-1.16-1.16c-.94-1.22-.83-1.81.44-2.72,2.19-1.58,2.2-2.21.05-3.84a28.47,28.47,0,0,0-8.49-4.35,34.84,34.84,0,0,1-12.84-7.72c-3.14-2.86-6.21-5.8-9.29-8.72a4.08,4.08,0,0,1-1.1-4c.28-1.32.68-2.62,1-3.93.08-.31.2-.73.06-.93-.63-.9,0-1.37.51-2Q60.19,107.2,68,98.39C70,96,72,93.57,74.12,91.05c1.11,1,2.2,2.06,3.29,3.06C84.25,100.42,91,106.78,98,113A90.69,90.69,0,0,0,108,121.1c7.86,5.23,15.3,11,22.8,16.73,2.59,2,5.06,4.1,7.74,5.94A5.09,5.09,0,0,1,141,148c.24,2.93.76,5.84,1.24,8.76.38,2.33.85,4.65,1.33,7a14.45,14.45,0,0,0,.68,1.87l.36-.1V153.8l.26,0c.34,1.35.62,2.71,1,4q.81,2.69,1.81,5.3c.15.39.66.64,1,.95a5.24,5.24,0,0,0,.81-1.11c.81-2.14.27-4.23-.38-6.28-1.14-3.61-3.28-6.71-5.21-9.92-.25-.41-.47-.84-.8-1.46.41-.06.75-.22,1-.13a52.79,52.79,0,0,0,12.09,2.21c4.49.34,9,.8,13.47,1.2,2.16.19,4.33.37,6.49.54,2.69.22,5.37.42,8.06.62a4.14,4.14,0,0,0,1.55-.17c-2.2-.21-4.39-.44-6.59-.62-5.47-.43-10.95-.77-16.41-1.3-4.72-.45-9.42-1.07-14.11-1.71-1.3-.18-2.54-.75-3.84-1a7.38,7.38,0,0,0-1.87.06,6.54,6.54,0,0,0,.48,1.75A4.24,4.24,0,0,1,144,149c.1,4.88.23,9.75.35,14.62,0,.13,0,.25-.27.4-.36-1.68-.77-3.36-1.08-5.06-.38-2-.7-4.09-1-6.14s-.54-4-.72-6A3.83,3.83,0,0,0,139.6,144l-5.95-4.47c-7.66-5.73-15.17-11.69-23-17.11a176.11,176.11,0,0,1-18-14.77c-6.15-5.55-12.15-11.24-18.21-16.87a3.13,3.13,0,0,0-.37-.28c-7.43,8.81-14.76,17.64-22.75,26a3.22,3.22,0,0,1-.59-.56c-2.31-3.51-4.66-7-6.88-10.57A17,17,0,0,1,42.57,102c-.31-.85.41-1,.89-1.31,1.91-1.36,3.79-2.76,5.68-4.17.87-.65,1.72-1.35,2.57-2a4.52,4.52,0,0,0,.51-.56,2.39,2.39,0,0,0-.22-.23l-5,4a13.3,13.3,0,0,0-1.86-8.63c-.9-1.49-2.45-2.58-3.76-3.81-.7-.66-1.52-1.19-2.25-1.82a3.29,3.29,0,0,1-.5-.86,3.58,3.58,0,0,1,.82-.43c2.13-.41,4.27-.76,6.39-1.18a13.57,13.57,0,0,0,8.28-5.11,3.17,3.17,0,0,0,.43-.76c.48-1.15.18-1.69-1-1.74s-2.73,0-4.1,0c-1.59,0-2.09-.39-2.5-2-.24-.93-.44-1.88-.68-2.82a1.67,1.67,0,0,0-1.75-1.49,11.65,11.65,0,0,1-1.63-.19c.35-.74.67-1.41,1-2.11.81.61,1.65,1.29,2.55,1.88a7.25,7.25,0,0,0,1.92.88c1.39.41,2.28-.25,2.37-1.71a9.87,9.87,0,0,0-1.07-4.77c-.38-.84-.81-1.65-1.37-2.77a11,11,0,0,1,1.11.32,28.43,28.43,0,0,0,2.7,1A1.39,1.39,0,0,0,54,58.38a14.26,14.26,0,0,0-.1-4.23,11.57,11.57,0,0,1,.22-3.82,16.36,16.36,0,0,1,.4-2.2c.44-1.81-.38-3.21-1.26-4.69a23.19,23.19,0,0,1-2.29-4.86,14.88,14.88,0,0,1-.26-4A1,1,0,0,1,51,33.9a.76.76,0,0,1,.63,0c.09,0,.18.34.13.47a3.08,3.08,0,0,0,1,3.59,9.07,9.07,0,0,0,2.71,1.73c1,.42,1.79-.2,2-1.32.07-.37.16-.74.31-1.45,1.59,1.33,3,2.47,4.34,3.69a2.09,2.09,0,0,1,.56,1.4,101.36,101.36,0,0,1-.13,10.89c-.41,4-1.41,7.9-2.08,11.85-.56,3.26-1,6.53-1.52,9.8a5.53,5.53,0,0,0,1.72,5c1.64,1.66,1.54,1.73.17,3.66s-2.7,3.92-4.09,5.85c-.5.68-1.12,1.28-1.69,1.92l.19.22a3.31,3.31,0,0,0,.72-.54c1.08-1.49,2.12-3,3.2-4.49s2.2-3,3.34-4.54c3.37,3.36,6.41,6.85,10.1,9.63l.32-.26a3.16,3.16,0,0,0-.41-.89q-4.44-4.89-8.91-9.75l-.26-.23-.77.67c-2.59-1.94-3.85-4.35-3.12-7.7S60.58,66.29,61.32,63a61.51,61.51,0,0,0,1.84-12.39,10.52,10.52,0,0,1,2-5.57C69,38.58,72.79,32.1,76.59,25.64c.49-.83.88-1.72,1.29-2.59.61-1.3.23-2.66,0-3.93-.55-3-1.35-5.87-2-8.82a5.63,5.63,0,0,0-3.33-4C68.78,4.36,65,2.41,61.11.59a6.42,6.42,0,0,0-5.58.1A8.44,8.44,0,0,0,52.8,3.58a109.33,109.33,0,0,0-8,13.77c-.87,1.78-1.35,3.48-.05,5.26.85,1.17,1.59,2.43,2.51,3.54s1.11,1.75.31,2.9-1.17,2.9-2.61,3.74a1.68,1.68,0,0,1-1,.32c-1.92-.22-3.27.8-4.49,2a1.26,1.26,0,0,0-.1,1.84c.58.67,1.22,1.29,1.83,1.93h0v0l.49.47L42,39.2c-.2-.45-.38-.91-.61-1.34-.9-1.68-.58-2.74,1.19-3.47.71-.29,1.81-.77,2.21-.47a26.52,26.52,0,0,1,5.16,4.56c.85,1.07.85,2.82,1.27,4.4-1-.82-1.92-1.4-3.22-1s-1.81,1.38-1.67,2.91c-1.82-1.89-3.46-3.59-5.09-5.32-.1-.1,0-.37,0-.57l0,0h0c-.22,0-.51.08-.61,0-1.3-1.28-2.47-.44-3.46.33a12.78,12.78,0,0,0-4.45,7.18,2.36,2.36,0,0,1-1.43,1.85,5.4,5.4,0,0,0-3.36,4.81A1.24,1.24,0,0,1,27,54.35,12.67,12.67,0,0,0,24.41,56c-.65.5-1.27,1.1-.64,2.24l-3.61-1.84a4.89,4.89,0,0,0-5.89.9,131.61,131.61,0,0,0-13,13.59C-.27,72.67-.1,74.49.21,76.45ZM42.78,33.67c-1.79.85-3,2-2.05,4.22a4.65,4.65,0,0,1-1-1.25,1.2,1.2,0,0,1,0-1A4.68,4.68,0,0,1,42.78,33.67ZM56,35.39a7.91,7.91,0,0,0-.68-.83c-1.11-1-2.26-2-3.35-3a3.07,3.07,0,0,1-.86-3.29,2.4,2.4,0,0,1,2.38-1.68,6.17,6.17,0,0,1,2.18.37c1.47.58,2.88,1.32,4.33,1.93.84.36,1.6,1.07,2.9.63-.34-.45-.55-.93-.92-1.14-3.29-1.95-6.62-3.84-9.93-5.75-1.67-1-3.34-1.93-5-2.93-.37-.23-.86-.46-.52-1.14A71.34,71.34,0,0,1,55.21,4.62C56,3.62,57,2.71,58.5,2.93a13.92,13.92,0,0,1,2.73.65,50.21,50.21,0,0,1,11,6,2.2,2.2,0,0,1,1,2,15.2,15.2,0,0,1-1.93,6.85c-2.8,5.58-5.67,11.12-8.4,16.73-.65,1.34-2.32,2.6-.83,4.44-2-1.16-3.47-3-5.71-3.69a3.76,3.76,0,0,0,.51.86A1.92,1.92,0,0,1,56.64,39c-.39.6-1,.48-1.55.1A11.12,11.12,0,0,1,53,37.53c-1-1.15-1.5-2.48-.08-3.76l2.84,1.85A2.2,2.2,0,0,1,56,35.39Zm-6,2-4.76-3.92a25.35,25.35,0,0,0,1.71-2.26c.57-.94,1-2,1.52-2.92a1.14,1.14,0,0,0-.12-1.47C47.1,25.24,46,23.62,44.9,22a2.73,2.73,0,0,1-.36-2.92c.63-1.23,1.08-2.56,1.78-3.74,2.54-4.3,5.14-8.56,7.75-12.81A3.3,3.3,0,0,1,55.48,1.1,7.09,7.09,0,0,1,60.61.86,78.26,78.26,0,0,1,73.7,7.53a3.72,3.72,0,0,1,1.36,1.78,31.35,31.35,0,0,1,1.26,4.38c.52,2.5,1,5,1.38,7.54a2.5,2.5,0,0,1-.14,1.33,38.07,38.07,0,0,1-1.73,3.58c-2.39,4.23-4.8,8.45-7.27,12.64-1.43,2.43-3,4.8-4.48,7.19l-.19-.08a25.23,25.23,0,0,1,0-2.61,4.89,4.89,0,0,0-1.4-4,1.55,1.55,0,0,1-.19-2q4.18-8.22,8.34-16.45c1.38-2.74,2.79-5.47,3-8.63a2.9,2.9,0,0,0-1.13-2.91A52.59,52.59,0,0,0,61,3.05C58,2,56.54,2.34,54.49,4.84A74.13,74.13,0,0,0,46.44,17.7c-.76,1.47-.67,1.76.83,2.61,3.78,2.16,7.59,4.27,11.37,6.43,1.18.67,2.31,1.43,3.46,2.15l-.14.28a5.15,5.15,0,0,1-1-.28c-.94-.44-1.85-.94-2.79-1.37a10.61,10.61,0,0,0-4.77-1.37A3,3,0,0,0,50.7,30.2a21.18,21.18,0,0,0,1.18,2.2C49.19,33.15,50.13,35.47,49.93,37.38ZM144.5,148.74a45.29,45.29,0,0,1,2.9,4.92c1.23,2.47,2.22,5,1.94,7.9a16.28,16.28,0,0,1-.48,2h-.53C146.08,158.89,145.3,153.82,144.5,148.74ZM51.09,117.4l.31.08a5.37,5.37,0,0,1,0,1.27c-.23,1-.65,1.91-.82,2.89-.37,2.11-.48,4.14,1.37,5.81,3.08,2.79,6,5.72,9.1,8.51a36.3,36.3,0,0,0,13.37,7.86,27.66,27.66,0,0,1,7.87,4.07c1.91,1.4,2,1.83.1,3.09s-1.51,2.57-.32,3.83a12.62,12.62,0,0,0,5.75,3.42c3.13.9,6.3,1.68,9.47,2.42,3.46.8,6.94,1.51,10.42,2.23a41.32,41.32,0,0,1,9.27,3,6.91,6.91,0,0,1,1.15.82l-.14.36c-7,.87-13.91-.46-20.9-.15a8.78,8.78,0,0,0,2,1.28,42.61,42.61,0,0,1,9.49,5.94c2.22,2,3.42,4.36,2.63,7.52a4,4,0,0,1-.43-.15c-3.89-2.42-8-4.6-11.63-7.32-4.19-3.11-8.07-6.64-12-10.1-5.31-4.69-10.74-9.29-15.73-14.31-6-6.05-11.69-12.44-17.37-18.82-2.45-2.75-4.58-5.8-6.79-8.77-.79-1.06-.65-1.35.45-2a3.64,3.64,0,0,0,.45-.35ZM13.44,103.19c.55-1.63,2.82-2.54,4.07-1.73.62.4.63,1.05,0,1.33A6.28,6.28,0,0,1,13.44,103.19ZM32,121.62c-1.26-.12-2.51-.33-3.77-.51,0-.12,0-.24,0-.37s0-.14,0-.19a.73.73,0,0,1,.16-.23c1.09-1.15,2.45-.76,3.75-.66.56,0,1.17.22,1.07,1A1.09,1.09,0,0,1,32,121.62Zm-.86,1.69a2.94,2.94,0,0,1,3.28-.62c.24.15.55.6.48.73a1.7,1.7,0,0,1-.83.82,4.34,4.34,0,0,1-1.35,0h0a9,9,0,0,1-1.16,0c-.23,0-.58-.12-.63-.28A.89.89,0,0,1,31.11,123.31Zm-2.92-1.88,3.22.79a2.6,2.6,0,0,0,.1.25c-.94,0-.66,1.71-1.92,1.26A2.3,2.3,0,0,1,28.19,121.43Zm-7.42-16.49c-.29.27-.54.68-.87.76a5.33,5.33,0,0,1-4-.06.92.92,0,0,1,0-.3.75.75,0,0,1,.24-.29,3.86,3.86,0,0,1,3.78-.74A3.55,3.55,0,0,1,20.77,104.94Zm3.53,4.42a1.36,1.36,0,0,1-1.25,1.46,17.21,17.21,0,0,1-2.38,0,2.11,2.11,0,0,1,2.2-2.44C23.57,108.4,24.25,108.56,24.3,109.36Zm2.1,8.36a1.43,1.43,0,0,1,.32-.94,3.15,3.15,0,0,1,3.76,0,1.07,1.07,0,0,1,.31.84c-.05.23-.4.46-.66.55a10.94,10.94,0,0,1-1.45.28c-.54-.1-1.08-.18-1.61-.32C26.82,118,26.4,117.86,26.4,117.72Zm-1.69-1.89,1.85.31-.9,1.44C25.14,117,24.42,116.73,24.71,115.83Zm0-1.48a2.73,2.73,0,0,1,2.76-1c.85.06,1.17.56.92,1.38-.34,1.13-1.27.75-2,.79-.35,0-.71,0-1.07,0C24.34,115.45,24.17,115.14,24.69,114.35Zm-2.1-.35,2-.3L23.73,115Zm0-1.56a2.29,2.29,0,0,1,2.43-1.63c.55.07.71.35.59.87a2.53,2.53,0,0,1-2.34,1.74C22.64,113.55,22.47,113.11,22.63,112.44Zm-2.3-1.17,2.16.15c-.17.62-.31,1.1-.45,1.58l-.29.08ZM18,109.13l2.76-.38c-.3.65-.54,1.18-.79,1.74C18.4,110.44,18,110.13,18,109.13Zm-.1-.66a2.82,2.82,0,0,1,3.23-2.19c.34,0,.85.37.91.64a1.2,1.2,0,0,1-.54,1A5.34,5.34,0,0,1,17.89,108.47Zm-2-2.21c.78,0,1.57.11,2.48.2l-1.21,2.06c-.79-.28-1.49-.64-1.67-1.53C15.42,106.77,15.72,106.26,15.86,106.26ZM10,97.8a8.13,8.13,0,0,1,0-5.75Zm2.48,1.25c-.26.18-.52.52-.77.51s-.5-.35-.74-.55l.1-.19h1.28Zm2.18-.63c.5-.24,1-.19,1,.35,0,.37-.35,1-.65,1.11a12.87,12.87,0,0,1-2.41.05c0-.19-.07-.37-.11-.55C13.22,99.06,13.93,98.76,14.63,98.42ZM52.26,46.2a3.55,3.55,0,0,1-1.45,1.45C50,48,50,48.39,50.48,49s.8,1.26,1.2,1.89l-.29.19A8.17,8.17,0,0,1,50,49a5.45,5.45,0,0,0-1.29-2.18A15,15,0,0,1,47.19,45a2.15,2.15,0,0,1-.33-1.4c.28-1.35,2.21-1.85,3.38-.9a19,19,0,0,0,1.55,1.44A1.38,1.38,0,0,1,52.26,46.2Zm1,6.6-2.65-4.52c2-.8,2.62-2.31,2.28-4.41.59.92,1.31,1.83,1.27,2.71A59,59,0,0,1,53.26,52.8Zm-4.95,3A1.7,1.7,0,0,1,48,54.61c.77-1.74,2.34-2,3.6-.59.48.52,1,1,1.48,1.51s.66.78,1,1.17l-.2.19c0,.22-.05.45-.07.67-.09,1.33-.88,2.25-2.53,1.48-.78-.36-1.58-.48-1.71-1.63C49.46,56.85,48.67,56.41,48.31,55.84Zm-1,10.58a2.82,2.82,0,0,0-.22-1c-.48-.67-1.07-1.27-1.57-1.93a1.28,1.28,0,0,1-.31-.85,3,3,0,0,1,2.26-1.59,3.06,3.06,0,0,1,2.25,1.47A10.1,10.1,0,0,1,50.24,65c0,.69-.14,1.68-.59,2s-1.39,0-2.11-.1c-.16,0-.3-.22-.45-.34Zm-5.72-4.94s0-.06-.05-.08a35.31,35.31,0,0,0-2.44-3,16.17,16.17,0,0,0-6.89-3.73,3.6,3.6,0,0,0-1.09,0c0,.12-.09.23-.14.35.51.32,1,.69,1.52,1,1.24.62,2.56,1.11,3.74,1.82a10.14,10.14,0,0,1,3.78,3.66c-.52.57-1.18,1-1.37,1.56s.22,1.15.35,1.68c-1.22-.51-1.21-.49-2.62.41a1.3,1.3,0,0,1-1,0c-1.5-.71-3-1.54-4.47-2.23a17.18,17.18,0,0,1-6.47-4.56c-.55-.67-.69-1.25.06-1.82S26,55.39,26.77,54.9a1.44,1.44,0,0,1,1.72,0c.79.55,1.38-.07,2-.45a.76.76,0,0,0-.44-.22c-2.11-.31-2.24-.54-1.42-2.61a5.82,5.82,0,0,1,.55-1.12,7.57,7.57,0,0,1,4.24-2.69l1.74-.55c0-.09-.05-.17-.07-.26-.41.07-.82.16-1.23.2-.85.1-1.09-.18-.79-1a18.69,18.69,0,0,1,1-2.3,11.15,11.15,0,0,1,3.68-4.62c1.2-.76,1.82-.78,2.81.2,1.44,1.43,2.9,2.85,4.25,4.37,2.4,2.7,5.24,5.11,5.9,8.74A9.44,9.44,0,0,0,49,53c-1.73.72-2,2-.84,3.41l.9,1.09-.27.23a10.12,10.12,0,0,1-1.24-1q-3-3.15-5.9-6.34a14.09,14.09,0,0,0-4.63-3.55,4,4,0,0,0-1.39-.07,3.31,3.31,0,0,0,.53,1.1C38.53,50,40.92,52,43.26,54.15c2,1.76,4.25,3.31,4.46,6.17a16.55,16.55,0,0,0-2.23,1.35c-.92.78-.89,1.44-.11,2.33l.86,1C44.65,63.85,43.14,62.67,41.63,61.48Zm2.19-7.4-7.71-6.76.27-.3c3.42,1.3,5.47,4.14,7.65,6.83Zm-6.77,14a1.76,1.76,0,0,0-2.55.31l-.24-.32c.32-.32.59-.81,1-.92C36,66.93,36.59,67.4,37.05,68.09Zm-.65-10.7a41.37,41.37,0,0,0-3.92-2c2.34.39,6.74,2.73,7.25,4.59A39.17,39.17,0,0,0,36.4,57.39Zm5.9,9a5.57,5.57,0,0,1-4.31.23,6.73,6.73,0,0,1-1.56-.89c1.35-1.27,1.42-1.28,2.71-.42a13.26,13.26,0,0,0,1.37.88,4.13,4.13,0,0,0,1,.23,3,3,0,0,1,.11-.32c-.75-.69-1.53-1.35-2.26-2.06-.36-.35-.66-.77-.11-1.23s.88-1.15,1.58-.63a10,10,0,0,1,2,2C43.5,65.11,43.24,65.88,42.3,66.43Zm1.93,30.09L46.53,98l-3.31,2.35-.3-.22C43.36,99,43.79,97.74,44.23,96.52ZM34.1,84.66c2.06-2.87,4.15-5.73,6.13-8.65,1.47-2.15,2.81-4.38,4.17-6.6.57-.92.31-1.33-.76-1.26-1.26.08-2.53.2-3.78.37s-1.77-.09-2.6-1.43c.47.11.74.21,1,.24.82.09,1.65.19,2.47.21,1.32,0,2.65-.06,4,.06a1.56,1.56,0,0,1,1,1,24.22,24.22,0,0,1,.65,2.83A2.56,2.56,0,0,0,49,73.73a8.82,8.82,0,0,0,1.36,0c1,0,2-.12,2.92-.08s1.33.57.8,1.48a11.5,11.5,0,0,1-4.76,4.22c-2.33,1.26-4.93,1.48-7.48,1.88a21.11,21.11,0,0,0-2.84.61c-1,.3-1.18,1-.4,1.66s1.4,1.15,2.07,1.74a23.29,23.29,0,0,1,3.88,3.58,13.94,13.94,0,0,1,2.17,7.34,5.08,5.08,0,0,1-.27,1.32,2.34,2.34,0,0,1-.6-.31c-1.79-1.87-3.61-3.72-5.34-5.65S37,87.06,34.36,85.87C33.59,85.52,33.72,85.19,34.1,84.66ZM44,68.57c0,1-3.16,6.2-4.14,7.09C40.24,74.6,41,73.42,41,72.27s-.9-2.19-1.42-3.33ZM32.87,84.92l2.7-3.35.24.19-2.65,3.42ZM14.53,87.86a2.57,2.57,0,0,0-.28-1.08,4.3,4.3,0,0,0-1.27-1c-2.22-1.16-4.45-2.32-6.71-3.42a4.35,4.35,0,0,1-2-6c.45-.79.86-.91,1.52-.37a41.29,41.29,0,0,0,11.08,6.54c3.33,1.27,6.36,1.09,9.06-1.5a38.47,38.47,0,0,0,5.83-7.66c.92-1.47,1.82-3,2.84-4.35.77-1.08,1.09-1.07,2.25-.47a3.1,3.1,0,0,0,.83.27c2.28.44,3.7,3.09,2.47,5C38.15,77,35.92,80,33.89,83c-.54.81-2,1.29-1.29,2.71,0,0-.13.21-.23.29a8.87,8.87,0,0,1-1.77,1.44,34.55,34.55,0,0,1-11.9,2.75c-1-.41-2.54-1-4.07-1.69C14.52,88.49,14.58,88.09,14.53,87.86ZM5.61,74.61c-1.06.41-1.37-.42-1.74-.93a1.63,1.63,0,0,1,.07-1.44A86.76,86.76,0,0,1,15,59.29,1.21,1.21,0,0,1,16.6,59c3.29,1.6,6.58,3.24,9.88,4.84,2.47,1.2,5,2.37,7.61,3.62a1.91,1.91,0,0,1,0,.26,1.09,1.09,0,0,1-.15.35c-2.7,4.19-5.26,8.48-9.26,11.64-2.33,1.84-3.91,2.51-6.79.94C14.72,79,11.6,77.22,8.46,75.54,7.57,75.06,6.71,74.19,5.61,74.61ZM6.5,75c.79.36,1.56.77,2.32,1.18C12,78,15.17,79.76,18.41,81.4a4.66,4.66,0,0,0,4.74-.14,21.65,21.65,0,0,0,5.66-5.05L30.54,74c0,.42,0,.54,0,.6-1.67,2.11-3.23,4.33-5.06,6.29a6.4,6.4,0,0,1-7,1.76,39.45,39.45,0,0,1-6.34-2.81,72,72,0,0,1-6-4c-.2-.13-.23-.5-.34-.75A1.86,1.86,0,0,1,6.5,75ZM1.25,71.65c1.07-1.2,2-2.5,3.1-3.7A93.4,93.4,0,0,1,14.87,57.42c1.37-1.13,2.87-1.64,4.48-.85A37.19,37.19,0,0,1,25,59.83c2.78,2.06,5.28,4.52,8.56,5.84a12.18,12.18,0,0,1,1.33.78,5,5,0,0,1-3.83-.76c-4.88-2.37-9.73-4.78-14.62-7.13a1.49,1.49,0,0,0-1.34.2,38.55,38.55,0,0,0-3.62,3.61c-2.59,3-5.15,6.08-7.62,9.2-1.22,1.54-1.14,1.67.28,3,.43.41.46.74.07,1.14-1.28,1.32-1.12,4,.11,5.57.9,1.13,2.22,1.49,3.41,2.13q3,1.6,5.93,3.36c.3.18.4.69.6,1l-.28.24a3.29,3.29,0,0,1-.79-.23C10,86,6.81,84.12,3.64,82.21a3.44,3.44,0,0,1-1.89-2.09C1.31,78.24.8,76.38.39,74.5A3.13,3.13,0,0,1,1.25,71.65Z"/><path class="cls-1" d="M20.33,111.27l2.16.15Z"/></g></g></svg>