<svg xmlns="http://www.w3.org/2000/svg" xmlns:xlink="http://www.w3.org/1999/xlink" viewBox="0 0 1279 526"><defs><style>.cls-1{fill:#fff;}.cls-2{fill:none;}.cls-3{fill:url(#linear-gradient);}</style><linearGradient id="linear-gradient" x1="639.5" y1="526" x2="639.5" y2="193" gradientUnits="userSpaceOnUse"><stop offset="0" stop-color="#fff"/><stop offset="1" stop-color="#fff" stop-opacity="0"/></linearGradient></defs><title>Asset 6</title><g id="Layer_2" data-name="Layer 2"><g id="Layer_1-2" data-name="Layer 1"><rect class="cls-1" x="179.12" width="890.76" height="501.05"/><path class="cls-1" d="M947.7,408.87c-.84-4.34-2-8.93-4.14-12.74a86.43,86.43,0,0,0-12-39C919.78,337,901.51,321.47,882.43,308c-2.93-2.07-6.41-4.2-9.87-3.25-3.25.9-5.47,4.33-8.4,5.68a36,36,0,0,1-2.47-5.31c-4.32-12.25,1.95-25.38,6.89-37.4.67-1.62,1.3-3.25,1.92-4.89.3-.49.59-1,.87-1.49,5.26-9.4,6.89-20.29,8.22-31a196.74,196.74,0,0,0,3-24.31l5.94-48.79c-.53,1.44-3.1,1.87-4.39.68-1.49-1.39-1.66-3.64-1.87-5.66a46.83,46.83,0,0,0-20.84-34.06l.81,3.44c-4-2.27-8.67-3.07-13.39-3.36a135.84,135.84,0,0,0-17.73-7.38,17.47,17.47,0,0,0,4.31,7.23q-2.49,0-5,.09l-13.32-3.8,11.12,3.46,1.74.36-.52,0-1.22-.38a71.26,71.26,0,0,0-31.69,1.07,7.4,7.4,0,0,1-2.78.33c-1.66,2.08-6.55,3.24-9,5.61-1.56,1.55-2,3.87-2.33,6a307.49,307.49,0,0,0,10,137.29c1.63,5.29,6.82,11.5,11.12,10.25l8.1,15.66a11,11,0,0,1,.2,4.11c-.57,3.52-3.26,6.3-6,8.55a76.16,76.16,0,0,1-13.64,8.66,85.88,85.88,0,0,0-25.3,9.26,29.84,29.84,0,0,0-6.24,4.55c-11,5.21-20.68,11.62-26.42,22.26-1.17,2.16-2.26,4.6-4.44,5.74s-5,.6-7.44-.07a121.31,121.31,0,0,1-42.72-21.64L665.1,319.84a22.8,22.8,0,0,1-4.65-6.36c-4.54-10.76,8.14-20.41,18.76-25.28l42.6-19.54.37,5.93c16.3-19.81,22.15-46.65,20.8-72.27s-9.27-50.41-18-74.55c-7.76-21.55-17.23-44.2-36.26-56.94-14.4-9.64-32.27-12.19-49.49-14.13-14.35-1.61-29.14-2.94-43,1a64.46,64.46,0,0,0-11.7,4.71c-7.93,1.3-15.45,4.05-21,9.68a35.51,35.51,0,0,0-8,13.65,132.26,132.26,0,0,0-26.5,45,127.59,127.59,0,0,0-6.48,28.85,70.91,70.91,0,0,0-3,17.87c-1.83,6.41-3.87,12.83-3.66,19.94a21.64,21.64,0,0,0,1.54,8.26c.81,1.8,2,3.41,2.8,5.23,1.68,4,1.05,8.54,1.08,12.88a41,41,0,0,0,6,21.08,25.75,25.75,0,0,0,5,6.1l1,1.51c16.13,23,51.06,30.65,60.13,57.23a9.26,9.26,0,0,1,.58,5.18c-.84,3.25-4.37,4.84-7.29,6.48-11.09,6.21-17.82,18.3-25.62,28.59a170,170,0,0,1-17.61,6.56c-7.93,2.39-16.42,4.16-22.85,9.3A65.19,65.19,0,0,1,510,361.22a15.59,15.59,0,0,0-.74-3.33c-1.69-4.42-6.54-6.59-10.89-8.45A233.43,233.43,0,0,1,475,337.87L435.5,310.44c-3.65-2.87-7.22-6-9-10.23a19,19,0,0,1-1.29-9.11c1.36-5,2.8-10,4.28-15C436.3,260,447.67,245.33,448.7,228c.26-4.52-.42-9.43-2.77-13.15,3.17-16.42,4.74-33,3.13-49.69-1.44-14.92-5.4-29.93-2.83-44.69,1-5.57,2.88-11,2.78-16.7-.29-16.42-21.2-28.42-35.52-20.41-17.52,9.81-15.87,35-22.49,53.92C386.89,149,379,159,372.85,169.81c-21.87,38.32-21,88.55,2.1,126.12,2.19,3.55,4.66,7.65,3.35,11.61a12.71,12.71,0,0,1-2.7,4.19,114.76,114.76,0,0,1-42.49,30.9c-7.77,3.26-16.4,6-21.43,12.77-3.18,4.26-4.48,9.6-5.61,14.79a430.11,430.11,0,0,0-9.88,91.6l-1.56-2.19c3.8,14.91,19.91,23.72,35.23,25.16s30.56-2.6,45.86-4.31c25.14-2.82,50.5.7,75.64,3.62C607.09,502.13,764.58,497,921,486.54c9.75-.65,20.79-2,26.58-9.86,3.87-5.25,4.37-12.19,4.47-18.71A240,240,0,0,0,947.7,408.87Z"/><path class="cls-1" d="M794,116.52c-.79-1.24-2.65,1-1.63,2.06a2.27,2.27,0,0,0,1.38.68A2.43,2.43,0,0,0,794,116.52Z"/><path class="cls-1" d="M888.58,156.47l-.09.75A1.53,1.53,0,0,0,888.58,156.47Z"/><path class="cls-1" d="M752.42,447.07l.15.15c.21-3.4-1.66-5-4.81-5.17-5.78-.27-11.56-.53-17.35-.47-3.29,0-4.75-1.07-4.31-4.43.75-5.84,1.45-11.68,2.3-18.65-9.16-5.59-18.59,1.81-28.23,1,.91,13.05,3,18.71,7.72,20.62-1.87-5.76-3.67-11.28-5.63-17.31,8.56-.42,15.88-4.71,23.64-.91-1,4.32-2.12,8.16-2.68,12.07-1.17,8.14-1.07,7.9-9.27,8.57-11.1.91-22.17,2.27-33.14,3.42,0,11-.22,20.93.07,30.88.23,8,3.71,11.36,11.56,11.05q29.31-1.15,58.59-3c1.54-.09,4.21-2.31,4.23-3.57C755.4,469.86,756.72,458.21,752.42,447.07ZM576.05,396.5c.28,1.55.19,3.3.9,4.63,7.18,13.53,14,27.33,21.92,40.4,8.27,13.59,17.91,26.3,32,34.71,1.21.72,3,.48,4.53.68-.73-1.23-1.17-2.93-2.26-3.61-14.8-9.2-25.17-22.59-34.21-37-8.13-12.94-15.34-26.46-23-39.72-.29-1.78-1-3.59-.77-5.32.14-1.33,1.33-2.55,2.27-4.19,11.26,22.92,29.74,35.64,50.32,46.05a9.63,9.63,0,0,0-3.62-4.22c-14.4-9.72-28.83-19.53-38.33-34.53-4.37-6.9-8.33-12.83-17.77-8.85a8.59,8.59,0,0,1-2.7.09c-8.51.28-17,.64-25.53.82a73.13,73.13,0,0,1-8-.78c1.67-3,2.45-5.19,3.9-6.78,9.39-10.26,19.06-20.26,28.33-30.61a67,67,0,0,0,8.89-12.64c3.84-7.07,9.26-11.7,17.91-14.18v12.93h1.9c2.59-6.16-.05-12.6-.41-20,18.82,9.67,38.13,11.17,58.24,6.64-2.22,13-6.48,23.64-15.22,32.8,1.33,0,1.81.15,2,0,8.54-8.4,14.75-18.17,17-30.08.84-4.44,3.11-7,8.07-8,0,1.87.08,3.41,0,4.92-.45,6.87-1.09,13.72-1.38,20.59-.14,3.2-.24,6.54,3.63,8.37.76.36,1,3.29.47,4.68-4.62,12.69-8.95,25.52-14.4,37.85-3.81,8.6-9.24,16.49-14.13,25-25.81-19-37.92-44-42.16-73.62.22,6,.24,12,1.64,17.75A106.32,106.32,0,0,0,628.38,416c2.19,2,3.54,4.89,5.86,8.21,2-2.35,5-5.11,7.07-8.47,10.81-17.77,20-36.33,25.05-56.63,1-4.1,2.19-9.62.33-12.69-4.66-7.71-1.82-15.22-2.42-23.35,7.86,1.35,13.11,5,16.49,11.21,3.2,5.85,6.19,11.82,9.11,17.44-.09-1.62-.21-3.67-.43-7.44,8.15,7.28,15.53,13.29,22.14,20.06,2.87,2.93,4.38,7.33,6.09,11.24,1.31,3,.55,5.11-3.4,5.52-5.41.56-10.74,2.18-16.14,2.36-7.27.25-14.45,4.48-21.88.71-.51-.25-1.74.31-2.29.85-3.54,3.49-4.2,11.09-.75,16,1-2.45,1.08-5.11,1.9-7.54.65-1.92,2-4.88,3.32-5.08q17.72-2.7,35.55-4.44c8.2-.82,10.49-3.66,7.09-11.23-2.57-5.72-6.21-10.95-9.38-16.39,11.47,1.9,34.14,12.42,44.52,19.78,8.8,6.24,14.32,13.6,12.53,25a41.26,41.26,0,0,0,0,6.39l.58,0,1.23-8.84c10.21,25.85,10.25,53.69,18.12,79.83a6.86,6.86,0,0,0,.53-4.14c-3.57-22.88-7-45.79-10.85-68.61-2.88-17-11.37-30.63-27.19-38.16-15.27-7.26-30.9-13.94-46.81-19.64-8.78-3.15-14.76-8.65-19.94-15.68a27.33,27.33,0,0,0-15.23-10.63c-1.82-.5-4.7-2.16-4.69-3.26,0-2.1,1.39-4.52,2.89-6.2,5.69-6.42,11.76-12.51,17.5-18.89,3.28-3.64,3.7-11.2,11.66-8,.26.11.69-.17,1-.31,10.77-4.58,20.55-10.69,28-19.8,3.05-3.71,5.05-8.28,7.52-12.45l-1.27-.86c-8.79,16.16-22.22,26-39.41,30.57,4-15.62,7.87-30.72,11.75-45.9,7.49-.69,11.56-4,11.87-11.26.46-11,.23-22,.23-33.08,0-4.77-2.3-6.11-6.6-4.19a10.57,10.57,0,0,1,.39-2.68c6.17-14.1.39-26.91-4-39.88a1.76,1.76,0,0,0-.38,1.56c4,12,6,24.23,3.17,36.88-.27,1.21.58,2.67.92,4l-5.25,4.31c-.84-2.61-1.36-4.24-1.62-5.06-34.16-6-50.16-28.75-58-59.54-5,21.47-61.72,54.62-88.07,51.55l-.94,7.63-1.87.15c-.73-2.67-1.45-5.34-2.19-8.05-9,2.76-5.88-5.52-8.53-10.42,0,3.27-.64,5.41.12,6.78,2.41,4.37-.56,7.84-1.16,11.73-1,6.57-2.31,13.31-1.79,19.84.59,7.37,3,14.95,9.69,19.22,3.57,2.27,4.3,4.92,4.66,8.41,1,9.35,1.85,18.72,3.11,28,.65,4.81,2,9.52,3.06,14.27l-1.72,1.1c-4.94-5.78-10.62-11.09-14.59-17.47s-6.08-13.64-9-20.53l-.89.26L540,258.68c-8.49-6.39-13.87-13.9-16.27-22.74-2.29-8.44-2.57-17.42-3.93-26.13-.26-1.66-1.45-3.17-2.21-4.75-.89,1.68-2.48,3.32-2.55,5a80.36,80.36,0,0,0,.63,12.49c2,17.11,8.33,32.3,23.52,41.31,6.51,3.86,10.89,9.32,16.4,13.85,3.19,2.63,7.43,4.66,9.36,8A83.67,83.67,0,0,0,588,311.89c4.64,3.42,3.44,7.29-2.05,9-6.8,2.08-13.07,5.29-15.61,12.27a25.09,25.09,0,0,1-13.13,14.48c-12.5,6-25.37,11.14-38.15,16.5-11.57,4.84-22.31,11.1-27.37,23-3.62,8.55-5.81,17.86-7.51,27-2.9,15.66-5,31.48-7.23,47.24a79.74,79.74,0,0,0-.43,9.79c-.06,3.17,0,6.35,0,8.29,4.43-26.18,9-53.36,13.62-80.54l3.06.16,1.77,34a305.25,305.25,0,0,0,.89-36.9c-.42-10.67,4.66-17.9,13.44-22.26,12.1-6,24.7-11,37.12-16.35.63-.27,1.54.11,2.92.25-7.39,9.91-18.2,16.44-22.17,29.07,2.52,1.05,4.93,2.86,7.37,2.92,10.31.25,20.73.77,30.91-.41,5.66-.66,8.06.55,9.34,5.59C574.89,395.61,575.61,396,576.05,396.5Zm145-119.18,1.3.9c13.85-10.24,20.14-25.08,22.94-41.28,3.16-18.33,2.27-36.78-1.3-55.13-5.63-28.88-14.12-56.76-27.69-82.94-5.65-10.9-12-21.4-22.21-28.86-12-8.78-25.82-11.77-40.25-12.83-3.25-.23-6.87.66-9.69-.5-11.29-4.63-23.15-5-34.82-4.11a79.21,79.21,0,0,0-25,6.12c-21,9-33.56,26.66-44.27,45.86-11.57,20.75-18.26,43.18-22.32,66.44-.34,1.93,1.17,4.18,1.82,6.28l1.91-.4c0-1.54.35-3.18-.07-4.6a13.93,13.93,0,0,1,2.08-12.41,14,14,0,0,0,1.71-4.53c5.53-23,14.37-44.66,27.77-64.24,17.88-26.15,41.79-39.76,74.36-35,10.64,1.56,21.48,2,32,4.24a102.79,102.79,0,0,1,25.08,8.32c16.46,8.27,24.52,24,31.72,39.83,9.05,19.93,15.55,40.73,20.58,62.11,4.15,17.62,6.87,35.19,5.74,53.24-.9,14.27-4.45,27.8-12.42,39.91Q725.57,270.53,721.09,277.32ZM664,400.82c-26.7,20.08-34.51,41.85-26.36,70.81,11.64-2.74,48.54-58.89,50.17-76.58C674,420.48,661.72,446.63,639,466.41,633.61,438.51,645.57,418.46,664,400.82ZM589.32,380.1l-4.8-29.18C583.92,359.74,583.24,370.62,589.32,380.1Zm-74.48-183,2.2.84c4.76-1.67,2.78-5.56,2.75-8.81l-1.91-.68C516.86,191.3,515.85,194.19,514.84,197.07Z"/><path d="M709.61,187.94c4.31-1.93,6.62-.59,6.61,4.18,0,11,.23,22.07-.23,33.08-.31,7.27-4.38,10.57-11.87,11.26-3.88,15.18-7.75,30.28-11.75,45.9,17.19-4.55,30.62-14.41,39.41-30.57l1.27.86c-2.47,4.17-4.47,8.74-7.52,12.45-7.47,9.11-17.25,15.22-28,19.8-.33.14-.76.42-1,.31-8-3.17-8.38,4.39-11.66,8-5.74,6.38-11.81,12.47-17.5,18.89-1.5,1.68-2.87,4.1-2.89,6.2,0,1.1,2.87,2.76,4.69,3.26a27.33,27.33,0,0,1,15.23,10.63c5.18,7,11.16,12.53,19.94,15.68,15.91,5.7,31.54,12.38,46.81,19.64,15.82,7.53,24.31,21.2,27.19,38.16,3.88,22.82,7.28,45.73,10.85,68.61a6.86,6.86,0,0,1-.53,4.14c-7.87-26.14-7.91-54-18.12-79.83l-1.23,8.84-.58,0a41.26,41.26,0,0,1,0-6.39c1.79-11.37-3.73-18.73-12.53-25-10.38-7.36-33.05-17.88-44.52-19.78,3.17,5.44,6.81,10.67,9.38,16.39,3.4,7.57,1.11,10.41-7.09,11.23q-17.82,1.77-35.55,4.44c-1.36.2-2.67,3.16-3.32,5.08-.82,2.43-.94,5.09-1.9,7.54-3.45-4.89-2.79-12.49.75-16,.55-.54,1.78-1.1,2.29-.85,7.43,3.77,14.61-.46,21.88-.71,5.4-.18,10.73-1.8,16.14-2.36,4-.41,4.71-2.52,3.4-5.52-1.71-3.91-3.22-8.31-6.09-11.24-6.61-6.77-14-12.78-22.14-20.06.22,3.77.34,5.82.43,7.44-2.92-5.62-5.91-11.59-9.11-17.44-3.38-6.21-8.63-9.86-16.49-11.21.6,8.13-2.24,15.64,2.42,23.35,1.86,3.07.69,8.59-.33,12.69-5,20.3-14.24,38.86-25.05,56.63-2,3.36-5.07,6.12-7.07,8.47-2.32-3.32-3.67-6.23-5.86-8.21A106.32,106.32,0,0,1,596,361.35c-1.4-5.71-1.42-11.76-1.64-17.75,4.24,29.62,16.35,54.64,42.16,73.62,4.89-8.53,10.32-16.42,14.13-25,5.45-12.33,9.78-25.16,14.4-37.85.5-1.39.29-4.32-.47-4.68-3.87-1.83-3.77-5.17-3.63-8.37.29-6.87.93-13.72,1.38-20.59.1-1.51,0-3,0-4.92-5,1-7.23,3.54-8.07,8-2.24,11.91-8.45,21.68-17,30.08-.17.17-.65,0-2,0,8.74-9.16,13-19.8,15.22-32.8-20.11,4.53-39.42,3-58.24-6.64.36,7.36,3,13.8.41,20h-1.9V321.46c-8.65,2.48-14.07,7.11-17.91,14.18A67,67,0,0,1,564,348.28c-9.27,10.35-18.94,20.35-28.33,30.61-1.45,1.59-2.23,3.81-3.9,6.78a73.13,73.13,0,0,0,8,.78c8.51-.18,17-.54,25.53-.82a8.59,8.59,0,0,0,2.7-.09c9.44-4,13.4,1.95,17.77,8.85,9.5,15,23.93,24.81,38.33,34.53a9.63,9.63,0,0,1,3.62,4.22c-20.58-10.41-39.06-23.13-50.32-46.05-.94,1.64-2.13,2.86-2.27,4.19-.18,1.73.48,3.54.77,5.32l.12-.12c-.45-.47-1.17-.87-1.31-1.42-1.28-5-3.68-6.25-9.34-5.59-10.18,1.18-20.6.66-30.91.41-2.44-.06-4.85-1.87-7.37-2.92,4-12.63,14.78-19.16,22.17-29.07-1.38-.14-2.29-.52-2.92-.25C534,363,521.36,368,509.26,374c-8.78,4.36-13.86,11.59-13.44,22.26a305.25,305.25,0,0,1-.89,36.9l-1.77-34L490.1,399c-4.59,27.18-9.19,54.36-13.62,80.54,0-1.94-.05-5.12,0-8.29a79.74,79.74,0,0,1,.43-9.79c2.27-15.76,4.33-31.58,7.23-47.24,1.7-9.18,3.89-18.49,7.51-27,5.06-11.94,15.8-18.2,27.37-23,12.78-5.36,25.65-10.54,38.15-16.5a25.09,25.09,0,0,0,13.13-14.48c2.54-7,8.81-10.19,15.61-12.27,5.49-1.68,6.69-5.55,2.05-9a83.67,83.67,0,0,1-23.06-26.14c-1.93-3.35-6.17-5.38-9.36-8-5.51-4.53-9.89-10-16.4-13.85-15.19-9-21.56-24.2-23.52-41.31a80.36,80.36,0,0,1-.63-12.49c.07-1.71,1.66-3.35,2.55-5,.76,1.58,2,3.09,2.21,4.75,1.36,8.71,1.64,17.69,3.93,26.13,2.4,8.84,7.78,16.35,16.27,22.74L534.73,240l.89-.26c2.93,6.89,5.1,14.25,9,20.53s9.65,11.69,14.59,17.47l1.72-1.1c-1-4.75-2.41-9.46-3.06-14.27-1.26-9.32-2.13-18.69-3.11-28-.36-3.49-1.09-6.14-4.66-8.41-6.71-4.27-9.1-11.85-9.69-19.22-.52-6.53.77-13.27,1.79-19.84.6-3.89,3.57-7.36,1.16-11.73-.76-1.37-.12-3.51-.12-6.78,2.65,4.9-.51,13.18,8.53,10.42.74,2.71,1.46,5.38,2.19,8.05l1.87-.15.93-7.63c26.36,3.07,83.12-30.08,88.08-51.55,7.85,30.79,23.85,53.49,58,59.54.26.82.78,2.45,1.62,5.06l5.25-4.31ZM604.39,172.19c-4.11.62-7.9.85-11.49,1.81-10.44,2.8-20.76,6-31.2,8.79-3.32.89-3.67,2.93-3.59,5.68.51,16.48.48,33,1.61,49.43,1.07,15.72,3.27,31.43,10.68,45.7,9.67,18.62,25.46,29.13,45.84,32.82,25.1,4.54,50.84-4.3,64.55-28.4,6.78-11.93,11.85-24.47,13.32-38.1,2-18.55,3.36-37.16,4.77-55.77.08-1.08-1.65-2.81-2.93-3.41-6.27-2.94-12.89-5.17-19-8.47-6.85-3.72-11.82-11-20.89-10.59a15.67,15.67,0,0,1,2.69-1.32,4.54,4.54,0,0,0,1.17-.76l-17.2-33.46c-9.06,16-24.61,25.24-41.19,33.74ZM713,191c-7.24,3-8.86,5.43-8.9,11.26-.06,7.94-.37,15.88-.28,23.81,0,1.83,1.24,3.64,1.91,5.46,1.53-1.24,3.75-2.17,4.47-3.77C715.44,216.11,712.75,203.9,713,191ZM551.09,222.51l2-.94c.4-6.8.3-13.67,1.33-20.38.83-5.46-.74-9.91-3.42-14.23-.75-1.22-2.24-2-3.4-2.93-1,1.35-2.83,2.67-2.9,4.07-.32,7-1,14.06.07,20.86C545.5,213.69,548.88,218,551.09,222.51Z"/><path d="M721.09,277.32q4.47-6.79,8.95-13.6c8-12.11,11.52-25.64,12.42-39.91,1.13-18.05-1.59-35.62-5.74-53.24-5-21.38-11.53-42.18-20.58-62.11-7.2-15.82-15.26-31.56-31.72-39.83a102.79,102.79,0,0,0-25.08-8.32c-10.5-2.19-21.34-2.68-32-4.24-32.57-4.74-56.48,8.87-74.36,35-13.4,19.58-22.24,41.22-27.77,64.24a14,14,0,0,1-1.71,4.53,13.93,13.93,0,0,0-2.08,12.41c.42,1.42.07,3.06.07,4.6l-1.91.4c-.65-2.1-2.16-4.35-1.82-6.28,4.06-23.26,10.75-45.69,22.32-66.44,10.71-19.2,23.25-36.89,44.27-45.86a79.21,79.21,0,0,1,25-6.12c11.67-.84,23.53-.52,34.82,4.11,2.82,1.16,6.44.27,9.69.5,14.43,1.06,28.27,4,40.25,12.83,10.2,7.46,16.56,18,22.21,28.86,13.57,26.18,22.06,54.06,27.69,82.94,3.57,18.35,4.46,36.8,1.3,55.13-2.8,16.2-9.09,31-22.94,41.28Z"/><path d="M752.42,447.07c4.3,11.14,3,22.79,2.84,34.29,0,1.26-2.69,3.48-4.23,3.57q-29.28,1.79-58.59,3c-7.85.31-11.33-3-11.56-11.05-.29-9.95-.07-19.91-.07-30.88,11-1.15,22-2.51,33.14-3.42,8.2-.67,8.1-.43,9.27-8.57.56-3.91,1.7-7.75,2.68-12.07-7.76-3.8-15.08.49-23.64.91,2,6,3.76,11.55,5.63,17.31-4.71-1.91-6.81-7.57-7.72-20.62,9.64.81,19.07-6.59,28.23-1-.85,7-1.55,12.81-2.3,18.65-.44,3.36,1,4.46,4.31,4.43,5.79-.06,11.57.2,17.35.47,3.15.15,5,1.77,4.81,5.17-2.27-.49-4.54-1.42-6.8-1.39-20.48.35-40.95.85-61.43,1.35a1.61,1.61,0,0,0-1.07.45c.44,9.75.91,18.93,1.25,28.11.26,6.87,1.7,8.45,8.45,8.13,18.09-.87,36.18-1.88,54.27-2.72,3.28-.15,4.39-1.63,4.44-4.74C751.84,466.63,752.17,456.85,752.42,447.07Z"/><path d="M664,400.82c-18.4,17.64-30.36,37.69-25,65.59,22.77-19.78,35.07-45.93,48.83-71.36-1.63,17.69-38.53,73.84-50.17,76.58C629.46,442.67,637.27,420.9,664,400.82Z"/><path d="M575.94,396.6c7.62,13.26,14.83,26.78,23,39.72,9,14.4,19.41,27.79,34.21,37,1.09.68,1.53,2.38,2.26,3.61-1.52-.2-3.32,0-4.53-.68-14.06-8.41-23.7-21.12-32-34.71-8-13.07-14.74-26.87-21.92-40.4-.71-1.33-.62-3.08-.9-4.64Z"/><path d="M709.73,187.82c-.34-1.34-1.19-2.8-.92-4,2.84-12.65.78-24.84-3.17-36.88a1.76,1.76,0,0,1,.38-1.56c4.38,13,10.16,25.78,4,39.88a10.59,10.59,0,0,0-.39,2.69A1.2,1.2,0,0,1,709.73,187.82Z"/><path d="M589.32,380.1c-6.08-9.48-5.4-20.36-4.8-29.18Z"/><path d="M514.84,197.07c1-2.88,2-5.77,3-8.65l1.91.68c0,3.25,2,7.14-2.75,8.81Z"/><path class="cls-1" d="M604.39,172.19l-2.81-2.31c16.58-8.5,32.13-17.75,41.19-33.74L660,169.6a4.54,4.54,0,0,1-1.17.76,15.67,15.67,0,0,0-2.69,1.32c9.07-.38,14,6.87,20.89,10.59,6.06,3.3,12.68,5.53,19,8.47,1.28.6,3,2.33,2.93,3.41-1.41,18.61-2.77,37.22-4.77,55.77-1.47,13.63-6.54,26.17-13.32,38.1-13.71,24.1-39.45,32.94-64.55,28.4-20.38-3.69-36.17-14.2-45.84-32.82-7.41-14.27-9.61-30-10.68-45.7-1.13-16.44-1.1-33-1.61-49.43-.08-2.75.27-4.79,3.59-5.68,10.44-2.78,20.76-6,31.2-8.79C596.49,173,600.28,172.81,604.39,172.19Zm-5,99.5c2,2.39,4.29,4.65,6.13,7.19,13.43,18.54,34.73,17.55,45.54,1.33,2.56-3.84,6.3-6.21,11.49-3.6l.84-1.38c-2.2-2.36-4.39-4.71-5.69-6.09-9,8-18.62,8.65-28.56,8.91C618.62,278.33,608.66,276.67,599.35,271.69Zm-4-75.07c-3.71,2.1-5.55,15.19-3.9,17.45a3.14,3.14,0,0,0,2.64,1.13A3.05,3.05,0,0,0,596,213C595.92,207.51,595.62,202.07,595.4,196.62Zm59.41-3.13c-.31,6.89-.63,12.79-.77,18.69,0,.54,1.08,1.49,1.73,1.56a2.85,2.85,0,0,0,2.11-1.15C660.07,209.56,658.66,197.46,654.81,193.49Zm-38.76,50.1c-1.54,5.17-1.4,9.8,3.1,13.12,2.84,2.1,5.87,3.8,11.19,1.05C622.46,255.11,617.08,251.35,616.05,243.59Z"/><path class="cls-1" d="M713,191c-.22,12.87,2.47,25.08-2.8,36.76-.72,1.6-2.94,2.53-4.47,3.77-.67-1.82-1.89-3.63-1.91-5.46-.09-7.93.22-15.87.28-23.81C704.11,196.46,705.73,194.06,713,191Z"/><path class="cls-1" d="M551.09,222.51c-2.21-4.5-5.59-8.82-6.34-13.55-1.07-6.8-.39-13.91-.07-20.86.07-1.4,1.89-2.72,2.9-4.07,1.16,1,2.65,1.71,3.4,2.93,2.68,4.32,4.25,8.77,3.42,14.23-1,6.71-.93,13.58-1.33,20.38Z"/><path class="cls-1" d="M752.42,447.07c-.25,9.78-.58,19.56-.74,29.34,0,3.11-1.16,4.59-4.44,4.74-18.09.84-36.18,1.85-54.27,2.72-6.75.32-8.19-1.26-8.45-8.13-.34-9.18-.81-18.36-1.25-28.11a1.61,1.61,0,0,1,1.07-.45c20.48-.5,40.95-1,61.43-1.35,2.26,0,4.53.9,6.8,1.39Z"/><path d="M599.35,271.69c9.31,5,19.27,6.64,29.75,6.36,9.94-.26,19.6-.93,28.56-8.91,1.3,1.38,3.49,3.73,5.69,6.09l-.84,1.38c-5.19-2.61-8.93-.24-11.49,3.6-10.81,16.22-32.11,17.21-45.54-1.33C603.64,276.34,601.4,274.08,599.35,271.69Zm11.09,8.76c5.55,5.76,11.93,9.49,20.33,8.55,5.09-.57,9.4-2.59,11.94-6.45Z"/><path d="M595.4,196.62c.22,5.45.52,10.89.58,16.35a3.05,3.05,0,0,1-1.84,2.23,3.14,3.14,0,0,1-2.64-1.13C589.85,211.81,591.69,198.72,595.4,196.62Z"/><path d="M654.81,193.49c3.85,4,5.26,16.07,3.07,19.1a2.85,2.85,0,0,1-2.11,1.15c-.65-.07-1.74-1-1.73-1.56C654.18,206.28,654.5,200.38,654.81,193.49Z"/><path d="M616.05,243.59c1,7.76,6.41,11.52,14.29,14.17-5.32,2.75-8.35,1.05-11.19-1.05C614.65,253.39,614.51,248.76,616.05,243.59Z"/><path class="cls-1" d="M610.44,280.45l32.27,2.1c-2.54,3.86-6.85,5.88-11.94,6.45C622.37,289.94,616,286.21,610.44,280.45Z"/><path class="cls-1" d="M824.79,243.59c1.22,3.84,4.83,5.68,10,4.69C829.62,249.27,826,247.43,824.79,243.59Z"/><path class="cls-1" d="M785.7,188h0l.12-.1h0l-.13.1c0,.15,0,.29,0,.44v0C785.71,188.26,785.71,188.13,785.7,188Z"/><path d="M787,236.88c-2.33-16.09-1.08-32.32-1.25-48.49v0C785.88,204.59,784.63,220.8,787,236.88Z"/><path d="M948.16,401.43c-.92-6.79-1.68-13.62-3.11-20.31s-2.88-13.75-5.61-20.08c-7.07-16.35-20.53-27-34.91-36.51-2.62-1.74-6.07-2.37-6.39-6.45-.06-.77-1.06-1.7-1.86-2.15-5.6-3.14-11.06-6.67-17-9-3.06-1.23-4.5-2.15-4.8-5.56-.5-5.66-3-7.22-8.75-6.44a20.7,20.7,0,0,1-2.85,0c-.15-2.63-.28-5-.42-7.32l-1-.08a15.74,15.74,0,0,0-.58,2.49c-.18,2.94-.11,5.9-.47,8.81-.16,1.32-.93,3.46-1.76,3.64-7,1.5-14,3.54-21.05,3.58-6.48,0-13-1.92-19.43-3.52-7.71-1.93-10.89-7.16-8.88-14.09A54.32,54.32,0,0,0,837.74,294c13.87-.84,24.63-7,32.39-18.36,7.41-10.83,10.63-23.23,12.63-36,.39-2.49.25-4.72,3.94-4.93a6.22,6.22,0,0,0,4.5-3.67c2.38-9.7,3.66-19.53.13-29.6-4.15,1.78-4-.85-3.83-3.56a8,8,0,0,1,.16-1.09c2.41-11.53,2.26-23.18,1.65-34.83a67.75,67.75,0,0,0-1.54-8.64c.3,15.33.26,30.45-3.08,45.36-3.71.71-3.76.71-3.86,4.44-.42,15.93-.74,31.88-4.5,47.49-2.49,10.34-6.47,20.05-13.93,27.85-10.24,10.7-23.35,13.14-37.21,10.9-15.66-2.53-27.46-11.11-32.89-26.39-2.59-7.27-3.47-15.18-4.82-22.86-.2-1.08-.37-2.16-.52-3.24-2.33-16.08-1.08-32.29-1.26-48.46a50.52,50.52,0,0,0-2,6,43.81,43.81,0,0,0-.44,6c-1.7-1.08-3-2.28-3.22-3.64a130.79,130.79,0,0,1-1.22-13.83,257.08,257.08,0,0,1,2.8-48.95,7.77,7.77,0,0,0-1.2,2.65c-1.09,6.63-2.51,13.25-3.05,19.93-1,12.8-2.87,25.64.07,38.46a3.27,3.27,0,0,1-.42,2.33c-4.43,6.38-3.75,13.51-2.85,20.57a15.36,15.36,0,0,0,7,11.11,5.55,5.55,0,0,1,1.95,3.58c1,7.17,1.25,14.45,2.64,21.52a69.83,69.83,0,0,0,5.24,15.51c3.16,6.9,8.35,12.25,14.63,16.57a6,6,0,0,1,1.88,3.47c.13.53-.94,1.85-1.6,2-3.21.5-3.84,3.15-4.76,5.45a42.89,42.89,0,0,0-2.12,7c-.5,2.36-1.74,2.92-4.08,3.17a63.21,63.21,0,0,0-12.88,2.56c-3.08,1-6,2.89-6.37,6.86a3.33,3.33,0,0,1-1.68,2.05c-8.17,4.34-16.47,8.46-24.59,12.9-10.46,5.72-17.72,13.93-19.69,26.16-.13.79-.28,1.57-.43,2.36h2.89c.27-1.17.55-2.33.82-3.49,1.45-6.14,3.57-12.39,8.88-16.06,10-6.94,20.51-13.21,30.87-19.64,2-1.25,3.54-.85,4.11,2,1.28,6.48,2.84,12.9,4.38,19.32,1.5,6.25,2.47,6.89,8.86,6.47a13.55,13.55,0,0,1,2.26.3,38.35,38.35,0,0,1-2.86,4.93c-2.2,2.72-2.05,5.25-.09,8,2.48,3.47,5,6.95,7.24,10.57,6.67,10.65,13.08,21.47,19.89,32,4.13,6.39,9.24,11.93,17.31,14.61,2-4.58,3.83-9.07,5.89-13.46,5.4-11.48,11.23-22.77,16.27-34.41,6.88-15.89,13.27-32,19.68-48.11,1.47-3.7,2.18-7.72,3.25-11.59l-1-.23-2.48,2.06-.92-.46c.15-1.9.29-3.79.45-5.76,5.36,1,15.82,7.06,19,10.27,2.3,2.28,1.9,4.6,1,7.07q-2.7,7.19-5.61,14.3c-1.44,3.5-3.9,5.5-7.94,5.23-2.49-.17-5,0-7.52,0-.19.41-.38.83-.58,1.24A49.86,49.86,0,0,0,877.3,349c3.67,2.91,4.65,5.57,2.87,9.93-1.57,3.84-3.1,7.81-5.42,11.2q-10.65,15.54-21.94,30.63c-5.59,7.53-11.6,14.76-17.34,22.19a12.28,12.28,0,0,0-1.26,3.16c1.22.05,1.77-.21,2.12-.64,7.07-8.56,14.46-16.87,21.07-25.77,9.15-12.32,19.56-23.87,24.76-38.79,2.41-6.9,2-9.21-4-13.11-.6-.39-1.15-.83-2.42-1.76,3.12-.25,5.56-.84,7.87-.55,5.06.65,7.4-2.17,9-6.21,2.08-5.16,4.14-10.33,6.26-15.62a7.24,7.24,0,0,1,1.58.52,133.64,133.64,0,0,1,29,26.13c3.41,4.09,5.52,8.6,5.45,14,0,2.4,0,4.8,0,7.2l.61,0c.14-2.34.29-4.67.43-7l1.23-.08c5,13.19,6.34,27.36,10,41A7.07,7.07,0,0,0,948.16,401.43ZM884.7,210.78c.06-3.11,1.83-4.54,4.82-5.94,2.11,5.61,1.28,11,.9,16.27a30.6,30.6,0,0,1-1.69,8.21c-.42,1.16-2.22,1.83-3.39,2.72-.47-1.22-1.37-2.46-1.35-3.68C884.11,222.5,884.59,216.64,884.7,210.78Zm-101.59-.24c-.55,3.72-.26,7.56-.37,11.34,0,1.15-.19,2.3-.3,3.44l-1.13.44c-1.37-2.14-3.15-4.12-4-6.44-2.21-5.76-1.77-11.74-.46-17.65.16-.72,1-1.85,1.48-1.81a3.15,3.15,0,0,1,2.2,1.43C782.07,204.14,783.65,206.9,783.11,210.54Zm73,94.88c4-.57,8.2-.6,12-4.65l-4.93-.31c-.09-1.2-.19-2.46-.28-3.67,6.41-2,9.09-.1,9.15,6.21,0,2.32-.27,4.66-.13,7a38.11,38.11,0,0,0,1.18,5.4,35.7,35.7,0,0,1-15.28,7.36,5.2,5.2,0,0,1-5.93-2.6c-2.65-4.19-5.36-8.34-8.44-13.11C847.73,306.48,851.92,306,856.08,305.42Zm-19.46,2.71a11.61,11.61,0,0,1,11.14,11.35c0,5.72-4.17,9.08-12.73,9.1a9.27,9.27,0,0,1-8.11-5.09c-.77-1.57-.74-3.63-.73-5.46,0-1,.75-2,1.09-3.09C829.54,308.09,829.53,308.09,836.62,308.13Zm-36.22-1c1.29-3.41,1.67-7.15,2.84-10.61.45-1.34,2-2.32,3.3-3.16.26,5.45,4.2,9.53,11.25,11.5,3.53,1,7.09,1.83,10.79,2.78-1.88,4.21-3.58,8.19-5.43,12.11-1,2-2.25,2.79-4.7,1.54-5.07-2.59-10.4-4.67-15.51-7.18C800.07,312.7,799.12,310.48,800.4,307.13Zm-.4,9.17c5.61,2.51,11.29,4.88,16.81,7.59,2.92,1.44,5.48,2,7.83-.62a63.79,63.79,0,0,1,4.16,5.23,3.89,3.89,0,0,1,.43,2.94c-4.9,14.84-7.12,30.15-8.19,45.67,0,.32-.27.62-1.4,1.19l-20.76-61.61Zm31.59,98.27c-6.8-3.09-10.85-9-14.71-14.82-8.38-12.74-16.44-25.69-24.66-38.53-1.28-2-1.89-3.68-.27-6s2.79-5.33,4.67-9c-3.23.45-5.79.42-8,1.23-2,.72-2.55.37-3-1.52q-2.88-11.36-5.95-22.66c-2.07-7.62-1.4-9.34,5.89-12.36a40.1,40.1,0,0,1,8.49-2.18,3,3,0,0,1,2.33,1.75c1.76,16,7.88,30.75,12.78,45.83,3.7,11.36,7.32,22.79,11.91,33.79,2.78,6.68,7.13,12.77,11.2,18.83C833.81,411.32,833.79,412.75,831.59,414.57Zm15-31.85c-.2,2.73-2.2,5.34-3.42,8q-3.24,7-6.54,13.91c-.33.68-.83,1.29-1.75,2.69-3.88-6.81-7.43-13-10.88-19.17a5.44,5.44,0,0,1-.29-2.51,238.51,238.51,0,0,1,4.73-44.5c.12-.6.2-1.21.36-1.8.73-2.83.67-6.54,2.48-8.21,1.51-1.4,5.24-.3,8-.5a45.05,45.05,0,0,0,5.24-1,7.05,7.05,0,0,1,.64,1.84c.69,9.27,1.58,18.54,1.89,27.83A218.38,218.38,0,0,1,846.56,382.72Zm29.79-66.82-24.8,58.48a14.82,14.82,0,0,1-1.09-2.48c-1.4-12.15-2.64-24.31-4.2-36.43-.6-4.7.29-8.58,4-11.56C860.66,328.38,868.05,322,876.35,315.9Z"/><path d="M785.71,188.39c0-.09.06-.18.1-.28a1.13,1.13,0,0,0-.11-.11C785.71,188.13,785.71,188.26,785.71,188.39Z"/><path d="M924.05,399.9c-.41,6-1.07,11.89-1.16,17.85,0,3.28-1.4,3.92-4.23,3.81a88.11,88.11,0,0,0-9.19.22c-8.81.54-17.61,1.16-26.42,1.77-2.89.2-4.72-.67-4.87-4-.32-6.8-.79-13.6-1.21-20.76,7.34-.37,15.13-.91,22.92-1.11s15.75,0,23.63,0c.12-.36.24-.72.37-1.07-1.5-.57-3-1.51-4.49-1.62-3.54-.26-7.11-.15-10.67-.11-2,0-3.05-.68-2.78-2.81.41-3.29.37-6.7,1.31-9.82,1.07-3.57-.65-4.39-3.34-4.16-5.07.44-10.11,1.25-15.13,1.9.73,10.51,1.29,12.2,4.94,14.39a15,15,0,0,0-.42-2.55c-.86-2.41-2-4.74-2.65-7.19-.24-.86.4-2.81.87-2.89a93.14,93.14,0,0,1,11.66-1.24c.71,0,2.18,1.64,2.1,2.41a87.64,87.64,0,0,1-1.66,9c-.43,2.16-1.55,3.09-4,3.28-8,.65-16,1.66-24.27,2.55,0,7.51-.13,14.36,0,21.21.14,5.65,2,7.4,7.71,7.28,4-.08,8.05-.77,12.08-.95,8.94-.4,17.89-.57,26.82-1.06,1.25-.07,3.48-1.42,3.49-2.19,0-7.4-.3-14.81-.53-22.21Z"/><path d="M875.63,195.52c.19,1,1.4,1.93,2.15,2.88a13.12,13.12,0,0,0,1.55-3.32,16,16,0,0,0-.27-4c-.29-2.91-.94-5.84-.83-8.74.24-5.74-2-10.35-5.39-14.74-8.76-11.47-21.29-17.47-33.78-23.57l-.63.79c1.6,1.09,3.12,2.33,4.8,3.26,8,4.45,15.86,9.07,22.3,15.76,5.69,5.93,9.88,12.27,8.94,21.12C874.11,188.41,875,192,875.63,195.52Z"/><path d="M788,185.88c-.4.74-1.46,1.33-2.2,2h0C786.56,187.22,787.62,186.62,788,185.88Z"/><path d="M788,185.88a1.4,1.4,0,0,0,.13-.34c.81-3.83.8-7.88,2-11.59a101.41,101.41,0,0,1,6.76-17.6c2.57-4.87,6.73-5.66,12.14-4.35,2.89.7,5.92.88,8.88,1.29l.24-1.4c-8.91-2.54-18.57-3-26.12-9.35l-.64,1.17,9.78,6.3c-2.27,2.08-4.78,3.84-6.59,6.14-7.33,9.32-8.14,20.51-8.73,31.73C786.56,187.21,787.62,186.62,788,185.88Z"/><path d="M785.7,188h0l.11.12v-.22l-.12.1Z"/><path d="M785.7,188a1.13,1.13,0,0,1,.11.11l-.11-.12Z"/><path d="M850.7,161.55c.83.28,1.93-.29,2.91-.47-.57-.79-1-2-1.76-2.29-3.74-1.46-7.59-2.64-11.37-4-10.93-3.91-22.86-5-32.78-11.8l-.39.82c2.33,1.5,4.49,3.41,7,4.4,7.93,3.11,16,5.85,24,8.77C842.46,158.5,846.54,160.15,850.7,161.55Z"/><path d="M854.88,258.69a17.85,17.85,0,0,1-3.27,1.94c-12.37,3.82-24.76,3.4-37.18.35,13.78,6.81,28,4.9,43.1,2Z"/><path d="M841.92,121.07c-4.29-6.38-39.88-10.93-46.95-6.19C811.51,113.29,826.74,117,841.92,121.07Z"/><path d="M876.75,133.43c2.61,6.11,4,12.74,5.94,19.13a35.68,35.68,0,0,0,1.61,3.53c2.81-14.07-10.78-37.65-22.88-38.59A29.45,29.45,0,0,1,876.75,133.43Z"/><path d="M835.39,112.28c11.92,2.16,21,9.35,30.29,16.05C862.63,121.65,843.08,110.05,835.39,112.28Z"/><path d="M803.32,186c-3,3.6-4.25,8.28-2.67,10.1,2.21-3.46,3.65-7.55,6.54-9.7,2.74-2,7-2,10.36-2.86A11.36,11.36,0,0,0,803.32,186Z"/><path d="M864.17,188.42a54,54,0,0,0-10.08-5.26,5.48,5.48,0,0,0-6.67,1.88c6.09-1.12,10.84.51,14.35,5.66.59.86,1.85,1.28,2.81,1.9C864.47,191.16,864.9,188.9,864.17,188.42Z"/><path d="M824.41,238.86l.6-.21-.6.21a11.54,11.54,0,0,0,.38,4.73A11.54,11.54,0,0,1,824.41,238.86Z"/><path d="M824.79,243.59c1.22,3.84,4.83,5.68,10,4.69a21.24,21.24,0,0,0,4.13-1.28c-1.08-.45-2.22-1.37-3.25-1.26-5.61.62-9.08-1.73-10.63-7.09l-.6.21A11.54,11.54,0,0,0,824.79,243.59Z"/><path d="M807.85,218.75c0,.76,1,1.55,1.58,2.33.77-.65,2.21-1.34,2.18-2-.15-3.76-.64-7.51-1-11.26h-2.06C808.28,211.49,807.92,215.12,807.85,218.75Z"/><path d="M851.62,206.93c-2.06,4.79-2,11.48.06,13.42C855,217.85,855.15,209.78,851.62,206.93Z"/><path d="M779.27,130.85l13.36-14.2C787.41,117.21,779.6,125.13,779.27,130.85Z"/><path d="M843.5,269.88H827.74C831.76,272.58,840.23,272.94,843.5,269.88Z"/><path class="cls-1" d="M821,390.08c-4.59-11-8.21-22.43-11.91-33.79-4.9-15.08-11-29.85-12.78-45.83a3,3,0,0,0-2.33-1.75,40.1,40.1,0,0,0-8.49,2.18c-7.29,3-8,4.74-5.89,12.36s4,15.09,5.95,22.66c.47,1.89,1,2.24,3,1.52,2.26-.81,4.82-.78,8-1.23-1.88,3.71-3,6.59-4.67,9s-1,4,.27,6c8.22,12.84,16.28,25.79,24.66,38.53,3.86,5.85,7.91,11.73,14.71,14.82,2.2-1.82,2.22-3.25.61-5.66C828.13,402.85,823.78,396.76,821,390.08Z"/><path class="cls-1" d="M845.09,331.44a7.05,7.05,0,0,0-.64-1.84,45.05,45.05,0,0,1-5.24,1c-2.72.2-6.45-.9-8,.5-1.81,1.67-1.75,5.38-2.48,8.21-.16.59-.24,1.2-.36,1.8a238.51,238.51,0,0,0-4.73,44.5,5.44,5.44,0,0,0,.29,2.51c3.45,6.21,7,12.36,10.88,19.17.92-1.4,1.42-2,1.75-2.69q3.3-6.94,6.54-13.91c1.22-2.63,3.22-5.24,3.42-8a218.38,218.38,0,0,0,.42-23.45C846.67,350,845.78,340.71,845.09,331.44Z"/><path class="cls-1" d="M821,377.11c1.07-15.52,3.29-30.83,8.19-45.67a3.89,3.89,0,0,0-.43-2.94,63.79,63.79,0,0,0-4.16-5.23c-2.35,2.65-4.91,2.06-7.83.62-5.52-2.71-11.2-5.08-16.81-7.59l-1.12.39,20.76,61.61C820.77,377.73,821,377.43,821,377.11Z"/><path class="cls-1" d="M850.3,323.91c-3.75,3-4.64,6.86-4,11.56,1.56,12.12,2.8,24.28,4.2,36.43a14.82,14.82,0,0,0,1.09,2.48l24.8-58.48C868.05,322,860.66,328.38,850.3,323.91Z"/><path class="cls-1" d="M857.75,322.73A35.7,35.7,0,0,0,873,315.37a38.11,38.11,0,0,1-1.18-5.4c-.14-2.31.15-4.65.13-7-.06-6.31-2.74-8.17-9.15-6.21.09,1.21.19,2.47.28,3.67l4.93.31c-3.76,4.05-8,4.08-12,4.65-4.16.6-8.35,1.06-12.7,1.6,3.08,4.77,5.79,8.92,8.44,13.11A5.2,5.2,0,0,0,857.75,322.73Z"/><path class="cls-1" d="M802.94,314.11c5.11,2.51,10.44,4.59,15.51,7.18,2.45,1.25,3.74.49,4.7-1.54,1.85-3.92,3.55-7.9,5.43-12.11-3.7-.95-7.26-1.79-10.79-2.78-7-2-11-6.05-11.25-11.5-1.34.84-2.85,1.82-3.3,3.16-1.17,3.46-1.55,7.2-2.84,10.61S800.07,312.7,802.94,314.11Z"/><path class="cls-1" d="M826.19,318c0,1.83,0,3.89.73,5.46a9.27,9.27,0,0,0,8.11,5.09c8.56,0,12.76-3.38,12.73-9.1a11.61,11.61,0,0,0-11.14-11.35c-7.09,0-7.08,0-9.34,6.81C826.94,316,826.19,317,826.19,318Z"/><path class="cls-1" d="M888.73,229.32a30.6,30.6,0,0,0,1.69-8.21c.38-5.29,1.21-10.66-.9-16.27-3,1.4-4.76,2.83-4.82,5.94-.11,5.86-.59,11.72-.71,17.58,0,1.22.88,2.46,1.35,3.68C886.51,231.15,888.31,230.48,888.73,229.32Z"/><path class="cls-1" d="M778.3,199.86c-.46,0-1.32,1.09-1.48,1.81-1.31,5.91-1.75,11.89.46,17.65.88,2.32,2.66,4.3,4,6.44l1.13-.44c.11-1.14.26-2.29.3-3.44.11-3.78-.18-7.62.37-11.34s-1-6.4-2.61-9.25A3.15,3.15,0,0,0,778.3,199.86Z"/><path class="cls-1" d="M430,111.7l.45-1.41a52.18,52.18,0,0,0-7-2.4c-.59-.12-1.56,1.54-2.95,3Z"/><path class="cls-2" d="M398.65,309.31c-.56,1.37-1.1,1.42-2.9.91C397.55,310.73,398.09,310.69,398.65,309.31Z"/><path d="M423.29,396.9l.06.07a1.6,1.6,0,0,0,0-.21A.76.76,0,0,1,423.29,396.9Z"/><path d="M501.43,348.44c-7.7-3.38-15.57-6.39-23.29-9.72-3.78-1.62-7.95-3-11-5.57-6.37-5.48-11.92-11.9-18.16-17.55-2.78-2.52-6.41-4.11-9.66-6.1-1.35-.83-2.74-1.61-4.1-2.41.95-1.46,1.58-3.36,2.9-4.33,7.76-5.72,13-13.26,16.82-22a111.09,111.09,0,0,0,8.24-30.17c.24-1.83.3-3.93,3.09-3.8a5.47,5.47,0,0,0,5.93-4.93c1-7.39,1.62-14.86,1.95-22.32.14-3.34-.14-6.4,1.68-9.63a21.82,21.82,0,0,0,2.89-10.32c0-9-.1-18-1.39-26.81-2.77-18.9-10.15-35.75-24.65-48.83-1.6-1.45-1.63-2.45-.64-4.36,4-7.76,3.85-15.69.34-23.64-5.7-12.92-19.21-22.34-35.23-18.58-2.08.49-4.27,1.2-3,4.26,11.78-4.13,18.12-1.16,24.12,2.94,9.47,6.45,16.19,19.76,10.65,31.56-.48,1-2.29,2.42-2.85,2.17a39.48,39.48,0,0,1-7.61-4.39,3.51,3.51,0,0,1-.65-3.14c1.16-3.54,6.57-6,10.31-5-.54-.8-1.54-2.09-1.92-1.92-3.86,1.65-7.62,3.54-12.16,5.73-1.31-.86-3.6-2.48-6-3.92a5.5,5.5,0,0,0-2.89-.86c-7.82.36-15.44,1.55-22.46,5.37-1.93,1-3.78.64-4.18-2a19.81,19.81,0,0,1-.3-4.73,28.16,28.16,0,0,1,8.55-18c-1.59-.19-3.09-.08-3.92.72-3.65,3.56-6.1,7.86-6.38,13-.2,3.83,0,7.67,0,11.31-4.05,1.24-8.26,2.19-12.18,3.84a61.67,61.67,0,0,0-11.65,6.21c-16.07,11.26-26,26.58-29.54,46-2.21,12.15-.15,23.77,4,35.2.4,1.11.68,2.85.1,3.65-5.64,7.9-4.84,16.49-2.51,25,.81,2.94,2.55,6.33,4.93,8,3.29,2.26,4,5.05,4.33,8.38.47,4.15,1,8.29,1.35,12.44,1.64,17.57,7.71,32.75,22.73,43.36,3,2.12,3.21,5.51-1,6.66-7.7,2.09-13.3,7.06-17.57,13.81-2.46,3.88-4.71,8.1-9.53,9.93-6.89,2.61-13.54,5.86-20.52,8.18-15.41,5.13-24.82,15.18-27.49,31.4-1.74,10.52-3.79,21-5.56,31.52-.19,1.15.54,2.46.85,3.69l1.25-.09c1.84-14.17,3.41-28.4,8.6-41.77l1.35.14v15.7c1.35-7.38,2.38-14.68,3.17-22,.41-3.72,1.65-6.88,5-8.69q9.53-5.11,19.25-9.88c3.76-1.85,7.66-3.4,11.5-5.08l.59.88c-2.8,3-5.67,5.85-8.37,8.9a89.25,89.25,0,0,0-7.58,9.26c-1,1.56-2,5,1,5.1,4.43.09,8.89-1.38,13.33-2.18l-.33-1.92-11.15,1.19-.49-1.05q15.3-16.94,30.61-33.92c-.34,3.16-.7,6.48-1.06,9.81l1.45.4c1.16-10.27,3.21-19.92,15.1-22.89a4.59,4.59,0,0,1,.41,1.33c-.39,7.58-1.05,15.16-1.14,22.75-.09,6.75,2.56,12.78,6.45,18.22,1.69,2.37,5.17,4.72,5,6.86-.22,2.76-3.27,5.3-5.1,7.94-.23.33-.51.62-.73.95-7,10.57-12.57,21.63-11.43,34.82.14,1.65,1.18,4.34,2.19,4.53,1.79.35,4-.57,5.78-1.51,1.18-.63,1.93-2.16,2.72-3.38,2.14-3.28,4.21-6.62,6.56-10.34,2.83,3.23,5.31,6,7.75,8.85,3.3,3.84,6.41,7.88,10,11.46.87.88,4,1.05,4.75.27,4.42-4.4,8.26-9.31,9.73-15.6l-.06-.07c-2.81,3.64-5.7,7.21-8.39,10.93-2,2.82-4,2.53-6.19.33-4.84-4.93-9.43-10.13-14.55-14.75-2.56-2.31-2.64-3.83-.9-6.58,2.53-4,4.53-8.35,7.15-13.29,3.43,4.46,7.25,7.93,9.1,12.24,1.78,4.12,1.5,9.12,2.07,13.31,1.65-4.84,3.49-10.2,5.32-15.57l1.77,0,4.62,13.34.11-.14a1.6,1.6,0,0,1,0,.21c2.31,2.67,4.54,5.41,6.93,8,2.19,2.36,5,4.46,8.13,2.69,3.37-1.92,2.09-5.79,1.11-8.4-3.14-8.39-6.76-16.6-10.4-24.78-1.86-4.18-4.18-8.15-6.21-12.05l10.52-4.29c9.77-15.41,15.45-31.33,1.7-48.19,13.51,1.9,14.37,13.14,18.17,22.33-.12-2.45-.23-4.91-.35-7.36,9.92,10.17,22.25,17.91,28.24,31.49,1.85-6.87-3.59-10.42-6.69-15.72a22.61,22.61,0,0,1,4,.83c7,3,14,6.08,20.88,9.27,6,2.74,8.81,7.58,8.86,14.08v.91h6.64C513.33,358.14,509,351.78,501.43,348.44Zm-29.82-124.9a146.73,146.73,0,0,1-2.16,16.59c-.25,1.3-2.39,2.23-3.66,3.33-.47-1.34-1.33-2.67-1.36-4-.09-5.62.4-11.26,0-16.86-.31-4.57,2-6.81,6.61-9.31C471.31,217.27,471.84,220.44,471.61,223.54ZM423.36,107.89a52.18,52.18,0,0,1,7,2.4L430,111.7l-9.54-.79C421.8,109.43,422.77,107.77,423.36,107.89Zm-70.72,129c-7.49-6-9.7-21.62-3.62-29.63,1.79,3.53,4.46,6.51,4.64,9.63C354,223.32,353.08,229.87,352.64,236.86Zm2.13-26.58-1,.15c-.57-1.18-1.24-2.33-1.71-3.56-5.22-13.73-9-27.77-5.54-42.49,5.24-22.06,18-38.31,38.89-47.68a44.2,44.2,0,0,1,19.25-3.57c3.2.06,4.35,1.1,3.91,4.3-.59,4.24,0,8.32,2.61,11.89.34.47.92.76,2.19.63a22.84,22.84,0,0,0-1.13-2.27c-3.37-5.25-3.74-14,.14-18.25,1.63-1.78,5.07-1.89,8.36-3-1,3.48-1,3.48-7,6.28l3.7,1.09c.31,3.45.26,6.84,1.05,10,.4,1.6,2.34,2.8,3.51,4.24.6.73,1.42,1.57,1.47,2.4.48,7.63.83,15.26,1.19,22.9a37,37,0,0,0,.24,4.33v-32c-4.66.68-5-2.21-5.42-4.57a10.91,10.91,0,0,1,.26-5.91c.41-.93,2.85-1.53,4.28-1.38,11.31,1.2,20.51,6.66,28.23,14.74,10.22,10.71,17,23.27,19.71,37.91,1.39,7.64,2.93,15.3,3.48,23,.37,5.14-.9,10.38-1.38,15.59-.52,5.61-5.95,6.09-9.61,10.05.72-5.05-1.63-5.66-4.85-5.83-11.95-.66-19.53-8.57-26.8-16.75-6.28-7.06-9.55-15.66-11.57-24.76-15.51,23.64-39.2,32.39-65.53,37.41C355.42,206.53,355.1,208.41,354.77,210.28Zm32.59,139.1c-6.14-8.36-5.78-18.05-6.13-27.7,5.2,10.67,6.82,23.73,20.5,28.7C395.23,355.89,391.8,355.43,387.36,349.38Zm-9.48,54.78C373.75,392.7,390.82,357,401.15,356,402.21,365.41,384.76,401.27,377.88,404.16ZM414.93,384c-.27.46-.45,1-.77,1.68-4.48-4.73-8.5-8.74-12.19-13-.62-.73-.07-2.79.46-4,.23-.54,1.75-.72,2.69-.72a37.36,37.36,0,0,1,4.7.45,3.89,3.89,0,0,1,1.82.5C414.69,371.18,416.74,380.87,414.93,384Zm-4.16-18.24c-2.5-.14-4.53.28-5.81-.51-.87-.54-.83-2.77-.95-4.26-.25-3.12-.34-6.25-.52-9.76,2.35-1.42,5-1.07,7.16,1.18.68.7,1.13,2.87.86,3C407.25,358.07,408.56,361.44,410.77,365.78Zm26,35.8a6.74,6.74,0,0,1-.08,2.27c-.49.31-1,.63-1.45.95-2.43-2.82-5.49-5.32-7.18-8.53-4.72-9-9-18.14-13.12-27.4-1-2.28-1-4.92-3.45-6.51-.47-.3-.4-2.7.14-3.05.91-.6,2.82-.91,3.55-.35a22.53,22.53,0,0,1,5.22,5.41C427.77,375.91,432.54,388.63,436.76,401.58Zm.49-74.87c.75-2.64.48-5.56.68-8.36l1.19-.19c.57,2.51,1.48,5,1.66,7.54.86,12.27-2.52,23-12.16,31.19-3.5,3-9,2.85-11.26.17-1.34-1.59-1.76-2.93.62-4.08C429,347.61,434.11,337.82,437.25,326.71ZM405.2,311.88c5.72-.43,11.41-1.12,17.11-1.72l3-.29c-1.88,9.25-4.92,17.47-11.5,24.09l.88.69c2-2.16,4.51-4,5.78-6.54,2.88-5.68,4.95-11.76,7.72-17.49.94-1.95,3-3.37,4.54-5l.83.83c-.32,6.08-1.27,12.21-.78,18.22.46,5.66-1.45,10-4.1,14.64-3.06,5.38-7.82,8.28-12.87,11.06-.23.13-.52.35-.74.3-4.37-1-9-1.46-13.06-3.16-11.87-4.94-14.77-16.63-18.73-27.08-1.66-4.39-.95-9.69-1.32-14.73,4.69,1.57,8.93,3.1,13.25,4.39l.52.16c1.8.51,2.34.46,2.9-.91.2-.5.41-1.17.68-2.06-4.61-1.87-9.39-3.43-13.87-5.56q-1-.46-1.89-1c-13.55-7.19-20.47-19.33-23.3-33.86a239.88,239.88,0,0,1-3.92-55c0-1.19.15-2.38.18-2.75,8-2.64,15.38-5.31,22.92-7.52,3.63-1.06,7.51-1.28,11.08-1.85l-1.46-2.3c12.47-5.9,23.5-13.36,30.26-24.6L432.09,198l-2.1.41c7.1,4.2,14.73,8.81,22.47,13.23a11.64,11.64,0,0,0,5.35,1.45c2.58,0,3.27,1.07,3.1,3.44-.77,11.12-1,22.3-2.3,33.36-1.76,15-5.82,29.42-15.44,41.66-8,10.17-18.77,14.69-31.28,15.85a59,59,0,0,0-6.81.53c-.95.2-1.67,1.53-2.49,2.35C403.46,310.81,404.38,311.94,405.2,311.88Z"/><path d="M440.06,370.32l.06.05s0-.09,0-.13l-.11,0Z"/><path d="M466.69,355.41c-7.55.52-15.11,1-22.65,1.62a3.35,3.35,0,0,0-2.46,1.9c-.67,3.74-1,7.53-1.45,11.31,3.3-1.16,2.38-4.2,3-6.62.37-1.37,1.56-3.41,2.61-3.57,10.36-1.55,20.77-2.76,31.16-4.07l-.11-1.29Z"/><path d="M376.14,371.8c.43.95,1.51,1.6,2.29,2.38-1.67-16.68-17.28-25.08-31-17.5,1,.41,1.81,1.05,2.59,1,3.86-.15,7.71-.68,11.57-.72,7.45-.07,10.23,2,12.21,8.4A52.81,52.81,0,0,0,376.14,371.8Z"/><path d="M294.93,426.23c3.09-3.63,2.89-9.21,0-12Z"/><path d="M440,370.46c-2.45,2.61-4.28,5.52-4.25,9.28C438.18,377.08,440.66,374.46,440,370.46Z"/><path d="M440,370.46l.08-.09-.06-.05,0,0C440,370.34,440,370.4,440,370.46Z"/><path d="M440.06,370.32l0,0Z"/><path class="cls-1" d="M405.08,307.88a59,59,0,0,1,6.81-.53c12.51-1.16,23.29-5.68,31.28-15.85,9.62-12.24,13.68-26.61,15.44-41.66,1.29-11.06,1.53-22.24,2.3-33.36.17-2.37-.52-3.41-3.1-3.44a11.64,11.64,0,0,1-5.35-1.45c-7.74-4.42-15.37-9-22.47-13.23l2.1-.41-12.76-25.06c-6.76,11.24-17.79,18.7-30.26,24.6l1.46,2.3c-3.57.57-7.45.79-11.08,1.85-7.54,2.21-14.95,4.88-22.92,7.52,0,.37-.13,1.56-.18,2.75a239.88,239.88,0,0,0,3.92,55c2.83,14.53,9.75,26.67,23.3,33.86q.93.5,1.89,1c4.48,2.13,9.26,3.68,13.87,5.55-.27.89-.48,1.57-.68,2.07-.56,1.38-1.1,1.42-2.9.91l-.52-.16c-4.32-1.29-8.56-2.82-13.25-4.39.37,5-.34,10.34,1.32,14.73,4,10.45,6.86,22.14,18.73,27.08,4.08,1.7,8.69,2.16,13.06,3.16.22.05.51-.17.74-.3,5.05-2.78,9.81-5.68,12.87-11.06,2.65-4.66,4.56-9,4.1-14.64-.49-6,.46-12.14.78-18.22l-.83-.83c-1.54,1.66-3.6,3.08-4.54,5-2.77,5.73-4.84,11.81-7.72,17.49-1.27,2.51-3.81,4.38-5.78,6.54l-.88-.69c6.58-6.62,9.62-14.84,11.5-24.09l-3,.29c-5.7.6-11.39,1.29-17.11,1.72-.82.06-1.74-1.07-2.61-1.65C403.41,309.41,404.13,308.08,405.08,307.88ZM384.4,230c0,.65-1,1.28-1.55,1.92-.61-.59-1.75-1.18-1.75-1.77,0-4.31.23-8.61.39-12.91l1.37-.19c.47.85,1.28,1.68,1.34,2.55C384.42,223.09,384.49,226.57,384.4,230Zm44-13.63,1-.24c.49,1.05,1.36,2.08,1.41,3.15a82.06,82.06,0,0,1-.14,9.54c0,.61-1.18,1.13-1.81,1.69-.54-.67-1.56-1.36-1.52-2C427.53,224.49,428,220.44,428.36,216.4Zm-28.79,34.71c.66,6.83,4.19,10.12,9.44,12C401.11,264.54,397.3,259.81,399.57,251.11Zm-7.71,28c-1.35-1.77-2.78-3.48-4.22-5.28.4,0,1.07-.2,1.51,0,11.58,6.18,23.5,5.32,35.49,1.63,1.73-.53,3.1-2.19,5.49-3.95l4.39,4.33-.76,1.19c-3.95-2.47-6.44.11-8.27,2.68C417.6,290.76,402.75,293.4,391.86,279.07Z"/><path class="cls-1" d="M385.46,301.69c4.48,2.13,9.26,3.69,13.87,5.56-.27.89-.48,1.56-.68,2.06.2-.5.41-1.18.68-2.07C394.72,305.37,389.94,303.82,385.46,301.69Z"/><path class="cls-1" d="M421.18,167.78c2,9.1,5.29,17.7,11.57,24.76,7.27,8.18,14.85,16.09,26.8,16.75,3.22.17,5.57.78,4.85,5.83,3.66-4,9.09-4.44,9.61-10.05.48-5.21,1.75-10.45,1.38-15.59-.55-7.72-2.09-15.38-3.48-23-2.67-14.64-9.49-27.2-19.71-37.91-7.72-8.08-16.92-13.54-28.23-14.74-1.43-.15-3.87.45-4.28,1.38a10.91,10.91,0,0,0-.26,5.91c.42,2.36.76,5.25,5.42,4.57v32a37,37,0,0,1-.24-4.33c-.36-7.64-.71-15.27-1.19-22.9-.05-.83-.87-1.67-1.47-2.4-1.17-1.44-3.11-2.64-3.51-4.24-.79-3.18-.74-6.57-1.05-10l-3.7-1.09c6-2.8,6-2.8,7-6.28-3.29,1.1-6.73,1.21-8.36,3-3.88,4.22-3.51,13-.14,18.25a22.84,22.84,0,0,1,1.13,2.27c-1.27.13-1.85-.16-2.19-.63-2.62-3.57-3.2-7.65-2.61-11.89.44-3.2-.71-4.24-3.91-4.3a44.2,44.2,0,0,0-19.25,3.57c-20.89,9.37-33.65,25.62-38.89,47.68-3.49,14.72.32,28.76,5.54,42.49.47,1.23,1.14,2.38,1.71,3.56l1-.15c.33-1.87.65-3.75.88-5.09C382,200.17,405.67,191.42,421.18,167.78Z"/><path class="cls-1" d="M418.67,383.56l-1.77,0c-1.83,5.37-3.67,10.73-5.32,15.57-.57-4.19-.29-9.19-2.07-13.31-1.85-4.31-5.67-7.78-9.1-12.24-2.62,4.94-4.62,9.29-7.15,13.29-1.74,2.75-1.66,4.27.9,6.58,5.12,4.62,9.71,9.82,14.55,14.75,2.15,2.2,4.15,2.49,6.19-.33,2.69-3.72,5.58-7.29,8.39-10.93h0Z"/><path class="cls-1" d="M423.29,396.9h0a.76.76,0,0,0,.11-.14Z"/><path class="cls-1" d="M377.88,404.16c6.88-2.89,24.33-38.75,23.27-48.18C390.82,357,373.75,392.7,377.88,404.16Z"/><path class="cls-1" d="M415.17,359c-.73-.56-2.64-.25-3.55.35-.54.35-.61,2.75-.14,3.05,2.49,1.59,2.44,4.23,3.45,6.51,4.09,9.26,8.4,18.44,13.12,27.4,1.69,3.21,4.75,5.71,7.18,8.53.48-.32,1-.64,1.45-.95a6.74,6.74,0,0,0,.08-2.27c-4.22-12.95-9-25.67-16.37-37.21A22.53,22.53,0,0,0,415.17,359Z"/><path class="cls-1" d="M418,353c-2.38,1.15-2,2.49-.62,4.08,2.26,2.68,7.76,2.79,11.26-.17,9.64-8.16,13-18.92,12.16-31.19-.18-2.54-1.09-5-1.66-7.54l-1.19.19c-.2,2.8.07,5.72-.68,8.36C434.11,337.82,429,347.61,418,353Z"/><path class="cls-1" d="M401.73,350.38c-13.68-5-15.3-18-20.5-28.7.35,9.65,0,19.34,6.13,27.7C391.8,355.43,395.23,355.89,401.73,350.38Z"/><path class="cls-1" d="M464.45,222.57c.38,5.6-.11,11.24,0,16.86,0,1.36.89,2.69,1.36,4,1.27-1.1,3.41-2,3.66-3.33a146.73,146.73,0,0,0,2.16-16.59c.23-3.1-.3-6.27-.55-10.28C466.43,215.76,464.14,218,464.45,222.57Z"/><path class="cls-1" d="M349,207.23c-6.08,8-3.87,23.64,3.62,29.63.44-7,1.39-13.54,1-20C353.48,213.74,350.81,210.76,349,207.23Z"/><path class="cls-1" d="M411.64,368.89a3.89,3.89,0,0,0-1.82-.5,37.36,37.36,0,0,0-4.7-.45c-.94,0-2.46.18-2.69.72-.53,1.21-1.08,3.27-.46,4,3.69,4.3,7.71,8.31,12.19,13,.32-.71.5-1.22.77-1.68C416.74,380.87,414.69,371.18,411.64,368.89Z"/><path class="cls-1" d="M411.51,355.46c.27-.16-.18-2.33-.86-3-2.2-2.25-4.81-2.6-7.16-1.18.18,3.51.27,6.64.52,9.76.12,1.49.08,3.72.95,4.26,1.28.79,3.31.37,5.81.51C408.56,361.44,407.25,358.07,411.51,355.46Z"/><path d="M425.49,279.7c1.83-2.57,4.32-5.15,8.27-2.68l.76-1.19-4.39-4.33c-2.39,1.76-3.76,3.42-5.49,3.95-12,3.69-23.91,4.55-35.49-1.63-.44-.23-1.11,0-1.51,0,1.44,1.8,2.87,3.51,4.22,5.28C402.75,293.4,417.6,290.76,425.49,279.7Zm-29.91.4h24.3C415,287.62,403,288.49,395.58,280.1Z"/><path d="M382.86,217.08l-1.37.19c-.16,4.3-.39,8.6-.39,12.91,0,.59,1.14,1.18,1.75,1.77.54-.64,1.53-1.27,1.55-1.92.09-3.46,0-6.94-.2-10.4C384.14,218.76,383.33,217.93,382.86,217.08Z"/><path d="M428.84,230.54c.63-.56,1.77-1.08,1.81-1.69a82.06,82.06,0,0,0,.14-9.54c-.05-1.07-.92-2.1-1.41-3.15l-1,.24c-.38,4-.83,8.09-1,12.14C427.28,229.18,428.3,229.87,428.84,230.54Z"/><path d="M409,263.15c-5.25-1.92-8.78-5.21-9.44-12C397.3,259.81,401.11,264.54,409,263.15Z"/><path class="cls-1" d="M419.88,280.1h-24.3C403,288.49,415,287.62,419.88,280.1Z"/><path class="cls-1" d="M927.12,272.32c-4.22,2.38-4.79,6.26-2.38,13.86a16.81,16.81,0,0,1-2.47,0,35.16,35.16,0,0,1-16.4-6.76,5.94,5.94,0,0,1-2.41-4.94c-.29-5.09-1-10.15-1.54-15.22l-1,0a37.28,37.28,0,0,0-.19,3.79c.25,5.44.66,10.87.82,16.3.12,3.94-.07,7.88-.1,11.83,0,2.05.62,3.23,3.09,3.28,11.07.22,22.14.92,33.2.93,15.87,0,31.74-.43,47.61-.63,3.1,0,6.2.23,9.29.3a3.29,3.29,0,0,0,1.83-.39c2.73-1.82,5.28-3.94,8.13-5.55a3.53,3.53,0,0,0,2.11-3.74c-.4-9.1-.72-18.2-1-27.3-.06-1.83,0-3.67,0-6.28-7.14,0-14.17.09-21.2,0-21.4-.31-42.79-2.24-64.21-.46a15,15,0,0,1-3.07-.15c-3-.39-7.15,1.49-8.28,3.94a9.89,9.89,0,0,0,1.42-.2c3-.87,6.05-2.55,9.07-2.53,19.24.07,38.49.5,57.73.84,6.48.12,13,.32,19.44.51,1,0,2,.21,2.94.32l.24,1c-2.8,1.06-5.56,2.86-8.41,3-6.35.37-12.76,0-19.15-.22-17.07-.67-34.14-1.45-51.21-2.16-1.26-.05-2.54.11-3.81.18l-.26,1.05a8.57,8.57,0,0,0,2.49.92c2.43.06,4.87-.26,7.3-.15,16.7.69,33.39,1.52,50.09,2.17,5.49.21,11,0,16.22,0v22.41c-7.76-2.07-15.06-2.7-22.48-1.3s-14.6,2.45-22.28,3.73c.78-1.73,1.36-3,1.89-4.2,1.12-2.65.4-7.16-1.69-8.81s-3.92.5-5.8,1.19a20.56,20.56,0,0,0-2,1c-4.39,2.19-6.46,6.34-8.93,10.22-.59.94-2.34,2.05-3.14,1.79-3.9-1.28-5.18-9.12-1.58-11.71l3.39,5.49.58-.32Zm104.94,29.75c0-3.23-2.43-3.05-4-3.24a46.67,46.67,0,0,0-19.45,1.94,5.21,5.21,0,0,1-2.69-.41c-1.54-.45-3-1.43-4.56-1.47a50.48,50.48,0,0,0-7,.81c-7.08.88-14.15,1.81-21.23,2.59-9.87,1.08-19.74,2.11-29.63,3-3.17.29-6.39,0-9.57.27-4.85.35-7.76,4.59-5.67,8.81,2.52,5.08,4,10.65,6,16,1.84,5,3.85,6.34,9.13,5.52,3.31-.51,6.53-1.54,9.81-2.29,5-1.13,9.92-2.62,14.88.74a19,19,0,0,0,14.24,3.1c8.9-1.67,17.8-3.52,26.54-5.89,12.53-3.39,25-7.19,37.34-11.11a34.66,34.66,0,0,0,9.37-4.81c2.72-1.93,2.61-4.6,0-6.17a43.16,43.16,0,0,0-7.47-3.13c-.43-.15-1.14.44-2.52,1,3.17,1.24,5.54,2,7.75,3.08s2.46,2.73.34,4a53.05,53.05,0,0,1-9.55,4.51c-4.66,1.62-9.49,2.77-14.25,4.12-7.11,2-14.2,4.11-21.32,6.07-5.59,1.53-11.3,2.68-16.82,4.42-7.86,2.47-15.44,3.36-23.07-.89-6.26-3.49-12.8-6.5-19.15-9.85-2.56-1.35-4.94-3-7.4-4.58,0-.41.07-.83.11-1.25,2.21-1,4.34-2.61,6.66-3,7.6-1.18,15.27-1.92,22.91-2.8a29.32,29.32,0,0,1,3.14,0c-2.33,3.7-1.56,5.56,1.5,5.73-.22-1.12-1.1-2.84-.6-3.47,1.95-2.45,8-1.6,10,1.51L981,316.34c2.48,1,4.6,1.68,5.69-.14,2.29-3.82-2.23-4.17-3.88-6.17a9.89,9.89,0,0,1,1.21-.5c6.59-1.74,13.2-3.44,19.79-5.19C1013,301.92,1022,298.08,1032.06,302.07Zm-76.49,20.14c-1-1-1.4-1.5-1.83-1.94-1.84-1.85-1.48-3.4,1.11-3.9a10.78,10.78,0,0,1,4.73,0c1.27.33,2.33,1.49,3.48,2.29l-2.29,2.71c1.66,0,3.63,0,4.09-2.14a3.31,3.31,0,0,0-3-4,38.18,38.18,0,0,0-8-.29c-1.89.12-3.57,1.23-3.14,3.45C951.1,320.4,952.29,322.05,955.57,322.21Zm15.24,5.54-1.59-3.29a14.27,14.27,0,0,1,3.27-1.34,7.18,7.18,0,0,1,3.86.24c1.22.54,2.12,1.78,3.17,2.72-1.19.44-2.39.88-3.57,1.34-.15.05-.25.21-1,.9,1.82.2,3.27.8,4.27.36s2.1-2.05,1.93-2.91c-.23-1.22-1.42-2.92-2.5-3.19a31.09,31.09,0,0,0-8-.71c-1.68,0-3.49.7-3.38,2.94S969,327.64,970.81,327.75Zm20-1.62.81-.75c-.61-1.19-3.11-2-.87-3.77s7.35-.44,8.7,2.14L996.79,325c.15.35.31.69.46,1l3.94-1.69c-.55-1.18-.79-2.93-1.7-3.41-2.82-1.48-5.89-2.4-9.12-1-1.4.62-2.63,1.51-2,3.12C988.79,324.28,989.93,325.15,990.76,326.13Zm47.36-12.31-5.07.25a5.17,5.17,0,0,0,5.79,1c.46-.16.92-2.18.53-2.72-1.95-2.62-8.13-3.73-11.07-2a3.33,3.33,0,0,0-1.15,2.88c.19.82,1.52,1.36,2.22,1.92,0-1.65-.46-3.23.08-3.72C1031.4,309.75,1036.57,311.12,1038.12,313.82Zm-37-.8a2.75,2.75,0,0,0,4.18-.41c1.22-1.48.47-3-1-4-2.74-1.88-5.75-1.59-8.63-.63-1.11.37-2.8,2-2.64,2.54.35,1.22,1.76,2.14,2.73,3.17l.3-.5-1.48-2.93a24.45,24.45,0,0,1,3.38-1.46,5,5,0,0,1,2.78,0,24.78,24.78,0,0,1,3.66,1.95Zm10.42,7.35a17.37,17.37,0,0,1-2.51-1.87c-1-1-1.32-2.45.34-2.87a14,14,0,0,1,5.7-.22c1.07.19,1.94,1.51,2.9,2.32l-2.44,1.69.23.63,3.4-1.51c-.63-1.16-1-2.85-1.93-3.35a14.77,14.77,0,0,0-5.57-1.31c-2.07-.14-4.41.11-5,2.63-.64,2.89,2.22,2.94,3.81,4C1010.64,320.56,1010.87,320.46,1011.56,320.37Zm7.93-11.8c1.71.29,3.51.58,4.06-1.56s-.86-3.36-2.63-3.63a28.6,28.6,0,0,0-6.92-.11c-1.66.17-3.32,1.29-2.56,3.17.45,1.12,2.16,1.72,3.31,2.55l.41-.68-2.64-2.26c1.67-2.33,3.91-2.43,6-2.09,1.29.21,2.43,1.37,3.63,2.1l-2.52,2.1C1019.55,308.21,1019.56,308.33,1019.49,308.57ZM913.83,257.08c-6.78-2-10.06-1.6-11.44,1C906.31,257.89,910.16,258.34,913.83,257.08Zm57.81,13v.28h12.77c0-.37,0-.74,0-1.11ZM984,266.49l.06-.63H969.28v.63Zm-1,6.67-9.79,1.51C977.7,275.49,981.29,275,983,273.16Zm56.58,30.61c0,.46-.09.92-.14,1.38l4.07.66c.06-.48.13-1,.2-1.45Z"/><path d="M239.92,284.45l10.41,2.24c1.93-9.78-.23-19.91.16-30l.94-.27c.52,1.78,1.46,3.54,1.49,5.33.14,9.55.07,19.11.07,29,21.1,4.53,42,3.3,63.27.2,0-1.69,0-3,0-4.41q-.25-18.83-.51-37.65c-.05-3.78-.13-3.54-3.81-2.81a71.93,71.93,0,0,1-11.39.92c-9.11.3-18.22.49-27.34.65a11.56,11.56,0,0,1-2.81-.66l.1-1.15c1.05,0,2.09.06,3.13,0,13.34-1,26.67-1.94,40-2.89,1.93-.14,1.86-1.28,1.55-2.69-1.38-6.16-4.38-8.67-10.86-9-.41,0-.83-.09-1.53-.17a24.12,24.12,0,0,0-.53-4,24.62,24.62,0,0,0-2-3.81,14.94,14.94,0,0,1,2.49-.8c1.67-.27,3.6.08,5-.65,1.22-.64,1.84-2.41,2.72-3.68a10,10,0,0,0-3.14-.75c-3.38.33-4-2.55-5.75-4.41,4.44-1.51,7.76.06,10.5,3,2,2.11.1,7.42-2.72,8.13-1,.25-2.16.11-3.14.46-.76.26-2,1.21-1.89,1.5.3,1,.94,2.29,1.75,2.56,9.41,3.12,11.91,6.17,12.08,16,.29,16.06.52,32.12.48,48.18a24.53,24.53,0,0,1-2.29,9.68,7.14,7.14,0,0,1-4.93,3.4,210.38,210.38,0,0,1-23.5,1.75c-7.84,0-15.69-.91-23.53-1.57a51.69,51.69,0,0,1-7.44-1.44,7.85,7.85,0,0,1-5.72-5.41c-.38-1.1-.71-2.21-1.1-3.45-2.88,1.09-5.07,2.1-7.08,4.92s-6.23,4.23-9.78,5.11c-5.52,1.36-11.17,2-17,.47-2.15-.57-4.91,1.48-7.45,2-2.69.55-5.52,1.18-8.17.84a7.13,7.13,0,0,1-4.81-3.29c-1.16-2.3.38-4.49,2.58-5.79,2.71-1.61,5.49-3.09,8.71-4.88-.91-.81-1.71-1.57-2.56-2.26-2.78-2.24-2.62-4.54.48-6.38,5.19-3.08,10.53-2.58,15.51-.79,2.21-2.62,3.94-5.52,6.44-7.38a17.43,17.43,0,0,1,7.9-2.85c4-.51,5.81,1.65,5.5,5.76C240.27,282.34,240.07,283.37,239.92,284.45Zm75.77,9.78c-20.82,2.08-41.74,4.41-62.46-2-.68,3.76-.6,7.05,2.51,9,2.34,1.43,5.16,2.82,7.79,2.88,15.15.34,30.28,2.12,45.46-.3A8.28,8.28,0,0,0,315.69,294.23Zm-92.45,10.59c2.35-.21,4.48-.28,6.56-.63a3.05,3.05,0,0,0,2.12-1.46c.87-2.75-3.86-8.05-6.69-7.36a33.1,33.1,0,0,0-7.94,3.05,4.47,4.47,0,0,0-1.82,3.59c.08.86,1.79,1.89,3,2.25A24.27,24.27,0,0,0,223.24,304.82Zm-12.55,1.38c-2.75-8.78-5.63-9.87-11.58-4.83-1,.86-2.12,2.95-1.73,3.85a5,5,0,0,0,3.78,2.49C204.26,307.63,207.34,306.78,210.69,306.2Zm9.39-17.63c-3.34-3.57-13.12-3.24-15.64.48-.4.59-.39,2.21,0,2.47a46.35,46.35,0,0,0,6.39,3.37,1.91,1.91,0,0,0,1.75-.76A9.4,9.4,0,0,1,220.08,288.57Zm18.31-8.07c-.18-1.69-1.1-3.41-3.49-3.05a24.52,24.52,0,0,0-6.26,2c-2.21,1-2.68,3.13-.95,4.61s4,2.6,6,2.52C236.64,286.43,238,283.81,238.39,280.5Zm-3.11,22.07a17.5,17.5,0,0,0,4.09-1.55c1-.64,2.23-2.18,2.06-3.07a4.39,4.39,0,0,0-2.69-3,83.5,83.5,0,0,0-9.88-.63Zm-8.74-9.84c-4.11-4.26-8.09-4-11,.28a3.56,3.56,0,0,0-.5,2.83c.16.46,1.8.84,2.53.58C220.47,295.38,223.32,294.07,226.54,292.73Zm15.07-6.29c.81,3.35,1.37,5.95,2.08,8.5.44,1.55,1.51,2.09,2.87.93,1-.81,1.74-1.82,2.64-2.71a2.34,2.34,0,0,0-.47-4C246.62,288,244.18,287.38,241.61,286.44Zm-.2,5.64c-.2-2.26-1.27-4.82-3.54-4.67-3.37.22-6.88,1.26-9.38,4.67Zm-19.07-5.56,5.35,3.88,1.79-1.91-4.78-5.58C223.9,284.15,223.22,285.19,222.34,286.52Zm-9.83,16.9c.58-1.86,1-3.21,1.52-4.86l-6.6-2.46L207,297Z"/><path d="M927.12,272.32l3.83,7-.58.32L927,274.17c-3.6,2.59-2.32,10.43,1.58,11.71.8.26,2.55-.85,3.14-1.79,2.47-3.88,4.54-8,8.93-10.22a20.56,20.56,0,0,1,2-1c1.88-.69,3.56-3,5.8-1.19s2.81,6.16,1.69,8.81c-.53,1.25-1.11,2.47-1.89,4.2,7.68-1.28,15-2.36,22.28-3.73s14.72-.77,22.48,1.3V259.82c-5.22,0-10.73.18-16.22,0-16.7-.65-33.39-1.48-50.09-2.17-2.43-.11-4.87.21-7.3.15a8.57,8.57,0,0,1-2.49-.92l.26-1.05c1.27-.07,2.55-.23,3.81-.18,17.07.71,34.14,1.49,51.21,2.16,6.39.25,12.8.59,19.15.22,2.85-.16,5.61-2,8.41-3l-.24-1c-1-.11-2-.29-2.94-.32-6.48-.19-13-.39-19.44-.51-19.24-.34-38.49-.77-57.73-.84-3,0-6.05,1.66-9.07,2.53a9.89,9.89,0,0,1-1.42.2c1.13-2.45,5.32-4.33,8.28-3.94a15,15,0,0,0,3.07.15c21.42-1.78,42.81.15,64.21.46,7,.11,14.06,0,21.2,0,0,2.61,0,4.45,0,6.28.33,9.1.65,18.2,1,27.3a3.53,3.53,0,0,1-2.11,3.74c-2.85,1.61-5.4,3.73-8.13,5.55a3.29,3.29,0,0,1-1.83.39c-3.09-.07-6.19-.33-9.29-.3-15.87.2-31.74.65-47.61.63-11.06,0-22.13-.71-33.2-.93-2.47-.05-3.1-1.23-3.09-3.28,0-3.95.22-7.89.1-11.83-.16-5.43-.57-10.86-.82-16.3a37.28,37.28,0,0,1,.19-3.79l1,0c.54,5.07,1.25,10.13,1.54,15.22a5.94,5.94,0,0,0,2.41,4.94,35.16,35.16,0,0,0,16.4,6.76,16.81,16.81,0,0,0,2.47,0C922.33,278.58,922.9,274.7,927.12,272.32Zm-23.45,6.17c0,4.89,0,8.91,0,12.93,0,1.83,1.1,2.11,2.62,2,2.81-.13,5.63-.24,8.44-.24,13.43,0,26.86.16,40.29,0,10.6-.13,21.2-.88,31.81-.94,6.23,0,6.88-.3,6.06-6.46A3.33,3.33,0,0,0,991,283.5,42.17,42.17,0,0,0,972.9,282c-7,1-14.06,2.23-21.07,3.48-9,1.6-17.91,2.9-27.06,2-6.16-.59-11.95-2.16-17-5.86C906.58,280.85,905.47,279.92,903.67,278.49Zm100.77-23.62c-3,1.13-5.43,2.21-8,3-1.56.46-1.68,1.28-1.66,2.68.16,9.35.2,18.7.33,28.05a22.81,22.81,0,0,0,.67,3.59,43.86,43.86,0,0,1,5.42-3.38c2.83-1.23,3.28-3.28,3.12-6.08-.4-7-.6-14-.72-21A52.31,52.31,0,0,1,1004.44,254.87Zm-62.06,29.29c4.48.15,7.51-5,5.84-9.25-.7-1.75-1.53-2.48-3.32-1.67-5.17,2.34-9.56,5.41-11.3,11.26-.55,1.83,0,2.11,1.6,2.11,3.73,0,5.72-2.51,7.72-5.32C942.71,282.39,942.55,283.26,942.38,284.16Z"/><path d="M1032.06,302.07c-10.06-4-19.1-.15-28.28,2.27-6.59,1.75-13.2,3.45-19.79,5.19a9.89,9.89,0,0,0-1.21.5c1.65,2,6.17,2.35,3.88,6.17-1.09,1.82-3.21,1.09-5.69.14l4.87-1.37c-2.05-3.11-8.06-4-10-1.51-.5.63.38,2.35.6,3.47-3.06-.17-3.83-2-1.5-5.73a29.32,29.32,0,0,0-3.14,0c-7.64.88-15.31,1.62-22.91,2.8-2.32.36-4.45,2-6.66,3,0,.42-.07.84-.11,1.25,2.46,1.54,4.84,3.23,7.4,4.58,6.35,3.35,12.89,6.36,19.15,9.85,7.63,4.25,15.21,3.36,23.07.89,5.52-1.74,11.23-2.89,16.82-4.42,7.12-2,14.21-4.05,21.32-6.07,4.76-1.35,9.59-2.5,14.25-4.12a53.05,53.05,0,0,0,9.55-4.51c2.12-1.26,1.91-2.88-.34-4s-4.58-1.84-7.75-3.08c1.38-.58,2.09-1.17,2.52-1a43.16,43.16,0,0,1,7.47,3.13c2.63,1.57,2.74,4.24,0,6.17a34.66,34.66,0,0,1-9.37,4.81c-12.38,3.92-24.81,7.72-37.34,11.11-8.74,2.37-17.64,4.22-26.54,5.89a19,19,0,0,1-14.24-3.1c-5-3.36-9.87-1.87-14.88-.74-3.28.75-6.5,1.78-9.81,2.29-5.28.82-7.29-.53-9.13-5.52-2-5.35-3.49-10.92-6-16-2.09-4.22.82-8.46,5.67-8.81,3.18-.24,6.4,0,9.57-.27,9.89-.91,19.76-1.94,29.63-3,7.08-.78,14.15-1.71,21.23-2.59a50.48,50.48,0,0,1,7-.81c1.53,0,3,1,4.56,1.47a5.21,5.21,0,0,0,2.69.41,46.67,46.67,0,0,1,19.45-1.94C1029.63,299,1032,298.84,1032.06,302.07Zm-77.55,9.7c-1-1.22-1.69-2.92.3-3.28,2.68-.49,6.2-1.15,8.14.12,3.56,2.33,6.51.73,9.32.6.32-1.48.2-2.9.85-3.56,1.68-1.71,8.15-1.46,9.47.56,1.49,2.29,3.23,1,4.71.79s4,.13,3.91-2.91c0-.6,1.56-1.63,2.51-1.79,1.73-.28,3.81-.61,5.26.09,2.38,1.15,4.07.19,6-1.08a8.1,8.1,0,0,0-3.94-.92c-9.31,1.09-18.63,2.1-27.89,3.53-11.41,1.77-22.81,3.31-34.41,3.05a20.66,20.66,0,0,0-6.37.72c-2.8.84-3.68,2.88-2.66,5.51,2.22,5.74,4.49,11.46,6.87,17.13,1.34,3.21,3.29,4.4,6.36,3.72,5.32-1.18,10.58-2.63,16.71-4.18l-8.17-4c-2.36,4.07-4.9,5-7.66,2.62a8.11,8.11,0,0,0,2.46-.05,20.78,20.78,0,0,0,2.81-1.53,10.05,10.05,0,0,0-2-2.49c-2.59-1.71-5.21-1.44-7.67.79l-.34-.83,4.08-2.85a3.32,3.32,0,0,0-.32-.79c-1.34-2-3-3.81,0-5.87.43-.29.31-2.46,0-2.6a13.48,13.48,0,0,0-5.66-1.41c-.87.05-1.61,2.12-2.52,3.42.29.14,0,.08-.18-.12a2.17,2.17,0,0,1-.42-1c-.38-2.51,3-5,5.93-3.9,2.17.8,4,2.48,6.6,4.15l7.78-1.71,7.94-1.21,0-1.26c-1.92-.1-3.84-.3-5.76-.26C954.79,309,954.09,310,954.51,311.77ZM982,308.18c0-.31,0-.62,0-.93-2.15-1.66-4.63-1.75-7.16-1.19-.54.13-.92,1-1.38,1.47.51.45,1,1.32,1.53,1.3C977.33,308.74,979.68,308.42,982,308.18Z"/><path d="M233,319c-1.85-6.37.32-9.43,6.81-9.7a25,25,0,0,1,19.7,7.85c1.06,1.1,1.91,3.51,1.41,4.73a5.9,5.9,0,0,1-4.22,3.17c-4.16.19-8.37-.47-12.56-.65-.83,0-2.23.35-2.45.9-2.13,5.4-6.78,7.63-11.7,9.39a44.15,44.15,0,0,1-7.77,1.73c-2.9.47-5.68-.23-7.27-2.78s-.17-4.83,1.66-6.84A22.4,22.4,0,0,1,230,319.55C231,319.39,232,319.16,233,319Zm-12.6,15.59c2.6-.61,4.45-1.07,6.3-1.48,5.36-1.18,6.05-2.87,3.08-7.48-1.69-2.62-3.45-3.19-6.14-1.64a21.69,21.69,0,0,0-5.3,3.9c-1,1.08-1.83,3.18-1.41,4.36S219.38,334,220.37,334.55Zm22-13.46a16.16,16.16,0,0,0,2.47,1.21c3.9,1.21,7.88,2.17,11.72.07.87-.47,1.82-2.26,1.57-3.08-.8-2.57-6.84-5.91-9.31-5.56C245.46,314.2,243.15,316.79,242.33,321.09Zm-2.11-.34,5.75-9a69.7,69.7,0,0,0-9.14.09c-3,.4-4.13,3.28-2.14,5.45C236.23,319,238.69,319.84,240.22,320.75Zm-11.81.76,7,9.55c1.16-1.78,2.12-3.28,3.11-4.78,1.65-2.49.93-4.77-2-5.11C234.07,320.89,231.5,321.35,228.41,321.51Z"/><path d="M278,276c-1.07-.11-1.91-.22-2.75-.27-3.17-.2-4.63-1.9-4.95-5-.75-7.36-.82-7.35,6.4-7.34a7.51,7.51,0,0,0,1.24-.27c.15-1.15.37-2.37.45-3.6s0-2.54,0-4a14.26,14.26,0,0,1,2.26-.75c7.21-1.17,8.29.06,7.73,5.89-.32,3.27.36,3.63,3.73,2.94,4.66-1,5.41-.37,5.5,4.47a20.68,20.68,0,0,1-.08,2.23c-.47,5.94-.48,6-6.3,5.53-1.78-.14-2.76,0-2.59,2.31.3,4.13-.43,4.78-4.44,5.09l-.32,0c-6.09.55-6.09.55-5.8-5.66C278.07,277.15,278,276.73,278,276Zm7.82-.81c2.2-.5,4.13-1,6.09-1.37,3.1-.58,3.72-1.87,3.36-6.34-.24-3-2.37-1.8-3.8-1.8-5.3,0-6.52-1.27-5.27-6.23.64-2.53-.44-3.42-2.58-3.56a22.59,22.59,0,0,0-3.92.44v8.1c-1.54.1-2.81.14-4.07.28-1.51.16-3.55-.71-3.57,2.21,0,3.91,1.08,6.58,3.54,6.5,4-.13,4.69,1.78,4.35,5.13-.09.83.71,2.39,1.36,2.55,3.62.91,5-.48,4.52-4.15A13,13,0,0,1,285.78,275.18Z"/><path d="M283.8,326c-5.47-.24-10.08-.77-13.63-4-1.41-1.29-3.12-3.73-2.74-5.11.5-1.89,2.82-3.33,4.49-4.82a4,4,0,0,1,2.14-.53,33.56,33.56,0,0,1,16.13,2c2.65,1.1,4.61,3.19,4.72,6.24.07,2.29-3.06,4.86-6.29,5.48C286.75,325.63,284.86,325.86,283.8,326Zm-5.66-2.63c4.18,0,8.24.94,11.95-1.42,2.16-1.37,2.42-3.14.8-5-1.82-2.05-6.12-3.34-8.07-2.42C279.3,316.24,277.6,319.26,278.14,323.39Zm2.54-10.22c-2.09.16-3.93.31-5.78.43-2.55.16-5.12,1.22-5.17,3.71,0,1.42,2.47,2.94,3.94,4.31a1.79,1.79,0,0,0,1.15.4C276.83,319,278.57,316.37,280.68,313.17Z"/><path d="M269,218.5,258.18,216c-.5,3.74.48,5.34,4,6.08,2.93.62,5.9,1,9.66,1.65l-5.73,3.75c-.66-3.22-3.67-3.37-6.73-3.95-2.17-.4-2.89-2.56-2.73-4.79a21.13,21.13,0,0,1,.28-3.48c.12-.54,1-1.39,1.31-1.31,3.55.81,7.07,1.77,10.59,2.74.2.06.29.51.43.77Z"/><path d="M955.57,322.21c-3.28-.16-4.47-1.81-4.86-3.85-.43-2.22,1.25-3.33,3.14-3.45a38.18,38.18,0,0,1,8,.29,3.31,3.31,0,0,1,3,4c-.46,2.15-2.43,2.13-4.09,2.14l2.29-2.71c-1.15-.8-2.21-2-3.48-2.29a10.78,10.78,0,0,0-4.73,0c-2.59.5-3,2.05-1.11,3.9C954.17,320.71,954.58,321.16,955.57,322.21Z"/><path d="M970.81,327.75c-1.84-.11-3.46-.69-3.56-2.94s1.7-2.91,3.38-2.94a31.09,31.09,0,0,1,8,.71c1.08.27,2.27,2,2.5,3.19.17.86-1,2.49-1.93,2.91s-2.45-.16-4.27-.36c.76-.69.86-.85,1-.9,1.18-.46,2.38-.9,3.57-1.34-1-.94-1.95-2.18-3.17-2.72a7.18,7.18,0,0,0-3.86-.24,14.27,14.27,0,0,0-3.27,1.34Z"/><path d="M990.76,326.13c-.83-1-2-1.85-2.41-3-.61-1.61.62-2.5,2-3.12,3.23-1.44,6.3-.52,9.12,1,.91.48,1.15,2.23,1.7,3.41l-3.94,1.69c-.15-.35-.31-.69-.46-1l2.61-1.29c-1.35-2.58-6.46-3.88-8.7-2.14s.26,2.58.87,3.77Z"/><path d="M1038.12,313.82c-1.55-2.7-6.72-4.07-8.67-2.31-.54.49-.08,2.07-.08,3.72-.7-.56-2-1.1-2.22-1.92a3.33,3.33,0,0,1,1.15-2.88c2.94-1.77,9.12-.66,11.07,2,.39.54-.07,2.56-.53,2.72a5.17,5.17,0,0,1-5.79-1Z"/><path d="M1001.14,313l3.25-2.32a24.78,24.78,0,0,0-3.66-1.95,5,5,0,0,0-2.78,0,24.45,24.45,0,0,0-3.38,1.46l1.48,2.93-.3.5c-1-1-2.38-2-2.73-3.17-.16-.58,1.53-2.17,2.64-2.54,2.88-1,5.89-1.25,8.63.63,1.5,1,2.25,2.55,1,4A2.75,2.75,0,0,1,1001.14,313Z"/><path d="M250.92,239.68c1.11-7,4.94-9.91,12.75-8.9-1.36,1.05-2.2,2.26-3,2.25-4-.05-5.84,2.32-7.22,5.56a8.15,8.15,0,0,1-1.69,1.91Z"/><path d="M1011.56,320.37c-.69.09-.92.19-1,.12-1.59-1-4.45-1.09-3.81-4,.56-2.52,2.9-2.77,5-2.63a14.77,14.77,0,0,1,5.57,1.31c1,.5,1.3,2.19,1.93,3.35l-3.4,1.51-.23-.63,2.44-1.69c-1-.81-1.83-2.13-2.9-2.32a14,14,0,0,0-5.7.22c-1.66.42-1.3,1.85-.34,2.87A17.37,17.37,0,0,0,1011.56,320.37Z"/><path d="M1019.49,308.57c.07-.24.06-.36.12-.41l2.52-2.1c-1.2-.73-2.34-1.89-3.63-2.1-2.07-.34-4.31-.24-6,2.09l2.64,2.26-.41.68c-1.15-.83-2.86-1.43-3.31-2.55-.76-1.88.9-3,2.56-3.17a28.6,28.6,0,0,1,6.92.11c1.77.27,3.15,1.64,2.63,3.63S1021.2,308.86,1019.49,308.57Z"/><ellipse cx="272.23" cy="212.44" rx="17.57" ry="0.32"/><path d="M913.83,257.08c-3.67,1.26-7.52.81-11.44,1C903.77,255.48,907.05,255.1,913.83,257.08Z"/><path d="M971.64,270l12.74-.83c0,.37,0,.74,0,1.11H971.65Z"/><path d="M984,266.49H969.28v-.63H984Z"/><path d="M277.24,225.34c2.47-3,6-2.9,8,0Z"/><path d="M265,247.43l-8.06-.36.1-1.33c2.69.27,5.49-.88,8.1.59Z"/><path d="M281.12,218.28h-9.85l0-.81h9.85Z"/><path d="M983,273.16c-1.7,1.85-5.29,2.33-9.79,1.51Z"/><path d="M289.54,223.24l6.44-.37C294,226.05,292.36,226.25,289.54,223.24Z"/><path d="M285.8,217.34l5.67-.76.19,1.53-5.68.65Z"/><path d="M1039.57,303.77l4.13.59c-.07.49-.14,1-.2,1.45l-4.07-.66C1039.48,304.69,1039.53,304.23,1039.57,303.77Z"/><path class="cls-1" d="M315.69,294.23a8.28,8.28,0,0,1-6.7,9.56c-15.18,2.42-30.31.64-45.46.3-2.63-.06-5.45-1.45-7.79-2.88-3.11-1.91-3.19-5.2-2.51-9C274,298.64,294.87,296.31,315.69,294.23Z"/><path class="cls-1" d="M223.24,304.82a24.27,24.27,0,0,1-4.81-.56c-1.17-.36-2.88-1.39-3-2.25a4.47,4.47,0,0,1,1.82-3.59,33.1,33.1,0,0,1,7.94-3.05c2.83-.69,7.56,4.61,6.69,7.36a3.05,3.05,0,0,1-2.12,1.46C227.72,304.54,225.59,304.61,223.24,304.82Z"/><path class="cls-1" d="M210.69,306.2c-3.35.58-6.43,1.43-9.53,1.51a5,5,0,0,1-3.78-2.49c-.39-.9.7-3,1.73-3.85C205.06,296.33,207.94,297.42,210.69,306.2Z"/><path class="cls-1" d="M220.08,288.57a9.4,9.4,0,0,0-7.5,5.56,1.91,1.91,0,0,1-1.75.76,46.35,46.35,0,0,1-6.39-3.37c-.39-.26-.4-1.88,0-2.47C207,285.33,216.74,285,220.08,288.57Z"/><path class="cls-1" d="M238.39,280.5c-.42,3.31-1.75,5.93-4.69,6.06-2,.08-4.4-1.16-6-2.52s-1.26-3.61.95-4.61a24.52,24.52,0,0,1,6.26-2C237.29,277.09,238.21,278.81,238.39,280.5Z"/><path class="cls-1" d="M235.28,302.57l-6.42-8.26a83.5,83.5,0,0,1,9.88.63,4.39,4.39,0,0,1,2.69,3c.17.89-1.06,2.43-2.06,3.07A17.5,17.5,0,0,1,235.28,302.57Z"/><path class="cls-1" d="M226.54,292.73c-3.22,1.34-6.07,2.65-9,3.69-.73.26-2.37-.12-2.53-.58a3.56,3.56,0,0,1,.5-2.83C218.45,288.69,222.43,288.47,226.54,292.73Z"/><path class="cls-1" d="M241.61,286.44c2.57.94,5,1.53,7.12,2.72a2.34,2.34,0,0,1,.47,4c-.9.89-1.68,1.9-2.64,2.71-1.36,1.16-2.43.62-2.87-.93C243,292.39,242.42,289.79,241.61,286.44Z"/><path class="cls-1" d="M241.41,292.08H228.49c2.5-3.41,6-4.45,9.38-4.67C240.14,287.26,241.21,289.82,241.41,292.08Z"/><path class="cls-1" d="M222.34,286.52c.88-1.33,1.56-2.37,2.36-3.61l4.78,5.58-1.79,1.91Z"/><path class="cls-1" d="M212.51,303.42,207,297l.45-.93,6.6,2.46C213.52,300.21,213.09,301.56,212.51,303.42Z"/><path class="cls-1" d="M903.67,278.49c1.8,1.43,2.91,2.36,4.07,3.21,5.08,3.7,10.87,5.27,17,5.86,9.15.86,18.1-.44,27.06-2,7-1.25,14-2.47,21.07-3.48A42.17,42.17,0,0,1,991,283.5a3.33,3.33,0,0,1,1.89,2.31c.82,6.16.17,6.42-6.06,6.46-10.61.06-21.21.81-31.81.94-13.43.17-26.86,0-40.29,0-2.81,0-5.63.11-8.44.24-1.52.07-2.62-.21-2.62-2C903.68,287.4,903.67,283.38,903.67,278.49Z"/><path class="cls-1" d="M1004.44,254.87a52.31,52.31,0,0,0-.82,6.8c.12,7,.32,14,.72,21,.16,2.8-.29,4.85-3.12,6.08a43.86,43.86,0,0,0-5.42,3.38,22.81,22.81,0,0,1-.67-3.59c-.13-9.35-.17-18.7-.33-28.05,0-1.4.1-2.22,1.66-2.68C999,257.08,1001.45,256,1004.44,254.87Z"/><path class="cls-1" d="M942.38,284.16c.17-.9.33-1.77.54-2.87-2,2.81-4,5.32-7.72,5.32-1.64,0-2.15-.28-1.6-2.11,1.74-5.85,6.13-8.92,11.3-11.26,1.79-.81,2.62-.08,3.32,1.67C949.89,279.13,946.86,284.31,942.38,284.16Z"/><path class="cls-1" d="M954.43,311.68l-7.79,1.71c-2.58-1.67-4.43-3.35-6.6-4.15-2.93-1.09-6.31,1.39-5.93,3.9a2.17,2.17,0,0,0,.42,1c.14.2.47.26.18.12.91-1.3,1.65-3.37,2.52-3.42a13.48,13.48,0,0,1,5.66,1.41c.34.14.46,2.31,0,2.6-3,2.06-1.35,3.92,0,5.87a3.32,3.32,0,0,1,.32.79l-4.08,2.85.34.83c2.46-2.23,5.08-2.5,7.67-.79a10.05,10.05,0,0,1,2,2.49,20.78,20.78,0,0,1-2.81,1.53,8.11,8.11,0,0,1-2.46.05c2.76,2.38,5.3,1.45,7.66-2.62l8.17,4c-6.13,1.55-11.39,3-16.71,4.18-3.07.68-5-.51-6.36-3.72-2.38-5.67-4.65-11.39-6.87-17.13-1-2.63-.14-4.67,2.66-5.51a20.66,20.66,0,0,1,6.37-.72c11.6.26,23-1.28,34.41-3.05,9.26-1.43,18.58-2.44,27.89-3.53a8.1,8.1,0,0,1,3.94.92c-2,1.27-3.65,2.23-6,1.08-1.45-.7-3.53-.37-5.26-.09-1,.16-2.53,1.19-2.51,1.79.09,3-2.36,2.66-3.91,2.91s-3.22,1.5-4.71-.79c-1.32-2-7.79-2.27-9.47-.56-.65.66-.53,2.08-.85,3.56-2.81.13-5.76,1.73-9.32-.6-1.94-1.27-5.46-.61-8.14-.12-2,.36-1.32,2.06-.3,3.28Z"/><path class="cls-1" d="M982,308.18c-2.35.24-4.7.56-7.06.65-.49,0-1-.85-1.53-1.3.46-.51.84-1.34,1.38-1.47,2.53-.56,5-.47,7.16,1.19C982,307.56,982,307.87,982,308.18Z"/><path class="cls-1" d="M954.51,311.77c-.42-1.74.28-2.79,2-2.82,1.92,0,3.84.16,5.76.26l0,1.26-7.94,1.21Z"/><path class="cls-1" d="M220.37,334.55c-1-.6-3.06-1.18-3.47-2.34s.43-3.28,1.41-4.36a21.69,21.69,0,0,1,5.3-3.9c2.69-1.55,4.45-1,6.14,1.64,3,4.61,2.28,6.3-3.08,7.48C224.82,333.48,223,333.94,220.37,334.55Z"/><path class="cls-1" d="M242.33,321.09c.82-4.3,3.13-6.89,6.45-7.36,2.47-.35,8.51,3,9.31,5.56.25.82-.7,2.61-1.57,3.08-3.84,2.1-7.82,1.14-11.72-.07A16.16,16.16,0,0,1,242.33,321.09Z"/><path class="cls-1" d="M240.22,320.75c-1.53-.91-4-1.75-5.53-3.44-2-2.17-.82-5.05,2.14-5.45a69.7,69.7,0,0,1,9.14-.09Z"/><path class="cls-1" d="M228.41,321.51c3.09-.16,5.66-.62,8.15-.34,2.9.34,3.62,2.62,2,5.11-1,1.5-1.95,3-3.11,4.78Z"/><path class="cls-1" d="M285.78,275.18a13,13,0,0,0,0,1.76c.48,3.67-.9,5.06-4.52,4.15-.65-.16-1.45-1.72-1.36-2.55.34-3.35-.39-5.26-4.35-5.13-2.46.08-3.56-2.59-3.54-6.5,0-2.92,2.06-2.05,3.57-2.21,1.26-.14,2.53-.18,4.07-.28v-8.1a22.59,22.59,0,0,1,3.92-.44c2.14.14,3.22,1,2.58,3.56-1.25,5,0,6.21,5.27,6.23,1.43,0,3.56-1.2,3.8,1.8.36,4.47-.26,5.76-3.36,6.34C289.91,274.18,288,274.68,285.78,275.18Z"/><path class="cls-1" d="M278.14,323.39c-.54-4.13,1.16-7.15,4.68-8.82,1.95-.92,6.25.37,8.07,2.42,1.62,1.84,1.36,3.61-.8,5C286.38,324.33,282.32,323.4,278.14,323.39Z"/><path class="cls-1" d="M280.68,313.17c-2.11,3.2-3.85,5.81-5.86,8.85a1.79,1.79,0,0,1-1.15-.4c-1.47-1.37-4-2.89-3.94-4.31,0-2.49,2.62-3.55,5.17-3.71C276.75,313.48,278.59,313.33,280.68,313.17Z"/><rect class="cls-3" y="193" width="1279" height="333"/></g></g></svg>