<svg xmlns="http://www.w3.org/2000/svg" xmlns:xlink="http://www.w3.org/1999/xlink" viewBox="0 0 1279 525"><defs><style>.cls-1{fill:#00354f;}.cls-2{fill:url(#linear-gradient);}.cls-3{fill:url(#linear-gradient-2);}</style><linearGradient id="linear-gradient" x1="-10824.5" y1="-14406" x2="-10824.5" y2="-14500" gradientTransform="translate(11464 14500)" gradientUnits="userSpaceOnUse"><stop offset="0" stop-color="#fff"/><stop offset="1" stop-color="#fff" stop-opacity="0"/></linearGradient><linearGradient id="linear-gradient-2" x1="639.5" y1="525" x2="639.5" y2="266" gradientTransform="matrix(1, 0, 0, 1, 0, 0)" xlink:href="#linear-gradient"/></defs><title>Asset 1</title><g id="Layer_2" data-name="Layer 2"><g id="Layer_1-2" data-name="Layer 1"><path class="cls-1" d="M155.8,431.15c2,0,2.69-.52,2.78-2.54.16-3.67.7-7.32.93-11,.58-9.4,1.85-18.84,1.43-28.19-.58-12.68-2.46-25.3-3.82-37.94a4.67,4.67,0,0,0-.64-1.36l-.67.18.9,8.34c1,9.28,2.54,18.54,3,27.84.38,8.5-.32,17.05-.73,25.57-.25,5.14-.85,10.26-1.32,15.39-.13,1.33-.26,2.42-2.26,2.42"/><path class="cls-1" d="M548.42,398.67h-5.51v.88c2.28.12,4.56.33,6.83.33"/><path class="cls-1" d="M584.22,397.15c6.65-4.31,13.19-8.79,19.92-13,2.52-1.57,3.83-2.89,3.19-6.31-1.38-7.35-2-14.84-3-22.27-.92-6.84-2-13.66-2.85-20.5a2.53,2.53,0,0,1,1-1.91c1.88-1.35,4-2.45,5.82-3.83a4.65,4.65,0,0,0,1.81-2.48c.9-4.76,1.62-9.55,2.36-14.34,1-6.75,2-13.51,3-20.25.71-4.65,1.52-9.28,2.23-13.93,1.07-7.11,2.16-14.22,3.1-21.35.33-2.53,1.35-5-.06-7.7-2.66-5.15-5-10.48-7.27-15.81-1-2.28-2.2-3.22-4.62-2.22a21.51,21.51,0,0,1-3.16.9c-10.64,2.67-21.29,5.36-31.94,8-8.17,2-16.37,4-24.54,6-1.24.3-2.42.82-3.88,1.32.82,1.27,1.44,2.31,2.13,3.31,4.56,6.65,9.17,13.27,13.69,20,1,1.54,2.08,1.78,3.79,1.13,8-3,16.15-6,24.23-8.92,5.48-2,11-4,16.44-6,3.5-1.27,7-2.48,10.71-3.78a19.36,19.36,0,0,1,0,2.45q-1.3,9.94-2.67,19.87c-1.49,10.85-3,21.69-4.56,32.52a5.28,5.28,0,0,1-1.63,2.86c-2.47,2.25-5.06,4.37-7.68,6.45a3.43,3.43,0,0,0-1.51,3.88,103.15,103.15,0,0,1,1.5,10.68,2.75,2.75,0,0,1-.88,2.22c-7.08,4.6-14.22,9.1-21.35,13.62-1.41.89-2,.58-2.22-1.17-.44-3.56-1.11-7.1-1.69-10.65-.79-4.92-1.64-9.84-2.33-14.78a2.55,2.55,0,0,1,1-2.09c5-2.9,10.17-5.66,15.27-8.47q4.53-2.5,9.05-5.05a2.35,2.35,0,0,0-1.59-1c-3.18-.45-6,.62-8.76,2-5.85,3-11.8,5.73-17.7,8.59-1.2.57-1.95,1.23-1.69,2.86.71,4.43,1,8.93,1.81,13.32.91,4.78.44,8.58-4.93,10.19-.19,0-.32.3-.5.41l-6.74,3.9c.36-3.81.67-6.94,1-10.08.72-7.54,1.38-15.08,2.16-22.62,1.19-11.63,2.5-23.24,3.66-34.88a5.72,5.72,0,0,0-.84-3.22c-1.35-2.23-2.91-4.33-4.42-6.45q-6-8.44-12-16.88l-.84,0c-6.13,41.71-12.26,83.42-18.47,125.73a11.73,11.73,0,0,0,1.69-1c3.76-3.54,7.41-7.19,11.26-10.63,7.4-6.61,13.58-14.74,23.16-18.7,2.39-1,4.63-2.33,7-3.56.36,2.46.81,4.55.92,6.67a3.45,3.45,0,0,1-1.09,2.52,54.59,54.59,0,0,1-4.8,3l-32.21,20.6c-2.66,1.7-5.35,3.35-8.48,5.3.13-1.5.18-2.44.3-3.36.82-6.11,1.68-12.22,2.5-18.34,1.18-8.88,2.29-17.78,3.51-26.66,1.19-8.66,2.53-17.3,3.7-26,1.46-10.85,2.77-21.72,4.21-32.57q1.86-14,3.89-27.93a2.23,2.23,0,0,1,1.23-1.47c2.06-.71,4.17-1.3,6.29-1.84q15.84-4,31.68-8c8.1-2,16.22-4,24.31-6,1.49-.37,2.93-.95,4.65-1.52-4-2.61-7.86-4.51-11.43-3.39-5.63,1.78-11.48,2.87-17.22,4.33-9.42,2.4-18.82,4.88-28.25,7.28q-10.74,2.75-21.51,5.36a2.07,2.07,0,0,0-1.75,2.14q-.64,6.47-1.48,12.92c-1,8-2.19,15.94-3.23,23.91-.73,5.61-1.31,11.24-2,16.85q-1.93,15.31-4,30.6c-.39,2.9-.91,5.78-1.36,8.66-.65-1.21-.79-2.47-1.28-3.58-.93-2.1-1.68-4.48-3.19-6.08a14.69,14.69,0,0,0-9.18-4.17,46.38,46.38,0,0,1-15.56-5,25.55,25.55,0,0,0-15.11-2.8c-.93.11-2.3.66-2.57,1.35-1.12,2.91-1.9,5.95-2.8,8.95l.81.27a12.55,12.55,0,0,0,.74-1.63c.63-2,1.11-4.1,1.85-6.07a2.78,2.78,0,0,1,1.73-1.6,22.37,22.37,0,0,1,13.07,1.83A62.29,62.29,0,0,0,506,324.27c3.46.46,6.89,2.09,8.32,5.36,1.6,3.63,2.31,7.68,3.13,11.6.13.61-1.08,1.7-1.9,2.21-.33.21-1.57-.36-1.86-.87a19.78,19.78,0,0,1-1.41-3.86c-.85-2.86-2.36-5.09-5.55-5.45-3.79-.44-7.6-.66-11.4-1.06-1.88-.2-2.8,1.17-3.29,2.39-.37,1,.15,2.35.53,3.46A6.29,6.29,0,0,0,494,340c2.33,2.67.06,8.46-2.2,9.19-.53-3.74-1.86-6.84-5.8-8.28-2.09-.77-4-2.12-6-3.09a15.32,15.32,0,0,0-11.76-1v-5h-.68c-.21,2.13-.42,4.25-.67,6.73l-2-1.66c0,1.19.24,2,0,2.58-1.86,3.76-.91,7.65-.61,11.48.1,1.23-.11,1.84-1.31,2.33-3.64,1.5-7.14,3.37-10.85,4.66-2.27.8-4.68,3.17-7.37.34a12,12,0,0,1,1.35-.94c3.82-1.92,7.65-3.8,11.47-5.73,2.12-1.07,3.72-2.58,3.74-5.18a43.22,43.22,0,0,0-.14-4.41,9,9,0,0,0-.72-2,24.49,24.49,0,0,0-.38,6,4.25,4.25,0,0,1-2.66,4.37L446.34,356c-1.38.7-2.77,1.37-4.42,2.19l2.87,2c-.08.21-.15.43-.22.64-1.26-.15-2.51-.32-3.76-.45-2.62-.26-5.52-1.66-7.41,1.94.85.12,1.62.21,2.39.34,3,.5,6.18.67,9.08,1.6a106.2,106.2,0,0,1,11.71,4.8,84.08,84.08,0,0,1,7.67,4.22c.62.38,1.41,1.23,1.35,1.78a2.3,2.3,0,0,1-1.67,1.46c-2.46.19-5.15.73-7.37,0-4.4-1.46-8.5-3.79-12.82-5.52-2.41-1-4.71-2.68-8.17-2,.73.78,1,1.36,1.52,1.57,1.93.85,3.9,1.61,5.87,2.35,2.46.93,5,1.76,7.4,2.73a3.44,3.44,0,0,1,2,4.33c-.63,2.17-2.17,1.16-3.43,1.05a21,21,0,0,1-3.25-.54,45.34,45.34,0,0,0-14.36-1.73c-2.79.19-5.56.51-8.34.84a14.41,14.41,0,0,0-2.26.64l.06.6c1.83.41,3.66.85,5.49,1.22,3.31.67,6.64,1.19,9.91,2a3.87,3.87,0,0,1,2.51,2c.64,2.1-2.24,6.48-4.44,6.73a45.12,45.12,0,0,1-9.43.29,6.67,6.67,0,0,0-5.12,1.63c-6.18,4.73-12.31,9.66-19.92,11.95-5.45,1.64-8.72,5.46-11.43,10.11a5.6,5.6,0,0,1-2.54,2.3c-9.44,3.78-19.09,7-29.44,6-7.28-.72-14.5-2.11-21.72-3.32a8.71,8.71,0,0,1-7-5.9c-.36-1-.84-1.87-1.13-2.85-.73-2.47-1.38-5-2.12-7.68a5.52,5.52,0,0,1,1.26.1c7.36,3.53,14.7,7.1,22.08,10.6,4.1,2,8.18,4,13,3.27,2.84-.41,5.71-.55,8.56-.8,5.42-.48,10.84-.94,16.25-1.45a7.15,7.15,0,0,0,1.65-.56c-.75-1.5-1.46-2.78-2-4.11-2-4.62-4.37-9.12-4.73-14.26-.44-6.32.83-12.43,2.37-18.5.29-1.14.4-2.34.66-3.87-9.09.43-17.68.87-26.28,1.21a4.22,4.22,0,0,0-4.32,3.36c-1.8,7.42-3.68,14.86-1.56,22.57a3.11,3.11,0,0,1-.11,1c-5.4-8.57-1.43-17,.07-25.46-2,0-3.83-.07-5.65,0-6.84.3-13.66.42-20-2.89-5.61-2.93-11.23-5.87-16.8-8.9a2.68,2.68,0,0,1-1.17-1.83c-.43-5.27-.86-10.56-1.06-15.85-.43-11.54-.71-23.09-1.08-34.64a17.78,17.78,0,0,0-.33-3.94c-1.3-5-2.59-10-4.14-14.94a106,106,0,0,0-13.7-28.12c-.53-.77-1.16-2.09-1.74-2.09-2.08,0-1.48-1.42-1.44-2.37.33-6.61-2.18-12.56-4.33-19.31-2.92,4.3-3.41,9.11-5.67,13.13-4-4.06-7.6-8.26-11.74-11.85s-8.82-6.6-13.27-9.86c4.49,1.91,8.76,4.1,13.05,6.28,7.87,4,18.36,1.62,24.23-4.13,4.63-4.52,7.39-10.36,10.59-15.89a40.36,40.36,0,0,0,5.18-14.3c.78-5.23,1.06-10.53,1.58-15.8.15-1.54.39-3.08.61-4.76a4.8,4.8,0,0,1,2,5.14c-.71,4.34-1.37,8.69-2.26,13-.36,1.77.17,2.07,1.62,1.53a20.8,20.8,0,0,0,4.76-2.1c1.14-.8,2.43-2.13,2.62-3.38.84-5.44,1.32-10.93,1.88-16.4a8.72,8.72,0,0,0-2.41-6.61,4.2,4.2,0,0,1-.94-2.64c.16-3,.66-6,.83-9,.19-3.51-.31-6.87-2.89-9.61a3.46,3.46,0,0,1-.66-2c-.27-2.78-.33-5.59-.71-8.35-.6-4.39-1.38-9-4.89-11.94a49.32,49.32,0,0,0-10.74-6.63c-7.25-3.44-14.79-6-23.06-5.17-2.05.22-4.13.25-6.15.59-5.26.91-10.49,1.95-15.93,3-.23-.15-.77-.83-1.27-.81-3.5.19-7.14,0-10.45.92-5.6,1.58-9.9,5.46-13.87,9.63a10.51,10.51,0,0,0-3.22,8.31c.36,5.57.42,11.17.75,16.75a6.23,6.23,0,0,1-1.32,4.63,8.06,8.06,0,0,0-1.8,4.32c-.2,7.65-.16,15.31-.11,23a5.37,5.37,0,0,0,.83,2.88c3.4,5,6.79,9.94,10.43,14.74,1.71,2.25,2.94,4.39,2.54,7.35a6.7,6.7,0,0,0,1.5,5.77,190.19,190.19,0,0,0,25.51,22.68c5.37,4,10.2,8.81,15.27,13.25,1.3,1.14,1,2.24,0,3.42-5.45,6.53-10.86,13.1-16.34,19.61a1.73,1.73,0,0,1-1.66.1c-.5-.3-.72-1.05-1.08-1.59l-6.35-9.42-.61.34c0,.27-.11.61,0,.8,2.37,3.56,4.69,7.17,7.18,10.63,1.15,1.59,2.23,1.41,3.55-.19q7.68-9.33,15.38-18.65c2.43-2.95,2.44-2.94.69-6.18,0-.08,0-.22,0-.33l.42.49c.74-.52,1.77-.89,2.15-1.61a30.71,30.71,0,0,0,1.56-4.28c.67-1.81,1.39-3.61,2.13-5.55,4.13,7.83,4,16,3.69,24.35l-6.35-8-.93.47c-.13,6.18,3.43,11.58,4.44,17.91-4.11-.85-8.32-.05-11.31-3.67-.81-1-2.23-1.47-3.37-2.18-.19.19-.37.39-.56.59a17.85,17.85,0,0,0,.67,2.66c4.45,10.65,9.09,21.23,13.37,32a109,109,0,0,1,6.8,24.44c.84,5.67,1.26,11.4,2.16,17,1.35,8.48,2.91,16.92,4.48,25.36,1,5.55,1.69,11.26,3.54,16.54a90.38,90.38,0,0,0,12.4,22.73,4.78,4.78,0,0,0,4.9,2.24c2.82-.46,5.67-.8,8.43-1.51s2.63-1.34,1.41-3.84c-3.1-6.35-6.43-12.64-8.89-19.25s-4-13.58-5.9-20.4c-.72-2.55-1.32-5.13-2-7.92,6.6,4.65,13.62,7.79,20.62,11,7.43,3.44,15.26,1.79,22.52,2.26-.71,5.51-2,10.88-1.93,16.23s2.84,10.26,6.29,14.55a6.93,6.93,0,0,0-.18-3.47c-1.29-4.22-2.69-8.46-2-12.94s1.63-8.79,2.45-13.18c.33-1.8,1.4-2.54,3.22-2.61,7.06-.26,14.11-.61,21.17-.91,1.14-.05,2.29,0,3.13,0-.8,6.75-2,13.26-2.23,19.81-.26,6.72,3.62,12.43,6.06,18.74-2.32.32-4.41.67-6.51.88-3.95.4-7.9.8-11.86,1-3.59.22-7.38,1-10.73.14-4.88-1.26-9.48-3.68-14.12-5.78-5.44-2.45-10.76-5.13-16.18-7.61-1.87-.85-2.63-.28-2.36,1.8a34.42,34.42,0,0,0,1.31,5.55c1.84,6.14,4.73,11,12.12,11.61,3.92.3,7.74,1.8,11.66,2.14,5.4.48,10.92,1,16.25.37,5.9-.7,11.71-2.48,17.45-4.18,3.23-.95,6.24-2.37,8-5.85,1.31-2.55,3-5.24,6-6.46,2.22-.92,4.61-1.51,6.66-2.7,5.07-3,10.1-6,14.94-9.34,2.87-2,5.45-4.07,9.27-2.89a10.05,10.05,0,0,0,3.29.05c6.77-.3,7.34-1.72,9.36-7.27.63-1.73-.2-3.06-1.83-3.73a22.82,22.82,0,0,0-3.57-1c-2.37-.53-4.74-1-7.12-1.51,0-.27,0-.54,0-.81,3.88-.18,7.76-.58,11.67.13s7.62,1.48,11.44,2.17a2.26,2.26,0,0,0,2.93-2.17,22.71,22.71,0,0,0,0-3.06l10.45,1.23a3.16,3.16,0,0,1-.45.52,21.85,21.85,0,0,1-15.89,5.15,4.18,4.18,0,0,0-3.08.89c-6.9,8.1-13.59,16.37-20.51,24.45-1.55,1.81-2.55,4.57-5.69,4.61-.21,0-.54.95-.58,1.47-.2,2.35-.29,4.7-.48,7-.12,1.52.65,1.83,2,1.88q17.43.69,34.85,1.47c5.37.24,10.72.71,16.09.9a4.16,4.16,0,0,0,3-1.28q15.48-19.24,30.77-38.65c2.09-2.66,4.52-4.43,7.86-4.8a2.18,2.18,0,0,0,2.18-2.26c.2-1.9.4-3.8.65-5.7,1-7.79,2.11-15.58,3.11-23.37,1.19-9.26,2.3-18.52,3.48-27.78,1.28-10.06,2.64-20.1,3.89-30.16.33-2.73.25-5.52.65-8.23.45-3.09,1.44-6.1,1.84-9.19,1.42-10.78,2.68-21.58,4-32.52,4.63-1.2,9.13-2.39,13.65-3.52s9.12-2.16,13.66-3.3q11.89-3,23.77-6.08c4.67-1.2,9.32-2.46,14-3.65,3.61-.92,7.28-2,10.62,1.46-.7.21-1.22.39-1.75.52-4.47,1.08-9,2.1-13.43,3.25-9.34,2.39-18.65,4.89-28,7.27-6.31,1.61-12.69,3-19,4.71-1.53.42-3.84.17-4.1,2.86-.34,3.58-.93,7.14-1.39,10.71-1,7.57-1.88,15.16-2.88,22.73s-2.1,15-3.14,22.48q-1.26,9.17-2.51,18.34c-.7,5.1-1.43,10.19-2.1,15.29-1,7.57-2,15.15-3,22.72s-2.1,15.29-3.12,22.93a12.55,12.55,0,0,0,.12,2.13L571.24,353c1.21,8.24,2.37,16.08,3.54,24l-4.14.32,0,.61,5.37.29c-.37-2.86-.67-5.39-1-7.92-.77-5.38-1.52-10.76-2.39-16.12-.29-1.83.41-2.71,2.39-3.2,2.17,13,4.32,25.83,6.58,39.33H555.21l0,.86a15.76,15.76,0,0,0,1.8.21c7.87-.05,15.75-.16,23.63-.17,1.92,0,2.23-.92,1.92-2.53-.63-3.31-1.24-6.63-1.8-10-1.5-9.05-3-18.1-4.39-27.16a3,3,0,0,1,1.09-2.43c4.58-3.09,9.26-6,13.92-9,2.84-1.81,5.71-3.56,8.93-5.56.14,1.6.19,2.75.35,3.89,1.91,13.68,3.86,27.35,5.69,41a3.1,3.1,0,0,1-1.09,2.51q-10.32,7-20.82,13.66a6.16,6.16,0,0,1-3.24.9q-19.73-.29-39.45-.77a6.84,6.84,0,0,1-2.35-1.05c0,1.75.55,2.22,3.11,2.27q19.75.45,39.52.8A4.13,4.13,0,0,0,584.22,397.15ZM273.09,123.23a33.65,33.65,0,0,1,11.78,2.29,105.44,105.44,0,0,1,14.7,6.75c4.77,2.58,6.49,7.35,7.28,12.41.47,3,.65,6.1,1,9.15l-.66.25a18.58,18.58,0,0,1-2.83-2.28c-3.46-4.06-8.2-5.06-13.11-5.66-7.79-1-15.61-1.73-23.39-2.83s-15.79-2.41-23.62-3.94c-2.8-.55-5.46-1.92-8.11-3.08-1.67-.74-1.71-2-.17-2.94A69.8,69.8,0,0,1,245.7,128C254.46,124.55,263.77,123.46,273.09,123.23Zm-37.43,14c3.58,1.58,7.27,3.25,11.09,3.88,10.19,1.69,20.47,2.83,30.71,4.23,6,.83,12.05,1.76,18.08,2.6,3.87.54,6.3,3.42,9.2,5.54a6.85,6.85,0,0,1,3,6.22,56,56,0,0,1-3.33,19.5c-.12-3-.07-6-.42-9-.4-3.55-1.08-7.06-1.75-10.56-.44-2.26-2.56-2.84-4.24-3.79-8.72-5-18.21-6.66-28.1-6.54a71.73,71.73,0,0,1-21.27-2.91c-2-.59-3.89-1.8-6.19-2.9-.34,1.93-.83,4-1.08,6.18-.5,4.3-.66,8.64-1.36,12.9-.35,2.13-1.59,4.11-2.35,6-1.61-2.44-2.69-5-4.58-6.68-2.11-1.85-5-.85-7.59-.2-.12-.15-.37-.31-.37-.48-.19-6.59-.39-13.19-.52-19.79a5.55,5.55,0,0,1,2.68-4.79c2.73-1.84,5.5-3.62,8.25-5.42.11.17.23.34.34.52-.32.35-.66.68-1,1C233.18,134.69,233.26,136.2,235.66,137.26Zm-5.87,74.21c-2.92-3.89-5.39-7.69-8.36-11-5.52-6.2-4.51-13.56-4.34-20.83.07-3,.34-6,.27-9.05-.05-2.22,1-3.84,2.08-5.59a6.61,6.61,0,0,0,1-3.56c-.18-6-.55-12-.82-18.07-.2-4.33,2.73-6.86,5.49-9.51,5.06-4.87,10.83-8.12,18.29-7.73-2.07,1.06-4.2,2-6.21,3.2-3.63,2.13-7.21,4.35-10.78,6.59a6.39,6.39,0,0,0-3.11,5.52c0,5.87.16,11.74.34,17.6a42.68,42.68,0,0,0,.57,4.31c1.42-.38,2.77-.83,4.16-1.1,3.39-.68,5.21.51,6.41,3.72a14.23,14.23,0,0,1,.64,7.9c-.69,3.73-.43,7.61-.77,11.41a11.65,11.65,0,0,1-3.92,8c-1.42,1.22-2.24,1.26-3.86.19,4.12-2.54,5.12-6.93,6.22-11.06a19.81,19.81,0,0,0-.53-13c-1.38-3.26-3.17-3.61-7.46-3.37-2.08.12-3.19,2-3.54,5.48,1.76.35,3.52.75,5.3,1,1.58.26,2.41,1.11,2.24,2.7-.37,3.43-.39,7-1.41,10.22-.57,1.81-2.75,3.23-4.44,4.51-1,.73-1.33,1.22-.82,2.29,2,4.17,3.78,8.49,6.11,12.48A8.49,8.49,0,0,1,229.79,211.47Zm.46-6.39c-3.45-4.11-5-8.37-6.5-12.66a2.16,2.16,0,0,1,.91-1.85c3.48-1.7,4.63-4.61,4.78-8.23.1-2.34.58-4.66.69-7,.11-2.67-.52-3.37-3.09-3.91-1.35-.29-2.72-.46-4.25-.72.48-1.85.72-3.45,3-3.53,3.72-.12,5.43.82,6.18,3.78,1.72,6.68.18,12.9-2.93,18.82-.44.84-1.44,1.37-2.13,2.09-.51.55-1,1.18-1.42,1.77a8.37,8.37,0,0,0,2.16,1.62,11.32,11.32,0,0,0,3.14.06C230.63,198.42,230.46,201.44,230.25,205.08Zm30.32,42a194.92,194.92,0,0,1-23.89-20,65.75,65.75,0,0,1-4.79-5.35c-1.53-1.89-1-4-.79-6.7,3.46,4.14,6.44,7.77,9.48,11.33,1.47,1.71,3.27,2,5.3.69a3.32,3.32,0,0,0,1.49-4.5c-.28-.67-.48-1.38-.72-2.07-1.4-4.15-3.52-5-7.46-2.76-2.48-3.42-5-6.86-7.44-10.35a3.31,3.31,0,0,1-.35-1.87c0-1.77.12-3.53.23-5.3.17-2.6.42-4.95,2.67-7,3.35-3.11,3.35-7.66,3.48-11.91a70.19,70.19,0,0,0-.4-7.93,6.14,6.14,0,0,1,1.22-4.72c2.48-3,3-6.74,3.38-10.47.31-3.37.43-6.75.68-10.13a20.3,20.3,0,0,1,.54-2.59c8.45,3.94,17.26,4.78,26.19,5.18,5.19.23,10.54.16,15.51,1.44,5.22,1.34,10.21,3.87,15,6.46,1.38.75,2,3.46,2.33,5.39a84.23,84.23,0,0,1,.74,9.42c.19,3.37.33,6.74.85,10.17a30.76,30.76,0,0,0,4-12.3c.56-4.35,1-8.71,1.45-13.23a7.8,7.8,0,0,1,2.11,6.1,94.67,94.67,0,0,1-.92,9.64c-.23,1.81-.26,3.23,1.21,4.77a7.86,7.86,0,0,1,2.17,5c-.13,5-.91,9.94-1.28,14.91-.31,4.28-3.47,5.23-7.2,6.43.45-2.66.86-5,1.23-7.3s.72-4.64,1-7a5.37,5.37,0,0,0-2.1-4.83,7,7,0,0,0-1.85-.84,7.68,7.68,0,0,0-.63,1.75c-.47,4.91-1.17,9.81-1.27,14.72-.19,9.72-4.56,17.82-9.48,25.7-2.18,3.48-4.45,7.13-7.48,9.8a20.53,20.53,0,0,1-23.16,2.77c-5.93-3.24-11.94-6.34-17.92-9.5l-.61.34c.38.72.59,1.68,1.18,2.13,4.63,3.52,9.29,7,14,10.37a50.07,50.07,0,0,1,11.79,11.22,6,6,0,0,1,.37,1C267,252.35,264,249.48,260.57,247.07ZM231,209.85l.79-.24c1.8,2.4,3.68,4.75,5.39,7.22,1.08,1.57,1.85,3,4.07,1.26,1.25-1,2.7-.58,3.46,1a15.74,15.74,0,0,1,1.73,4.4c.11.84-.79,2-1.55,2.7a2.06,2.06,0,0,1-3.26-.17c-3.24-4-6.58-7.91-9.65-12C231.2,212.93,231.3,211.24,231,209.85Zm54.64,57.23c6.95,9.35,11.17,19.27,14.75,29.52,2.32,6.67,4,13.37,4.09,20.55.11,10.51.89,21,1.24,31.51.18,5.31,0,10.64,0,15.52-1.05-4.14-2.28-8.77-3.39-13.43-1.23-5.2-2.42-10.42-3.51-15.65s-2-10.66-3.18-16a113.28,113.28,0,0,0-3-11.2c-2.35-7-4.93-14-7.4-21a1.87,1.87,0,0,1-.18-.63C285.26,280.08,285.44,273.85,285.63,267.08Zm23,113.05c1.77,7.32,3.67,14.59,6.86,21.44,1.92,4.1,4,8.13,6.11,12.13,1.18,2.23,1.21,2.48-1.2,2.94-2.58.5-5.19.85-7.79,1.25a3.45,3.45,0,0,1-3.72-2c-3.87-6.89-8.07-13.63-11.42-20.77-1.8-3.82-2.21-8.32-3.1-12.55s-1.64-8.34-2.35-12.54c-1.06-6.29-2.15-12.58-3-18.9-1.74-12.54-2.94-25.18-7.8-37.06-2.9-7.13-5.72-14.29-8.65-21.41-1.9-4.63-3.95-9.21-5.91-13.82a3.21,3.21,0,0,1-.08-1l.3-.54c3.57,5.75,9.38,4.48,15.1,5.59-1.82-5.88-3.5-11.28-5.17-16.68l.73-.34,6.17,8.56.46-.37a17.47,17.47,0,0,1,0,3.07c-1.08,6.06.41,11.65,2.6,17.28A178.4,178.4,0,0,1,295.44,323c2.26,11,4.49,22,7,32.87C304.31,364,306.7,372,308.67,380.13Zm160.2-40.79a5.66,5.66,0,0,0,2.56.05,10.65,10.65,0,0,0,2.17-.83l.54.48q-2.36,5.77-4.69,11.57l-.9,0c-.62-2.53-1.26-5.05-1.84-7.58a11.81,11.81,0,0,1-.16-2C466.44,339,466.89,338.71,468.87,339.34Zm-41.74,68c5.69-6.82,11.42-13.61,17.1-20.45a3.89,3.89,0,0,1,3.67-1.67c8.17.67,14.55-3.05,19.91-8.76a5.63,5.63,0,0,1,4.75-2c9.12.34,18.23.59,27.35.88a8,8,0,0,1,1,.19c-3.17,4.18-6.23,8.23-9.3,12.26-6.57,8.63-13.18,17.23-19.73,25.88a4.23,4.23,0,0,1-4.05,1.84c-14.33-.63-28.67-1.1-43-1.61-.8,0-1.6,0-3.06,0C423.82,411.46,425.44,409.39,427.13,407.36Zm-4.86,7.84q11.93.26,23.84.62c7.65.24,15.3.51,22.94.85a3.29,3.29,0,0,0,3.13-1.49q14.81-19.49,29.7-38.9a17,17,0,0,0,1-1.82,7.2,7.2,0,0,0-1.28-.32c-9.71-.3-19.42-.65-29.13-.8-1.76,0-3.53.74-4.85,1-2.56-1.67-4.92-3.6-7.6-4.87-5.59-2.65-11.34-4.95-16.78-7.29,2.75-2,5.59-.77,8.35.69,4.48,2.37,8.91,4.84,13.39,7.22a5,5,0,0,0,2.07.57q18.3.71,36.62,1.35c.85,0,1.7.09,3.1.18-1.77,2.41-3.23,4.43-4.72,6.43q-14.43,19.35-28.9,38.66a3.27,3.27,0,0,1-2.37,1.09c-9.27-.3-18.53-.71-27.8-1.08q-10.26-.42-20.52-.78c-.73,0-1.45,0-2.18,0-.06-.26-.12-.53-.19-.79A8.54,8.54,0,0,1,422.27,415.2Zm94.61-66.35c-1.27,10-2.56,20-4,29.94-.11.79-1,2-1.66,2.1-4,.61-6.45,3-8.83,6.08-9.71,12.38-19.63,24.61-29.43,36.93a4.21,4.21,0,0,1-4,1.88c-14.83-.89-29.68-1.64-44.52-2.43-2-.1-3.94-.17-6.18-.27.19-1.83.37-3.48.53-5,5,0,9.86-.15,14.69,0,12.43.46,24.85,1,37.28,1.61a3.22,3.22,0,0,0,3.12-1.48c6.33-8.55,12.74-17,19.12-25.56q7.13-9.53,14.2-19.09c.42-.57.79-1.18,1.43-2.15-2.92-.25-5.45-.59-8-.67-9.35-.28-18.7-.55-28-.69a19.15,19.15,0,0,1-10.9-3.27c-3.77-2.53-8.12-4.17-12.55-6.36,5-2.14,9.52-4.22,14.19-6.05,1.62-.64,2.18-1.45,2-3.09-.28-2.77-.44-5.54-.65-8.31l.6-.12c.42,1.65.83,3.29,1.25,4.93a11.87,11.87,0,0,0,.74,2.5c.34.65,1,1.58,1.52,1.55a2.58,2.58,0,0,0,1.7-1.47c1.43-3.26,2.84-6.55,4-9.91,1.06-3,1.27-3.33,4.19-2a91.78,91.78,0,0,1,8.56,4.36c2,1.16,2.85,3.17,3.19,5.46a7.32,7.32,0,0,0,1.26,2.29c.7-.44,1.62-.73,2.05-1.36,2.34-3.43,3.66-7.22.22-11.14a3.92,3.92,0,0,1-.72-3.31c.25-.7,1.88-1.29,2.87-1.25,3.51.15,7,.52,10.51.92s4,3.35,4.92,6c.17.48.15,1,.34,1.5,1.08,2.74,2.29,3.33,5.17,2.34C517.08,345.83,517.07,347.35,516.88,348.85Zm56,2.13-.73-.32-1.43-8.84c-2.81,1.42-5.19,2.81-7.71,3.85-9.61,4-16.05,11.87-23.42,18.61-3.64,3.33-7.18,6.77-11.25,10l17.58-119.78.65-.11q5.12,7.19,10.22,14.37c1.42,2,2.92,4,4.13,6.11a7.45,7.45,0,0,1,1.12,4c-.61,7.18-1.46,14.33-2.18,21.5-.6,5.85-1.12,11.7-1.71,17.55-.75,7.46-1.57,14.92-2.31,22.38-.24,2.38-.34,4.77-.54,7.69l10.11-6.1c.13-.07.22-.23.35-.26,5.15-1.35,4.69-5.22,4.16-9.15-.6-4.51-1.13-9-1.75-13.55-.23-1.6.18-2.43,1.8-3.17,6.68-3.07,13.25-6.38,19.88-9.54a11.35,11.35,0,0,1,2.5-.55l.26.75-7.65,4.24c-4.4,2.42-8.79,4.85-13.22,7.22a2.74,2.74,0,0,0-1.69,3.3c.84,4.54,1.55,9.11,2.31,13.66s1.62,9,2.17,13.47C574.58,349.1,573.41,350.08,572.83,351Zm27-26.5c-1.26-4,.09-6.59,3.45-8.68,1.59-1,2.82-2.53,4.38-3.57a6.27,6.27,0,0,0,2.74-4.92c1.48-11.06,3-22.11,4.55-33.17q1.37-9.93,2.68-19.87a24.61,24.61,0,0,0,0-2.87c-13.72,4.94-27.1,9.74-40.46,14.58-4.12,1.49-8.19,3.09-12.28,4.64-1.28.48-2.08.42-3-1-4.51-6.76-9.23-13.39-13.9-20.05-.85-1.21-.57-1.83.81-2.16,6.34-1.52,12.68-3,19-4.59,9.43-2.37,18.82-4.86,28.24-7.25,4.47-1.13,9-2.14,13.44-3.24,1.31-.32,2.2-.16,2.82,1.24,2.3,5.16,4.49,10.39,7.13,15.37,1.71,3.23.47,6.18.07,9.22-.94,7.13-2,14.24-3.11,21.35-1.16,7.55-2.4,15.08-3.56,22.62-1,6.75-2.54,13.47-2.88,20.25-.31,6-4.56,7.48-8.85,10.08C600.67,329.59,600.62,326.92,599.85,324.48Z"/><path class="cls-1" d="M428.36,328l-.09,0,0,0,0,0h0l.26,0h.06Z"/><path class="cls-1" d="M322.11,199.66a59.65,59.65,0,0,0,4.71,4.27,6.51,6.51,0,0,0,10-2.37c2.18-4.8.74-9.31-1-13.81-.71-1.88-1.5-3.73-2.4-6,3.36.28,5,1.58,6,4,1.73,4.11,1.6,8.4,1.09,12.6-.46,3.79-1.92,7.33-6.32,8.31a35.6,35.6,0,0,1-4.22.43c1.11,3.62,4.87,4.1,7.32,6.06-7.3-.27-11-5-13.65-11.11-2.15,12.41-7,23.59-12.41,34.55l.63.59,16.2-4.93a30.59,30.59,0,0,1-3.66,3.48c-1.29,1.13-1.51,2.29,0,3.46.51.4.94.91,1.47,1.28,4.09,2.79,8.27,5.43,12.26,8.36a74,74,0,0,1,14,14c.41.51,1.58,1.1,1.94.88,3.32-2,6.32-4.39,8-8,1.13-2.42,2.24-4.85,3.61-7.83,1.14,1,2.72,1.64,2.85,2.52.61,4,.81,8.16,1.15,12.24-4.34.28-5.86,4.39-8.51,6.29-1.8-.75-3.42-1.47-5.07-2.09-3-1.12-6.23-1.76-8.9-3.37-5.13-3.1-8.85-7.81-12-12.84-4.49-7.21-18.66-14.92-27.27-11.82-7.88,2.83-11.28,5.56-11.64,13.55s-.51,15.88-.6,23.82a13.53,13.53,0,0,0,1,5.15c2.87,7,5.87,13.91,8.9,20.82,3.26,7.4,5.31,15,4.75,23.21-.25,3.74-.1,7.5-.11,11.26a13.68,13.68,0,0,0,.17,2.64c.44,2.24,1.65,2.65,3.32,1.08a38.35,38.35,0,0,0,3.09-3.4c2.27-2.74,4.43-5.57,6.75-8.26a19.92,19.92,0,0,1,3.22-2.37,6.68,6.68,0,0,1-.25,1.6c-2.14,3.87-4.24,7.76-6.47,11.58-3.48,6-7.19,11.81-10.54,17.85-2.38,4.27-1.58,7.1,2.91,9.1a105.48,105.48,0,0,0,14.61,5.15,144.15,144.15,0,0,0,17.49,4A15.31,15.31,0,0,0,357.28,372c2.14-1.88,2.29-3.06.87-5.51-1.57-2.71-3.3-5.32-4.8-8.06q-7.53-13.79-14.9-27.67a20.79,20.79,0,0,1-1.2-4.38l.87-.33c2.19,3.48,4.31,7,6.58,10.44,3.72,5.62,7.14,11.51,11.4,16.69,8,9.72,18.52,16.53,28.89,23.44,1.37.91,2.59.58,3.89-.12q11.83-6.36,23.71-12.66c1.86-1,3.8-2.29,5.79-2.46a53,53,0,0,1,9.64.53c1.55.16,4.4-.86,5.11-2.1L427,358.58c-.3-.31-.81.42-.77.45.77.6,1.61,1.11,2.59,1.75l-9.33-1c1-.78,1.9-1.42,2.71-2.18,2.78-2.59,5.46-5.29,8.29-7.82,1.48-1.32,3.07-2.69,5.63-2.3-1.2,1.71-2.28,3.27-3.36,4.82l.66.47c1.06-1.31,2.21-2.57,3.15-4a2.7,2.7,0,0,0,.38-2.15c-.13-.36-1.44-.68-1.93-.44-2.18,1.08-4.61,2-6.3,3.67-4.64,4.55-9.42,8.85-15.29,11.79-1.82.91-3.64,2.07-5.78.86-3.09-1.75-6.22-3.45-9.2-5.38a3.12,3.12,0,0,1-1.12-2.63c1.15-5.29,2.5-10.54,3.83-15.79.84-3.33,1.21-6.91,2.75-9.88a16.44,16.44,0,0,0,1.7-9.95,77.18,77.18,0,0,0-1.49-8.23c-1.59-6.91-3.09-13.86-5-20.69-2.38-8.55-5.12-17-7.74-25.49-.45-1.46-1-2.89-1.58-4.33a7.28,7.28,0,0,1,2.63,3.18c1.94,5.15,3.78,10.35,5.56,15.56,3.06,9,6,18,9.11,26.93,1.57,4.47,3.23,9,6.94,12.24,2.23,2,4.55,3.86,6.88,5.73,1.29,1,1.33,1.87,0,3q-4.49,3.81-8.84,7.78a10.23,10.23,0,0,0-1.4,2.08l.56.57a6.84,6.84,0,0,0,2.27-1c2-2,3.93-4,5.82-6.1,2.56-2.83,4.58-3.25,8-1.62,2.9,1.38,5.83,2.33,9,.67a36.16,36.16,0,0,1,3.66-1.45c5.24-2,10.47-4.07,15.72-6.06,2.12-.81,4.29-1.48,6.76-2.31-.5,4.32-.92,8.1-1.35,11.87l.72.13a12.45,12.45,0,0,0,.66-2.16c.35-2.7.64-5.41.9-8.11s1-3.36,4-3.43l-3.37,11,.78.26,4.93-13.6-6.16,1.93c0-5.21-.13-10.06.05-14.9.09-2.63-.35-4.62-3.21-5.33-.05,0-.05-.25-.09-.49,2.23-.6,3.43-2,3.18-4.4,2.84-.32,4.78-1.51,5.39-4.37.07-.35.47-.68.79-.93,2.48-1.87,2.94-4.48,1.19-6.88,2.73-1.72,2.79-1.87,1.06-4.56-.63-1-1.49-1.79-2.15-2.75a3.15,3.15,0,0,1-.64-1.68c0-3.3.27-6.61.17-9.91a23.26,23.26,0,0,0-1-6,2.18,2.18,0,0,0-3.64-1.19,5.06,5.06,0,0,0-1.89,2.77c-.66,4.31-1.05,8.66-1.53,12.83l-6.54.57c-1-1.52-2.44-3.55-3.82-5.61-1-1.47-2-2.79-4.15-1.14A31,31,0,0,1,447,259a5.26,5.26,0,0,0-1.83-5.3c-1.81-1.68-3.52-3.47-5.36-5.11-1.24-1.12-2.63-2.07-4.13-3.22v-6.57c5.08-.3,6.93-.82,8.94-3.86,3.19-4.84,6.06-9.91,8.94-14.95a3.23,3.23,0,0,1,2.47-2c2.22-.41,4.59-1.26,5.07-3.9.67-3.68,1.08-7.41,1.5-11.13a3.64,3.64,0,0,0-2.25-3.91,2.55,2.55,0,0,1-1.6-3.27,16,16,0,0,0,.34-2.18c.51-4.61.8-9.17-1.09-13.64-4.16-9.85-12.12-14.51-22.12-16a34.72,34.72,0,0,0-26.59,6.59c-3,2.22-5.68,4.55-6.13,8.56-.49,4.31-1,8.62-1.52,12.92-.3,2.42-.16,4.84-2.18,6.91-4.65,4.74-3.05,14.4,2.75,17.83,2.2,1.31,3.12,1.11,4.82-.94,2.36-2.82,2.24-6.06,1.65-9.39-.17-1-.32-2-.48-3l2.53-.92c.9,4.23,1.27,8.25-.81,12.29-1.57,3-.91,3.91,2.41,4.65,3.68.83,7.3,2.17,11.46.89-.13,1.46,0,2.57-1.68,2.55-4.21-.05-8.34-.5-12.07-2.67-1.1-.65-2.13-1.42-3.75-2.52.39,3.68.75,6.76,1,9.85a10.35,10.35,0,0,0,2.31,5.95c6.23,7.46,11.71,15.59,20.31,20.8,3.72,2.25,6.34,5.77,8.66,9.45a5,5,0,0,1-1.67-1c-2.42-2.3-5.07-1.88-7.74-.63a27.82,27.82,0,0,0-4.8,2.62c-1.49,1.11-2.16.39-3-.71-2.44-3.27-4.85-6.55-7.39-9.73-3.16-4-6.28-8-9.7-11.7-2.11-2.31-3.55-2.17-6.06-.37-2.3,1.66-4.63,3.29-6.82,5.09s-4.22,3.8-6.43,5.82c-.59-.23-1.64-.73-2.73-1.07-2.17-.68-3.32-1.78-3.13-4.36.21-2.89.28-5.87-1.28-8.6s-4.93-3.24-6.9-.84a25.72,25.72,0,0,0-1.76,2.93c.33-1.93.59-3.4.83-4.81.89-.28,1.64-.59,2.43-.76a12.07,12.07,0,0,0,2.38-.38,10.06,10.06,0,0,0,3.16-2.09,16.76,16.76,0,0,0,1.91-3.4c4.28-7.81,8-15.86,10.05-24.57a9.41,9.41,0,0,1,1.31-2.19,27.4,27.4,0,0,0,2.48-4.48,65,65,0,0,0,1.84-7.46c.95-4.4,1.71-8.77-2.65-12-.34-.25-.42-.91-.5-1.4-.93-5.57-1.57-11.21-2.81-16.71-.92-4.07-3.88-7-7.37-9.35,2.23,4.09,7,6.85,6.54,12.88-1.42-4.59-3.24-8.27-7.2-10.45,2.65,3.36,5.32,6.7,6.14,11,.79,4.19,1.45,8.4,2.17,12.61a6.49,6.49,0,0,1-1.45-3.22,6.93,6.93,0,0,0-4-5.82c-3.17-1.55-5.5-3.8-6-7.49-.23-1.51-.51-3-.76-4.51l-.65-.11a12.28,12.28,0,0,0-.35,2.24c.13,4.37-.14,8.58-4.47,11.13C370.35,171,368.5,172,366.6,173c-8.27,4.14-17.54,6.46-24.32,13.49-.59-1.05-1.06-2-1.6-2.82-1.4-2.25-2.89-4.63-5.7-5-1.86-.26-2.13-1.15-2.14-2.59a90.86,90.86,0,0,1,0-9.48,18.68,18.68,0,0,1,7.4-13.64c4.46-3.34,9.94-4.38,15.32-5.52a25.85,25.85,0,0,1,14.53.6l3.49,1.28c0-.75-.11-1.21-.41-1.35-4.09-1.79-8.39-3-12.81-2.33-5.1.84-10.12,2.22-15.14,3.52-9,2.32-13.53,12.18-13.73,18.72-.11,3.5,0,7,0,10.64l-3.79.86a43.2,43.2,0,0,1,2.78-20.63c1.35-3.51,3-6.87,6.71-8.75a58.09,58.09,0,0,1,16.33-5.51c5.75-1,11.38-.87,16.88,1.31,1.1.44,2.26.75,3.39,1.13l.81-1.09c-.49-.14-1-.32-1.48-.44-3.91-.9-7.78-2.25-11.74-2.59-7.07-.6-13.84,1.43-20.3,4.08-3.21,1.31-6.65,2.58-8.77,5.81A36.5,36.5,0,0,0,327,167.07c-.71,4.38-.73,8.87-1.07,13.57l3.88-.45c.55,4,1.11,8,1.66,12,.28,2-.91,2.64-2.88,3-.62-4.45-1.22-8.75-1.81-13-4,.5-6.11,2.64-6.13,6.21,0,3,.07,5.9.29,8.83A4.3,4.3,0,0,0,322.11,199.66Zm37.41,70.61c-1.09,2-2.64,3.87-3.19,6-1.85,7.21-2.82,14.57-1.66,22a7.52,7.52,0,0,0,4.71,5.84l1.61.72c-2.26,2.15-4.58,3.6-7.51,3.23-3.56-.44-7.09-1.12-10.61-1.82-2.79-.56-5.52-1.39-8.31-2A60.16,60.16,0,0,1,309.9,293.7c-2.81-2.11-4.15-5.18-5.16-8.36-1.39-4.44-2.69-8.92-3.81-13.44-1.53-6.12,1.75-10.38,6-14,3.56-3,4.12-2.7,4.84,1.72.32,1.95.67,3.9,1.08,5.83.51,2.45,1.75,3.52,4.22,3.07a54.54,54.54,0,0,0,6.45-2,30.06,30.06,0,0,1,4.61-1.28c2.37-.33,3.07.52,2.29,2.77-1.19,3.43-2.66,6.77-3.8,10.22a33.38,33.38,0,0,0-1.71,7.4,7.21,7.21,0,0,0,1.41,4c.95,1.49,2.19,1.27,2.51-.47.55-3,.76-6.11,1.1-9.17.08-.72.12-1.45.18-2.17l.61-.16c1.53,3.41,3.16,6.78,4.57,10.25,1.86,4.57,3.51,9.23,5.36,13.81a2.46,2.46,0,0,0,1.75,1.31c2.27.13,4.55-.06,6.83,0,1.53,0,1.72-.67,1.4-1.93-1-4-2-7.95-2.87-11.94-.43-1.86-.68-3.75-1.07-5.61a5.76,5.76,0,0,1,2.17-6.27c3.39-2.54,6.86-5,10.29-7.47Zm70.53,58a3.47,3.47,0,0,0-1.45-.29h-.3v0l-4.5-2,.3-.19c-1.66-1.61-3.14-3.49-5-4.77-6.53-4.47-9.61-11.11-12-18.25-2.1-6.28-4.21-12.55-6.26-18.84-1.73-5.34-3.37-10.7-5-16.06,0-.17.1-.4.09-.34,4.57,2.42,9.17,4.82,13.74,7.29a23.79,23.79,0,0,1,3.46,2.24c2.73,2.16,2.89,3.22,1.93,6.45s-2.15,6.62-2.36,10a93.52,93.52,0,0,0,.4,15.15c.4,3.8,2.12,4.33,5.13,2,2.24-1.74,4.26-3.75,6.38-5.63.36-.32.77-.57,1.16-.86l.54.28c-.87,2.65-1.78,5.28-2.6,8-.88,2.9-2.41,5.87-.43,8.82,1.31,2,3,3.66,4.49,5.5a4.88,4.88,0,0,1,.56,1.2l.09,0,.3,0h6.86A4.53,4.53,0,0,1,430.05,328.29Zm32.63-27.72c0,5.14-.05,10.28,0,15.42a2.37,2.37,0,0,1-2,2.66c-2.56.82-5,1.9-8.15,3.11,3.25-7.48,6.27-14.46,9.3-21.45Zm-2-.57c-1.22,2.9-2.34,5.62-3.49,8.33-1.37,3.2-2.95,6.33-4.11,9.61s-3.7,4.75-6.56,5.65c-4,1.29-8.21,2.12-12.33,3.14-6.07,1.5-13.26-5.86-9.64-13.67a47.81,47.81,0,0,0,2.45-8.14c.15-.61-.25-1.35-.4-2a6.62,6.62,0,0,0-2.13.74c-2.39,2-4.66,4.12-7,6.15a23.78,23.78,0,0,1-2.56,1.58c-.5-2-1.17-3.52-1.21-5.06-.21-6.54-.62-13.1,1.27-19.5.41-1.38.95-2.73,1.42-4.1a5,5,0,0,0-2.34-6.25c-3.93-2.44-8.12-4.48-12.12-6.83a46.57,46.57,0,0,1-5.65-4.05,3.16,3.16,0,0,1-.71-4.2c.5-.79,2-1.12,3.17-1.27,5.13-.73,7.93,3,11,6.06,3.37,3.33,5.67,7.43,8.15,11.47,3.31,5.41,7.44,10.34,11.24,15.46.91,1.22,1.89,2.39,2.87,3.56,2.45,2.94.8,5.69-.27,8.54-.88,2.38-1.56,4.84-2.21,7.29a7.92,7.92,0,0,0,.08,2.32l.68.35a12.14,12.14,0,0,0,1.86-2.44c1.09-2.61,1.84-5.37,3-7.94,1.56-3.43,3.29-6.78,5.11-10.07,2.53-4.58,5.21-9.08,7.83-13.61.11-.2.28-.37.86-.33l-2.54,5.88c-.11.26-.24.52-.37.78-2.28,4.75-1.94,6,2.68,8.56C452.34,298,456,300,460.7,300Zm2-35.09c.2-2.62.66-5.21,1.06-7.81.2-1.33.91-2.67,2.32-2.32.76.18,1.63,1.66,1.7,2.62.26,3.63.24,7.28.27,10.93a25.21,25.21,0,0,1-.23,2.58C463.59,270.13,462.43,268.85,462.74,264.91Zm-1.08,6.21c4.39.69,8.46,1.8,10.32,7.5l-10.19-1.54c.58,2.29,2.21,2.4,3.45,2.88a23.63,23.63,0,0,0,3.82,1c1.7.34,1.8,1.53,1.49,2.81s-1.05,2.27-2.63,2.09c-2-.23-4.09-.47-6.14-.65a4.75,4.75,0,0,0-2.4.36c2.17,2.23,5.46,1.52,7.92,2.93-1.68,2.59-2.89,2.9-6.24,1.83a23.26,23.26,0,0,0-3.84-.9,4.93,4.93,0,0,0-1.77.43c.4.53.7,1.28,1.23,1.54,1,.47,2.14.52,3.13,1a13.7,13.7,0,0,1,2.24,1.6,12.34,12.34,0,0,1-2.6,1.18,13.73,13.73,0,0,1-2.86-.05c-2.13,0-2.21.13-1.49,2.61-3.55-1.24-6.68-2.8-9.13-5.48a1.75,1.75,0,0,1-.21-1.54c2.59-5.36,5-10.84,7.94-16C456.36,270.05,456.63,270.33,461.66,271.12Zm-2.48-71.45c.85.73,2.11,1.79,2.06,2.64a91,91,0,0,1-1.43,12c-.18.94-1.8,1.61-2.76,2.4-.24-.16-.47-.33-.7-.5,2.7-5.67-.79-11.46.66-17.23A6.16,6.16,0,0,1,459.18,199.67Zm-49.4,1.88a3.6,3.6,0,0,1-2.4.19c-1-.45-2.26-2.11-2.74-1.87a10,10,0,0,0-3.85,3.25,5.86,5.86,0,0,0,1.06,7.41,4,4,0,0,0,3.15.79c.65-.2,1.08-1.71,1.23-2.7a13.9,13.9,0,0,0-.37-2.81,13.62,13.62,0,0,1,.17-2.1l.78,0c1,3.37,1.85,6.74.18,10.2-1.33,2.74-2.79,3.07-5.12,1.19-4.77-3.84-5.18-11.64-1-16.22a6.71,6.71,0,0,0,1.48-3.46c.79-5.6,1.38-11.23,2.11-16.83.56-4.34,4.18-6.06,7.24-8.23,7.57-5.36,16.1-6.73,25-5.13,10.83,2,18.65,6.93,21.77,20.09a10.09,10.09,0,0,1,.16,2.1c-1.62-2.95-3.11-6.53-5.37-9.54a37.39,37.39,0,0,0-8.14-8,21.29,21.29,0,0,0-8.72-3.25c-10-1.5-18.83,1.7-26.8,7.68-2.44,1.83-3.21,4.51-3.77,7.2-.84,4.09-1.32,8.25-2,12.37-.29,1.67.09,2.62,1.91,3s3.55,1.07,4.25,3C410.08,200.39,410,201.47,409.78,201.55Zm-5,4.44a21.82,21.82,0,0,1,.32,4.06c-2.4.24-3.85-.93-4-3.2a5.87,5.87,0,0,1,2.39-5.34c1.3-.95,2.07-.65,2.78,1.07C404.12,203.11,404.37,204.41,404.78,206Zm1.23-10.4a2,2,0,0,1-1-1.55c.82-5.06,1.51-10.16,2.75-15.12,1-4,4.83-5.36,8-7.22,6.45-3.78,13.42-4.8,20.74-3.88,5.9.74,10.48,3.84,14.08,8.37a65.88,65.88,0,0,1,4.92,7.5c1.86,3.11,1.34,6.52.92,9.87-.15,1.24-.43,2.45-.69,3.9-.16-1.92.08-3.75-.52-5.25a16.85,16.85,0,0,0-3.55-5.81c-2.43-2.39-5.1-4.43-4.15-8.58-.47.2-.75.24-.8.36-1.92,4.58-6.19,5.46-10.31,6.33-3.86.82-7.85,1-11.71,1.86a44.77,44.77,0,0,0-8.28,2.7,5,5,0,0,0-2.88,4.35,27,27,0,0,1-1.82,6.8C410.54,197.49,408.36,196.48,406,195.59ZM388.3,251.4c3.85-2.87,7.65-5.81,11.57-8.58a2.73,2.73,0,0,1,2.57-.09,67.73,67.73,0,0,1,7.08,7.3c4.08,5.12,7.92,10.42,11.8,15.68a1.76,1.76,0,0,0,2.6.61c2.39-1.24,4.87-2.34,7.22-3.65,2.1-1.17,3.67-.28,5.11,1.05,1.76,1.62,3.39,3.38,5.09,5.06a11.42,11.42,0,0,0,1.23.88c.79-2.46-.82-3.84-1.82-5.31a47.07,47.07,0,0,0-13.87-13.67c-5-3.12-8.31-7.85-11.85-12.36a49.34,49.34,0,0,0-4.21-5.29c-1.81-1.76-2.24-3.86-2.45-6.15-.2-2.1-.38-4.21-.6-6.66,1.12.63,2,1.07,2.84,1.6,3.61,2.31,7.8,1.7,11.73,2.26,1.58.23,2.87-1.66,2.61-3.32s-1.56-1.6-2.7-1.26c-3,.88-5.79-.1-8.51-.86-3.79-1.06-3.54-1.22-2.13-5.12a23.27,23.27,0,0,0,.84-6.44c.15-2.54-.82-5,1-7.58,1.05-1.48,1.12-3.78,1.27-5.74.21-2.77,2.09-3.93,4.25-4.7a49.14,49.14,0,0,1,7-1.77c4.31-.82,8.68-1.32,12.95-2.31a54,54,0,0,0,7.32-2.81,43.72,43.72,0,0,0,4.43,4.65,10.54,10.54,0,0,1,3.93,8.22c.26,4.92.41,9.85.65,14.77a19,19,0,0,1-3.17,11c-2.51,4.08-4.75,8.34-7.42,12.32-3.2,4.79-5.8,4.64-11.49,4.13-8.4-.75-13.33-6.64-18.76-11.88-.63-.61-1.24-1.24-1.86-1.86,0-.05-.13-.06-.57-.23-1.61,1.89-1.19,4-.57,6,1.53,4.89,4.64,8.87,7.84,12.74a59.48,59.48,0,0,0,5.67,5.78c1.73,1.58,3.42,1.46,5-.3a59.43,59.43,0,0,0,3.63-4.85c.23-.33.27-.8.71-1,.49,4.81-.46,9.37.67,13.87,2.12-2.42.49-5.48,1.71-8.39,2.14,2,4.1,3.95,6.22,5.72,2.7,2.26,3.87,4.8,2.86,8.41a53.76,53.76,0,0,0-1.14,8.06,1.69,1.69,0,0,0,.61,1.45l3.36-7.72c1.91,2.79,3.47,4.94,4.83,7.2.24.4-.24,1.37-.59,2-5.57,9.15-11.35,18.19-16.67,27.48-2,3.55-3,7.68-4.51,11.54-.08.19-.19.36-.29.55l-.55-.15c.58-1.82,1.15-3.63,1.74-5.44A5.74,5.74,0,0,1,433,305c2.58-4.13,1.34-7.67-1.57-11.06-4.49-5.22-9.33-10.23-12.39-16.5a48.6,48.6,0,0,0-11.59-15.16c-2.4-2.12-5-3.76-8.43-3.53-3.72.24-4.31.58-5,4.55-.82-1.15-1.44-2.06-2.09-2.93-1.4-1.87-2.85-3.69-4.21-5.58A2.22,2.22,0,0,1,388.3,251.4ZM435,238.5c-2,2.91-3.73,5.33-5.39,7.78-1.19,1.76-2.63,1.9-4.14.55a49.75,49.75,0,0,1-12.87-17.4c-.49-1.15-.35-2.57-.58-4.52l10.26,9.26C425.71,237.3,430.12,238,435,238.5Zm-46.15,23.65c-1.23-2.33-2.47-4.65-3.71-7C387.75,256.76,388.13,259.53,388.81,262.15ZM372,239.1c1.13-2.08,4.28-1.55,5,.88.89,3.18,1,6.56,1.51,9.85l-.75.55c-2.44-1-4.88-2.09-7.3-3.16-.21-.1-.49-.49-.44-.67C370.6,244,370.83,241.31,372,239.1Zm5.65,13.56c.49.2.86,1.11,1,1.74.83,4.25,1.33,8.57,2.47,12.73a24,24,0,0,0,3.54,6.65,7.93,7.93,0,0,1,1.43,6.41c-.35,1.68-.44,3.43-3.33,2.19.05.33.11.65.16,1,.63.26,1.39.86,1.86.69.85-.33,2-1,2.17-1.74.65-3.24,1.17-6.69-1.37-9.38a15.74,15.74,0,0,1-4.13-9.19c-.44-3.25-1.14-6.47-1.73-9.75,2.66.05,4.47,1.56,6,4.72a134.86,134.86,0,0,1,10.38,28.71c2.39,10.07,4.42,20.3,4.12,30.71a85.88,85.88,0,0,1-2.15,14.55c-1.67,8.17-3.78,16.26-5.35,24.44-.61,3.21-.27,6.61-.36,9.92-.15,5.26-1.7,6.23-6.07,3.46-6.11-3.88-10.79-9.27-15.1-15-5.7-7.52-9.11-16.18-11.77-25.13a53.62,53.62,0,0,1-1.52-8.2c-.92-6.78,2.78-11.52,7.32-15.77a4.4,4.4,0,0,1,2.83-.59c2.88,0,5.71.13,8.34-1.42s3-2,2.45-4.94c4-1.93,5.57-4.24,3.82-6.71,2.09-1.47,4-3.22,3-6.05-.38-1-1.83-1.6-2.79-2.38l-.5.66a5.62,5.62,0,0,0,1.07,1.15,2.29,2.29,0,0,1,1,3.18,2.66,2.66,0,0,1-3.08,1.92c-1.29-.23-2.54-.66-3.81-1a33.42,33.42,0,0,0-3.59-1c-.54-.08-1.15.36-1.73.57.36.56.6,1.44,1.1,1.63,1.91.7,3.93,1.1,5.86,1.77a22.32,22.32,0,0,1,3.09,1.63,20.88,20.88,0,0,1-2.59,2.79c-2.58,1.94-4.84-.18-7.22-.79-1.19-.3-2.35-.81-3.55-1-.51-.09-1.11.34-1.67.54.32.48.55,1.25,1,1.41,2.19.77,4.45,1.34,6.65,2.08a26.69,26.69,0,0,1,3,1.45c-.91.84-1.68,2-2.76,2.45a13.09,13.09,0,0,1-8,1,2.81,2.81,0,0,0-2.36.49,84,84,0,0,0-6.77,9c-2.3,3.76-1.59,8-.67,12,2.38,10.46,6.08,20.41,12.45,29.14,4.78,6.56,10.06,12.7,17.28,16.81,3.38,1.92,5.55,1,6.08-2.78.4-2.83.23-5.73.59-8.57.64-5,1.31-10,2.3-15,1.59-8,3.88-16,5.05-24.06.69-4.78-.12-9.8-.42-14.7a79.2,79.2,0,0,1-.53-8.75c1,4.28,2,8.54,2.84,12.84.64,3.31,1.08,6.66,1.46,10a11.26,11.26,0,0,1-1.24,6.32,51,51,0,0,0-2.77,9c-1.27,4.88-2.43,9.79-3.62,14.69-.33,1.35-.95,2.76-.78,4.06a4.71,4.71,0,0,0,1.94,3c3.36,2.11,6.89,4,10.85,6.17-3,1.61-5.48,3-8,4.32-4,2.14-8,4.25-11.91,6.42-1.3.71-2.52,1-3.88.13-8.75-5.89-17.41-11.88-25-19.33-5.78-5.69-9.71-12.64-14-19.35-2.16-3.36-4.25-6.78-6.44-10.12a17.29,17.29,0,0,0-2-2.17l-.84.1c-.13,1.15-.69,2.47-.31,3.41a136.63,136.63,0,0,0,6.34,14.38c4.53,8.28,9.48,16.33,14.26,24.47,1.37,2.33,1.24,3.32-1,4.93a16.76,16.76,0,0,1-13.24,2.64c-5.58-1.07-11.12-2.51-16.58-4.13a88.47,88.47,0,0,1-13.3-4.87c-3.93-1.89-4.37-4-2.19-7.88,3.05-5.47,6.36-10.79,9.56-16.18,2.26-3.8,4.56-7.58,6.74-11.42.69-1.23,1.65-2.92.28-4s-2.85.32-3.75,1.34c-3.12,3.53-6.05,7.24-9.09,10.85a25.71,25.71,0,0,1-2.2,2.1l-.71-.35c0-3,.05-6,0-8.95-.11-5.14.34-10.4-.61-15.39-1-5.45-3.21-10.72-5.24-15.92-2.38-6.09-5.21-12-7.7-18a13,13,0,0,1-.92-4.7c-.09-6.62-.17-13.25,0-19.87a36.45,36.45,0,0,1,1.4-9.78c1.22-3.84,4.87-5.28,8.34-6.77,9.29-4,22.79,3.7,27.21,10.48,3.55,5.45,7.58,10.55,13.22,14a21.68,21.68,0,0,0,4.58,1.9c2.06.68,4.17,1.22,6.25,1.82.06.2.11.4.17.61-1.59,1-3.24,2-4.74,3.1-2.19,1.66-4.33,3.4-6.37,5.23-1.75,1.57-2,3.66-1.55,5.88q1.85,8.37,3.68,16.73a13,13,0,0,1,.12,1.52c-2.24.12-4.43.33-6.6.25-.52,0-1.21-.93-1.47-1.58-2.45-6.06-4.8-12.17-7.23-18.23-.59-1.48-1.46-2.84-2.07-4.3a2.49,2.49,0,0,0-3.39-1.63l0,.06a.88.88,0,0,0,0,.15q-.09,6.32-.19,12.63l-.87,0c-2.17-1.94-1.5-4.47-1-6.81a51.69,51.69,0,0,1,2-5.87v-.16l0,0c1-2.84,2.24-5.64,3-8.56.73-2.74-.25-3.94-3-3.55A52.58,52.58,0,0,0,321,266.2c-.55.17-1,.51-1.59.68-4,1.27-5.19.59-5.88-3.47-.32-1.88-.48-3.79-.68-5.68-.31-2.84-2.05-3.82-4.39-2.34a23.35,23.35,0,0,0-7.51,7.74c-1.94,3.17-1.91,6.71-1.13,10,1.13,4.81,2.86,9.48,4.41,14.19,1.88,5.68,6.41,8.66,11.35,11.42,8.12,4.54,17,6.44,26,8.2a108.21,108.21,0,0,0,12.94,2.18c3.66.26,6.31-2.29,9.28-4.95a26.1,26.1,0,0,1-2.59-.52c-3.38-1.09-5.46-3.36-5.72-6.95a54.42,54.42,0,0,1,2-20.29c.84-2.67,3.26-4.88,5.09-7.2,1.08-1.37,2.49-2.47,3.63-3.8,1.57-1.87,3.27-1.57,5.09-.54,1.65.92,3.28,1.87,4.94,2.76a6.47,6.47,0,0,0,1.34.38l.31-.58c-.88-.58-1.72-1.24-2.65-1.74-2.88-1.54-4.8-3.59-4.79-7.16,0-2.78-.43-5.55-.7-8.65C372.64,250.89,375.19,251.68,377.67,252.66Zm13.11-78.86c.27,1.66.45,3.18.78,4.67a2.9,2.9,0,0,0,.89,1.67c3.08,2.22,3,5.39,2.46,8.53-.62,3.6-1.58,7.15-2.49,10.69a9.51,9.51,0,0,1-1.16,2.14l-.48-.18Zm-77,61.91-.5-.61c4.64-9.41,8.73-19,10.6-29.46l.56.08a14.37,14.37,0,0,1,1.11,1.72c1.81,3.84,5.09,5.72,9,6.68,1.85.45,2.65,1.32,2.23,3.21-.68,3.07-1.23,6.18-2.07,9.2a4.1,4.1,0,0,1-2,2.56C326.4,231.41,320.06,233.53,313.75,235.71Zm40.11,26.82c-3.78-3.86-7.28-8-11.33-11.43s-8.61-6.16-12.93-9.23c-1.36-1-2.7-2-4-3.05-1-.85-1.28-1.72.08-2.62,1.57-1,3-2.32,4.58-3.29s3.42-.66,5.06.16c9.19,4.61,18.38,9.22,27.52,13.91a2.24,2.24,0,0,1,1,1.88C361.91,255.57,359.22,259.12,353.86,262.53Zm13-21.24a14.54,14.54,0,0,1-.87,2.47c-.92,2.76-1.34,2.85-3.79,1.62-9.63-4.8-19.3-9.51-29-14.26a4.82,4.82,0,0,1-.73-.68c3.66-1.11,3.43-4.32,4.15-6.85s1-5.32,1.62-8.59c1,.93,1.85,1.46,2.26,2.24C345.21,226,352.91,230.91,362,234c.62.21,1.2.53,1.79.79,1.12.48,3,.75,3.19,1.49C367.41,237.84,367.05,239.63,366.85,241.29Zm-27.58-27.9.35-.43a71.07,71.07,0,0,1,8.14,1.46c2.19.63,4.11,1,5.76-.83.35.26.62.35.69.52.51,1.16,1,2.34,1.46,3.52-1.17.21-2.43.81-3.49.56-3.9-.93-7.74-2.09-11.56-3.29C340.07,214.73,339.72,213.91,339.27,213.39Zm3.17-24.06a14.37,14.37,0,0,1,1.8-3.11c3.71-3.79,8.53-5.77,13.23-8,5.28-2.46,10.51-5,15.62-7.83,3-1.62,3.56-2.93,4.24-5.64,1.18.92,2.65,2.1,4.16,3.24a16.73,16.73,0,0,0,1.84,1.16,7.73,7.73,0,0,1,4,5.3c2.13,8.27,1.58,16.58,1.57,25,0,10.38-4.62,19-8.95,27.83a2,2,0,0,0-.11.2c-1.23,5.84-5.89,7.09-10.77,8a1,1,0,0,1-.51-.05c-6.55-2.93-13.76-4.62-19.34-9.36-2.91-2.48-5.13-5.76-7.67-8.67l.59-.77c2.2.64,4.37,1.38,6.6,1.9a26.66,26.66,0,0,0,5.8.86c2.06,0,2.67-1,2.05-3.08a7,7,0,0,0-1.53-3c-.53-.5-1.77-.41-2.66-.32s-1.66.87-2.36.73c-5.21-1.07-10.41-2.26-15.58-3.51-.77-.18-1.41-.87-2.61-1.66a27.61,27.61,0,0,1,2.79-.87c3.18-.56,4.95-2.69,6-5.48a24.56,24.56,0,0,0,.85-13.67ZM322,186.75c.08-1.8,1.87-2.81,3.87-2.95l1.73,12.5c3.62.28,5.44-1.45,5-4.83-.34-2.91-.84-5.81-1.25-8.71a13.26,13.26,0,0,1,0-1.59c.55.37,1.06.52,1.16.81a116.75,116.75,0,0,1,3.89,11.49,12.81,12.81,0,0,1-.27,6.47c-1.43,4.75-5.52,5.76-9.26,2.55-1.33-1.14-2.62-2.31-3.92-3.49-.26-.24-.65-.56-.66-.85C322.12,194.35,321.8,190.54,322,186.75Z"/><path class="cls-1" d="M328.58,276.23l0,0,0,0s0,.08,0,.12v0a.88.88,0,0,1,0-.15l0-.06h0Z"/><path class="cls-1" d="M189.93,311.59c-5.62,3.35-11.12,6.91-16.67,10.37-4.1,2.55-8.35,4.75-13.18,5.61-4.46.8-8.92,1.6-13.35,2.51a6.24,6.24,0,0,1-5.95-1.95c-2-2.31-3.91-4.66-6.05-6.8-4.86-4.87-7.94-10.43-7.4-17.55.22-2.93.27-5.88.69-8.78,1.18-8.07,3-15.93,8.5-22.35,2.91-3.39,5.79-6.79,10.08-8.54,5-2.06,10.25-1.36,15.45-1.12.22,0,.42.32.7.54-.58,1-1.13,2-1.64,2.89-2.7,5-5.47,10-5.83,15.85a3.79,3.79,0,0,1-1,2.07c-2.67,2.87-6.25,4.14-9.85,5.36-.79.27-1.54.66-2.3,1,.09.25.18.49.28.74,3.21-.9,6.44-1.73,9.63-2.71s5.8-1.65,8.6,1.27A20.07,20.07,0,0,0,174,296.2c3.91.25,7.83,1.78,11.76.19,1.7-.69,3.34-1.55,5.49-2.56-.79,2.91-1.33,5.48-2.23,7.91a6.2,6.2,0,0,1-2.41,3.17c-5.57,3-11.27,5.77-16.9,8.68a7.27,7.27,0,0,0-1.52,1.47c.59.43,1.19,1.23,1.78,1.22a21.62,21.62,0,0,0,6.08-.67c4.57-1.49,9-3.46,13.55-5a25.69,25.69,0,0,0,15-13.08,9.14,9.14,0,0,0,1-4.19c0-3.45-.38-6.89-.63-10.34-.07-.88-.29-1.76-.44-2.67-.47.15-.69.16-.72.25-.21.54-.36,1.1-.54,1.64-1.1,3.41-2.9,5.93-6.89,6.37-2.61.29-5.13,1.23-7.73,1.67-4.48.76-9,1.44-13.5,2a4.37,4.37,0,0,1-3.05-.81c-4.07-3.45-6.81-7.73-7.14-13.22-.38-6-.62-12-1-18.05-.32-5.06-.22-10,3.1-14.25a19,19,0,0,0,4.06-9.75c.33-2.85,2.38-4.42,5.51-4.66,6-.47,12-.85,18.05-1.24a5.34,5.34,0,0,1,1.73.22,13,13,0,0,0,9-.88,9.27,9.27,0,0,0-2.19-.66c-1.61,0-3.23.09-4.85.21-3.42.26-5.25-1-6.05-4.36a71.52,71.52,0,0,1-1.33-21.93,6.22,6.22,0,0,1,4.52-5.92c4-1.18,6.64,1,7.25,5.8,1,7.65,1.8,15.32,2.85,23a14.55,14.55,0,0,0,1.78,4.61,50.14,50.14,0,0,0,3,4.56c2.47,3.63,3.83,7.53,3.08,12-.3,1.79-.86,2.11-2.24,1.3a104.68,104.68,0,0,0-10.23-5.7c-3.84-1.67-8-2.72-12.09-.6-.5.26-.84.85-1.26,1.29.51.34,1,.71,1.53,1a1.43,1.43,0,0,0,.66.08,46.49,46.49,0,0,1,17.36,4.28c2.45,1.09,4.25,2.51,4.3,5.44a13.06,13.06,0,0,0,.37,1.71c.85,5.42.38,6-5,5.43-6.21-.61-12.47-.75-18.72-1-.62,0-1.26.67-1.9,1,.56.51,1,1.31,1.7,1.48a19.94,19.94,0,0,0,4.36.55c3.75.1,7.51,0,11.26.14a8.26,8.26,0,0,1,3.2.63,2.38,2.38,0,0,1,1.26,1.77,31.77,31.77,0,0,1-1.16,6c-1,3.34-2.3,4.15-5.77,4.15-5.15,0-10.3,0-15.45,0a18,18,0,0,0-2.7.53c.79.68,1.1,1.17,1.5,1.26a19.83,19.83,0,0,0,4.53.83c3.3,0,6.61-.16,9.9-.47,5.6-.52,8.32,1,10.49,6.12.59,1.4,1,2.86,1.56,4.29l.6-.29c-.28-4.9-3.27-8.29-6.27-10.95a58.18,58.18,0,0,0,3.37-7.19c.78-2.41,1.6-5-.54-7.46.57-.1.85-.18,1.14-.2,3.59-.18,4.54-1.29,4.09-4.86-.05-.43-.24-.85-.27-1.29-.17-2.5-2.35-5.22.84-7.38a2.08,2.08,0,0,0,.66-1.59c-.11-2.61.12-5.36-.65-7.78s-2.61-4.81-4-7.2c-1-1.82-2.62-3.54-3-5.49-.83-4.47-.92-9.06-1.57-13.57-.69-4.71-1.52-9.4-2.6-14a4.68,4.68,0,0,0-4.64-3.62c-4.86-.29-8.25,2.89-8.5,8.52-.36,8.5-.35,17,3.31,25.27-.84.08-1.53.16-2.23.19-4.34.22-8.68.36-13,.67-5.35.38-7.38,2.56-8.13,7.88a11.12,11.12,0,0,1-2,5c-3.38,4.51-5.38,9.34-4.7,15.08a28.83,28.83,0,0,1,0,3.35c-1.73,0-3.2-.08-4.66,0-3.43.23-7,.06-10.25.93-7.25,1.94-11.66,7.62-15.3,13.62-5.29,8.69-6.32,18.6-6.65,28.54a20.05,20.05,0,0,0,4.79,14,143.16,143.16,0,0,0,9.94,10.93,7.25,7.25,0,0,0,5.21,1.42c4.43-.5,8.8-1.51,13.19-2.36,2.14-.42,4.53-.48,6.35-1.51,6.77-3.79,13.34-7.93,20-11.9,2.05-1.22,4.2-2.28,6.3-3.41l.58.78a14,14,0,0,1-1.4,2,94.66,94.66,0,0,1-18.66,14.34,25.39,25.39,0,0,1-14.19,4,38.74,38.74,0,0,1-5-.94c1.05,2.7,0,5.3,1.32,7.46l.76-.1c-.12-1.86-.23-3.72-.35-5.66a6.73,6.73,0,0,1,1.63,0c3.75,1.09,7.21-.19,10.7-1.24,4.91-1.47,9.06-4.37,13-7.44,4.2-3.24,8.17-6.79,12.08-10.37.72-.67.69-2.15,1-3.25C192.23,311.42,190.82,311.06,189.93,311.59Zm1-68.88c2.45-1.89,10.32,0,15.34,3.74Zm-27.84,23.36c.23,3.85.52,7.69.69,11.54.27,6,3.05,10.75,7.44,14.51a7.24,7.24,0,0,0,5.08,1.24c5.23-.65,10.41-1.67,15.59-2.64a36,36,0,0,0,7.84-1.92c1.67-.72,2.85-2.53,4.78-4.35,0,3.63.68,7.1-.15,10.15a19.31,19.31,0,0,1-11.21,13.15c-6.77,2.86-13.8,5.1-20.73,7.55a2.45,2.45,0,0,1-2.12-.46c3.61-1.81,7.24-3.58,10.83-5.43,1.88-1,3.71-2,5.55-3.09a7.66,7.66,0,0,0,3.82-5.05c.69-3,1.42-6.06,2.13-9.09l-.6-.36a16.41,16.41,0,0,0-1.8,1c-3.08,2.17-6.39,3.56-10.26,3-3.34-.47-6.86-.45-10-1.56a33.27,33.27,0,0,1-9-5.24c-2.19-1.71-3.94-3.69-7.15-2.34a4.28,4.28,0,0,1,.62-1,6.4,6.4,0,0,0,2.08-4.61c.25-4.38,2.37-8.17,4.36-12A11,11,0,0,1,163.12,266.07Z"/><path class="cls-1" d="M223.29,237A35,35,0,0,0,220,232.5c-1.16-1.22-2.75-1.81-4.33-.59s-1,2.81-.44,4.21c.88,2.07,2.09,4,2.95,6.07,1.61,3.88,3.76,7.7,4.45,11.76,1.11,6.56-.2,13.17-1.54,19.68q-1.2,5.89-2.39,11.79l.74.31a7.71,7.71,0,0,0,.7-1.56c1-5.32,2-10.66,3.06-16,1.62-8.19,1.51-16.14-2.63-23.72a102.29,102.29,0,0,1-4.39-9.44c-.26-.63,0-2,.41-2.24a2.77,2.77,0,0,1,2.36.36,9.24,9.24,0,0,1,2.36,2.54c5.39,8.19,10.67,16.46,16.13,24.61,2.19,3.27,4.77,6.28,7.17,9.41l.51-.36c-.18-.31-.33-.62-.53-.91Q233.92,252.74,223.29,237Z"/><path class="cls-1" d="M197.68,310.59c4.45-5.77,11.13-9.81,13.48-17.14l-.57-.36a39.31,39.31,0,0,1-3.46,5.39c-3.37,3.78-7,7.32-10.45,11a8.17,8.17,0,0,0-1,2.23A6.24,6.24,0,0,0,198,312c7.6-2.39,13.82-6.69,17.93-13.65a36.44,36.44,0,0,0,2.06-5l-.64-.29A28.78,28.78,0,0,1,197.68,310.59Z"/><path class="cls-1" d="M538.33,390.14a2.12,2.12,0,0,1,1.16-1.33c3.09-1.43,6.22-2.75,9.31-4.15a28.53,28.53,0,0,0,2.53-1.41l-.27-.63a9.14,9.14,0,0,0-1.36.38c-3.39,1.48-6.75,3-10.16,4.48-2.32,1-2.83,2.4-2.27,4.89.35,1.58,0,3.32.06,5a4.63,4.63,0,0,0,.34,2.23c.2.33,1.18.17,1.63.22a11.31,11.31,0,0,1-1.22-3.09A48.12,48.12,0,0,1,538.33,390.14Z"/><path class="cls-1" d="M561,377.92l-7.53,3.57c.14.28.27.56.4.84l7.57-3.42Z"/><path class="cls-1" d="M156.69,348.11c-.32-2.27-.61-4.36-.9-6.45l-.58.07C154.46,343.92,155.09,347.53,156.69,348.11Z"/><path class="cls-1" d="M544.69,391.27h7.53v-.57h-7.53C544.68,390.89,544.69,391.08,544.69,391.27Z"/><path class="cls-1" d="M375.1,150.17l4.6,2.76C378.66,150.2,376.47,149.08,375.1,150.17Z"/><path class="cls-1" d="M375.8,147.79l4.24,3C380.12,149,378.51,147.76,375.8,147.79Z"/><path class="cls-1" d="M459.74,337.59l.86.11c.27-1.66.55-3.33.83-5l-1-.13Z"/><path class="cls-1" d="M328.59,276.18h0c1-2.86,2.21-5.65,3-8.56C330.83,270.54,329.62,273.34,328.59,276.18Z"/><path class="cls-1" d="M328.59,276.18l0,0,0,0Z"/><path class="cls-1" d="M428.29,328v0h0Z"/><path class="cls-1" d="M423.79,326l4.5,2,0,0Z"/><path class="cls-1" d="M326.5,282.23a48.14,48.14,0,0,1,2-5.84v0A51.69,51.69,0,0,0,326.5,282.23Z"/><path class="cls-1" d="M328.54,276.2v.16s0-.08,0-.12Z"/><path class="cls-1" d="M428.33,328h.27l-.26,0Z"/><path class="cls-1" d="M428.6,328a3.47,3.47,0,0,1,1.45.29,3.26,3.26,0,0,0-1.39-.29Z"/><path class="cls-1" d="M428.33,328h0Z"/><path class="cls-1" d="M379.94,283.83c.38-.12.88-.72.83-1a1.72,1.72,0,0,0-.9-1.24c-2.07-.57-4.18-1-6.27-1.46C374.19,281.87,378.82,284.2,379.94,283.83Z"/><rect class="cls-2" width="1279" height="94" transform="translate(1279 94) rotate(180)"/><path class="cls-1" d="M1245,413.77c-7.72,0-15.44,0-23.16-.12a3,3,0,0,1-2.2-1.6c-2.45-7.77-4.76-15.58-7.07-23.39a6,6,0,0,1,0-1.64l.72-.14c.63,2,1.29,4,1.89,6,1.78,6,3.56,12,5.28,18a2.16,2.16,0,0,0,2.35,1.74l22.21.14Z"/><path class="cls-1" d="M854,415.13a13.62,13.62,0,0,1,2.12,0c2,.32,2.36-.76,2.39-2.47.11-7.56.08-15.14.52-22.69.63-10.85,1.61-21.68,2.47-32.52.56-7.14,1.09-14.29,1.77-21.42.9-9.41,1.59-18.85,3-28.18.7-4.55,2.66-9,4.53-13.27,2.72-6.26,4.05-12.83,5.14-19.49.4-2.48.68-5,.92-7.49.21-2.09,1.73-3.06,3.26-4,3.2-2,6.41-3.87,9.64-5.77,1.37-.8,1.82-1.83.66-3-4.28-4.45-9.16-7.68-15.71-6.61a21.53,21.53,0,0,0-5.24,2c-4.46,2-7.23.71-8.4-4.05a15.29,15.29,0,0,1-.65-3.23,5.46,5.46,0,0,0-2.63-4.47c-.56-.42-1.18-.76-1.73-1.2-2.59-2.05-2.55-3.06.13-5,.47-.34.9-.75,2-1.64-2.21-.36-3.7-.7-5.2-.82s-2.32-.78-2-2.43a11.42,11.42,0,0,0,.19-1.65c.31-3.51.31-3.51-3.21-3.62-5.08-.16-6.64-3.28-4.26-8.58,1.08-2.43,2.07-4.93,3.36-7.25,2.57-4.6,1.7-9-.27-13.49-1.32-3-2.88-6-3.39-9.2-1.49-9.1,2.92-14.52,10.81-17.65,3.64-1.44,7.29-2.84,11-4,1.23-.38,3-.46,4,.19.76.53,1,2.43.78,3.6-.64,3.47.75,6.24,4.21,7.14,2.18.56,4.48.71,6.69,1.18,1.66.36,3.26.93,5,1.43.09-2.82-1.55-5.55-3.13-8.27-.83-1.42-1.81-2.75-2.73-4.11a6.43,6.43,0,0,0-5.71-3c-7.47,0-14.84.54-21.42,4.35-3.48,2-6.49,4.83-9.71,7.29a4.16,4.16,0,0,1-.93.72c-1.11.4-2.26.73-3.4,1.09-.33-1.56-.75-3.1-.93-4.67-.07-.53.42-1.17.75-1.69.9-1.38.31-2-1-2.73-.87-.47-2-1.43-2-2.17s1.15-1.63,1.94-2.29a39.49,39.49,0,0,1,3.38-2.24,13.19,13.19,0,0,1-3-1c-.89-.61-2.21-1.53-2.19-2.29a3.63,3.63,0,0,1,1.89-2.82c9.87-3,18.61-9,29-10.55,3.06-.46,6-1.64,9.06-2.32a27.17,27.17,0,0,1,4.43-.24c1-4.56,4.9-7.54,8.31-10.82,6.68-6.4,14.65-10.56,23.37-13.44,5.31-1.75,10.61-3.42,16.32-2.91-.16-1.06-.69-2.48-.35-2.73a10.21,10.21,0,0,1,4.28-2.1,65.33,65.33,0,0,1,9.89-.57c1.31,0,2.6.87,3.84,1.32-.23-2.55.21-3.27,3.06-3.73,5-.8,9.94-1.5,14.93-2.13a18.91,18.91,0,0,0,9.72-3.79,97.61,97.61,0,0,1,23.6-13.67c1.81-.75,4-.41,6.07-.72a17.53,17.53,0,0,0,2.92-1c-1.81-4.43-1.14-5.78,3.2-6.35,3.34-.45,6.79-1.08,10.06-.65,2.92.38,5.13-.48,7.66-1.46a74.87,74.87,0,0,1,35.7-4.27c3.87.42,7.65,1.67,11.47,2.56a1.75,1.75,0,0,1,1,.88c-17.71-4.69-35-4.1-51.7,3.51,3.56,4.09,7.23,7.8,10.3,12s5.6,8.8,8.36,13.22l-.7.53a10.15,10.15,0,0,1-1.36-1.67,80.13,80.13,0,0,0-12.29-18c-5.54-6-5.68-6-13.27-2.64-2,.89-4,1.66-6.5,2.67,2.24,2.75,4.35,5.21,6.31,7.79q5.32,7,10.47,14.08a6.08,6.08,0,0,1,.88,2.64c-4-5.31-8-10.64-12-15.92-1.56-2-3.27-4-4.93-6-1.82-2.17-3.73-2.48-5.55-.23-6.46,8-15.55,12.51-23.57,18.45-3.27,2.42-6.43,5-9.65,7.48-6,4.65-7.64,11.42-8.9,18.36-.55,3-1,6-1.3,9,3.36-6.8,9.71-10.48,15.15-15.06,4.5-3.8,8.81-7.75,12-12.81a29.74,29.74,0,0,1,2.41-3l.74.32c-.26,1.28-.42,2.59-.8,3.84-1.67,5.38-3.73,10.66-5,16.13a37,37,0,0,0-.72,11.16c.39,4.9,4.14,8,7.69,10.74,8.1,6.22,16.24,12.42,24.79,18,4.38,2.85,9.65,4.35,14.54,6.42,1.27.53,2.19.21,3.3-.86,1.7-1.67,3.9-2.83,5.79-4.33a2.61,2.61,0,0,0,1-1.91c-.63-4.83-1.28-9.67-2.19-14.45-1.28-6.79-2.76-13.54-4.21-20.3-.51-2.38-1.18-4.72-1.78-7.08l.74-.23c.55,1.77,1.21,3.5,1.62,5.3,1.39,6.12,2.8,12.24,4,18.4s2.07,12.09,3.13,18.12c.3,1.73-.23,2.68-2,3.39a35.44,35.44,0,0,0-5.22,3.29l19.74-3.76c-.33-18.14-2.72-36.41-8.38-54.21l.52-.26a4.71,4.71,0,0,1,.92,1.27,168.18,168.18,0,0,1,6.46,31.79c.59,6.42,1,12.87,1.36,19.31a2.3,2.3,0,0,0,1.9,2.47A19.46,19.46,0,0,1,1071,188.28c.17,7.09-.56,14.13-4.93,19.95-2.19,2.91-1.75,5.31-1,8.33,2.54,10.22,3.21,20.69,3.21,31.17,0,12.13.33,24.34-.93,36.36-2,19-9.37,35.67-24.17,48.45-.94.82-2.08,1.42-3,2.24a22.23,22.23,0,0,0-2.07,2.56,340.85,340.85,0,0,0,40.74,2.57v.66c-1.83,0-3.65.05-5.48,0-7.87-.23-15.76-.41-23.63-.79a68.7,68.7,0,0,1-9.58-1.19c-2.86-.55-2.4,1.81-3.05,3.14s-.33,2.21,1.18,3c6.14,3.07,12.21,6.29,18.27,9.52a41.58,41.58,0,0,1,3.76,2.55c4.57-3.83,6-10.33,11.1-14.33a7.13,7.13,0,0,1-.75,6.5c-2.48,4.5-4.93,9-7.42,13.5a2.06,2.06,0,0,1-1.19.87l9.39-18.21-1-.6c-.9,1.23-1.82,2.44-2.69,3.69-1.91,2.76-3.75,5.56-5.69,8.29a2.06,2.06,0,0,1-3.17.67c-4.9-2.91-9.87-5.69-14.86-8.44-2.4-1.32-4.9-2.46-7.72-3.86-2.57,7.64-5.36,15.14-7.62,22.8s-4,15.52-6.42,23.23a10.27,10.27,0,0,1,0-2.22c2.62-10.89,5.11-21.81,9.13-32.32,1.23-3.21,2-6.59,3.17-9.83.59-1.66.3-2.61-1.25-3.45-2.22-1.2-2.37-2.1-.95-4.05a8.52,8.52,0,0,1,1.33-1.64,22.23,22.23,0,0,0,7.43-12.37c1-4.08,2.88-7.93,4.14-12,.54-1.76.48-3.71.76-6.16-3.59,2.63-6.47,4.87-9.47,6.91-6.2,4.23-12.86,7.38-20.43,8.32-6.07.75-12.11,1.79-18.19,2.39a33.56,33.56,0,0,1-15.05-2c1.51-1.91,3-3.5,4.11-5.27a142.93,142.93,0,0,0,8.4-13.49c1.21-2.37,1.28-5.42,1.39-8.19a59,59,0,0,0-.64-7.8h-.67l-2,2.88-.63-.39,2.87-5,.67.24c2.27,7.74,3,15.42-1.83,22.62-2.87,4.27-6,8.35-9,12.52a9.25,9.25,0,0,0-.64,1.5c11.25,3,22.08.48,32.91-1.39,11.21-1.95,20-8.37,28.6-15.91a16.56,16.56,0,0,1-.66,10.19c-1.69,4.68-3.37,9.37-5.24,14.58a8.54,8.54,0,0,0,1.64-.9c3.22-3.32,6.39-6.69,9.6-10,2.13-2.22.83-4.5-.11-6.53a153.5,153.5,0,0,0-16.9-28.8,6.84,6.84,0,0,0-6-3.09q-9.87.71-19.71,1.71c-3.83.39-7.63,1.1-11.45,1.56s-7.45.06-9.51-3.81c-8.2,3.28-14.26.72-15.87-6.71-.34.23-.78.36-.9.62-1.27,2.91-2.46,5.85-3.75,8.74a1.87,1.87,0,0,0,.73,2.75c4.59,3.1,9.11,6.31,13.66,9.46.61.43,1.24.82,1.86,1.23l-.69.74-13.23-9.16-.49.58,4.12,3.73c2.91,2.65,3,3.59-.53,5.49a7,7,0,0,0-4.08,7.41c.14,2.09,0,4.2,0,6.3l-.81.06a11.47,11.47,0,0,1-.33-2.06,61.14,61.14,0,0,1,.56-8.25,5.79,5.79,0,0,1,2.43-3.08c4.65-3.28,4.76-2.84.58-6.39-.06-.05-.08-.15-.14-.19l-5-3.45c-1.41,2.52-4.05,4.45-3.65,7.83a21,21,0,0,1,.09,3.07c-.07,2,.42,3.52,3.32,3.24-4.34,3.27-4.17,8-4.36,13-1.44-2.84-.4-8.48,1.42-11.24-.48-1.63-.87-2.82-1.17-4-1.31-5.13.93-9.18,3.7-13.23.69-1,.73-3.47,0-4.28a51.85,51.85,0,0,0-8.44-7.57,10,10,0,0,0-8.75-1.54c-1.47.42-3.11.31-4.72.87,2.82.48,5.61,1.09,8.45,1.42,6.88.78,10.27,6.68,10.9,11.55.43,3.31-2.17,5.53-4.06,7.9-2.12,2.67-5,5-6.25,8-2,5-3,10.49-4.35,15.77a21,21,0,0,1-1.84,5.26c.19-1.62.26-3.26.58-4.85.69-3.38,1.67-6.71,2.24-10.11.92-5.62,4.12-9.85,7.89-13.8.59-.62,1.18-1.24,1.74-1.89,4.07-4.71,4.1-8.95-.39-13.42a12.5,12.5,0,0,0-6-3.22c-6.77-1.33-13.64-2.2-20.47-3.26-1.16-.19-2.31-.46-3.47-.7-4.8-1-8.83,1.28-13.62,3.15a68.62,68.62,0,0,0,5.39,4.7c1.66,1.16,2,2.19,1.14,4.09-3.07,6.38-6.18,12.76-8.88,19.31-3,7.2-5.66,14.54-8.2,21.92-2,5.76-3.59,11.65-5.3,17.51-3.58,12.22-6.54,24.57-7.61,37.31q-1.39,16.71-2.77,33.42c0,.22-.13.43-.63.76a8.84,8.84,0,0,1-.59-2.18c0-17.9-.29-35.8.06-53.69a102.28,102.28,0,0,1,5-28.93c4-12.68,7.66-25.47,11.52-38.2a100,100,0,0,0,3.71-21.78q.81-10.61,1.6-21.21c.05-.69,0-1.38,0-2.8-6.68,6.39-11.53,14.23-21.53,16.09l3.68,4.31c.8-1.41,1.18-2.07,1.74-3.07,4.49,4.55,9.38,8.46,11.5,14.7-5.11-1.73-8-6.24-12.35-9.53-1,3.05-2.07,6-3,9-.56,1.71-1.16,3.3-.74,5.3.37,1.75-.36,3.72-.55,5.6-.93,9.71-2.06,19.42-2.69,29.16-.32,4.77.58,9.61.42,14.4-.34,10-1.27,19.95-1.51,29.94-.38,16.63-.42,33.27-.6,49.9,0,1.31,0,2.63,0,4.36-3.51-.26-6.71-.41-9.87-.83-.52-.07-1.17-1.35-1.26-2.12-.79-6.81-1.87-13.61-2.08-20.44q-.54-17.35-.07-34.73c.12-4.67,1.64-9.28,2.22-14,1.22-9.76,2.23-19.55,3.33-29.32.82-7.2,1.49-14.41,2.51-21.58.6-4.16,2.21-8.2,2.58-12.36s-.21-8.45-.44-12.67a5.51,5.51,0,0,0-1.16-3,11.59,11.59,0,0,0-1.54,3c-1.21,6.4-2,12.89-3.51,19.22a65.23,65.23,0,0,1-4.31,11.59c-2.48,5.47-3.4,11.27-4,17.12-1.53,15.76-3.15,31.51-4.22,47.3-1.13,16.58-1.71,33.2-2.4,49.8-.09,2.24-.66,2.95-2.95,2.95m174.94-240.19c-.45-.27-.63-.42-.84-.51-5.67-2.56-11.76-4.47-16.93-7.81-8.31-5.37-16.06-11.6-23.94-17.61-5.86-4.47-8.92-10.31-7.4-17.83.91-4.52,2.12-9,3.32-13.42.63-2.33,1.51-4.58,2.27-6.86a5.46,5.46,0,0,0-2,1.78c-4.4,6.14-10.47,10.51-16.25,15.17-4.46,3.58-8.49,7.49-9.78,13.34-.79,3.6-1.36,7.24-2,10.88-1.51,9.24-1.11,18.26,2.71,27a15.58,15.58,0,0,1,1.43,7.66c-.34,2.85-2,5.54-3,8.3-2.49,6.39-5.07,12.75-7.46,19.19-1.49,4-.7,5.76,3.06,7.6a52.77,52.77,0,0,0,5.36,2.31c5.53,2,5.6,1.92,5.18,7.6-.17,2.28.53,3.78,2.77,4.53s4.4,1.6,6.59,2.42c3.34,1.25,3.77,3,1.34,5.54-.27.27-.52.57-.78.86-3.16,3.53-2.62,6.46,1.59,8.58a10.55,10.55,0,0,0,1.76.64c2.59.76,4.25,2.35,4.44,5.13a2.6,2.6,0,0,0,2.62,2.74,6.9,6.9,0,0,1,6,4.53,2.55,2.55,0,0,0,3,1.58c3.12-.35,6.24-.63,9.37-.89a59.16,59.16,0,0,0,17.94-4.47c10.76-4.51,17.24-12.54,17.85-24.22.47-8.85-.34-17.77-.63-26.65a2,2,0,0,0-.69-1.41c-7.44-5.14-9.16-13.16-10.49-21.24C1027.17,185.1,1028.64,180.28,1031.54,175.74ZM957,272.9a25.79,25.79,0,0,1,3.26-3.15,42.25,42.25,0,0,1,4.23-2c3.38-1.73,5.6-4.16,5.28-8.33-.21-2.75-.06-5.52-.14-8.28A17.39,17.39,0,0,0,962,236.69c-3.23,4.18-6.47,8.27-9.56,12.46a4.27,4.27,0,0,0-.69,3c.86,3.95-.22,7.5-3.93,9.07a17.31,17.31,0,0,1-8,.95c-2.51-.23-3.81-4.15-2.69-7.77,1.25-4.1,6.38-8.94,11.31-7.22.65.22,1.91-.45,2.49-1.08a66.24,66.24,0,0,0,4.72-5.82c2.21-3,4.31-6.07,6.44-9.09l1.79,1.22c1.6-3.89,1.22-4.69-2.36-6a54.84,54.84,0,0,1-7-2.78c-3.74-1.94-5.84-3.82-3.94-8.58,2.8-7,5.47-14.1,8.32-21.1,1.87-4.57,3.37-8.92,1-14a35.87,35.87,0,0,1-3.64-14.52,3.92,3.92,0,0,0-.52-1.27,45.86,45.86,0,0,1-4.29-25.65c1.46-10.88,5.79-20.77,12-29.82,1.62-2.37,3.41-4.63,5.49-7.45-7,1.18-13.41,2.23-19.83,3.35-2.51.43-2.64.79-1.43,3,2.26,4.1,4.53,8.19,6.71,12.33a7.63,7.63,0,0,1,.36,2.39l-.71.25a11.68,11.68,0,0,1-1.79-2c-1.37-2.55-2.59-5.18-3.91-7.76-1.94-3.78-4.39-6.74-9.31-6-2.41.38-4.87.4-7.28.77a19.45,19.45,0,0,0-3.51,1.28l2.62,2.86c6.59,7.14,14.18,13.55,17,23.41l1.39,4.75-.8.55c-.58-.43-1.36-.74-1.71-1.31-2.32-3.88-4.39-7.92-6.86-11.7-3-4.56-6.16-9-9.44-13.33-1.74-2.31-4.33-2.65-7.06-2-3.19.81-6.43,1.47-9.57,2.47-7.19,2.29-14.28,5-20.08,10a129,129,0,0,0-11.15,11c-2.09,2.31-1.47,4.32,1.07,6.06.89.61,1.63,1.45,2.53,2A21.29,21.29,0,0,0,890,145.9c1.23.47,2.23.25,2.44-1.49a66.64,66.64,0,0,1,1.38-7.41c.8-3.37.67-7.36,4.2-9.28a52.91,52.91,0,0,1,10.3-4.34c3.81-1.14,7.85-1.5,11.74-2.4,4.78-1.12,9.19-.27,12.79,2.89a57.07,57.07,0,0,1,16.77,25.5c3.21,9.88,5.67,20,8.39,30a39.57,39.57,0,0,1,.71,4.76,4,4,0,0,1-1.83-1.74,46.14,46.14,0,0,0-10.69-13.24c-2.34-1.91-5.35-3.1-7.46-5.21-5.36-5.39-6.66-12.17-5.6-19.51a40,40,0,0,0,.57-4.2c.07-2.06-1-3.12-3.11-2.72a49.48,49.48,0,0,0-6.41,1.55c-10.17,3.44-20.31,7-31.48,8.35-1.36,10.27-2.55,20.57-4.16,30.81-.64,4.05.12,7.07,3.26,9.8,4.11,3.57,4.44,5.2,2.18,10-3.52,7.55-5.65,15.55-7.87,23.52a5.44,5.44,0,0,0,2.61,6.27,10.59,10.59,0,0,0,7.54,1,34.48,34.48,0,0,1,4.42-.71c1.37-.17,2.07.53,2.1,1.9,0,.71,0,1.42,0,2.13-.06,2,.73,2.57,2.76,2.24a54,54,0,0,1,8.69-.75c2.79,0,3.88,2.12,2.49,4.58A18.4,18.4,0,0,1,914,242c-1.37,1.42-1.22,2.7-.18,4.17,2,2.86,3.93,5.81,6,8.63,1.75,2.38,1.83,4.94,1.21,7.62-.88,3.85.06,5.55,3.79,6.74A62.91,62.91,0,0,0,944.6,272C949,271.93,953.55,270.85,957,272.9Zm82.79,60,.72.69c2.86-2.76,6-5.31,8.54-8.3,11.38-13.1,16.43-28.79,17.81-45.77.61-7.45.71-15,.67-22.44-.08-14.4-.41-28.8-4.1-42.88-.47-1.81-1-1.57-2.58-1.27a72.72,72.72,0,0,1-12.44,1.56c-2.17,0-2.38.36-2.39,2.34,0,6.53-.3,13.06-.61,19.58a17.61,17.61,0,0,1-1.18,4c-.57-.31-.68-.48-.64-.6,2-7.92,1.39-16,1.25-24a2.46,2.46,0,0,0-.91-1.8,18.55,18.55,0,0,0-3.37-1.2c0,1,0,1.81,0,2.59q.38,9.69.77,19.36c.55,13.28-6,23.44-16.25,28.66-9.53,4.85-19.9,5.95-30.32,6.84a3.54,3.54,0,0,1-4-2.38,5.9,5.9,0,0,0-7.15-3.65l4.27,14a13.39,13.39,0,0,0,2-2.21c1.4-3,4.08-3.34,6.87-3.5a79.59,79.59,0,0,0,26.93-6.13c8-3.41,14.3-8.51,17.27-17,.59-1.7,1.3-3.35,2-5,.51.39.62.68.63,1a4.16,4.16,0,0,1-.13,1.17,31.46,31.46,0,0,1-17.22,19.92,81.05,81.05,0,0,1-29.07,7.16c-2.94.21-5,.89-6.84,3.37-1.47,2-1.31,3.11.49,4.32a5.26,5.26,0,0,0,2.7,1.15c4.31-.17,8.63-.45,12.92-.9,7.1-.73,14.17-1.78,21.28-2.38a8.92,8.92,0,0,1,8.09,3.9,152.43,152.43,0,0,1,17.58,30.33,5.27,5.27,0,0,1-1.1,6.42c-3.69,3.72-7.28,7.55-10.89,11.35C1040.74,331.64,1040.29,332.28,1039.79,332.88Zm-156.17-106c-3,1.52-5.81,2.86-8.51,4.38a3.16,3.16,0,0,0-1.45,2.11c-.22,2.73-2,3.77-4.25,4.29a17.52,17.52,0,0,1-3.76.39c-1.48,0-3.1.07-3.77-1.71-1.24-3.33-.88-5.59,1-7.07a8.23,8.23,0,0,1,8.3-.92,4.41,4.41,0,0,0,4.28-.46,72.35,72.35,0,0,0,6.21-4.17,4.73,4.73,0,0,0,1.48-2.69c.74-3.86,1.23-7.76,1.94-11.63.87-4.71,2-9.37,2.73-14.1a15.86,15.86,0,0,0-.77-5.73c-.43-1.76-1.41-3.4-1.77-5.17a44.16,44.16,0,0,1-.7-6.8,2.23,2.23,0,0,0-2.31-2.39c-2.19-.27-4.48-.27-6.51-1a20.46,20.46,0,0,1-6-3.38c-1.93-1.56-1-3.94-.87-6,.08-2.37-.41-2.9-2.58-2.13-5.08,1.82-10.16,3.65-15.09,5.83-5.48,2.42-8.57,9.94-6.7,15.27,1.21,3.46,2.44,6.92,3.84,10.3a13.87,13.87,0,0,1-.11,11.81,112.56,112.56,0,0,0-4.45,10.78c-.83,2.37.23,3.71,2.71,4.15a18.9,18.9,0,0,0,2.11.23c3.59.17,4.13.83,3.58,4.44-.52,3.45-.52,3.37,3.12,3.7a12.3,12.3,0,0,1,3.1,1.19,12.55,12.55,0,0,1-1.78,2.74c-1.79,1.6-1.93,2.14.19,3.38,3.3,1.93,4.69,4.69,5,8.47.32,4.44,2.5,5.72,6.66,4.39a17.32,17.32,0,0,0,1.93-.84,14.68,14.68,0,0,1,14.18.28,19.69,19.69,0,0,1,7.94,7c4-2.46,6.38-5.77,6.32-10.46,0-2.82,0-5.64-.18-8.45-.26-4.26-.56-4.27-4.61-5.07S885.87,230.91,883.62,226.9Zm-.53,53.47c.11-.34.11-.43.16-.48s.24-.28.34-.27c3.66.54,5-1.52,5.48-4.72a14.18,14.18,0,0,1,.8-2.2c1.84-5.63,1.83-5.63-2.49-9.75-.11-.11-.16-.37-.25-.38-.63-.05-1.45-.32-1.86,0-2.45,1.78-4.2,3.66-3.49,7.33.94,4.81,1.58,9.81-.91,14.52a6.43,6.43,0,0,0-.57,2.28c-1.25,11-2.46,22.05-3.72,33.07-.86,7.5-1.72,15-2.68,22.49-.91,7.09-2.38,14.14-2.84,21.26-1,15.93.7,31.78,2.19,47.63.22,2.34,1,3.65,3.62,3.36a12.29,12.29,0,0,1,2.82.22c3.06.36,3.1.34,3.11-2.66,0-10.64,0-21.28.15-31.92.17-10.79.21-21.6,1-32.35a195,195,0,0,0,.59-24.53c-.7-13.22,1.86-26.2,3.06-39.28.13-1.39,0-2-1.44-2.34A17.43,17.43,0,0,1,883.09,280.37Zm27.52-36.8a12.38,12.38,0,0,1,.15,1.67q-.84,10.48-1.7,21c-.27,3.38-.47,6.76-.8,10.13-.87,8.79-3.71,17.12-6.2,25.53q-4.15,14.06-8.46,28.07c-2.55,8.29-4.49,16.72-4.77,25.39-.42,12.76-.52,25.52-.75,38.28,0,2.57,0,5.14,0,7.71h.71c.74-8.2,1.59-16.38,2.2-24.59.7-9.46,2.93-18.6,5.44-27.69,1.67-6,3.27-12.1,5.18-18.06,2.4-7.52,4.78-15.08,7.73-22.38,3.3-8.18,7.15-16.14,11-24.1.89-1.87.45-2.78-1-3.88-2.07-1.59-4-3.33-6.5-5.4l12.09-4.58a2.69,2.69,0,0,0-.79-.61c-4.09-1.26-4.8-4.23-4.13-7.95a4.2,4.2,0,0,0,.13-1.64c-.4-1.78-.57-3.72-1.44-5.26-1.74-3-3.86-5.86-5.85-8.76-1.33-2-.87-3.68.55-5.35a20.84,20.84,0,0,0,2.28-3c1.32-2.36.74-3.37-2-3.31-2.59,0-5.18.38-7.77.57-3.53.27-4.22-.36-4.31-3.84,0-.75-.08-1.49-.14-2.38l-7.86.9a2.15,2.15,0,0,0,1.65,1c2.47.11,4.19,1.34,4.32,3.77a116.27,116.27,0,0,1,.06,13.59c-.2,3.09-2.1,5.43-4.79,7.15a52.09,52.09,0,0,0-4.73,3.83C899.58,257.73,903.37,248.83,910.61,243.57Zm45.84-64.27.58-.37c-1.92-7-4-14-5.71-21.05A71.76,71.76,0,0,0,937,129.28c-3.49-4.35-7.5-7.92-13.81-7.55a66.37,66.37,0,0,0-20.57,4.64c-2.54,1-5.51,2.1-6.32,5.16C895,136.2,894.14,141,893,146a14.18,14.18,0,0,0,3,0q10-2.55,19.94-5.22c4.6-1.23,9.12-2.85,13.78-3.75,4.33-.84,5.71.9,5,5.32a5.58,5.58,0,0,0-.16.68c-.14,3-.67,6-.3,8.87.7,5.57,2.67,10.64,8.06,13.5,4.9,2.6,8.55,6.5,11.78,10.88C954.84,177.27,955.66,178.27,956.45,179.3Zm-69.66-4.65.64,0c.52-4.28,1-8.57,1.55-12.85s1.21-8.48,1.84-12.89c-3.74,0-6.06-1.87-8-4.37-1.06-1.36-2.18-2.67-3.29-4a2.51,2.51,0,0,0-3-1,117.36,117.36,0,0,1-13,3.34c-9.09,1.61-16.62,7.22-25.39,9.61-.65.18-1.07,1.19-1.6,1.81a19,19,0,0,0,2.13,1.55c1,.56,2.11,1,3.82,1.73l-6.37,4.74a9.87,9.87,0,0,0,2.57,1.55c2.29.47,2.09,1.52,1.13,3.15a5.49,5.49,0,0,0-.2,5.78,37.34,37.34,0,0,0,3.47-2.32c4.95-4.19,9.75-8.7,16.47-9.79a121,121,0,0,1,14.93-1.63,7.33,7.33,0,0,1,5.31,2.31C882.93,165.32,886.13,169.34,886.79,174.65Zm158,38.14c.26-1,.53-1.95.69-2.87,1.29-7.47.57-6.75,7.76-7.67,2.6-.33,5-1.27,6.27-3.92,3-6.28,2.29-12.62.31-19-.22-.69-1.15-1.25-1.85-1.69-3.5-2.22-12.64-1.24-16.16,1.55-4.06,3.2-4.37,7.51-3.85,12.13.63,5.55,1.29,11.09,1.83,16.65C1040.21,211.74,1040.65,212.27,1044.84,212.79Zm-89-51.13c.19-1.11.3-1.71.38-2.3,1.42-10.66,2.71-21.35,4.31-32,.72-4.78,1.54-9.81,5.15-13.37a130.62,130.62,0,0,1,12.59-10.78c6.5-5,13.26-9.57,19.88-14.37a16.53,16.53,0,0,0,2.1-2.16,1.66,1.66,0,0,0-1.41-.13c-5.84,2.82-11.75,5.49-17.47,8.53-4.14,2.21-8.7,3.73-11.93,7.56-9.69,11.48-16.17,24.35-17.2,39.51A39.58,39.58,0,0,0,955.86,161.66Zm103.44,15.22c-.49-3.32-2.43-5.15-5.42-5.36-5.59-.4-10.84,1.1-16.17,2.53-4.49,1.2-7.18,3.78-8.06,8.27a22,22,0,0,0-.51,4.43c0,8.12,1.83,15.67,7.52,21.86a17.27,17.27,0,0,0,2.56,1.79c-.41-3.29-.83-5.84-1-8.41-.44-5.33-1.08-10.66-1-16,0-4.46,2.81-7.51,6.89-9.17A20,20,0,0,1,1059.3,176.88Zm3,4.86-.85.27a21.59,21.59,0,0,1,.4,12.7c-.7,3-1.58,6.08-4.68,7.4-2,.87-4.4,1-6.59,1.56-1,.25-2.59.53-2.78,1.15-.85,2.71-1.29,5.54-2,9.18,4.52-.41,8.22-.71,11.92-1.09,4.75-.49,7.13-3.8,8.34-7.84a26.37,26.37,0,0,0-.91-16.86C1064.31,186,1063.26,183.89,1062.32,181.74Zm-80.18,98.78a15.38,15.38,0,0,0,3.5-1.11,2.46,2.46,0,0,0,1-2.11c-1.06-4-2.27-7.93-3.54-11.85-.19-.6-.93-1.41-1.47-1.46-2.56-.2-6.72,2.53-7.77,4.88C971.34,274.46,975.53,280.26,982.14,280.52Zm-26-38.09-.5-.39c-1,1.3-2,2.63-3.15,3.89-1.29,1.47-2.52,2.8-4.93,2.26-5.3-1.18-9,4.05-9.79,7.74-.54,2.5.81,5.32,2.89,5.76a9.19,9.19,0,0,0,8.45-2.53,6,6,0,0,0,1.36-7.14,2.47,2.47,0,0,1,.6-3.06C952.87,246.88,954.46,244.62,956.14,242.43ZM972.66,268a12.39,12.39,0,0,1,8.48-4.77,1.75,1.75,0,0,0,1.21-1.08,5.77,5.77,0,0,0-3.28-5.7c-1.16-.47-2.36-.86-3.47-1.42a5.39,5.39,0,0,1-3.29-5.2c0-2.63,1.78-4.05,3.19-5.76,1.55-1.89,1.5-2.41-.76-3.34-2-.84-4.15-1.55-6.81-2.53C972.32,248,973,257.84,972.66,268Zm-1.43-9.83c.06,4.76-1.89,8.26-6.05,10.43a41.07,41.07,0,0,1-4.65,2.2c-1.46.54-2,1.29-.94,2.56,2.25,2.62,4.6,5.16,6.9,7.71C970.6,277.5,972.38,263.91,971.23,258.12Zm86.77-86.8c2,4,3.53,7.34,5.39,10.52A34.92,34.92,0,0,1,1068,201c2-5.94,2.85-12,1-18.14C1067.37,177.52,1063.77,173.84,1058,171.32ZM866.62,236.93c.14,0,.69,0,1.23-.06,3.77-.33,5.72-2.24,5.13-6-.15-1-2.78-1.76-4.39-2.18-1-.27-2.3.22-3.41.52-2.31.63-3.24,2.12-2.86,4.37C862.83,236.68,863.16,237,866.62,236.93Zm22.8-45.21c-1.65,9.05-3.33,18.23-5,27.4C887.73,213.94,891,193.37,889.42,191.72ZM1018.92,77l-.11-.48c-2.72,0-5.44-.12-8.14.06a8.24,8.24,0,0,0-3.72,1.25c-.48.29-.65,1.61-.43,2.3s1.32,1.41,1.72,1.26C1011.84,80,1015.37,78.45,1018.92,77Zm-81.19,44.71,9.36,16.46C945.59,131.68,943.16,125.76,937.73,121.67ZM893,264.81c.22,1.33.08,2.33.51,2.76,3,2.9,6,5.68,9.38,8.79C902.35,273.64,897,267.35,893,264.81Zm88.6-172.18.53.92,19.5-9.4-.5-1ZM891.48,200.39c3.8-7,4.28-8.4-2.29-13.2,1.39,2.16,3.22,3.85,3.53,5.79C893.06,195.13,892,197.5,891.48,200.39Zm75.28,39.46.51-.38-5.08-7-3.25,5.35.56.34a9.4,9.4,0,0,0,.92-1.28c1-1.92,2.08-1.66,3.33-.28C964.74,237.71,965.75,238.77,966.76,239.85Zm68,103.33.8-.28c.4-1.42.8-2.83,1.18-4.19-2.37-1.36-3.4.31-3.86,1.73C1032.71,341.09,1034.13,342.25,1034.8,343.18Zm-152-118.72-8.77,5.61C877.55,229.06,881,227.94,882.84,224.46Zm7-77.05-6.23-4.24C885,145.53,886.48,147.73,889.82,147.41Z"/><path class="cls-1" d="M1210.93,382.57c-.28-.68-.59-1.35-.83-2-4-11.23-7.77-22.55-12.07-33.66-3.58-9.28-10.32-16.39-17.26-23.26l-.6.22c.43,1.36.78,2.76,1.33,4.08a63.07,63.07,0,0,0,10.19,16.48,23.81,23.81,0,0,1,3.55,5.46c2.22,5,0,9-3.14,12.86a24.45,24.45,0,0,1-17.08,9.08c-7.57.83-15.11,1.88-22.66,2.85-7.25.93-14.54,1.61-21.72,2.89s-14.27,2.65-20.76,6.29c-8.07,4.52-13.78,11.21-18.12,19.15-1.78,3.26-3,6.86-4.42,10.29a7.94,7.94,0,0,1-.92,1.28l-.57-.22c.62-1.91,1.14-3.87,1.9-5.73,4.14-10.22,8.26-20.45,12.58-30.6a153.31,153.31,0,0,1,6.75-13.89c1.84-3.35,5.27-4.77,8.86-5.58,2.37-.54,4.79-.86,7.2-1.2A172.72,172.72,0,0,1,1161.3,356c8.08.66,16.21.82,24.31,1,1.37,0,2.75-.91,4.13-1.4-1.32-.78-2.57-2.07-4-2.27a96.39,96.39,0,0,0-13.85-1.28c-10.47,0-20.94.51-31.42.65a29.6,29.6,0,0,1-6.7-1c-.72-.16-1.3-1-1.94-1.5.6-.56,1.12-1.47,1.8-1.62,4.83-1,9.7-1.87,14.54-2.87,7.84-1.63,15.66-3.35,22.44-8a9,9,0,0,0,1.3-1c1.39-1.34,3-3,1.93-4.84-.59-1-2.86-1.53-4.29-1.39-7.1.69-14.22,1.38-21.23,2.64-9.64,1.73-19.17,4-28.76,6-4.82,1-9.71,1.68-14.51,2.77-4,.9-7.82,2.2-11.72,3.31-.7.2-1.41.35-2.12.53l-.2-.64a15.25,15.25,0,0,1,2-.81c5.62-1.36,11.23-2.72,16.87-4,6.27-1.42,12.54-2.84,18.84-4.13,9.84-2,19.69-4,29.57-5.82a86.4,86.4,0,0,1,10.8-1,12.31,12.31,0,0,1,4.13.69c2.09.65,2.71,2.26,1.77,4.26-1.76,3.74-5.19,5.57-8.69,7.13a85,85,0,0,1-24.46,6.29c-2.89.35-5.72,1.23-8.58,1.86v.84a10.61,10.61,0,0,0,2.67.93c3.61.24,7.24.47,10.86.45,10.64-.06,21.28-.35,31.91-.28,3.11,0,6.21.83,9.29,1.42a5.37,5.37,0,0,1,2.2,1.28c1.36,1.16,1.13,2.69-.58,3.16a17.76,17.76,0,0,1-5.53.95c-10.85-.55-21.68-1.45-32.53-1.85a149.74,149.74,0,0,0-16.93.66c-4.85.37-9.66,1.27-14.51,1.69-7.76.67-12.77,4.6-15.57,11.85-3,7.8-6.4,15.45-9.6,23.16a3.12,3.12,0,0,0-.16,2.05c2-2.15,4-4.35,6-6.44,6-6.07,13.4-9.27,21.61-11.14,13.78-3.13,27.85-4,41.81-5.77a90.91,90.91,0,0,0,19-4.07c5.81-2.07,9.76-7,11.71-12.94,1.19-3.62-1-6.79-3.23-9.41a64.47,64.47,0,0,1-11.44-18.36c-.67-1.75-1.31-3.51-1.85-5.3s-1.65-2.07-3.27-1.63c-8.54,2.32-17.06,4.68-25.62,6.91s-17,4.38-25.51,6.39c-5.72,1.34-11.51,2.4-17.28,3.51-4.08.79-8.17,1.5-12.27,2.17a9.62,9.62,0,0,1-3.8-.16c29.6-4.6,58.35-12.77,87.08-20.4a58.29,58.29,0,0,0,3.46-22.41c-.24-7.68-2.07-15-4.09-22.49.34.29.88.53,1,.89,2.43,7.83,4.25,15.76,4.33,24a58.87,58.87,0,0,1-3,18.29,4.17,4.17,0,0,0,1.29,4.82c5.79,5.38,11.3,11.11,15.09,18.07a138.49,138.49,0,0,1,7.77,17.57c2.82,7.46,5.17,15.1,7.7,22.67a11.49,11.49,0,0,1,.33,1.75Z"/><path class="cls-1" d="M965.3,409c9.58-27,15-55,20-83.4,2.15.15,4.09.34,6,.41,3.67.13,7.35.32,11,.25,3.36-.07,3.79.33,3.18,3.55-1.36,7.17-2.66,14.34-3.95,21.52a10.74,10.74,0,0,0,.12,2.06c2.22-6.06,4.17-11.61,6.26-17.1,2.53-6.69,7.11-11.19,14.27-12.55a5.14,5.14,0,0,1,3.67,1.15,64.18,64.18,0,0,1,6.78,6.41c1.54,1.68,1.09,2.73-1.13,3.23-3.82.87-7.67,1.58-11.47,2.52-5.77,1.44-8.49,4.72-7.6,10.56,2.22,14.64,1.56,29.41,2.68,44.09.41,5.4,1.16,10.77,1.76,16.15l-.61.17a35.59,35.59,0,0,1-1.07-5.12c-.63-10-1.08-20-1.71-29.95-.45-7-1.12-14-1.63-20.94a54.45,54.45,0,0,1-.29-7.54c.32-4.87,3.14-7.09,9-8.71,1.89-.52,3.81-.92,5.73-1.31s3.82-.7,6.07-1.11a9.84,9.84,0,0,0-.89-1.94c-.67-.87-1.45-1.64-2.19-2.45-5.8-6.27-9.76-4.86-15.83.42-3.86,3.36-5.21,8.3-6.83,12.91-2.47,7-4.8,14.06-6.75,21.22-2.78,10.28-5.21,20.66-7.7,31-1.51,6.25-2.83,12.55-4.28,18.82-.1.46-.54.84-1.3,1.08.56-2.79,1.07-5.6,1.69-8.38q3.43-15.51,6.92-31c1.75-7.81,3.6-15.6,5.2-23.44,1.53-7.54,2.76-15.14,4.2-22.7.26-1.38-.29-1.85-1.46-1.65a41.33,41.33,0,0,1-15.47-.72c-.49-.11-1.66.87-1.79,1.49-1.26,6-2.33,12-3.5,18-1.27,6.55-2.66,13.08-3.87,19.64-2.37,12.91-6.54,25.33-10.13,37.91-.64,2.26-1,4.6-1.8,6.81a29.92,29.92,0,0,1-2.29,4.28l-.92-.35c.26-2.19.5-4.38.76-6.57,1.61-13.67,3.93-27.3,4.63-41,.62-12-.61-24.1-.92-36.15-.14-5.34,0-10.69.3-16.06.44,10.42,1.08,20.84,1.28,31.26.2,10.63.5,21.3-.21,31.89S966.69,398.59,965.3,409Z"/><path class="cls-1" d="M1087.93,77.58c2.07,1.11,4.22,2.08,6.18,3.35,8.89,5.78,17.11,12.33,23.65,20.81a79.62,79.62,0,0,1,13.69,26.75q3.83,13.33,6.91,26.86c1.94,8.56,3.3,17.26,5.11,25.86,4.28,20.24,10.13,40,19,58.74,4.3,9.09,8.38,18.29,12.54,27.44.35.76.62,1.55.93,2.32l-.53.27c-.71-1.36-1.5-2.69-2.14-4.08-4.57-9.89-9.16-19.78-13.65-29.71A205.39,205.39,0,0,1,1148,203.57c-2.63-10.07-4.87-20.26-7.15-30.42-2.91-12.94-5.37-26-8.59-38.83A83.91,83.91,0,0,0,1116,101.13c-7.51-9.17-16.72-16.2-27-21.91-.46-.26-.88-.56-1.33-.84Z"/><path class="cls-1" d="M945.66,329.5c-3.19,28-6.38,55.92-9.62,84.29,3.49,0,6.53.07,9.57-.08.43,0,1.07-1.07,1.18-1.72,1.55-9,2.93-18,4.54-27,1.06-5.95,2.64-11.81,3.6-17.77,1.32-8.23,2.39-16.5,3.34-24.78.71-6.18,1-12.4,1.56-18.6,0-.38.32-.75,1.07-1.09a14.93,14.93,0,0,1,.09,2.31c-1.3,12-2.44,24-4,35.9-1,7.22-2.78,14.33-4.06,21.52-1.62,9.05-3.08,18.13-4.62,27.19a23,23,0,0,1-.82,3.91,2.32,2.32,0,0,1-1.62,1.33c-3,.13-6,.06-9,.07-1.52,0-1.55-1-1.44-2.1.9-8.62,1.76-17.23,2.66-25.85,1.08-10.33,2.11-20.67,3.29-31,.66-5.71,1.59-11.38,2.42-17.06.37-2.57.8-5.12,1.24-7.68.11-.64.34-1.26.51-1.9Z"/><path class="cls-1" d="M1051,413c3.82-2.11,7.77-4,11.43-6.37q11.61-7.5,22.93-15.42a34.56,34.56,0,0,0,5.6-5.61,8,8,0,0,0,1.81-8.36c-1.81-4.89-4-9.66-6-14.47-.34-.8-.76-1.57-1.14-2.35l.73-.38c1,1.78,2.07,3.51,2.91,5.35,1.41,3.13,2.76,6.29,4,9.5,2.26,6.18-.16,10.89-4.75,15-7.34,6.63-15.64,11.86-24.14,16.8-4.45,2.59-9,5-13.54,7.44-.4.22-.86.34-2,.78,2.82-12.6,5.54-24.7,8.25-36.79l1,.21q-3.82,17.08-7.64,34.19Z"/><path class="cls-1" d="M1086.39,348.13c-6.44,2.13-2.84,5.77-1.64,9.12-1.91-.75-3.56-4.65-3-6.64A4.09,4.09,0,0,1,1086.39,348.13Z"/><path class="cls-1" d="M1031.48,121.61q-1.37-3.81-2.74-7.63l.84-.32,2.84,7.59Z"/><path class="cls-1" d="M1060.64,368.9c-.63,2-1.27,4-1.9,6l-.78-.25c.58-2,1.17-4,1.75-6Z"/><path class="cls-1" d="M1018.1,409.86c.44-2.13.87-4.26,1.31-6.39l.69.07c-.31,2.12-.61,4.25-.92,6.38Z"/><path class="cls-1" d="M1084.67,77l-6-2.59.37-.83,6,2.6Z"/><path class="cls-1" d="M1087.69,340.2l-4.55.23-.07-.86,4.54-.38C1087.63,339.53,1087.66,339.86,1087.69,340.2Z"/><path class="cls-1" d="M1018.92,77c-3.55,1.49-7.08,3-10.68,4.39-.4.15-1.54-.69-1.72-1.26s0-2,.43-2.3a8.24,8.24,0,0,1,3.72-1.25c2.7-.18,5.42-.06,8.14-.06Z"/><path class="cls-1" d="M937.73,121.67c5.43,4.09,7.86,10,9.36,16.46Z"/><path class="cls-1" d="M981.56,92.63l19.53-9.51.5,1-19.5,9.4Z"/><path class="cls-1" d="M891.48,200.39c.55-2.89,1.58-5.26,1.24-7.41-.31-1.94-2.14-3.63-3.53-5.79C895.76,192,895.28,193.43,891.48,200.39Z"/><path class="cls-1" d="M966.76,239.85c-1-1.08-2-2.14-3-3.23-1.25-1.38-2.35-1.64-3.33.28a9.4,9.4,0,0,1-.92,1.28l-.56-.34,3.25-5.35,5.08,7Z"/><path class="cls-1" d="M1034.8,343.18c-.67-.93-2.09-2.09-1.88-2.74.46-1.42,1.49-3.09,3.86-1.73-.38,1.36-.78,2.77-1.18,4.19Z"/><path class="cls-1" d="M882.84,224.46c-1.88,3.48-5.29,4.6-8.77,5.61Z"/><path class="cls-1" d="M889.82,147.41c-3.34.32-4.83-1.88-6.23-4.24Z"/><rect class="cls-3" y="266" width="1279" height="259"/></g></g></svg>