<svg xmlns="http://www.w3.org/2000/svg" viewBox="0 0 292.78 394.64"><defs><style>.cls-1{fill:#00354f;}</style></defs><title>Asset 2</title><g id="Layer_2" data-name="Layer 2"><g id="Layer_1-2" data-name="Layer 1"><path class="cls-1" d="M245.17,394.54H234.86l-.18-.9c6-2.19,12.53-2.72,18.6-5.17-.43-2.58,1.09-2.73,3.19-3,6.61-.72,13.46-.73,19.41-4.3,5.66-3.39,11-7.31,14.89-12.74,1.68-2.32,1.3-3.44-1.56-5.19-1.45,6.78-6.74,10.06-12,13.43A31.23,31.23,0,0,1,259.79,382c-2.91,0-5.87,1.26-8.73,2.17-4.44,1.4-8.81,3.05-13.24,4.47-1.31.42-2.4.56-2.62,2.36-.14,1.1-1.19,2.09-2.16,3.66H230.1m-9.41-1.3h11.64c-1.4-5-2.66-9.46-3.89-13.94-1.06-3.84-.57-7.31,2.31-10.32a4.55,4.55,0,0,0,.87-2.66c.16-2.14.15-4.3.18-6.45,0-1.43.58-2.28,2.13-1.87,4.64,1.25,9.14.61,13.68-.63,1.45-.4,2.23-1,2.34-2.36.19-2.3.32-4.6.53-7.59-1.59,1-2.7,1.59-3.67,2.35a43.48,43.48,0,0,1-14.39,7.37c-1.76.53-3.29,1.86-5.32,3.06-1.54-3.2-3.75-6.7-5-10.52-3.2-9.94-6.09-20-8.87-30-2.34-8.49-4.28-17.09-6.54-25.6a19.44,19.44,0,0,0-2.52-5.77c-1.71-2.56-2-4.93.07-7.47a9.4,9.4,0,0,1-1.74-1c-.66-.64-1.82-1.51-1.73-2.1.85-5.13-2.06-8.6-5-12.05q-16.38-19-32.77-38a51.6,51.6,0,0,1-3.07-4.57c-1.07.91-2.7,1.77-3.55,3.12-7.53,12-14.79,24.17-22.39,36.12-5.19,8.15-10.77,16.05-16.23,24-2.45,3.58-6,5.1-10.28,5.35-7.68.45-15.09-1.24-22.52-2.74-9-1.83-18-3.81-27.08-5.47a60,60,0,0,0-10.39-.74c-9.11,0-15.48-4.28-19.2-12.45a69.3,69.3,0,0,1-3.22-9.25c-1.13-3.81-3.74-6.56-9.58-9.29-.5,3.09-.79,6.08-1.47,9-1.71,7.27,2.55,11.89,7.23,16.12,2.24,2,5.17,3.33,7.87,4.81.43.24,1.36-.12,1.9-.46a6.86,6.86,0,0,0,1.35-1.52l.63.36c-.78,1.82-1.46,3.69-2.36,5.44-1.91,3.7-4.13,7.25-5.87,11a37.91,37.91,0,0,0-3.14,15.16c-.06,2.9-1.19,4.84-3.72,5.7-2.84,1-6.14.17-7.64-2-2.64-3.8-3.21-8.28-3.55-12.7-.54-7.17-.78-14.37-1.12-21.56-.06-1.4-.75-2.13-1.7-3.17-1.35-1.5-1.88-3.88-2.38-6-.64-2.73-.86-5.55-1.34-8.32-1-5.88,2.67-11.53,9-13.48,2-.6,4-2,6.07-.26a1.07,1.07,0,0,0,1,.05c4.29-2,8.16.52,12.21,1.07a6.11,6.11,0,0,0,1.7.08c5.62-.81,11.21-2.15,16.84-2.38,15-.63,29.95-.8,44.92-1.12,2.63-.06,3.28.82,2.42,3.29A32.43,32.43,0,0,1,92.16,256c-1.06,1.94-2.41,3.77.17,5,2.57-5.75,5.34-11.69,7.9-17.72,3.89-9.19,7.65-18.45,11.45-27.69,1.19-2.87,2.4-5.74,3.48-8.65.58-1.6.91-3.29,1.41-5.14-3.45-1.17-6.62-2.23-9.78-3.33q-7.1-2.47-14.18-5a6.23,6.23,0,0,1-4.11-4.29c-.92-3.17-1.73-6.38-2.59-9.58l.83-.59c1.74.59,3.53,1,5.19,1.77q12.24,5.5,24.42,11.14c2,.93,3.41.8,4.6-1.44,5.27-9.89,10.73-19.68,16-29.54,1.82-3.39,3.42-6.89,5.1-10.35.38-.78.65-1.61,1-2.41l-.58-.32c-1.82,3-3.66,5.94-5.47,8.93-5.92,9.8-11.87,19.58-17.72,29.43-1,1.73-2.41,2.33-4.13,1.85a105.55,105.55,0,0,1-11.75-3.73c-4.84-2-9.47-4.52-14.22-6.77-1.57-.75-1.77-1.83-.93-3.19q12.41-20.2,24.81-40.38c1.37-2.23,3.28-2.74,5.74-2.18,5.22,1.17,10.47,2.24,15.71,3.3a1.41,1.41,0,0,0,1.21-.43,1.5,1.5,0,0,0,0-1.38c-3.07-4.21-2.09-9.33-3.19-14-.06-.24,0-.51,0-.74-2.22-10.38,2.51-18.64,7.91-26.8,3.52-5.33,6.42-11.06,10-16.36,5.56-8.28,12.3-15.47,20.87-20.77A3.06,3.06,0,0,1,172.9,54c3.13.19,4.18-2,5.2-4.32.5-1.16.25-3.19,2.63-2.71.19,0,.77-1.31,1-2.07,1.07-3.51-1.13-6.32-2.1-9.4-1.66-5.31-4.48-10.43-3.7-16.21a54.36,54.36,0,0,1,2.74-11c.44-1.24,2.35-2,3.67-2.86.67-.43,1.79-.38,2.24-.93C188.43-.2,193.81-.06,199.09,0c3.36.06,6.72.7,10.09.86A48.65,48.65,0,0,0,214.8.45a11.05,11.05,0,0,1,3.4,0c.3.07.23,1.58.39,2.91.59.13,1.7.31,2.77.63a15.25,15.25,0,0,1,2.1,1c-.46.59-.89,1.22-1.4,1.76a4,4,0,0,1-1,.6c-.31,2.55,6,4.87.34,7.37.62,3.4,1.29,6.79,1.81,10.19a4.3,4.3,0,0,1-.37,2.61,5.15,5.15,0,0,0,.53,6.4,20.08,20.08,0,0,1,1.54,2.23c1.39,2.32,1.18,2.91-1.31,4.12a2.58,2.58,0,0,0-1.1.83c-.72,1.15-1.34,2.37-1.7,3-.11,1.41-.16,2.4-.25,3.39a17.34,17.34,0,0,0-.36,4.2c.48,2.86-.11,4.44-2.94,5.28a28.49,28.49,0,0,1-6.79,1.16c-2,.1-2.9.78-2.81,2.79.15,3.36-.13,6.68,1.87,9.82.84,1.32.24,3.51.48,5.27.55,4.18,1.26,8.33,1.82,12.5a46.21,46.21,0,0,1-1,18,7.08,7.08,0,0,0,0,1.52c4.54-.72,8.89-1.47,13.26-2.1,4.88-.69,9.77-1.26,14.65-1.91a3.5,3.5,0,0,0,1.05-.38l7.2-3.38a.62.62,0,0,1,.48,0c3.55,2.34,4.27-1,5.63-2.86,2.55-3.47,4.17-7.71,8.09-10,2.63-1.54,5.28-2.76,8.54-1.08,1.09.56,2.93-.38,4.44-.61.87-.13,2.37-.55,2.54-.26,1.51,2.75,5.53,3.57,5.61,7.44.05,2.49.8,5,.59,7.44a6.18,6.18,0,0,1-3.92,5.22c-5.37,2.28-10.69,4.66-16.06,6.92a26.06,26.06,0,0,1-5.4,1.71c-2,.34-3.3.56-4.07,3-.38,1.18-3.3,1.84-5.16,2.15s-2.92.81-3.45,2.54c-.63,2-2.42,2.85-4.15,3.35-7.5,2.19-15,4.23-22.57,6.3q-10,2.75-20,5.43c-4.45,1.19-8.71,1.37-12.36-3.21l-3.16,6.75c4-.48,7.33-.81,10.66-1.3,4.75-.7,5.57-.27,4.79,4.35-.61,3.65-2.24,7.13-3.48,10.66-1.69,4.8-3.51,9.55-5.12,14.37a8.54,8.54,0,0,0-.07,3.67c.17,1.37.93,2.34,2.53,1.86,2.46-.74,3.11.51,3.1,2.65a4.41,4.41,0,0,0,.75,2.69c.27-2.07.51-4.15.82-6.21,1-6.68,1.57-13.46,3.2-20,1.21-4.85,3.76-9.36,5.86-14,.4-.88,1.44-1.46,2.5-2.48,1.14,4.17-.77,7.11-1.59,10.21-1.59,5.95-3.68,11.79-4.83,17.81-.59,3.1.43,6.49.59,9.75a9,9,0,0,1-.46,3.78,12.22,12.22,0,0,1-2.62,4.4c-3.09,2.88-2.31,5.55-.57,8.83,6.78,12.77,13.65,25.51,19.86,38.56,5.88,12.34,11.24,25,16.3,37.67,2.29,5.76,3.32,12,4.87,18.09,1.41,5.5,2.76,11,4.12,16.54a6.88,6.88,0,0,1,.38,1.93c-.36,7.65,2,14.85,3.76,22.13,1.86,7.51,3.94,15,5.93,22.45.63,2.38,1.29,4.76,2,7.45-.82.33-1.62.63-2.41,1s-2.35.63-2.59,1.29c-.31.85.32,2.06.69,3.79,2.57-3.81,5.27-2.27,7.83-1.37,3.49,1.22,6.91,2.64,10.39,3.89,5.26,1.91,10.06.55,14.64-2.19a5.71,5.71,0,0,1,7.24.82c1.58,1.75,1.44,3.89-.67,6.42-5,6-10.82,11.05-18.05,13.75-4.69,1.75-10,1.86-15.05,2.63-1.57.24-3.35-.23-3.56,2.31,0,.56-1.45,1.2-2.33,1.47-2.9.89-5.86,1.62-9.52,2.62a13.72,13.72,0,0,0,2.05.5c2.73,0,5.47,0,8.2,0M177,67c-3.69-.66-7.3-2.34-11.39-.94,1,.16,1.85.34,2.67.39,2.92.19,5.86.34,8.78.5.37.46.63,1.15,1.1,1.33,3.49,1.36,5.31,4,6.58,7.42,3.52,9.44,7.23,18.81,11,28.44a6.74,6.74,0,0,0,.2-1.62c-1.1-6.58-2.32-13.14-3.32-19.73-.46-3-4.19-6.54,1-9,.07,0,0-.3,0-.65a14.85,14.85,0,0,1-2.83-.61c-.61-.26-1.47-1-1.48-1.46-.07-6.66-3.81-11.28-8.61-15.14-1.11-.89-3.88-1.39-4.67-.69-2.63,2.3-4.7,5.23-7.23,8.21C174,64.72,178.93,64,183,67.15a4.43,4.43,0,0,1-2.67.77A21.69,21.69,0,0,1,177,67Zm3.24,116.23c-3.34-.42-6.39-.67-9.38-1.22s-6-1.39-9.22-2.18c-2.48,3.4-5.35,7.37-8.25,11.32-2.61,3.54-5.84,6-10.49,5.84a10.65,10.65,0,0,1-2.41-.65l.06-.84c4.21,1.65,5.93-2.07,9.13-4.28l-1.25,2.89a49.37,49.37,0,0,0,13.08-17.68c.76.81,1.44,2,2.47,2.52,2.06,1,4.3,2,6.48,2.08,4,.08,8.33,2.7,12.06-1.07a3.76,3.76,0,0,1,2.31-.75c1.62-.12,3.27,0,5.28,0L189,175.43a49.19,49.19,0,0,1-20.84-3.49c6.73,1.2,13.37,3.15,20,2.12.3-2.73.17-5.2.89-7.39,1.65-5,3.78-9.94,5.58-14.94a86.53,86.53,0,0,0,2.72-8.92c.43-1.77-.12-3.07-2.5-2.69-3.24.51-6.52.81-9.79,1.15-2.18.23-3.36,1.4-4.32,3.39-3.09,6.45-6.43,12.78-9.68,19.18a4.49,4.49,0,0,1-.64-.4c3.28-6.66,6.58-13.32,9.93-20.09-6.62-.09-21.15,12.1-20.85,17.63l6.21-2.79c1,2.39,0,5.83-2.79,8.78.95-2.74,1.67-4.83,2.5-7.24l-7,2.6-.61-.64a17.18,17.18,0,0,1,.72-3.15c3.07-7,9.23-10.77,15.53-14.06,4.33-2.26,8.42-4.11,9.93-9.41.78-2.78,1.51-2.73,4.06-.65,2.15,1.75,4.36,2.92,7.23,2.13,13.4-3.7,26.76-7.55,40.22-11,9.35-2.41,7.16-3,7.41-9.74.13-3.67-1.58-6.66-3.33-9.62a3.09,3.09,0,0,0-2.53-1c-3.67.4-7.32,1-11,1.58-7.38,1.16-14.75,2.41-22.14,3.51-5.31.78-5.24.67-3.27,6,.45,1.21.17,2.7.15,4.06,0,.12-.78.36-.8.32a21.33,21.33,0,0,1-1.7-3.46,35.51,35.51,0,0,1-.83-4.13c-1.85,3.2-2,6.89-5.57,9.76a19.38,19.38,0,0,1,0-3c.41-2,1-4,1.39-6,.52-2.86,1.95-6.08,1.15-8.56-3.16-9.83-7.2-19.37-10.59-29.13-1.75-5-5.29-7.31-10.17-7.93-3.49-.44-7.24-2.4-10.44.57a67.05,67.05,0,0,0-5.42,6.32c-.95,1.13-1.87,2.28-2.8,3.42l-.74-.39a6.16,6.16,0,0,1,.48-2.13c1.75-2.55,3.56-5.06,5.46-7.5s4.86-3,7-4.65c2.64-2,4.22-5.47,6.26-8.29a3.1,3.1,0,0,0-2.59.4C166,60.36,161,64.63,156.46,69.27c-2.32,2.35-4.85,5.19-5.6,8.22-1.35,5.48-1.44,11.27-2,16.94a1.57,1.57,0,0,0,.49,1.26c1.77,1,3.61,2,5.82,3.13-1-3-1.88-5.5-2.73-7.95l1-.54a10.54,10.54,0,0,1,1.63,1.72c2.69,4.59,4.93,9.5,8,13.77,5.89,8.06,12.26,15.78,18.47,23.6,1.15,1.45,1.4,2.5-.45,3.55-1.35.75-2.5,1.88-3.85,2.63q-9.24,5.13-18.56,10.12c-1.1.59-1.55,1-1.1,2.45a6.64,6.64,0,0,1-.06,4.34c-5.28,11.53-10.72,23-16.16,34.44a26.56,26.56,0,0,1-2.22,3.31c5.31-12.12,10.9-24,16.43-35.91,1-2.11,2.3-4.33.31-6.75-.77,5.18-22.69,50.12-25.28,51.56,2.89-5.85,5.72-11.5,8.48-17.19,5.08-10.44,10.21-20.85,15.07-31.39a9.36,9.36,0,0,0,.45-6.19c-1.06-3.4-3.08-4.1-6.44-3.19-.13,0-.31-.06-.46-.1-.42-1.06-1.08-2-1.93-2.26-8.23-2-16.5-3.88-24.75-5.81-4.33-1-5.88-.53-8.36,3.14-3.21,4.75-6.4,9.52-9.36,14.43-4.65,7.71-9.09,15.53-13.62,23.3-.73,1.24-.88,2.32.6,3.11a123.93,123.93,0,0,0,25,10.19,2.89,2.89,0,0,0,2.43-1q3-4.17,5.68-8.59c6.07-10.09,12-20.24,18.12-30.33,1.08-1.8,2.46-3.42,3.7-5.12l.94.51a18.2,18.2,0,0,1-.87,3.14c-2.74,5.83-5.36,11.72-8.38,17.41-5.12,9.67-10.54,19.2-15.77,28.82-1,1.86-2.32,2.1-4.09,1.28-6.92-3.19-13.83-6.4-20.78-9.53-2.72-1.23-5.52-2.26-8.53-3.48a18.69,18.69,0,0,0,2.55,10.07,3.8,3.8,0,0,0,1.77,1.59c2.65,1.12,5.33,2.19,8.06,3.09,6.78,2.24,13.57,4.47,20.41,6.53,3.09.94,6.32,3.29,9.61-.68-.88,5.45-4.62,2.54-7.07,3.17,2.81,1.09,5.4,3.16,8.57.21-1.2,3-2.19,3.36-5.24,2.29-2.49-.87-5-1.83-7.48-2.53a2.27,2.27,0,0,0-2,.93c-1.85,4.37-3.48,8.84-5.29,13.23q-6.24,15.23-12.58,30.4c-2.43,5.83-6.5,11.15-5.46,18,.09.55-.48,1.19-.77,1.84-2.25-2.1.44-6.42-4.36-7,1.84-4.18,3.58-8.16,5.43-12.38a22.59,22.59,0,0,0-2.43-.26c-16.46.43-32.92.84-49.37,1.33a26.63,26.63,0,0,0-7.38.82,17.57,17.57,0,0,1-11.84-.12c-1.55-.55-3.38-.3-5.7-.46.67,1,.78,1.38,1,1.5,5.09,2.6,7.34,6.91,8.74,12.36,1.31,5.11,3.69,10,8.13,13.48,4.19,3.26,9,3.95,14.19,4.09,11.7.33,22.93,3.63,34.35,5.78,6.64,1.24,13.32,2.34,20,3.12,6.5.76,11.64-1.63,15.25-7.36q15.66-24.86,31.54-49.59c2.94-4.57,4.42-10.51,10.37-12.4a15.85,15.85,0,0,1,2.38-5.26c3.84-5.17,7.84-10.22,11.75-15.34a2.69,2.69,0,0,0,.29-1.13,52.4,52.4,0,0,1,1.23-6.4C177.54,189.94,178.91,186.71,180.24,183.22ZM191,217.89l.23,1.13a53.42,53.42,0,0,1-5.55,1.11c-7.07.7-14.15,1.21-21.21,2-2.75.29-3.26,1.85-1.47,4,2.09,2.52,4.28,5,6.41,7.46,9.81,11.46,19.58,23,29.44,34.38a11.05,11.05,0,0,1,3,8.55,3,3,0,0,0,1.33,2.42c1.82.93,1.89,2,1.4,3.8a8.5,8.5,0,0,0,.41,4.55c.63,1.91,2,3.59,2.53,5.52,2.58,9.61,4.93,19.29,7.48,28.92q2.63,9.89,5.59,19.7c1.76,5.87,3.3,11.86,7,17,1.35-.76,2.62-1.9,4.08-2.22a36.68,36.68,0,0,0,14.84-7.46c1.12-.88,2.75-1.11,4.14-1.65a41.09,41.09,0,0,1,.69,4.89,36.14,36.14,0,0,1-.44,4.76l3.68-1c-1.59-5.95-3.2-11.73-4.67-17.54-3-11.64-6.85-23.1-7.15-35.3a17.27,17.27,0,0,0-.91-3.58c-1.18-4.71-2.27-9.43-3.54-14.11-1.81-6.65-3.32-13.42-5.72-19.86-3.21-8.57-7.07-16.9-10.81-25.26-3.84-8.6-7.67-17.21-11.85-25.64-3.52-7.09-7.54-13.92-11.35-20.87-1-1.76-1.94-3.53-3.09-5.6-1.38,4.12-2,8.19-5.59,10.16-8.05,4.36-13.69,11.36-20,17.58-.06.06,0,.28.07.57,6.53-3.33,12-8.32,18.57-11.56l.69,1-17.36,13.23.43.81Zm2.35-182.46-.83.37-2.41-2.64c-.86,1.3-1.38,3-2.51,3.64-3.91,2.09-4.41,5.71-5.21,9.44-.32,1.52-.13,2.2,1.06,3,5.35,3.47,10.71,6.94,16,10.55,2.45,1.68,4.68,3.68,7.16,5.67,0-1.16,0-2.58,0-4,0-3.47.93-4.35,4.35-4.52,1.81-.09,3.62-.34,5.41-.6,2-.31,2.92-1.46,2.76-3.59s0-4.27,0-6.41c.13-.52-.54-.85-1-1.35-.28-.28-.3-.83-.44-1.26,3-.06,3.56-2.91,5.19-4.54.14-.15.49-.07.71-.18.46-.23.9-.52,1.47-.86a27.71,27.71,0,0,1-2.6-3.84c-.69-1.49-1.83-3.51-1.33-4.66,1.84-4.18.9-8.11-.25-12.06-.39-1.35-1.12-3.16-2.19-3.63a37.5,37.5,0,0,0-8.71-2.52c-2.47-.43-2.91.35-2.32,2.81.63,2.62.12,4.19-2.34,5-3.22,1-4.21,3.11-4.07,6.17a7.2,7.2,0,0,1-.1,2.46,9.6,9.6,0,0,1-1.35,2.08A8.26,8.26,0,0,1,198.15,28c-.58-1.43-.68-3.09-1.44-4.4-1.21-2.08-3.35-1.76-5.25-1.18-1.7.52-2.14,2-1.71,3.6a53.33,53.33,0,0,0,1.88,5.32C192.15,32.73,192.76,34.08,193.33,35.43ZM1.37,264.2c.43,2.51,1.11,6.83,2,11.12a3,3,0,0,0,1.5,2c1.46.43,1.67,1.3,1.71,2.58.25,6.61.26,13.26.93,19.83a83.67,83.67,0,0,0,3,14c.66,2.39,4,3.77,6.07,3.21,2.86-.76,3.88-2.55,4.24-5.52.55-4.55,1.07-9.21,2.52-13.52,1.39-4.13,3.93-7.87,6-11.76.8-1.5.73-2.53-1-3.39a43.36,43.36,0,0,1-6.68-4,27.37,27.37,0,0,1-5-5c-1.71-2.23-4.09-4.25-3.9-7.47.21-3.47.56-6.92.81-10.38.13-1.74.2-3.48.3-5.22a39.84,39.84,0,0,0-4.91,1C3.88,253.23,1.21,257.12,1.37,264.2ZM235.24,388.81c5.67-2.15,10.54-4.06,15.45-5.84a34.86,34.86,0,0,1,6.4-1.75c3.33-.53,6.8-.41,10.07-1.16,6.39-1.47,11.55-5.39,16.56-9.38,1.5-1.2,2.43-3.12,3.62-4.71l-.41-.53c-1.39.34-2.78.66-4.16,1-10.07,2.53-20,3.33-29.47-2.24-.31-.19-1.14.38-1.66.7-1.84,1.15-3.52,3-5.5,3.39a70.66,70.66,0,0,1-11,1c-1.33.08-2.33.17-2.11,1.87C233.73,376.75,234.42,382.3,235.24,388.81Zm-86.4-292a13.34,13.34,0,0,0-.44,1.85c-.11,2.23-.23,4.46-.28,6.69-.12,5.08-.12,5,4.63,3.67a10.93,10.93,0,0,1,3,0,21.23,21.23,0,0,1-1.18,2.82,18.64,18.64,0,0,1-1.61,1.86c-5.13,6.61-10.24,13.24-15.32,19.81.33.39.42.58.54.62.4.1.81.15,1.21.21,4.18.61,7.95-.51,11.64-2.45,3-1.58,6.18-3,10.23-2.52-1.17,3.85-5.21,4.7-6.87,7.66,6-3.25,11.87-6.68,17.7-10.17,2.79-1.67,3-2,1-4.47-4.3-5.26-8.67-10.47-13.3-15.43C156.53,103.5,152.78,100.47,148.84,96.85ZM267,87.16l-.25-.68c-.93.2-1.88.33-2.78.62-3.81,1.23-5.69,4.47-7.76,7.53-1.75,2.59-3.54,5.17-5.27,7.69l3.59,11.15a19.73,19.73,0,0,0,4.47-.76c6.75-2.73,13.46-5.54,20.1-8.51,1.43-.64,2.75-1.91,2.32-3.89l-4.09.84-.22-.78a19.73,19.73,0,0,0,3.73-2.13c.64-.57.72-1.78,1.05-2.71a7.88,7.88,0,0,0-2.17-.33,30.75,30.75,0,0,0-3.74,1c.5-.7.59-1,.77-1,.78-.45,1.57-.89,2.39-1.27,2.71-1.28,2.8-1.8.75-3.81l-4.28,1.47-.34-.58a15.15,15.15,0,0,0,.95-1.28c.43-.71.81-1.47,1.21-2.21a11.06,11.06,0,0,0-2.54-.82,6.3,6.3,0,0,0-2.09.62l-8,2.52-.35-.81ZM181.79,36.5c0-.79,0-1.57,0-2.35-.25-5.45-.57-10.9-.77-16.34a5.6,5.6,0,0,1,4.28-5.95c11.6-3.46,23.2-5,34.65.64a11.44,11.44,0,0,0,2.58.56c-.2-3-5.71-5-.53-8.1l-6.22-.75L217,1.59c-3.61,0-7,.08-10.32,0-3.21-.09-6.43-.6-9.64-.51-4.37.12-8.85.29-11.81,4.41a2.33,2.33,0,0,1-1.51.64c-2.73.27-4.19,1.9-5.07,4.37C175.42,19.59,177.51,28.13,181.79,36.5ZM206.46,9.9c-6.45.14-13.27.39-19.87,2.44a6.28,6.28,0,0,0-4.75,6.91c.25,4.2.6,8.4.94,12.59.18,2.16.43,4.32.65,6.54,2.68-1.12,3.91-2.32,6.34-6.94.41-.79-.35-2.2-.6-3.32-.15-.64-.4-1.26-.53-1.9a4.33,4.33,0,0,1,2.79-5.11c2.94-.79,5.88.33,6.68,2.63.47,1.34.78,2.73,1.33,4.68a11.8,11.8,0,0,0,.6-2.48c-.16-4.05,1.2-7,5.42-8.18.63-.18,1.15-1.67,1.22-2.6A39,39,0,0,0,206.46,9.9Zm-69.9,122.51c3.32-8.16,6.12-15.92,7.25-24.21s2.42-16.4,3.64-24.6l-.67-.21c-3.75,6.31-7.56,12.6-11.21,19-1,1.74-2.27,3.78-2.17,5.62.41,7.47,1.28,14.91,2,22.36C135.51,130.94,136.05,131.49,136.56,132.41Zm64.55-59.52-.89-.79c1.05-1.68,2-3.43,3.18-5,1-1.38,1.18-2.33-.45-3.42C196,59,189.13,54.25,182.21,49.56c-1.75-1.19-2.62.57-3,1.48-.25.68.65,2.26,1.46,2.74,2.79,1.66,5.92,2.76,8.63,4.53,5.49,3.61,9.6,8.56,10.12,15.27.85,11.11,1.09,22.28,1.59,33.42,0,.7.07,1.4.11,2.1l.61.22a5.17,5.17,0,0,0,.88-1.48c.7-3.65,1.43-7.29,1.94-11,.7-5,1.4-10,1.72-15,.15-2.42.16-5.42-1.11-7.19-1.38-1.94-.91-2.84-.18-4.06l2.66,1.67c-.4-1.91-.64-3.06-1-4.73Zm-39,146.53.88.74c3.44-4.21,8.71-6.3,11.67-11.25,1.51-2.53,4.45-4.28,6.9-6.17,2.72-2.1,5.73-3.82,8.41-6,3.72-3,3.88-6.73,2.22-11-.74-1.9-1.27-3.21-3.7-2.73a16.37,16.37,0,0,1-4.69,0,2.62,2.62,0,0,0-3.12,2.05c-1.28,3.54-2.7,7-4,10.55a13.34,13.34,0,0,0-.26,2.72l9.29-8.11.81.6a9.93,9.93,0,0,1-1.17,2.65,31.58,31.58,0,0,1-3.38,3.15c-2.75,2.42-5.81,4.57-8.2,7.3-3.26,3.72-6,7.89-9,11.87ZM199.25,108.2a8.21,8.21,0,0,0,.48-1.49c-.29-10.24-.45-20.48-1-30.7a19.44,19.44,0,0,0-6.62-14.1c-2.6-2.3-5.23-4.58-9-5.92a5.15,5.15,0,0,0,.5,1,21.35,21.35,0,0,1,6.75,13.07c.09.63,1.4,1.25,2.25,1.6A39.42,39.42,0,0,0,197,72.86c-1.43,1-2.13,1.52-2.89,2-1.93,1.11-2.31,2.38-1.53,4.64a68.65,68.65,0,0,1,2.56,10.75c.86,5,1.38,10.13,2.2,15.18C197.51,106.24,198.41,107,199.25,108.2Zm-22.87,16.62a33.87,33.87,0,0,1-3.93,3.15q-9.19,5.4-18.52,10.59c-1.13.63-1.5,1-.59,2.15,1.23,1.49,2.31,3.09,3.5,4.7,1.7-.83,3.45-1.56,5.09-2.49,6-3.42,12.07-6.88,18-10.44a2.47,2.47,0,0,0,.72-2.28C179.37,128.26,177.77,126.51,176.38,124.82Zm56.51,235c-.1,1.94-.22,4.23-.33,6.52-.09,1.64.78,2.21,2.3,2.11,3.38-.23,6.8-.22,10.14-.72a7.71,7.71,0,0,0,6.19-4.35l-1.88-4.59Zm-29-251.42c4.46.6,5.41.27,6-2.12.42-1.84.71-3.72,1-5.59,1.28-8.93-.87-17.55-2.42-26.22-.09-.46-.8-.8-1.22-1.2-.19.48-.62,1-.53,1.44,1.36,7.12.29,14.12-.92,21.13C205.07,99.94,204.55,104.09,203.93,108.38Zm40.8,9.34c1.24-.78,2.77-2.22,4.59-2.82,3.69-1.24,4-1.53,3-5.35a23.94,23.94,0,0,0-.89-3.06c-1.57-3.74-1.63-3.7-5.36-2.43a15.74,15.74,0,0,1-3.39.45c-.76.08-1.53.1-1.87.12ZM196.39,184c3.13-2.43,5.33-6.85,4.66-9.84-1.64-7.23-.06-14,2.24-20.81,1.55-4.6,3-9.24,4.44-13.86l-.69-.2C198,152.8,198.32,168.57,196.39,184Zm-57.14-54.57,15.2-19.7c-1.13.33-1.52.45-1.91.55-5.13,1.32-5.75.81-5.48-4.58,0-.49.11-1,.11-1.48q0-5.16,0-10.32C145.24,106,144,118.15,139.25,129.44Zm20.25,1.34-.48-.72-17.51,6.41c6.1,2.73,7.66,2.6,13-1.49C156.19,133.64,157.82,132.18,159.5,130.78Zm72.13,239c-3.65,4.5-1.77,17.82,2.47,18.86C233.29,382.41,232.5,376.35,231.63,369.74Zm39.48-3c-3.57-1.41-7.12-2.87-10.71-4.22a31.25,31.25,0,0,0-5.18-1.49c-.52-.1-1.26.55-1.75,1-.15.14.06,1,.34,1.2C259.14,366.26,264.83,367.76,271.11,366.7ZM193.57,174.57l-3.24,1c1.17,4.12,2.3,8.09,3.42,12.07C195.77,183.21,193.37,179.14,193.57,174.57Zm-31.79-67.26.58-.16-4.71-7.89-2.26,1.13Zm20.84,74.38H191C188.5,179.71,183.77,179.91,182.62,181.69Zm10.81-64.08.78.19c.93-3.38,2.57-6.58,2.7-10.16l-.83-.2Q194.76,112.53,193.43,117.61Zm53.18.9c1.9-.43,3.61-.74,5.27-1.23.42-.12.76-.79.93-1.28.07-.2-.36-.76-.66-.86C251,114.76,247.29,116.92,246.61,118.51ZM165.3,220.25c3.95,1,5.56-1.22,6.91-3.89Z"/><path class="cls-1" d="M182.62,181.69c1.15-1.78,5.88-2,8.42,0Z"/><path class="cls-1" d="M193.43,117.61q1.32-5.08,2.65-10.17l.83.2c-.13,3.58-1.77,6.78-2.7,10.16Z"/><path class="cls-1" d="M246.61,118.51c.68-1.59,4.43-3.75,5.54-3.37.3.1.73.66.66.86-.17.49-.51,1.16-.93,1.28C250.22,117.77,248.51,118.08,246.61,118.51Z"/><path class="cls-1" d="M177.06,66.94c-2.92-.16-5.86-.31-8.78-.5-.82,0-1.62-.23-2.67-.39,4.09-1.4,7.7.28,11.4.93C177,67,177.06,66.94,177.06,66.94Z"/><path class="cls-1" d="M155.83,180.08l3.19-6,.82.43q-1.64,2.92-3.29,5.85Z"/><path class="cls-1" d="M150.06,189.94c1-1.62,2-3.23,3-4.85l.75.46-3,4.84Z"/></g></g></svg>